<?xml version="1.0" encoding="utf-8" standalone="no"?>
<!DOCTYPE svg PUBLIC "-//W3C//DTD SVG 1.1//EN"
  "http://www.w3.org/Graphics/SVG/1.1/DTD/svg11.dtd">
<!-- Created with matplotlib (http://matplotlib.org/) -->
<svg height="288pt" version="1.1" viewBox="0 0 432 288" width="432pt" xmlns="http://www.w3.org/2000/svg" xmlns:xlink="http://www.w3.org/1999/xlink">
 <defs>
  <style type="text/css">
*{stroke-linecap:butt;stroke-linejoin:round;stroke-miterlimit:100000;}
  </style>
 </defs>
 <g id="figure_1">
  <g id="patch_1">
   <path d="M 0 288 
L 432 288 
L 432 0 
L 0 0 
z
" style="fill:#ffffff;"/>
  </g>
  <g id="axes_1">
   <g id="patch_2">
    <path d="M 54 252 
L 388.8 252 
L 388.8 28.8 
L 54 28.8 
z
" style="fill:#e5e5e5;"/>
   </g>
   <g id="matplotlib.axis_1">
    <g id="xtick_1">
     <g id="line2d_1">
      <path clip-path="url(#pf8a0d56a4e)" d="M 79.753846 252 
L 79.753846 28.8 
" style="fill:none;stroke:#ffffff;stroke-linecap:square;stroke-width:0.5;"/>
     </g>
     <g id="line2d_2">
      <defs>
       <path d="M 0 0 
L 0 4 
" id="m0a9103324c" style="stroke:#555555;stroke-width:0.5;"/>
      </defs>
      <g>
       <use style="fill:#555555;stroke:#555555;stroke-width:0.5;" x="79.7538461538" xlink:href="#m0a9103324c" y="252.0"/>
      </g>
     </g>
     <g id="line2d_3">
      <defs>
       <path d="M 0 0 
L 0 -4 
" id="m00a65edc3e" style="stroke:#555555;stroke-width:0.5;"/>
      </defs>
      <g>
       <use style="fill:#555555;stroke:#555555;stroke-width:0.5;" x="79.7538461538" xlink:href="#m00a65edc3e" y="28.8"/>
      </g>
     </g>
     <g id="text_1">
      <!-- 0 -->
      <defs>
       <path d="M 31.78125 66.40625 
Q 24.171875 66.40625 20.328125 58.90625 
Q 16.5 51.421875 16.5 36.375 
Q 16.5 21.390625 20.328125 13.890625 
Q 24.171875 6.390625 31.78125 6.390625 
Q 39.453125 6.390625 43.28125 13.890625 
Q 47.125 21.390625 47.125 36.375 
Q 47.125 51.421875 43.28125 58.90625 
Q 39.453125 66.40625 31.78125 66.40625 
M 31.78125 74.21875 
Q 44.046875 74.21875 50.515625 64.515625 
Q 56.984375 54.828125 56.984375 36.375 
Q 56.984375 17.96875 50.515625 8.265625 
Q 44.046875 -1.421875 31.78125 -1.421875 
Q 19.53125 -1.421875 13.0625 8.265625 
Q 6.59375 17.96875 6.59375 36.375 
Q 6.59375 54.828125 13.0625 64.515625 
Q 19.53125 74.21875 31.78125 74.21875 
" id="BitstreamVeraSans-Roman-30"/>
      </defs>
      <g style="fill:#555555;" transform="translate(76.5725961538 267.5984375)scale(0.1 -0.1)">
       <use xlink:href="#BitstreamVeraSans-Roman-30"/>
      </g>
     </g>
    </g>
    <g id="xtick_2">
     <g id="line2d_4">
      <path clip-path="url(#pf8a0d56a4e)" d="M 122.676923 252 
L 122.676923 28.8 
" style="fill:none;stroke:#ffffff;stroke-linecap:square;stroke-width:0.5;"/>
     </g>
     <g id="line2d_5">
      <g>
       <use style="fill:#555555;stroke:#555555;stroke-width:0.5;" x="122.676923077" xlink:href="#m0a9103324c" y="252.0"/>
      </g>
     </g>
     <g id="line2d_6">
      <g>
       <use style="fill:#555555;stroke:#555555;stroke-width:0.5;" x="122.676923077" xlink:href="#m00a65edc3e" y="28.8"/>
      </g>
     </g>
     <g id="text_2">
      <!-- 500 -->
      <defs>
       <path d="M 10.796875 72.90625 
L 49.515625 72.90625 
L 49.515625 64.59375 
L 19.828125 64.59375 
L 19.828125 46.734375 
Q 21.96875 47.46875 24.109375 47.828125 
Q 26.265625 48.1875 28.421875 48.1875 
Q 40.625 48.1875 47.75 41.5 
Q 54.890625 34.8125 54.890625 23.390625 
Q 54.890625 11.625 47.5625 5.09375 
Q 40.234375 -1.421875 26.90625 -1.421875 
Q 22.3125 -1.421875 17.546875 -0.640625 
Q 12.796875 0.140625 7.71875 1.703125 
L 7.71875 11.625 
Q 12.109375 9.234375 16.796875 8.0625 
Q 21.484375 6.890625 26.703125 6.890625 
Q 35.15625 6.890625 40.078125 11.328125 
Q 45.015625 15.765625 45.015625 23.390625 
Q 45.015625 31 40.078125 35.4375 
Q 35.15625 39.890625 26.703125 39.890625 
Q 22.75 39.890625 18.8125 39.015625 
Q 14.890625 38.140625 10.796875 36.28125 
z
" id="BitstreamVeraSans-Roman-35"/>
      </defs>
      <g style="fill:#555555;" transform="translate(113.133173077 267.5984375)scale(0.1 -0.1)">
       <use xlink:href="#BitstreamVeraSans-Roman-35"/>
       <use x="63.623046875" xlink:href="#BitstreamVeraSans-Roman-30"/>
       <use x="127.24609375" xlink:href="#BitstreamVeraSans-Roman-30"/>
      </g>
     </g>
    </g>
    <g id="xtick_3">
     <g id="line2d_7">
      <path clip-path="url(#pf8a0d56a4e)" d="M 165.6 252 
L 165.6 28.8 
" style="fill:none;stroke:#ffffff;stroke-linecap:square;stroke-width:0.5;"/>
     </g>
     <g id="line2d_8">
      <g>
       <use style="fill:#555555;stroke:#555555;stroke-width:0.5;" x="165.6" xlink:href="#m0a9103324c" y="252.0"/>
      </g>
     </g>
     <g id="line2d_9">
      <g>
       <use style="fill:#555555;stroke:#555555;stroke-width:0.5;" x="165.6" xlink:href="#m00a65edc3e" y="28.8"/>
      </g>
     </g>
     <g id="text_3">
      <!-- 1000 -->
      <defs>
       <path d="M 12.40625 8.296875 
L 28.515625 8.296875 
L 28.515625 63.921875 
L 10.984375 60.40625 
L 10.984375 69.390625 
L 28.421875 72.90625 
L 38.28125 72.90625 
L 38.28125 8.296875 
L 54.390625 8.296875 
L 54.390625 0 
L 12.40625 0 
z
" id="BitstreamVeraSans-Roman-31"/>
      </defs>
      <g style="fill:#555555;" transform="translate(152.875 267.5984375)scale(0.1 -0.1)">
       <use xlink:href="#BitstreamVeraSans-Roman-31"/>
       <use x="63.623046875" xlink:href="#BitstreamVeraSans-Roman-30"/>
       <use x="127.24609375" xlink:href="#BitstreamVeraSans-Roman-30"/>
       <use x="190.869140625" xlink:href="#BitstreamVeraSans-Roman-30"/>
      </g>
     </g>
    </g>
    <g id="xtick_4">
     <g id="line2d_10">
      <path clip-path="url(#pf8a0d56a4e)" d="M 208.523077 252 
L 208.523077 28.8 
" style="fill:none;stroke:#ffffff;stroke-linecap:square;stroke-width:0.5;"/>
     </g>
     <g id="line2d_11">
      <g>
       <use style="fill:#555555;stroke:#555555;stroke-width:0.5;" x="208.523076923" xlink:href="#m0a9103324c" y="252.0"/>
      </g>
     </g>
     <g id="line2d_12">
      <g>
       <use style="fill:#555555;stroke:#555555;stroke-width:0.5;" x="208.523076923" xlink:href="#m00a65edc3e" y="28.8"/>
      </g>
     </g>
     <g id="text_4">
      <!-- 1500 -->
      <g style="fill:#555555;" transform="translate(195.798076923 267.5984375)scale(0.1 -0.1)">
       <use xlink:href="#BitstreamVeraSans-Roman-31"/>
       <use x="63.623046875" xlink:href="#BitstreamVeraSans-Roman-35"/>
       <use x="127.24609375" xlink:href="#BitstreamVeraSans-Roman-30"/>
       <use x="190.869140625" xlink:href="#BitstreamVeraSans-Roman-30"/>
      </g>
     </g>
    </g>
    <g id="xtick_5">
     <g id="line2d_13">
      <path clip-path="url(#pf8a0d56a4e)" d="M 251.446154 252 
L 251.446154 28.8 
" style="fill:none;stroke:#ffffff;stroke-linecap:square;stroke-width:0.5;"/>
     </g>
     <g id="line2d_14">
      <g>
       <use style="fill:#555555;stroke:#555555;stroke-width:0.5;" x="251.446153846" xlink:href="#m0a9103324c" y="252.0"/>
      </g>
     </g>
     <g id="line2d_15">
      <g>
       <use style="fill:#555555;stroke:#555555;stroke-width:0.5;" x="251.446153846" xlink:href="#m00a65edc3e" y="28.8"/>
      </g>
     </g>
     <g id="text_5">
      <!-- 2000 -->
      <defs>
       <path d="M 19.1875 8.296875 
L 53.609375 8.296875 
L 53.609375 0 
L 7.328125 0 
L 7.328125 8.296875 
Q 12.9375 14.109375 22.625 23.890625 
Q 32.328125 33.6875 34.8125 36.53125 
Q 39.546875 41.84375 41.421875 45.53125 
Q 43.3125 49.21875 43.3125 52.78125 
Q 43.3125 58.59375 39.234375 62.25 
Q 35.15625 65.921875 28.609375 65.921875 
Q 23.96875 65.921875 18.8125 64.3125 
Q 13.671875 62.703125 7.8125 59.421875 
L 7.8125 69.390625 
Q 13.765625 71.78125 18.9375 73 
Q 24.125 74.21875 28.421875 74.21875 
Q 39.75 74.21875 46.484375 68.546875 
Q 53.21875 62.890625 53.21875 53.421875 
Q 53.21875 48.921875 51.53125 44.890625 
Q 49.859375 40.875 45.40625 35.40625 
Q 44.1875 33.984375 37.640625 27.21875 
Q 31.109375 20.453125 19.1875 8.296875 
" id="BitstreamVeraSans-Roman-32"/>
      </defs>
      <g style="fill:#555555;" transform="translate(238.721153846 267.5984375)scale(0.1 -0.1)">
       <use xlink:href="#BitstreamVeraSans-Roman-32"/>
       <use x="63.623046875" xlink:href="#BitstreamVeraSans-Roman-30"/>
       <use x="127.24609375" xlink:href="#BitstreamVeraSans-Roman-30"/>
       <use x="190.869140625" xlink:href="#BitstreamVeraSans-Roman-30"/>
      </g>
     </g>
    </g>
    <g id="xtick_6">
     <g id="line2d_16">
      <path clip-path="url(#pf8a0d56a4e)" d="M 294.369231 252 
L 294.369231 28.8 
" style="fill:none;stroke:#ffffff;stroke-linecap:square;stroke-width:0.5;"/>
     </g>
     <g id="line2d_17">
      <g>
       <use style="fill:#555555;stroke:#555555;stroke-width:0.5;" x="294.369230769" xlink:href="#m0a9103324c" y="252.0"/>
      </g>
     </g>
     <g id="line2d_18">
      <g>
       <use style="fill:#555555;stroke:#555555;stroke-width:0.5;" x="294.369230769" xlink:href="#m00a65edc3e" y="28.8"/>
      </g>
     </g>
     <g id="text_6">
      <!-- 2500 -->
      <g style="fill:#555555;" transform="translate(281.644230769 267.5984375)scale(0.1 -0.1)">
       <use xlink:href="#BitstreamVeraSans-Roman-32"/>
       <use x="63.623046875" xlink:href="#BitstreamVeraSans-Roman-35"/>
       <use x="127.24609375" xlink:href="#BitstreamVeraSans-Roman-30"/>
       <use x="190.869140625" xlink:href="#BitstreamVeraSans-Roman-30"/>
      </g>
     </g>
    </g>
    <g id="xtick_7">
     <g id="line2d_19">
      <path clip-path="url(#pf8a0d56a4e)" d="M 337.292308 252 
L 337.292308 28.8 
" style="fill:none;stroke:#ffffff;stroke-linecap:square;stroke-width:0.5;"/>
     </g>
     <g id="line2d_20">
      <g>
       <use style="fill:#555555;stroke:#555555;stroke-width:0.5;" x="337.292307692" xlink:href="#m0a9103324c" y="252.0"/>
      </g>
     </g>
     <g id="line2d_21">
      <g>
       <use style="fill:#555555;stroke:#555555;stroke-width:0.5;" x="337.292307692" xlink:href="#m00a65edc3e" y="28.8"/>
      </g>
     </g>
     <g id="text_7">
      <!-- 3000 -->
      <defs>
       <path d="M 40.578125 39.3125 
Q 47.65625 37.796875 51.625 33 
Q 55.609375 28.21875 55.609375 21.1875 
Q 55.609375 10.40625 48.1875 4.484375 
Q 40.765625 -1.421875 27.09375 -1.421875 
Q 22.515625 -1.421875 17.65625 -0.515625 
Q 12.796875 0.390625 7.625 2.203125 
L 7.625 11.71875 
Q 11.71875 9.328125 16.59375 8.109375 
Q 21.484375 6.890625 26.8125 6.890625 
Q 36.078125 6.890625 40.9375 10.546875 
Q 45.796875 14.203125 45.796875 21.1875 
Q 45.796875 27.640625 41.28125 31.265625 
Q 36.765625 34.90625 28.71875 34.90625 
L 20.21875 34.90625 
L 20.21875 43.015625 
L 29.109375 43.015625 
Q 36.375 43.015625 40.234375 45.921875 
Q 44.09375 48.828125 44.09375 54.296875 
Q 44.09375 59.90625 40.109375 62.90625 
Q 36.140625 65.921875 28.71875 65.921875 
Q 24.65625 65.921875 20.015625 65.03125 
Q 15.375 64.15625 9.8125 62.3125 
L 9.8125 71.09375 
Q 15.4375 72.65625 20.34375 73.4375 
Q 25.25 74.21875 29.59375 74.21875 
Q 40.828125 74.21875 47.359375 69.109375 
Q 53.90625 64.015625 53.90625 55.328125 
Q 53.90625 49.265625 50.4375 45.09375 
Q 46.96875 40.921875 40.578125 39.3125 
" id="BitstreamVeraSans-Roman-33"/>
      </defs>
      <g style="fill:#555555;" transform="translate(324.567307692 267.5984375)scale(0.1 -0.1)">
       <use xlink:href="#BitstreamVeraSans-Roman-33"/>
       <use x="63.623046875" xlink:href="#BitstreamVeraSans-Roman-30"/>
       <use x="127.24609375" xlink:href="#BitstreamVeraSans-Roman-30"/>
       <use x="190.869140625" xlink:href="#BitstreamVeraSans-Roman-30"/>
      </g>
     </g>
    </g>
    <g id="xtick_8">
     <g id="line2d_22">
      <path clip-path="url(#pf8a0d56a4e)" d="M 380.215385 252 
L 380.215385 28.8 
" style="fill:none;stroke:#ffffff;stroke-linecap:square;stroke-width:0.5;"/>
     </g>
     <g id="line2d_23">
      <g>
       <use style="fill:#555555;stroke:#555555;stroke-width:0.5;" x="380.215384615" xlink:href="#m0a9103324c" y="252.0"/>
      </g>
     </g>
     <g id="line2d_24">
      <g>
       <use style="fill:#555555;stroke:#555555;stroke-width:0.5;" x="380.215384615" xlink:href="#m00a65edc3e" y="28.8"/>
      </g>
     </g>
     <g id="text_8">
      <!-- 3500 -->
      <g style="fill:#555555;" transform="translate(367.490384615 267.5984375)scale(0.1 -0.1)">
       <use xlink:href="#BitstreamVeraSans-Roman-33"/>
       <use x="63.623046875" xlink:href="#BitstreamVeraSans-Roman-35"/>
       <use x="127.24609375" xlink:href="#BitstreamVeraSans-Roman-30"/>
       <use x="190.869140625" xlink:href="#BitstreamVeraSans-Roman-30"/>
      </g>
     </g>
    </g>
    <g id="text_9">
     <!-- Time -->
     <defs>
      <path d="M 56.203125 29.59375 
L 56.203125 25.203125 
L 14.890625 25.203125 
Q 15.484375 15.921875 20.484375 11.0625 
Q 25.484375 6.203125 34.421875 6.203125 
Q 39.59375 6.203125 44.453125 7.46875 
Q 49.3125 8.734375 54.109375 11.28125 
L 54.109375 2.78125 
Q 49.265625 0.734375 44.1875 -0.34375 
Q 39.109375 -1.421875 33.890625 -1.421875 
Q 20.796875 -1.421875 13.15625 6.1875 
Q 5.515625 13.8125 5.515625 26.8125 
Q 5.515625 40.234375 12.765625 48.109375 
Q 20.015625 56 32.328125 56 
Q 43.359375 56 49.78125 48.890625 
Q 56.203125 41.796875 56.203125 29.59375 
M 47.21875 32.234375 
Q 47.125 39.59375 43.09375 43.984375 
Q 39.0625 48.390625 32.421875 48.390625 
Q 24.90625 48.390625 20.390625 44.140625 
Q 15.875 39.890625 15.1875 32.171875 
z
" id="BitstreamVeraSans-Roman-65"/>
      <path d="M 9.421875 54.6875 
L 18.40625 54.6875 
L 18.40625 0 
L 9.421875 0 
z
M 9.421875 75.984375 
L 18.40625 75.984375 
L 18.40625 64.59375 
L 9.421875 64.59375 
z
" id="BitstreamVeraSans-Roman-69"/>
      <path d="M -0.296875 72.90625 
L 61.375 72.90625 
L 61.375 64.59375 
L 35.5 64.59375 
L 35.5 0 
L 25.59375 0 
L 25.59375 64.59375 
L -0.296875 64.59375 
z
" id="BitstreamVeraSans-Roman-54"/>
      <path d="M 52 44.1875 
Q 55.375 50.25 60.0625 53.125 
Q 64.75 56 71.09375 56 
Q 79.640625 56 84.28125 50.015625 
Q 88.921875 44.046875 88.921875 33.015625 
L 88.921875 0 
L 79.890625 0 
L 79.890625 32.71875 
Q 79.890625 40.578125 77.09375 44.375 
Q 74.3125 48.1875 68.609375 48.1875 
Q 61.625 48.1875 57.5625 43.546875 
Q 53.515625 38.921875 53.515625 30.90625 
L 53.515625 0 
L 44.484375 0 
L 44.484375 32.71875 
Q 44.484375 40.625 41.703125 44.40625 
Q 38.921875 48.1875 33.109375 48.1875 
Q 26.21875 48.1875 22.15625 43.53125 
Q 18.109375 38.875 18.109375 30.90625 
L 18.109375 0 
L 9.078125 0 
L 9.078125 54.6875 
L 18.109375 54.6875 
L 18.109375 46.1875 
Q 21.1875 51.21875 25.484375 53.609375 
Q 29.78125 56 35.6875 56 
Q 41.65625 56 45.828125 52.96875 
Q 50 49.953125 52 44.1875 
" id="BitstreamVeraSans-Roman-6d"/>
     </defs>
     <g style="fill:#555555;" transform="translate(206.535 283.79625)scale(0.12 -0.12)">
      <use xlink:href="#BitstreamVeraSans-Roman-54"/>
      <use x="61.037109375" xlink:href="#BitstreamVeraSans-Roman-69"/>
      <use x="88.8203125" xlink:href="#BitstreamVeraSans-Roman-6d"/>
      <use x="186.232421875" xlink:href="#BitstreamVeraSans-Roman-65"/>
     </g>
    </g>
   </g>
   <g id="matplotlib.axis_2">
    <g id="ytick_1">
     <g id="line2d_25">
      <path clip-path="url(#pf8a0d56a4e)" d="M 54 252 
L 388.8 252 
" style="fill:none;stroke:#ffffff;stroke-linecap:square;stroke-width:0.5;"/>
     </g>
     <g id="line2d_26">
      <defs>
       <path d="M 0 0 
L -4 0 
" id="m3c979bb43f" style="stroke:#555555;stroke-width:0.5;"/>
      </defs>
      <g>
       <use style="fill:#555555;stroke:#555555;stroke-width:0.5;" x="54.0" xlink:href="#m3c979bb43f" y="252.0"/>
      </g>
     </g>
     <g id="line2d_27">
      <defs>
       <path d="M 0 0 
L 4 0 
" id="m0ebc5e3b95" style="stroke:#555555;stroke-width:0.5;"/>
      </defs>
      <g>
       <use style="fill:#555555;stroke:#555555;stroke-width:0.5;" x="388.8" xlink:href="#m0ebc5e3b95" y="252.0"/>
      </g>
     </g>
     <g id="text_10">
      <!-- −1000 -->
      <defs>
       <path d="M 10.59375 35.5 
L 73.1875 35.5 
L 73.1875 27.203125 
L 10.59375 27.203125 
z
" id="BitstreamVeraSans-Roman-2212"/>
      </defs>
      <g style="fill:#555555;" transform="translate(12.1703125 254.759375)scale(0.1 -0.1)">
       <use xlink:href="#BitstreamVeraSans-Roman-2212"/>
       <use x="83.7890625" xlink:href="#BitstreamVeraSans-Roman-31"/>
       <use x="147.412109375" xlink:href="#BitstreamVeraSans-Roman-30"/>
       <use x="211.03515625" xlink:href="#BitstreamVeraSans-Roman-30"/>
       <use x="274.658203125" xlink:href="#BitstreamVeraSans-Roman-30"/>
      </g>
     </g>
    </g>
    <g id="ytick_2">
     <g id="line2d_28">
      <path clip-path="url(#pf8a0d56a4e)" d="M 54 207.36 
L 388.8 207.36 
" style="fill:none;stroke:#ffffff;stroke-linecap:square;stroke-width:0.5;"/>
     </g>
     <g id="line2d_29">
      <g>
       <use style="fill:#555555;stroke:#555555;stroke-width:0.5;" x="54.0" xlink:href="#m3c979bb43f" y="207.36"/>
      </g>
     </g>
     <g id="line2d_30">
      <g>
       <use style="fill:#555555;stroke:#555555;stroke-width:0.5;" x="388.8" xlink:href="#m0ebc5e3b95" y="207.36"/>
      </g>
     </g>
     <g id="text_11">
      <!-- −500 -->
      <g style="fill:#555555;" transform="translate(18.5328125 210.119375)scale(0.1 -0.1)">
       <use xlink:href="#BitstreamVeraSans-Roman-2212"/>
       <use x="83.7890625" xlink:href="#BitstreamVeraSans-Roman-35"/>
       <use x="147.412109375" xlink:href="#BitstreamVeraSans-Roman-30"/>
       <use x="211.03515625" xlink:href="#BitstreamVeraSans-Roman-30"/>
      </g>
     </g>
    </g>
    <g id="ytick_3">
     <g id="line2d_31">
      <path clip-path="url(#pf8a0d56a4e)" d="M 54 162.72 
L 388.8 162.72 
" style="fill:none;stroke:#ffffff;stroke-linecap:square;stroke-width:0.5;"/>
     </g>
     <g id="line2d_32">
      <g>
       <use style="fill:#555555;stroke:#555555;stroke-width:0.5;" x="54.0" xlink:href="#m3c979bb43f" y="162.72"/>
      </g>
     </g>
     <g id="line2d_33">
      <g>
       <use style="fill:#555555;stroke:#555555;stroke-width:0.5;" x="388.8" xlink:href="#m0ebc5e3b95" y="162.72"/>
      </g>
     </g>
     <g id="text_12">
      <!-- 0 -->
      <g style="fill:#555555;" transform="translate(39.6375 165.479375)scale(0.1 -0.1)">
       <use xlink:href="#BitstreamVeraSans-Roman-30"/>
      </g>
     </g>
    </g>
    <g id="ytick_4">
     <g id="line2d_34">
      <path clip-path="url(#pf8a0d56a4e)" d="M 54 118.08 
L 388.8 118.08 
" style="fill:none;stroke:#ffffff;stroke-linecap:square;stroke-width:0.5;"/>
     </g>
     <g id="line2d_35">
      <g>
       <use style="fill:#555555;stroke:#555555;stroke-width:0.5;" x="54.0" xlink:href="#m3c979bb43f" y="118.08"/>
      </g>
     </g>
     <g id="line2d_36">
      <g>
       <use style="fill:#555555;stroke:#555555;stroke-width:0.5;" x="388.8" xlink:href="#m0ebc5e3b95" y="118.08"/>
      </g>
     </g>
     <g id="text_13">
      <!-- 500 -->
      <g style="fill:#555555;" transform="translate(26.9125 120.839375)scale(0.1 -0.1)">
       <use xlink:href="#BitstreamVeraSans-Roman-35"/>
       <use x="63.623046875" xlink:href="#BitstreamVeraSans-Roman-30"/>
       <use x="127.24609375" xlink:href="#BitstreamVeraSans-Roman-30"/>
      </g>
     </g>
    </g>
    <g id="ytick_5">
     <g id="line2d_37">
      <path clip-path="url(#pf8a0d56a4e)" d="M 54 73.44 
L 388.8 73.44 
" style="fill:none;stroke:#ffffff;stroke-linecap:square;stroke-width:0.5;"/>
     </g>
     <g id="line2d_38">
      <g>
       <use style="fill:#555555;stroke:#555555;stroke-width:0.5;" x="54.0" xlink:href="#m3c979bb43f" y="73.44"/>
      </g>
     </g>
     <g id="line2d_39">
      <g>
       <use style="fill:#555555;stroke:#555555;stroke-width:0.5;" x="388.8" xlink:href="#m0ebc5e3b95" y="73.44"/>
      </g>
     </g>
     <g id="text_14">
      <!-- 1000 -->
      <g style="fill:#555555;" transform="translate(20.55 76.199375)scale(0.1 -0.1)">
       <use xlink:href="#BitstreamVeraSans-Roman-31"/>
       <use x="63.623046875" xlink:href="#BitstreamVeraSans-Roman-30"/>
       <use x="127.24609375" xlink:href="#BitstreamVeraSans-Roman-30"/>
       <use x="190.869140625" xlink:href="#BitstreamVeraSans-Roman-30"/>
      </g>
     </g>
    </g>
    <g id="ytick_6">
     <g id="line2d_40">
      <path clip-path="url(#pf8a0d56a4e)" d="M 54 28.8 
L 388.8 28.8 
" style="fill:none;stroke:#ffffff;stroke-linecap:square;stroke-width:0.5;"/>
     </g>
     <g id="line2d_41">
      <g>
       <use style="fill:#555555;stroke:#555555;stroke-width:0.5;" x="54.0" xlink:href="#m3c979bb43f" y="28.8"/>
      </g>
     </g>
     <g id="line2d_42">
      <g>
       <use style="fill:#555555;stroke:#555555;stroke-width:0.5;" x="388.8" xlink:href="#m0ebc5e3b95" y="28.8"/>
      </g>
     </g>
     <g id="text_15">
      <!-- 1500 -->
      <g style="fill:#555555;" transform="translate(20.55 31.559375)scale(0.1 -0.1)">
       <use xlink:href="#BitstreamVeraSans-Roman-31"/>
       <use x="63.623046875" xlink:href="#BitstreamVeraSans-Roman-35"/>
       <use x="127.24609375" xlink:href="#BitstreamVeraSans-Roman-30"/>
       <use x="190.869140625" xlink:href="#BitstreamVeraSans-Roman-30"/>
      </g>
     </g>
    </g>
    <g id="text_16">
     <!-- Flux -->
     <defs>
      <path d="M 9.8125 72.90625 
L 51.703125 72.90625 
L 51.703125 64.59375 
L 19.671875 64.59375 
L 19.671875 43.109375 
L 48.578125 43.109375 
L 48.578125 34.8125 
L 19.671875 34.8125 
L 19.671875 0 
L 9.8125 0 
z
" id="BitstreamVeraSans-Roman-46"/>
      <path d="M 8.5 21.578125 
L 8.5 54.6875 
L 17.484375 54.6875 
L 17.484375 21.921875 
Q 17.484375 14.15625 20.5 10.265625 
Q 23.53125 6.390625 29.59375 6.390625 
Q 36.859375 6.390625 41.078125 11.03125 
Q 45.3125 15.671875 45.3125 23.6875 
L 45.3125 54.6875 
L 54.296875 54.6875 
L 54.296875 0 
L 45.3125 0 
L 45.3125 8.40625 
Q 42.046875 3.421875 37.71875 1 
Q 33.40625 -1.421875 27.6875 -1.421875 
Q 18.265625 -1.421875 13.375 4.4375 
Q 8.5 10.296875 8.5 21.578125 
" id="BitstreamVeraSans-Roman-75"/>
      <path d="M 54.890625 54.6875 
L 35.109375 28.078125 
L 55.90625 0 
L 45.3125 0 
L 29.390625 21.484375 
L 13.484375 0 
L 2.875 0 
L 24.125 28.609375 
L 4.6875 54.6875 
L 15.28125 54.6875 
L 29.78125 35.203125 
L 44.28125 54.6875 
z
" id="BitstreamVeraSans-Roman-78"/>
      <path d="M 9.421875 75.984375 
L 18.40625 75.984375 
L 18.40625 0 
L 9.421875 0 
z
" id="BitstreamVeraSans-Roman-6c"/>
     </defs>
     <g style="fill:#555555;" transform="translate(4.6746875 152.8715625)rotate(-90.0)scale(0.12 -0.12)">
      <use xlink:href="#BitstreamVeraSans-Roman-46"/>
      <use x="57.51953125" xlink:href="#BitstreamVeraSans-Roman-6c"/>
      <use x="85.302734375" xlink:href="#BitstreamVeraSans-Roman-75"/>
      <use x="148.681640625" xlink:href="#BitstreamVeraSans-Roman-78"/>
     </g>
    </g>
   </g>
   <g id="line2d_43">
    <path clip-path="url(#pf8a0d56a4e)" d="M 79.753846 179.598615 
L 80.183077 168.374935 
L 80.268923 168.188406 
L 80.440615 174.732181 
L 81.041538 212.905093 
L 81.470769 245.14796 
L 81.556615 245.368844 
L 81.728308 238.211459 
L 82.071692 209.209594 
L 82.672615 161.347217 
L 82.930154 155.525218 
L 83.101846 164.274702 
L 83.273538 163.577875 
L 83.445231 162.7785 
L 83.531077 163.868097 
L 83.702769 172.714759 
L 83.960308 200.874058 
L 84.389538 248.081451 
L 84.475385 249.73772 
L 84.647077 237.682647 
L 84.990462 190.049214 
L 85.419692 136.595723 
L 85.591385 131.100882 
L 85.677231 132.077562 
L 86.192308 163.478193 
L 86.621538 198.183951 
L 86.793231 204.966803 
L 86.879077 205.686668 
L 86.964923 207.740764 
L 87.222462 189.258642 
L 87.737538 153.663612 
L 87.823385 151.040909 
L 87.909231 152.016677 
L 88.681846 187.441276 
L 88.853538 190.027574 
L 89.111077 180.798582 
L 89.454462 163.64313 
L 89.540308 164.219199 
L 89.797846 174.891212 
L 89.969538 179.864788 
L 90.055385 181.294947 
L 90.141231 180.601748 
L 90.227077 180.905487 
L 90.570462 186.837038 
L 90.828 191.613911 
L 90.913846 191.966417 
L 91.514769 177.041049 
L 91.858154 157.554215 
L 92.802462 92.509009 
L 92.974154 97.53709 
L 93.403385 134.085763 
L 93.832615 164.237985 
L 94.176 168.353949 
L 94.347692 168.971061 
L 94.519385 167.610571 
L 94.605231 167.905726 
L 95.034462 173.852935 
L 95.549538 199.59048 
L 95.635385 199.97542 
L 95.892923 202.641621 
L 96.408 184.375189 
L 96.837231 158.55043 
L 97.180615 136.653218 
L 97.352308 133.721962 
L 97.609846 137.302958 
L 97.953231 153.24919 
L 98.039077 154.030509 
L 98.124923 153.669886 
L 98.210769 154.235547 
L 98.296615 153.946885 
L 98.811692 163.853363 
L 98.897538 163.644298 
L 99.069231 160.61268 
L 99.240923 160.945276 
L 99.326769 163.101013 
L 99.670154 181.815862 
L 99.756 182.419526 
L 99.841846 182.039549 
L 100.013538 172.689011 
L 101.129538 69.300367 
L 101.301231 81.572259 
L 101.988 167.831311 
L 102.073846 169.393093 
L 102.159692 169.023099 
L 102.760615 135.60494 
L 103.104 127.365763 
L 103.275692 134.484919 
L 103.704923 179.860586 
L 103.962462 198.426038 
L 104.22 206.286929 
L 104.305846 207.21393 
L 104.563385 202.397343 
L 105.421846 141.74073 
L 105.507692 141.81246 
L 105.765231 146.912158 
L 106.108615 132.238747 
L 106.194462 132.429331 
L 106.623692 144.648105 
L 106.795385 149.596914 
L 106.881231 149.041486 
L 106.967077 144.684585 
L 107.052923 144.963688 
L 107.138769 144.610651 
L 107.396308 141.213853 
L 107.482154 141.216082 
L 107.653846 145.095897 
L 107.911385 157.637215 
L 108.168923 165.504618 
L 108.254769 165.125022 
L 108.684 172.036243 
L 109.113231 181.68655 
L 109.370769 176.95004 
L 109.456615 177.3104 
L 109.714154 181.403925 
L 109.8 180.420634 
L 109.885846 180.625216 
L 109.971692 180.852075 
L 110.229231 170.002314 
L 110.400923 160.492208 
L 110.486769 162.192848 
L 110.658462 158.607782 
L 110.744308 158.968785 
L 110.916 164.641793 
L 111.173538 175.087603 
L 111.345231 176.113492 
L 111.516923 172.696534 
L 111.774462 153.931758 
L 112.032 147.321791 
L 112.203692 144.785446 
L 112.289538 146.466957 
L 112.976308 178.48048 
L 113.062154 178.200809 
L 113.405538 173.793442 
L 113.577231 176.061791 
L 113.748923 178.309087 
L 114.435692 213.026939 
L 114.521538 211.085124 
L 115.208308 178.860588 
L 115.294154 180.152195 
L 115.465846 190.089477 
L 115.551692 187.533241 
L 115.637538 187.393071 
L 115.723385 186.988458 
L 115.809231 185.804792 
L 115.980923 176.974364 
L 116.496 137.607509 
L 116.925231 92.523744 
L 117.096923 91.793527 
L 117.354462 120.681888 
L 117.697846 147.537474 
L 118.041231 163.722184 
L 118.127077 162.371702 
L 118.212923 162.892516 
L 118.384615 160.612786 
L 118.642154 154.283333 
L 118.728 153.702333 
L 118.813846 153.730216 
L 119.414769 172.595005 
L 119.929846 183.453694 
L 120.015692 182.526624 
L 120.788308 155.127685 
L 120.96 152.210626 
L 121.045846 153.063444 
L 121.131692 152.993325 
L 121.217538 152.495835 
L 121.303385 153.931932 
L 121.475077 166.099073 
L 121.818462 196.884927 
L 121.904308 197.780912 
L 122.076 191.373629 
L 122.762769 130.400128 
L 122.848615 129.715063 
L 123.020308 135.974328 
L 123.535385 172.988786 
L 123.707077 177.119328 
L 123.792923 176.969038 
L 123.878769 175.644959 
L 123.964615 176.155223 
L 124.136308 171.18749 
L 124.737231 136.229656 
L 124.823077 137.012217 
L 125.252308 150.228336 
L 125.338154 150.522554 
L 125.509846 146.451092 
L 125.595692 147.059033 
L 126.024923 149.255458 
L 126.110769 149.331016 
L 126.368308 152.440532 
L 126.54 152.272517 
L 126.711692 155.413406 
L 126.797538 155.702267 
L 126.883385 155.285723 
L 127.055077 154.040417 
L 127.226769 156.085741 
L 127.398462 155.409204 
L 127.484308 155.179355 
L 127.570154 157.191245 
L 127.999385 179.033448 
L 128.085231 180.164794 
L 128.428615 170.624458 
L 128.686154 161.982135 
L 128.772 161.697469 
L 128.857846 161.969486 
L 129.029538 163.750628 
L 129.201231 161.326939 
L 129.458769 156.773833 
L 129.716308 150.112222 
L 129.973846 152.538677 
L 130.317231 148.577449 
L 130.403077 149.269281 
L 130.488923 151.296999 
L 130.918154 174.636976 
L 131.004 174.460807 
L 131.690769 153.955314 
L 131.862462 152.107455 
L 131.948308 153.047555 
L 132.205846 166.286449 
L 132.635077 201.342516 
L 132.720923 201.338869 
L 132.806769 201.203751 
L 132.978462 194.604473 
L 133.150154 178.867505 
L 133.493538 135.827347 
L 133.579385 134.013571 
L 133.751077 145.805636 
L 134.094462 177.122375 
L 134.180308 178.914761 
L 134.352 173.866758 
L 134.609538 157.264449 
L 135.038769 152.660136 
L 135.210462 157.344308 
L 135.468 162.345299 
L 135.639692 164.024918 
L 135.897231 170.630801 
L 135.983077 170.618489 
L 136.326462 167.019831 
L 136.498154 164.910113 
L 136.584 164.897495 
L 136.755692 174.066233 
L 136.927385 179.400107 
L 137.013231 179.577575 
L 137.270769 171.231462 
L 137.871692 143.307463 
L 137.957538 142.464753 
L 138.043385 142.940615 
L 138.215077 147.44255 
L 138.386769 158.492704 
L 138.816 203.68029 
L 138.987692 207.105845 
L 139.073538 204.591471 
L 139.331077 179.633615 
L 139.588615 163.877406 
L 140.447077 149.29398 
L 140.532923 150.436233 
L 140.876308 163.25538 
L 141.133846 168.480795 
L 141.219692 170.187798 
L 141.305538 170.105516 
L 141.391385 171.017671 
L 141.648923 174.701707 
L 141.734769 175.056923 
L 141.820615 174.419626 
L 141.992308 168.063296 
L 142.421538 149.39973 
L 142.507385 149.02629 
L 142.593231 147.861361 
L 142.679077 149.366784 
L 143.022462 160.520278 
L 143.194154 164.846856 
L 143.709231 180.679502 
L 143.795077 180.521851 
L 143.880923 179.440252 
L 144.052615 172.221215 
L 144.396 157.685932 
L 144.481846 156.99531 
L 144.567692 157.809188 
L 144.653538 160.217013 
L 144.739385 159.471538 
L 144.911077 156.567971 
L 145.168615 159.586547 
L 145.512 151.170702 
L 145.683692 150.826231 
L 145.855385 148.674926 
L 146.198769 155.754206 
L 146.284615 158.920431 
L 146.456308 156.966766 
L 146.542154 156.969288 
L 147.314769 172.853099 
L 147.486462 164.416095 
L 147.658154 160.82526 
L 148.087385 151.506488 
L 148.430769 145.673145 
L 148.602462 149.888597 
L 148.774154 159.341152 
L 149.117538 181.548933 
L 149.289231 178.190751 
L 149.546769 163.560543 
L 149.804308 152.321621 
L 149.976 149.096109 
L 150.061846 148.820047 
L 150.233538 147.65764 
L 150.405231 148.228676 
L 150.662769 151.696417 
L 150.920308 158.431582 
L 151.263692 171.767485 
L 151.349538 169.660228 
L 151.521231 165.982329 
L 151.607077 165.895215 
L 151.778769 164.934712 
L 151.864615 165.589384 
L 152.036308 164.578984 
L 152.122154 166.240373 
L 152.208 164.997252 
L 152.379692 160.098502 
L 152.465538 160.301136 
L 152.551385 160.857575 
L 152.637231 164.128426 
L 152.723077 164.013261 
L 152.808923 162.98312 
L 152.894769 160.037198 
L 153.238154 138.121499 
L 153.324 136.890516 
L 153.495692 144.161685 
L 153.839077 160.503165 
L 153.924923 160.251882 
L 154.096615 163.068904 
L 154.44 171.183251 
L 154.525846 170.40044 
L 155.040923 152.958562 
L 155.556 128.564587 
L 155.641846 128.80201 
L 155.727692 130.278458 
L 155.899385 139.532816 
L 156.328615 169.074613 
L 156.500308 171.93186 
L 156.672 166.545124 
L 157.358769 128.600843 
L 157.444615 126.250849 
L 157.616308 129.441311 
L 157.873846 150.250824 
L 158.131385 178.876546 
L 158.388923 187.760911 
L 158.560615 184.880176 
L 159.161538 149.634449 
L 159.247385 151.927016 
L 159.419077 167.850416 
L 159.676615 188.321983 
L 159.762462 186.588983 
L 160.02 166.69665 
L 160.363385 147.915172 
L 160.449231 148.380215 
L 160.535077 147.674047 
L 160.620923 148.292739 
L 161.050154 155.56088 
L 161.221846 154.565496 
L 161.393538 147.640165 
L 161.565231 141.048616 
L 161.651077 142.254483 
L 163.024615 188.546675 
L 163.282154 191.592584 
L 163.539692 185.560059 
L 163.883077 167.103742 
L 164.140615 162.661587 
L 164.569846 175.391679 
L 164.655692 174.249619 
L 164.999077 160.553561 
L 165.170769 155.519025 
L 165.685846 172.323712 
L 165.771692 171.458901 
L 165.857538 170.924133 
L 166.115077 163.315173 
L 166.200923 164.487482 
L 166.286769 168.735992 
L 166.458462 159.250317 
L 166.887692 154.483052 
L 166.973538 154.52025 
L 167.231077 161.013472 
L 167.316923 164.7347 
L 167.402769 160.889448 
L 167.660308 164.410426 
L 167.746154 163.663402 
L 168.089538 153.684552 
L 168.175385 152.176013 
L 168.261231 153.150195 
L 168.604615 170.428223 
L 169.033846 189.787711 
L 169.205538 192.200568 
L 169.291385 190.788059 
L 169.463077 182.254121 
L 169.892308 140.979846 
L 169.978154 141.422412 
L 170.149846 149.724047 
L 170.664923 203.347101 
L 170.750769 204.975369 
L 171.008308 193.372665 
L 171.609231 145.042329 
L 171.780923 153.746205 
L 172.124308 178.446666 
L 172.210154 176.772304 
L 172.725231 137.038808 
L 172.811077 139.717895 
L 173.154462 156.259918 
L 173.497846 174.854838 
L 173.841231 163.961023 
L 174.012923 159.872717 
L 174.098769 159.991391 
L 174.184615 161.672958 
L 174.270462 160.597889 
L 174.356308 161.160928 
L 174.528 164.343466 
L 174.613846 158.999496 
L 174.699692 159.640839 
L 174.871385 169.103801 
L 175.214769 205.594735 
L 175.472308 194.682465 
L 175.901538 171.137343 
L 176.073231 170.361263 
L 176.416615 160.926583 
L 176.502462 161.491039 
L 176.674154 168.100612 
L 176.931692 179.342768 
L 177.360923 161.436291 
L 177.532615 159.546901 
L 177.618462 159.987158 
L 177.790154 162.705359 
L 178.133538 144.703021 
L 178.305231 139.820142 
L 178.391077 139.944148 
L 178.562769 144.717862 
L 178.820308 164.004533 
L 179.077846 176.090323 
L 179.249538 170.093404 
L 179.678769 142.859508 
L 179.764615 144.936492 
L 180.022154 159.893913 
L 180.193846 161.337234 
L 180.537231 157.03937 
L 180.623077 157.808445 
L 181.052308 172.880857 
L 181.138154 173.251431 
L 181.224 172.933595 
L 181.739077 162.388041 
L 182.34 124.108285 
L 182.511692 131.640502 
L 183.026769 171.533609 
L 183.112615 164.068509 
L 183.198462 162.182709 
L 183.370154 155.255955 
L 183.627692 160.76066 
L 183.713538 160.043891 
L 183.885231 156.640613 
L 184.400308 139.743773 
L 185.172923 184.407779 
L 185.258769 180.158307 
L 185.344615 180.245021 
L 185.602154 179.340196 
L 185.773846 181.73202 
L 185.859692 184.556933 
L 185.945538 184.214666 
L 186.117231 179.037112 
L 186.288923 162.058498 
L 186.632308 122.448583 
L 186.718154 121.168532 
L 186.804 121.96137 
L 186.975692 134.587616 
L 187.319077 179.650903 
L 187.404923 181.092582 
L 187.490769 179.247888 
L 187.662462 165.448378 
L 188.091692 120.201786 
L 188.349231 130.250531 
L 188.606769 149.576173 
L 188.950154 167.166256 
L 189.036 166.903848 
L 189.121846 167.023053 
L 189.293538 172.434613 
L 189.379385 171.880809 
L 189.551077 173.854327 
L 189.722769 169.761382 
L 190.066154 157.384153 
L 190.237846 152.34223 
L 190.752923 170.111816 
L 191.010462 181.985282 
L 191.096308 179.668172 
L 191.697231 141.415981 
L 191.783077 142.61101 
L 192.384 165.989178 
L 192.469846 163.808367 
L 192.984923 132.383237 
L 193.070769 133.285308 
L 193.328308 141.581449 
L 193.5 149.783871 
L 194.015077 185.61374 
L 194.100923 184.841137 
L 194.701846 151.975577 
L 194.787692 151.041102 
L 194.959385 146.866263 
L 195.045231 145.918721 
L 195.131077 146.169973 
L 195.216923 146.434279 
L 195.302769 149.717479 
L 195.732 187.32156 
L 195.817846 187.59146 
L 195.989538 180.277886 
L 196.332923 153.990788 
L 196.418769 153.612216 
L 196.676308 158.932874 
L 197.019692 171.123015 
L 197.105538 172.773939 
L 197.534769 167.895043 
L 197.620615 167.070427 
L 197.706462 167.439372 
L 198.135692 188.766947 
L 198.221538 188.20575 
L 198.307385 187.473404 
L 198.479077 177.003233 
L 198.994154 120.659605 
L 199.08 116.924711 
L 199.165846 117.676255 
L 199.337538 125.097183 
L 200.024308 183.0664 
L 200.110154 180.730298 
L 200.281846 166.847901 
L 200.539385 143.295556 
L 200.625231 142.852852 
L 200.796923 150.740029 
L 201.054462 167.825449 
L 201.140308 167.915559 
L 201.655385 154.973543 
L 201.741231 154.978837 
L 201.827077 156.089437 
L 202.428 183.120786 
L 202.599692 190.740072 
L 202.685538 189.24806 
L 202.943077 170.160914 
L 203.200615 148.331117 
L 203.286462 147.246196 
L 203.458154 148.377955 
L 203.715692 150.957909 
L 203.801538 151.665769 
L 204.059077 141.895509 
L 204.144923 143.835963 
L 204.402462 154.109881 
L 204.574154 158.368025 
L 204.745846 157.860827 
L 204.831692 159.373399 
L 205.089231 148.600505 
L 205.260923 148.022227 
L 205.432615 157.584664 
L 205.861846 182.913157 
L 206.892 152.698894 
L 206.977846 154.392474 
L 207.235385 177.876142 
L 207.578769 201.218029 
L 207.664615 199.006582 
L 208.179692 150.272526 
L 208.265538 151.626798 
L 208.437231 161.94392 
L 208.694769 183.217702 
L 208.780615 182.358741 
L 208.952308 174.611378 
L 209.381538 144.530087 
L 209.467385 146.868604 
L 209.724923 159.767142 
L 209.810769 160.592932 
L 209.896615 159.722396 
L 210.154154 153.268064 
L 210.24 152.408984 
L 210.325846 153.743889 
L 210.411692 153.187306 
L 210.583385 161.624391 
L 210.669231 160.661721 
L 210.926769 151.389569 
L 211.012615 151.835307 
L 211.527692 182.127224 
L 211.871077 158.886229 
L 211.956923 158.97338 
L 212.214462 168.146151 
L 212.472 177.208127 
L 212.557846 177.659397 
L 212.815385 156.276381 
L 212.901231 154.982427 
L 213.158769 166.529446 
L 213.330462 175.909734 
L 213.416308 176.228501 
L 213.502154 174.8551 
L 213.588 170.728422 
L 213.845538 140.629244 
L 214.103077 128.578298 
L 214.188923 127.367917 
L 214.360615 136.856727 
L 214.789846 169.357131 
L 214.961538 172.812005 
L 215.648308 137.709781 
L 215.82 135.798028 
L 216.077538 126.522935 
L 216.163385 125.248591 
L 216.249231 126.144125 
L 216.420923 134.116455 
L 217.107692 188.862401 
L 217.193538 187.558345 
L 217.365231 179.216515 
L 217.708615 156.392302 
L 217.880308 151.476963 
L 217.966154 152.349235 
L 218.137846 155.478836 
L 218.223692 153.803563 
L 218.481231 158.138706 
L 218.738769 166.699322 
L 218.910462 168.43761 
L 219.253846 174.049445 
L 219.597231 193.717279 
L 219.683077 194.136646 
L 219.768923 191.814236 
L 220.284 163.783562 
L 220.369846 162.796475 
L 220.627385 156.54517 
L 220.713231 157.003264 
L 221.056615 172.124818 
L 221.314154 185.832238 
L 221.485846 176.755434 
L 222.086769 125.46001 
L 222.172615 125.124929 
L 222.687692 150.047628 
L 223.288615 187.259938 
L 223.374462 186.303293 
L 223.460308 188.866428 
L 223.975385 130.845017 
L 224.147077 133.252986 
L 224.318769 146.054271 
L 224.662154 182.596125 
L 224.748 183.521972 
L 225.005538 180.54213 
L 225.091385 178.529571 
L 225.348923 169.824278 
L 225.434769 168.104021 
L 225.864 171.687783 
L 225.949846 170.112097 
L 226.293231 149.94367 
L 226.550769 136.233227 
L 226.636615 135.356398 
L 226.808308 141.360834 
L 227.495077 181.236897 
L 227.666769 171.624232 
L 228.096 132.129182 
L 228.353538 124.876799 
L 228.439385 125.952948 
L 229.212 167.812719 
L 229.555385 161.478877 
L 229.727077 158.231145 
L 229.812923 157.938382 
L 229.984615 164.73962 
L 230.242154 179.804359 
L 230.413846 183.432891 
L 230.499692 183.357902 
L 230.671385 175.51604 
L 231.100615 144.659617 
L 231.186462 143.811264 
L 231.272308 144.005208 
L 231.529846 147.613231 
L 231.959077 163.170508 
L 232.044923 163.161112 
L 232.130769 164.055466 
L 232.216615 162.772113 
L 232.817538 131.689593 
L 232.903385 133.260172 
L 233.075077 140.397478 
L 233.418462 169.655127 
L 233.676 186.826312 
L 233.761846 188.247912 
L 234.019385 175.570283 
L 234.448615 137.247267 
L 234.706154 143.725318 
L 235.049538 162.955612 
L 235.135385 162.345155 
L 235.307077 153.351768 
L 235.736308 122.257118 
L 235.822154 122.718801 
L 235.993846 132.603334 
L 236.766462 201.445175 
L 236.852308 200.32689 
L 237.024 185.691788 
L 237.624923 116.898776 
L 237.710769 116.834151 
L 237.882462 124.126248 
L 238.225846 179.996748 
L 238.397538 201.32022 
L 238.483385 202.297006 
L 238.655077 190.404292 
L 239.170154 128.728257 
L 239.256 129.822555 
L 239.341846 127.976095 
L 239.427692 128.45511 
L 239.771077 130.879711 
L 240.028615 139.977506 
L 240.200308 151.008712 
L 240.543692 167.624637 
L 240.629538 167.45465 
L 240.801231 162.240142 
L 241.058769 151.550722 
L 241.573846 128.954966 
L 241.659692 128.178217 
L 241.831385 125.381524 
L 242.003077 133.549714 
L 242.689846 191.452833 
L 242.947385 197.51851 
L 243.290769 180.582624 
L 243.634154 144.584547 
L 243.72 142.970059 
L 243.891692 153.14437 
L 244.063385 164.782774 
L 244.235077 180.73774 
L 244.320923 180.642292 
L 244.750154 162.556224 
L 244.836 163.202062 
L 245.093538 166.759914 
L 245.179385 172.363183 
L 245.608615 150.34518 
L 245.780308 150.203418 
L 245.866154 150.066826 
L 246.295385 131.158377 
L 246.381231 131.202936 
L 246.552923 136.948598 
L 247.068 158.581984 
L 247.153846 158.603705 
L 247.325538 160.206025 
L 247.411385 160.068709 
L 247.497231 158.958515 
L 247.926462 139.757521 
L 248.012308 138.416417 
L 248.269846 142.936445 
L 248.699077 164.818761 
L 249.3 206.234198 
L 249.385846 206.956979 
L 249.557538 205.721088 
L 250.416 151.891485 
L 250.673538 144.474546 
L 250.845231 146.529334 
L 251.102769 156.401442 
L 251.360308 166.790825 
L 251.446154 166.47119 
L 251.961231 157.312392 
L 252.047077 157.396515 
L 252.218769 154.413364 
L 252.304615 154.942663 
L 252.476308 156.891365 
L 252.562154 156.882249 
L 252.648 157.245513 
L 253.077231 169.15474 
L 253.248923 166.745816 
L 253.420615 163.086504 
L 253.678154 160.056778 
L 253.764 163.174766 
L 253.849846 162.806701 
L 254.279077 172.139358 
L 254.536615 166.303006 
L 254.622462 165.639556 
L 254.708308 165.713446 
L 254.794154 168.532833 
L 254.88 168.053469 
L 254.965846 169.842153 
L 255.051692 169.728599 
L 255.137538 169.239575 
L 255.480923 165.590358 
L 255.566769 165.895746 
L 255.996 177.080632 
L 256.081846 177.07319 
L 256.253538 175.283032 
L 256.511077 178.555987 
L 256.596923 177.60596 
L 256.682769 178.257274 
L 256.768615 177.205724 
L 256.854462 178.309649 
L 256.940308 178.085706 
L 257.026154 178.853227 
L 257.112 178.318271 
L 257.283692 175.017658 
L 257.369538 175.726679 
L 257.455385 175.519574 
L 257.541231 175.666437 
L 258.056308 160.71843 
L 258.399692 168.610819 
L 258.571385 173.485332 
L 258.743077 171.811538 
L 259.172308 152.6879 
L 259.344 146.284507 
L 259.515692 147.454487 
L 259.687385 151.794638 
L 260.46 197.502639 
L 260.717538 181.957199 
L 260.975077 170.216367 
L 261.490154 163.287802 
L 261.576 164.536086 
L 261.747692 176.189486 
L 262.005231 194.475654 
L 262.091077 195.30228 
L 262.176923 193.191838 
L 262.777846 146.549425 
L 262.949538 148.651489 
L 263.207077 157.534405 
L 263.378769 157.211599 
L 263.550462 153.674288 
L 263.636308 153.563112 
L 263.893846 161.600716 
L 264.323077 179.480747 
L 264.580615 174.528672 
L 264.666462 175.027491 
L 265.009846 183.086791 
L 265.095692 184.059212 
L 265.267385 179.63148 
L 265.353231 176.939151 
L 265.610769 162.598948 
L 265.782462 160.593338 
L 266.125846 162.772838 
L 266.297538 167.615029 
L 266.383385 167.078425 
L 266.469231 166.414744 
L 266.640923 170.54174 
L 266.726769 170.736226 
L 266.984308 175.280928 
L 267.241846 172.45461 
L 267.585231 153.990739 
L 267.756923 153.106261 
L 268.014462 160.006444 
L 268.186154 161.446792 
L 268.357846 155.385804 
L 268.615385 157.92592 
L 269.130462 169.152749 
L 269.216308 166.696825 
L 269.473846 156.427102 
L 269.645538 150.814687 
L 269.817231 154.375142 
L 270.246462 165.463325 
L 270.418154 164.304121 
L 270.504 164.204851 
L 270.589846 163.412163 
L 270.933231 175.769321 
L 271.019077 175.333772 
L 271.104923 174.664684 
L 271.448308 163.95222 
L 271.62 162.436895 
L 271.791692 163.721278 
L 271.877538 163.142975 
L 272.049231 153.007485 
L 272.306769 135.828695 
L 272.392615 133.991326 
L 272.478462 137.196147 
L 272.993538 196.371567 
L 273.079385 195.760574 
L 273.165231 192.989004 
L 274.195385 115.748393 
L 274.281231 113.897894 
L 274.452923 128.47507 
L 274.882154 178.146785 
L 274.968 177.84633 
L 275.053846 176.109665 
L 275.397231 147.450904 
L 275.483077 150.396401 
L 275.826462 170.944711 
L 275.998154 172.536448 
L 276.084 170.508338 
L 276.341538 155.961179 
L 276.427385 155.186404 
L 276.599077 161.351094 
L 277.028308 182.838686 
L 277.2 186.520244 
L 277.457538 194.331844 
L 277.543385 195.578574 
L 277.629231 193.923366 
L 277.800923 181.795396 
L 278.230154 141.357219 
L 278.316 141.789709 
L 278.487692 152.270269 
L 278.831077 180.493594 
L 279.346154 196.611075 
L 279.432 194.963204 
L 279.517846 192.313148 
L 280.032923 162.837912 
L 280.118769 163.598884 
L 280.290462 175.663284 
L 280.548 191.432704 
L 280.719692 192.138977 
L 280.805538 190.927092 
L 281.234769 166.40599 
L 281.320615 167.696355 
L 281.492308 173.083797 
L 281.578154 170.881122 
L 281.664 164.099226 
L 282.007385 180.882593 
L 282.179077 178.87388 
L 282.436615 168.779633 
L 282.694154 118.529821 
L 282.78 122.02326 
L 282.951692 132.837166 
L 283.209231 175.467573 
L 283.466769 226.647801 
L 283.552615 227.341532 
L 283.724308 215.314174 
L 284.239385 161.827506 
L 284.325231 161.977297 
L 284.496923 166.466332 
L 284.582769 165.460653 
L 284.668615 164.909945 
L 284.754462 163.282002 
L 284.840308 166.11224 
L 285.269538 195.015011 
L 285.527077 202.469429 
L 285.612923 200.610101 
L 286.042154 183.27456 
L 286.213846 181.28547 
L 286.471385 175.372637 
L 286.557231 175.034415 
L 286.728923 171.359045 
L 286.814769 171.54107 
L 286.986462 178.478719 
L 287.415692 214.266226 
L 287.587385 206.664808 
L 287.759077 199.334771 
L 287.930769 200.333058 
L 288.188308 207.123745 
L 288.274154 203.653132 
L 288.617538 161.568444 
L 288.703385 162.72575 
L 288.875077 178.909979 
L 289.132615 208.666073 
L 289.218462 208.483579 
L 289.390154 187.654543 
L 289.476 187.316578 
L 289.561846 188.49802 
L 289.991077 207.501187 
L 290.076923 202.477807 
L 290.334462 152.406019 
L 290.763692 207.506919 
L 290.935385 222.502637 
L 291.021231 218.351492 
L 291.278769 179.812837 
L 291.364615 185.972377 
L 291.536308 186.509905 
L 291.622154 188.198414 
L 292.137231 225.628124 
L 292.652308 198.513638 
L 292.738154 199.843816 
L 293.081538 213.529791 
L 293.424923 186.032088 
L 293.510769 183.956428 
L 293.596615 186.97157 
L 293.94 210.266283 
L 294.025846 213.295222 
L 294.111692 210.099803 
L 294.540923 170.047391 
L 294.626769 168.613029 
L 294.798462 173.642765 
L 294.970154 196.371761 
L 295.227692 225.992549 
L 295.313538 227.11355 
L 295.399385 225.794703 
L 295.914462 193.734673 
L 296.000308 196.826271 
L 296.172 198.983095 
L 296.429538 179.903041 
L 296.515385 180.824767 
L 297.202154 219.685903 
L 297.717231 176.7526 
L 297.803077 179.334534 
L 298.318154 210.584956 
L 298.661538 199.103985 
L 299.004923 187.811788 
L 299.176615 182.963222 
L 299.262462 182.447284 
L 299.434154 196.922893 
L 299.691692 223.2424 
L 299.777538 222.756542 
L 299.949231 210.991748 
L 300.292615 181.210906 
L 300.636 194.98744 
L 301.236923 241.182966 
L 301.408615 228.515233 
L 301.837846 179.648624 
L 301.923692 178.773974 
L 302.009538 179.842424 
L 302.095385 182.553596 
L 302.524615 215.589599 
L 302.610462 215.041158 
L 302.782154 207.139822 
L 302.953846 191.759388 
L 303.211385 168.32129 
L 303.468923 181.160372 
L 303.898154 207.94775 
L 304.155692 192.928662 
L 304.241538 193.333925 
L 304.327385 193.956188 
L 304.413231 192.382687 
L 304.584923 182.47669 
L 304.756615 178.096507 
L 305.014154 169.063831 
L 305.1 168.320659 
L 305.529231 219.24644 
L 305.615077 220.334088 
L 305.872615 199.454131 
L 306.301846 174.010467 
L 306.387692 174.919151 
L 306.473538 174.671957 
L 306.731077 165.068101 
L 306.902769 168.727932 
L 307.246154 196.281126 
L 307.417846 201.469268 
L 307.503692 201.01379 
L 307.675385 189.486618 
L 307.932923 160.352937 
L 308.018769 159.040103 
L 308.190462 166.029035 
L 308.533846 185.156701 
L 308.619692 185.040262 
L 308.705538 184.16761 
L 308.963077 172.489598 
L 309.048923 173.099112 
L 309.306462 184.742554 
L 309.564 181.926338 
L 309.649846 184.426784 
L 309.821538 195.518631 
L 310.079077 188.059412 
L 310.508308 162.83323 
L 310.68 164.268652 
L 310.937538 154.7434 
L 311.023385 153.829953 
L 311.109231 153.853004 
L 311.195077 153.530809 
L 311.366769 170.847271 
L 311.538462 188.030268 
L 312.225231 149.957318 
L 312.482769 174.104224 
L 312.568615 169.847709 
L 312.654462 156.763282 
L 312.826154 173.694048 
L 312.912 174.870321 
L 312.997846 174.642994 
L 313.255385 166.918714 
L 313.512923 190.261675 
L 313.684615 171.044548 
L 313.770462 181.560846 
L 313.856308 180.865117 
L 314.028 175.424725 
L 314.285538 159.699745 
L 314.714769 170.203418 
L 314.800615 169.424766 
L 315.058154 148.724061 
L 315.315692 123.232642 
L 315.401538 123.835145 
L 315.830769 180.195861 
L 315.916615 179.751565 
L 316.174154 167.364015 
L 316.345846 161.634349 
L 316.517538 168.529063 
L 317.032615 143.08111 
L 317.118462 145.580737 
L 317.461846 166.504336 
L 317.633538 155.933122 
L 317.891077 137.906597 
L 317.976923 137.546143 
L 318.234462 146.751454 
L 318.320308 146.127162 
L 318.492 139.613243 
L 318.921231 102.302438 
L 319.178769 112.756502 
L 319.264615 108.151721 
L 319.350462 111.005116 
L 319.779692 141.448728 
L 319.951385 147.931255 
L 320.123077 163.378287 
L 320.208923 161.592949 
L 320.380615 152.771211 
L 320.466462 150.95952 
L 320.638154 151.649598 
L 320.809846 148.76287 
L 321.410769 127.766974 
L 321.496615 129.781324 
L 321.84 150.2972 
L 322.183385 159.710446 
L 322.355077 163.365301 
L 322.526769 168.505906 
L 322.612615 167.552258 
L 322.870154 143.816758 
L 323.213538 113.752648 
L 323.299385 114.32065 
L 323.814462 150.149613 
L 323.900308 149.432557 
L 324.072 142.399828 
L 324.157846 143.01144 
L 324.501231 152.475988 
L 324.587077 153.247248 
L 324.672923 151.279236 
L 324.930462 131.606788 
L 325.102154 121.882479 
L 325.188 121.714508 
L 326.132308 146.646734 
L 326.304 140.360567 
L 326.561538 137.666509 
L 326.647385 122.276428 
L 326.990769 144.136861 
L 327.076615 144.185778 
L 327.334154 126.8261 
L 327.42 128.171144 
L 327.505846 129.936034 
L 327.677538 115.821497 
L 327.849231 130.17892 
L 327.935077 131.417464 
L 328.192615 125.069407 
L 328.278462 126.730676 
L 328.450154 135.326268 
L 328.621846 126.847633 
L 328.879385 117.520733 
L 329.136923 102.913413 
L 329.222769 104.278867 
L 329.394462 110.516536 
L 329.566154 105.537409 
L 329.909538 136.875045 
L 330.081231 143.124189 
L 330.338769 140.434014 
L 330.510462 145.260678 
L 330.768 158.274068 
L 330.939692 158.153097 
L 331.368923 135.799689 
L 331.540615 141.064287 
L 331.798154 153.396945 
L 331.969846 155.625786 
L 332.141538 152.696703 
L 332.399077 138.550256 
L 332.484923 139.596212 
L 332.656615 148.844802 
L 333 166.810323 
L 333.171692 153.764073 
L 333.515077 127.602948 
L 333.600923 125.333894 
L 333.772615 127.218389 
L 334.030154 140.449647 
L 334.287692 146.073582 
L 334.373538 146.253646 
L 334.631077 153.830678 
L 334.716923 153.649083 
L 334.802769 151.47102 
L 334.888615 153.829554 
L 335.317846 137.501784 
L 335.661231 147.397941 
L 335.832923 144.106643 
L 336.090462 128.233952 
L 336.176308 129.634156 
L 336.348 137.683503 
L 336.605538 155.156342 
L 336.691385 156.74251 
L 336.863077 152.015547 
L 337.378154 122.340398 
L 337.635692 115.328091 
L 337.807385 109.003658 
L 337.979077 113.090784 
L 338.494154 169.871952 
L 338.58 169.259941 
L 338.665846 166.732118 
L 338.837538 156.551351 
L 338.923385 157.038265 
L 339.009231 160.534176 
L 339.095077 168.656146 
L 339.180923 168.215927 
L 339.438462 152.523206 
L 339.781846 121.654066 
L 339.867692 125.510643 
L 340.211077 164.909089 
L 340.296923 166.204024 
L 340.468615 158.074968 
L 340.812 127.305958 
L 341.241231 154.142833 
L 341.327077 153.855445 
L 341.498769 142.485287 
L 341.670462 126.222161 
L 341.756308 126.261519 
L 341.842154 130.08344 
L 342.357231 178.666825 
L 342.443077 180.859093 
L 342.614769 173.674169 
L 343.129846 144.176213 
L 343.215692 143.841313 
L 343.473231 157.122594 
L 343.559077 154.317822 
L 343.644923 143.897535 
L 343.902462 155.191461 
L 343.988308 155.095263 
L 344.16 143.134684 
L 344.417538 151.240952 
L 344.503385 147.093546 
L 344.675077 126.212983 
L 344.760923 132.877804 
L 345.276 119.583057 
L 345.533538 127.394283 
L 345.705231 138.221787 
L 346.048615 161.233132 
L 346.134462 160.771536 
L 346.477846 132.400194 
L 346.563692 133.432333 
L 347.078769 187.697148 
L 347.164615 187.107675 
L 347.336308 169.680793 
L 347.593846 141.672084 
L 347.765538 144.333652 
L 348.194769 154.866475 
L 348.366462 157.202771 
L 348.452308 154.167257 
L 348.624 143.83989 
L 348.709846 145.451225 
L 349.139077 163.898715 
L 349.310769 167.649592 
L 349.396615 165.997001 
L 349.825846 135.76939 
L 350.169231 119.208399 
L 350.340923 130.984756 
L 350.598462 149.866052 
L 350.856 166.970371 
L 351.027692 153.3399 
L 351.371077 125.230086 
L 351.456923 123.962147 
L 351.542769 120.275545 
L 351.628615 123.750572 
L 352.057846 159.141976 
L 352.229538 162.648489 
L 352.315385 162.795176 
L 353.002154 131.56876 
L 353.088 131.698659 
L 353.173846 136.312768 
L 353.517231 170.28761 
L 353.603077 171.582345 
L 353.688923 171.211553 
L 353.860615 163.258671 
L 354.118154 131.84379 
L 354.118154 131.84379 
" style="fill:none;stroke:#e24a33;stroke-linecap:square;"/>
   </g>
   <g id="patch_3">
    <path d="M 54 28.8 
L 388.8 28.8 
" style="fill:none;stroke:#ffffff;stroke-linecap:square;stroke-linejoin:miter;"/>
   </g>
   <g id="patch_4">
    <path d="M 388.8 252 
L 388.8 28.8 
" style="fill:none;stroke:#ffffff;stroke-linecap:square;stroke-linejoin:miter;"/>
   </g>
   <g id="patch_5">
    <path d="M 54 252 
L 388.8 252 
" style="fill:none;stroke:#ffffff;stroke-linecap:square;stroke-linejoin:miter;"/>
   </g>
   <g id="patch_6">
    <path d="M 54 252 
L 54 28.8 
" style="fill:none;stroke:#ffffff;stroke-linecap:square;stroke-linejoin:miter;"/>
   </g>
   <g id="text_17">
    <!-- Star without an exoplanet -->
    <defs>
     <path id="BitstreamVeraSans-Roman-20"/>
     <path d="M 54.890625 33.015625 
L 54.890625 0 
L 45.90625 0 
L 45.90625 32.71875 
Q 45.90625 40.484375 42.875 44.328125 
Q 39.84375 48.1875 33.796875 48.1875 
Q 26.515625 48.1875 22.3125 43.546875 
Q 18.109375 38.921875 18.109375 30.90625 
L 18.109375 0 
L 9.078125 0 
L 9.078125 54.6875 
L 18.109375 54.6875 
L 18.109375 46.1875 
Q 21.34375 51.125 25.703125 53.5625 
Q 30.078125 56 35.796875 56 
Q 45.21875 56 50.046875 50.171875 
Q 54.890625 44.34375 54.890625 33.015625 
" id="BitstreamVeraSans-Roman-6e"/>
     <path d="M 34.28125 27.484375 
Q 23.390625 27.484375 19.1875 25 
Q 14.984375 22.515625 14.984375 16.5 
Q 14.984375 11.71875 18.140625 8.90625 
Q 21.296875 6.109375 26.703125 6.109375 
Q 34.1875 6.109375 38.703125 11.40625 
Q 43.21875 16.703125 43.21875 25.484375 
L 43.21875 27.484375 
z
M 52.203125 31.203125 
L 52.203125 0 
L 43.21875 0 
L 43.21875 8.296875 
Q 40.140625 3.328125 35.546875 0.953125 
Q 30.953125 -1.421875 24.3125 -1.421875 
Q 15.921875 -1.421875 10.953125 3.296875 
Q 6 8.015625 6 15.921875 
Q 6 25.140625 12.171875 29.828125 
Q 18.359375 34.515625 30.609375 34.515625 
L 43.21875 34.515625 
L 43.21875 35.40625 
Q 43.21875 41.609375 39.140625 45 
Q 35.0625 48.390625 27.6875 48.390625 
Q 23 48.390625 18.546875 47.265625 
Q 14.109375 46.140625 10.015625 43.890625 
L 10.015625 52.203125 
Q 14.9375 54.109375 19.578125 55.046875 
Q 24.21875 56 28.609375 56 
Q 40.484375 56 46.34375 49.84375 
Q 52.203125 43.703125 52.203125 31.203125 
" id="BitstreamVeraSans-Roman-61"/>
     <path d="M 30.609375 48.390625 
Q 23.390625 48.390625 19.1875 42.75 
Q 14.984375 37.109375 14.984375 27.296875 
Q 14.984375 17.484375 19.15625 11.84375 
Q 23.34375 6.203125 30.609375 6.203125 
Q 37.796875 6.203125 41.984375 11.859375 
Q 46.1875 17.53125 46.1875 27.296875 
Q 46.1875 37.015625 41.984375 42.703125 
Q 37.796875 48.390625 30.609375 48.390625 
M 30.609375 56 
Q 42.328125 56 49.015625 48.375 
Q 55.71875 40.765625 55.71875 27.296875 
Q 55.71875 13.875 49.015625 6.21875 
Q 42.328125 -1.421875 30.609375 -1.421875 
Q 18.84375 -1.421875 12.171875 6.21875 
Q 5.515625 13.875 5.515625 27.296875 
Q 5.515625 40.765625 12.171875 48.375 
Q 18.84375 56 30.609375 56 
" id="BitstreamVeraSans-Roman-6f"/>
     <path d="M 53.515625 70.515625 
L 53.515625 60.890625 
Q 47.90625 63.578125 42.921875 64.890625 
Q 37.9375 66.21875 33.296875 66.21875 
Q 25.25 66.21875 20.875 63.09375 
Q 16.5 59.96875 16.5 54.203125 
Q 16.5 49.359375 19.40625 46.890625 
Q 22.3125 44.4375 30.421875 42.921875 
L 36.375 41.703125 
Q 47.40625 39.59375 52.65625 34.296875 
Q 57.90625 29 57.90625 20.125 
Q 57.90625 9.515625 50.796875 4.046875 
Q 43.703125 -1.421875 29.984375 -1.421875 
Q 24.8125 -1.421875 18.96875 -0.25 
Q 13.140625 0.921875 6.890625 3.21875 
L 6.890625 13.375 
Q 12.890625 10.015625 18.65625 8.296875 
Q 24.421875 6.59375 29.984375 6.59375 
Q 38.421875 6.59375 43.015625 9.90625 
Q 47.609375 13.234375 47.609375 19.390625 
Q 47.609375 24.75 44.3125 27.78125 
Q 41.015625 30.8125 33.5 32.328125 
L 27.484375 33.5 
Q 16.453125 35.6875 11.515625 40.375 
Q 6.59375 45.0625 6.59375 53.421875 
Q 6.59375 63.09375 13.40625 68.65625 
Q 20.21875 74.21875 32.171875 74.21875 
Q 37.3125 74.21875 42.625 73.28125 
Q 47.953125 72.359375 53.515625 70.515625 
" id="BitstreamVeraSans-Roman-53"/>
     <path d="M 54.890625 33.015625 
L 54.890625 0 
L 45.90625 0 
L 45.90625 32.71875 
Q 45.90625 40.484375 42.875 44.328125 
Q 39.84375 48.1875 33.796875 48.1875 
Q 26.515625 48.1875 22.3125 43.546875 
Q 18.109375 38.921875 18.109375 30.90625 
L 18.109375 0 
L 9.078125 0 
L 9.078125 75.984375 
L 18.109375 75.984375 
L 18.109375 46.1875 
Q 21.34375 51.125 25.703125 53.5625 
Q 30.078125 56 35.796875 56 
Q 45.21875 56 50.046875 50.171875 
Q 54.890625 44.34375 54.890625 33.015625 
" id="BitstreamVeraSans-Roman-68"/>
     <path d="M 4.203125 54.6875 
L 13.1875 54.6875 
L 24.421875 12.015625 
L 35.59375 54.6875 
L 46.1875 54.6875 
L 57.421875 12.015625 
L 68.609375 54.6875 
L 77.59375 54.6875 
L 63.28125 0 
L 52.6875 0 
L 40.921875 44.828125 
L 29.109375 0 
L 18.5 0 
z
" id="BitstreamVeraSans-Roman-77"/>
     <path d="M 18.3125 70.21875 
L 18.3125 54.6875 
L 36.8125 54.6875 
L 36.8125 47.703125 
L 18.3125 47.703125 
L 18.3125 18.015625 
Q 18.3125 11.328125 20.140625 9.421875 
Q 21.96875 7.515625 27.59375 7.515625 
L 36.8125 7.515625 
L 36.8125 0 
L 27.59375 0 
Q 17.1875 0 13.234375 3.875 
Q 9.28125 7.765625 9.28125 18.015625 
L 9.28125 47.703125 
L 2.6875 47.703125 
L 2.6875 54.6875 
L 9.28125 54.6875 
L 9.28125 70.21875 
z
" id="BitstreamVeraSans-Roman-74"/>
     <path d="M 41.109375 46.296875 
Q 39.59375 47.171875 37.8125 47.578125 
Q 36.03125 48 33.890625 48 
Q 26.265625 48 22.1875 43.046875 
Q 18.109375 38.09375 18.109375 28.8125 
L 18.109375 0 
L 9.078125 0 
L 9.078125 54.6875 
L 18.109375 54.6875 
L 18.109375 46.1875 
Q 20.953125 51.171875 25.484375 53.578125 
Q 30.03125 56 36.53125 56 
Q 37.453125 56 38.578125 55.875 
Q 39.703125 55.765625 41.0625 55.515625 
z
" id="BitstreamVeraSans-Roman-72"/>
     <path d="M 18.109375 8.203125 
L 18.109375 -20.796875 
L 9.078125 -20.796875 
L 9.078125 54.6875 
L 18.109375 54.6875 
L 18.109375 46.390625 
Q 20.953125 51.265625 25.265625 53.625 
Q 29.59375 56 35.59375 56 
Q 45.5625 56 51.78125 48.09375 
Q 58.015625 40.1875 58.015625 27.296875 
Q 58.015625 14.40625 51.78125 6.484375 
Q 45.5625 -1.421875 35.59375 -1.421875 
Q 29.59375 -1.421875 25.265625 0.953125 
Q 20.953125 3.328125 18.109375 8.203125 
M 48.6875 27.296875 
Q 48.6875 37.203125 44.609375 42.84375 
Q 40.53125 48.484375 33.40625 48.484375 
Q 26.265625 48.484375 22.1875 42.84375 
Q 18.109375 37.203125 18.109375 27.296875 
Q 18.109375 17.390625 22.1875 11.75 
Q 26.265625 6.109375 33.40625 6.109375 
Q 40.53125 6.109375 44.609375 11.75 
Q 48.6875 17.390625 48.6875 27.296875 
" id="BitstreamVeraSans-Roman-70"/>
    </defs>
    <g transform="translate(127.837125 23.8)scale(0.144 -0.144)">
     <use xlink:href="#BitstreamVeraSans-Roman-53"/>
     <use x="63.4765625" xlink:href="#BitstreamVeraSans-Roman-74"/>
     <use x="102.685546875" xlink:href="#BitstreamVeraSans-Roman-61"/>
     <use x="163.96484375" xlink:href="#BitstreamVeraSans-Roman-72"/>
     <use x="205.078125" xlink:href="#BitstreamVeraSans-Roman-20"/>
     <use x="236.865234375" xlink:href="#BitstreamVeraSans-Roman-77"/>
     <use x="318.65234375" xlink:href="#BitstreamVeraSans-Roman-69"/>
     <use x="346.435546875" xlink:href="#BitstreamVeraSans-Roman-74"/>
     <use x="385.64453125" xlink:href="#BitstreamVeraSans-Roman-68"/>
     <use x="449.0234375" xlink:href="#BitstreamVeraSans-Roman-6f"/>
     <use x="510.205078125" xlink:href="#BitstreamVeraSans-Roman-75"/>
     <use x="573.583984375" xlink:href="#BitstreamVeraSans-Roman-74"/>
     <use x="612.79296875" xlink:href="#BitstreamVeraSans-Roman-20"/>
     <use x="644.580078125" xlink:href="#BitstreamVeraSans-Roman-61"/>
     <use x="705.859375" xlink:href="#BitstreamVeraSans-Roman-6e"/>
     <use x="769.23828125" xlink:href="#BitstreamVeraSans-Roman-20"/>
     <use x="801.025390625" xlink:href="#BitstreamVeraSans-Roman-65"/>
     <use x="862.533203125" xlink:href="#BitstreamVeraSans-Roman-78"/>
     <use x="921.666015625" xlink:href="#BitstreamVeraSans-Roman-6f"/>
     <use x="982.84765625" xlink:href="#BitstreamVeraSans-Roman-70"/>
     <use x="1046.32421875" xlink:href="#BitstreamVeraSans-Roman-6c"/>
     <use x="1074.10742188" xlink:href="#BitstreamVeraSans-Roman-61"/>
     <use x="1135.38671875" xlink:href="#BitstreamVeraSans-Roman-6e"/>
     <use x="1198.765625" xlink:href="#BitstreamVeraSans-Roman-65"/>
     <use x="1260.2890625" xlink:href="#BitstreamVeraSans-Roman-74"/>
    </g>
   </g>
   <g id="legend_1">
    <g id="patch_7">
     <path d="M 140.957188 259.16 
L 305.842813 259.16 
Q 308.242813 259.16 308.242813 256.76 
L 308.242813 240.34625 
Q 308.242813 237.94625 305.842813 237.94625 
L 140.957188 237.94625 
Q 138.557187 237.94625 138.557187 240.34625 
L 138.557187 256.76 
Q 138.557187 259.16 140.957188 259.16 
z
" style="fill:#454545;opacity:0.5;stroke:#454545;stroke-linejoin:miter;stroke-width:0.5;"/>
    </g>
    <g id="patch_8">
     <path d="M 138.957188 257.16 
L 303.842813 257.16 
Q 306.242813 257.16 306.242813 254.76 
L 306.242813 238.34625 
Q 306.242813 235.94625 303.842813 235.94625 
L 138.957188 235.94625 
Q 136.557187 235.94625 136.557187 238.34625 
L 136.557187 254.76 
Q 136.557187 257.16 138.957188 257.16 
z
" style="fill:#e5e5e5;stroke:#ffffff;stroke-linejoin:miter;stroke-width:0.5;"/>
    </g>
    <g id="line2d_44">
     <path d="M 144.957188 245.664375 
L 161.757188 245.664375 
" style="fill:none;stroke:#e24a33;stroke-linecap:square;"/>
    </g>
    <g id="line2d_45"/>
    <g id="text_18">
     <!-- Sav-Gol Smoothened -->
     <defs>
      <path d="M 2.984375 54.6875 
L 12.5 54.6875 
L 29.59375 8.796875 
L 46.6875 54.6875 
L 56.203125 54.6875 
L 35.6875 0 
L 23.484375 0 
z
" id="BitstreamVeraSans-Roman-76"/>
      <path d="M 59.515625 10.40625 
L 59.515625 29.984375 
L 43.40625 29.984375 
L 43.40625 38.09375 
L 69.28125 38.09375 
L 69.28125 6.78125 
Q 63.578125 2.734375 56.6875 0.65625 
Q 49.8125 -1.421875 42 -1.421875 
Q 24.90625 -1.421875 15.25 8.5625 
Q 5.609375 18.5625 5.609375 36.375 
Q 5.609375 54.25 15.25 64.234375 
Q 24.90625 74.21875 42 74.21875 
Q 49.125 74.21875 55.546875 72.453125 
Q 61.96875 70.703125 67.390625 67.28125 
L 67.390625 56.78125 
Q 61.921875 61.421875 55.765625 63.765625 
Q 49.609375 66.109375 42.828125 66.109375 
Q 29.4375 66.109375 22.71875 58.640625 
Q 16.015625 51.171875 16.015625 36.375 
Q 16.015625 21.625 22.71875 14.15625 
Q 29.4375 6.6875 42.828125 6.6875 
Q 48.046875 6.6875 52.140625 7.59375 
Q 56.25 8.5 59.515625 10.40625 
" id="BitstreamVeraSans-Roman-47"/>
      <path d="M 4.890625 31.390625 
L 31.203125 31.390625 
L 31.203125 23.390625 
L 4.890625 23.390625 
z
" id="BitstreamVeraSans-Roman-2d"/>
      <path d="M 45.40625 46.390625 
L 45.40625 75.984375 
L 54.390625 75.984375 
L 54.390625 0 
L 45.40625 0 
L 45.40625 8.203125 
Q 42.578125 3.328125 38.25 0.953125 
Q 33.9375 -1.421875 27.875 -1.421875 
Q 17.96875 -1.421875 11.734375 6.484375 
Q 5.515625 14.40625 5.515625 27.296875 
Q 5.515625 40.1875 11.734375 48.09375 
Q 17.96875 56 27.875 56 
Q 33.9375 56 38.25 53.625 
Q 42.578125 51.265625 45.40625 46.390625 
M 14.796875 27.296875 
Q 14.796875 17.390625 18.875 11.75 
Q 22.953125 6.109375 30.078125 6.109375 
Q 37.203125 6.109375 41.296875 11.75 
Q 45.40625 17.390625 45.40625 27.296875 
Q 45.40625 37.203125 41.296875 42.84375 
Q 37.203125 48.484375 30.078125 48.484375 
Q 22.953125 48.484375 18.875 42.84375 
Q 14.796875 37.203125 14.796875 27.296875 
" id="BitstreamVeraSans-Roman-64"/>
     </defs>
     <g transform="translate(174.9571875 249.864375)scale(0.12 -0.12)">
      <use xlink:href="#BitstreamVeraSans-Roman-53"/>
      <use x="63.4765625" xlink:href="#BitstreamVeraSans-Roman-61"/>
      <use x="124.755859375" xlink:href="#BitstreamVeraSans-Roman-76"/>
      <use x="183.904296875" xlink:href="#BitstreamVeraSans-Roman-2d"/>
      <use x="220.03515625" xlink:href="#BitstreamVeraSans-Roman-47"/>
      <use x="297.525390625" xlink:href="#BitstreamVeraSans-Roman-6f"/>
      <use x="358.70703125" xlink:href="#BitstreamVeraSans-Roman-6c"/>
      <use x="386.490234375" xlink:href="#BitstreamVeraSans-Roman-20"/>
      <use x="418.27734375" xlink:href="#BitstreamVeraSans-Roman-53"/>
      <use x="481.75390625" xlink:href="#BitstreamVeraSans-Roman-6d"/>
      <use x="579.166015625" xlink:href="#BitstreamVeraSans-Roman-6f"/>
      <use x="640.34765625" xlink:href="#BitstreamVeraSans-Roman-6f"/>
      <use x="701.529296875" xlink:href="#BitstreamVeraSans-Roman-74"/>
      <use x="740.73828125" xlink:href="#BitstreamVeraSans-Roman-68"/>
      <use x="804.1171875" xlink:href="#BitstreamVeraSans-Roman-65"/>
      <use x="865.640625" xlink:href="#BitstreamVeraSans-Roman-6e"/>
      <use x="929.01953125" xlink:href="#BitstreamVeraSans-Roman-65"/>
      <use x="990.54296875" xlink:href="#BitstreamVeraSans-Roman-64"/>
     </g>
    </g>
   </g>
  </g>
 </g>
 <defs>
  <clipPath id="pf8a0d56a4e">
   <rect height="223.2" width="334.8" x="54.0" y="28.8"/>
  </clipPath>
 </defs>
</svg>
