<?xml version="1.0" encoding="utf-8" standalone="no"?>
<!DOCTYPE svg PUBLIC "-//W3C//DTD SVG 1.1//EN"
  "http://www.w3.org/Graphics/SVG/1.1/DTD/svg11.dtd">
<!-- Created with matplotlib (http://matplotlib.org/) -->
<svg height="288pt" version="1.1" viewBox="0 0 432 288" width="432pt" xmlns="http://www.w3.org/2000/svg" xmlns:xlink="http://www.w3.org/1999/xlink">
 <defs>
  <style type="text/css">
*{stroke-linecap:butt;stroke-linejoin:round;stroke-miterlimit:100000;}
  </style>
 </defs>
 <g id="figure_1">
  <g id="patch_1">
   <path d="M 0 288 
L 432 288 
L 432 0 
L 0 0 
z
" style="fill:#ffffff;"/>
  </g>
  <g id="axes_1">
   <g id="patch_2">
    <path d="M 54 252 
L 388.8 252 
L 388.8 28.8 
L 54 28.8 
z
" style="fill:#e5e5e5;"/>
   </g>
   <g id="matplotlib.axis_1">
    <g id="xtick_1">
     <g id="line2d_1">
      <path clip-path="url(#pfb99fc7617)" d="M 79.753846 252 
L 79.753846 28.8 
" style="fill:none;stroke:#ffffff;stroke-linecap:square;stroke-width:0.5;"/>
     </g>
     <g id="line2d_2">
      <defs>
       <path d="M 0 0 
L 0 4 
" id="m3fcea100aa" style="stroke:#555555;stroke-width:0.5;"/>
      </defs>
      <g>
       <use style="fill:#555555;stroke:#555555;stroke-width:0.5;" x="79.7538461538" xlink:href="#m3fcea100aa" y="252.0"/>
      </g>
     </g>
     <g id="line2d_3">
      <defs>
       <path d="M 0 0 
L 0 -4 
" id="m2f2d714df7" style="stroke:#555555;stroke-width:0.5;"/>
      </defs>
      <g>
       <use style="fill:#555555;stroke:#555555;stroke-width:0.5;" x="79.7538461538" xlink:href="#m2f2d714df7" y="28.8"/>
      </g>
     </g>
     <g id="text_1">
      <!-- 0 -->
      <defs>
       <path d="M 31.78125 66.40625 
Q 24.171875 66.40625 20.328125 58.90625 
Q 16.5 51.421875 16.5 36.375 
Q 16.5 21.390625 20.328125 13.890625 
Q 24.171875 6.390625 31.78125 6.390625 
Q 39.453125 6.390625 43.28125 13.890625 
Q 47.125 21.390625 47.125 36.375 
Q 47.125 51.421875 43.28125 58.90625 
Q 39.453125 66.40625 31.78125 66.40625 
M 31.78125 74.21875 
Q 44.046875 74.21875 50.515625 64.515625 
Q 56.984375 54.828125 56.984375 36.375 
Q 56.984375 17.96875 50.515625 8.265625 
Q 44.046875 -1.421875 31.78125 -1.421875 
Q 19.53125 -1.421875 13.0625 8.265625 
Q 6.59375 17.96875 6.59375 36.375 
Q 6.59375 54.828125 13.0625 64.515625 
Q 19.53125 74.21875 31.78125 74.21875 
" id="BitstreamVeraSans-Roman-30"/>
      </defs>
      <g style="fill:#555555;" transform="translate(76.5725961538 267.5984375)scale(0.1 -0.1)">
       <use xlink:href="#BitstreamVeraSans-Roman-30"/>
      </g>
     </g>
    </g>
    <g id="xtick_2">
     <g id="line2d_4">
      <path clip-path="url(#pfb99fc7617)" d="M 122.676923 252 
L 122.676923 28.8 
" style="fill:none;stroke:#ffffff;stroke-linecap:square;stroke-width:0.5;"/>
     </g>
     <g id="line2d_5">
      <g>
       <use style="fill:#555555;stroke:#555555;stroke-width:0.5;" x="122.676923077" xlink:href="#m3fcea100aa" y="252.0"/>
      </g>
     </g>
     <g id="line2d_6">
      <g>
       <use style="fill:#555555;stroke:#555555;stroke-width:0.5;" x="122.676923077" xlink:href="#m2f2d714df7" y="28.8"/>
      </g>
     </g>
     <g id="text_2">
      <!-- 500 -->
      <defs>
       <path d="M 10.796875 72.90625 
L 49.515625 72.90625 
L 49.515625 64.59375 
L 19.828125 64.59375 
L 19.828125 46.734375 
Q 21.96875 47.46875 24.109375 47.828125 
Q 26.265625 48.1875 28.421875 48.1875 
Q 40.625 48.1875 47.75 41.5 
Q 54.890625 34.8125 54.890625 23.390625 
Q 54.890625 11.625 47.5625 5.09375 
Q 40.234375 -1.421875 26.90625 -1.421875 
Q 22.3125 -1.421875 17.546875 -0.640625 
Q 12.796875 0.140625 7.71875 1.703125 
L 7.71875 11.625 
Q 12.109375 9.234375 16.796875 8.0625 
Q 21.484375 6.890625 26.703125 6.890625 
Q 35.15625 6.890625 40.078125 11.328125 
Q 45.015625 15.765625 45.015625 23.390625 
Q 45.015625 31 40.078125 35.4375 
Q 35.15625 39.890625 26.703125 39.890625 
Q 22.75 39.890625 18.8125 39.015625 
Q 14.890625 38.140625 10.796875 36.28125 
z
" id="BitstreamVeraSans-Roman-35"/>
      </defs>
      <g style="fill:#555555;" transform="translate(113.133173077 267.5984375)scale(0.1 -0.1)">
       <use xlink:href="#BitstreamVeraSans-Roman-35"/>
       <use x="63.623046875" xlink:href="#BitstreamVeraSans-Roman-30"/>
       <use x="127.24609375" xlink:href="#BitstreamVeraSans-Roman-30"/>
      </g>
     </g>
    </g>
    <g id="xtick_3">
     <g id="line2d_7">
      <path clip-path="url(#pfb99fc7617)" d="M 165.6 252 
L 165.6 28.8 
" style="fill:none;stroke:#ffffff;stroke-linecap:square;stroke-width:0.5;"/>
     </g>
     <g id="line2d_8">
      <g>
       <use style="fill:#555555;stroke:#555555;stroke-width:0.5;" x="165.6" xlink:href="#m3fcea100aa" y="252.0"/>
      </g>
     </g>
     <g id="line2d_9">
      <g>
       <use style="fill:#555555;stroke:#555555;stroke-width:0.5;" x="165.6" xlink:href="#m2f2d714df7" y="28.8"/>
      </g>
     </g>
     <g id="text_3">
      <!-- 1000 -->
      <defs>
       <path d="M 12.40625 8.296875 
L 28.515625 8.296875 
L 28.515625 63.921875 
L 10.984375 60.40625 
L 10.984375 69.390625 
L 28.421875 72.90625 
L 38.28125 72.90625 
L 38.28125 8.296875 
L 54.390625 8.296875 
L 54.390625 0 
L 12.40625 0 
z
" id="BitstreamVeraSans-Roman-31"/>
      </defs>
      <g style="fill:#555555;" transform="translate(152.875 267.5984375)scale(0.1 -0.1)">
       <use xlink:href="#BitstreamVeraSans-Roman-31"/>
       <use x="63.623046875" xlink:href="#BitstreamVeraSans-Roman-30"/>
       <use x="127.24609375" xlink:href="#BitstreamVeraSans-Roman-30"/>
       <use x="190.869140625" xlink:href="#BitstreamVeraSans-Roman-30"/>
      </g>
     </g>
    </g>
    <g id="xtick_4">
     <g id="line2d_10">
      <path clip-path="url(#pfb99fc7617)" d="M 208.523077 252 
L 208.523077 28.8 
" style="fill:none;stroke:#ffffff;stroke-linecap:square;stroke-width:0.5;"/>
     </g>
     <g id="line2d_11">
      <g>
       <use style="fill:#555555;stroke:#555555;stroke-width:0.5;" x="208.523076923" xlink:href="#m3fcea100aa" y="252.0"/>
      </g>
     </g>
     <g id="line2d_12">
      <g>
       <use style="fill:#555555;stroke:#555555;stroke-width:0.5;" x="208.523076923" xlink:href="#m2f2d714df7" y="28.8"/>
      </g>
     </g>
     <g id="text_4">
      <!-- 1500 -->
      <g style="fill:#555555;" transform="translate(195.798076923 267.5984375)scale(0.1 -0.1)">
       <use xlink:href="#BitstreamVeraSans-Roman-31"/>
       <use x="63.623046875" xlink:href="#BitstreamVeraSans-Roman-35"/>
       <use x="127.24609375" xlink:href="#BitstreamVeraSans-Roman-30"/>
       <use x="190.869140625" xlink:href="#BitstreamVeraSans-Roman-30"/>
      </g>
     </g>
    </g>
    <g id="xtick_5">
     <g id="line2d_13">
      <path clip-path="url(#pfb99fc7617)" d="M 251.446154 252 
L 251.446154 28.8 
" style="fill:none;stroke:#ffffff;stroke-linecap:square;stroke-width:0.5;"/>
     </g>
     <g id="line2d_14">
      <g>
       <use style="fill:#555555;stroke:#555555;stroke-width:0.5;" x="251.446153846" xlink:href="#m3fcea100aa" y="252.0"/>
      </g>
     </g>
     <g id="line2d_15">
      <g>
       <use style="fill:#555555;stroke:#555555;stroke-width:0.5;" x="251.446153846" xlink:href="#m2f2d714df7" y="28.8"/>
      </g>
     </g>
     <g id="text_5">
      <!-- 2000 -->
      <defs>
       <path d="M 19.1875 8.296875 
L 53.609375 8.296875 
L 53.609375 0 
L 7.328125 0 
L 7.328125 8.296875 
Q 12.9375 14.109375 22.625 23.890625 
Q 32.328125 33.6875 34.8125 36.53125 
Q 39.546875 41.84375 41.421875 45.53125 
Q 43.3125 49.21875 43.3125 52.78125 
Q 43.3125 58.59375 39.234375 62.25 
Q 35.15625 65.921875 28.609375 65.921875 
Q 23.96875 65.921875 18.8125 64.3125 
Q 13.671875 62.703125 7.8125 59.421875 
L 7.8125 69.390625 
Q 13.765625 71.78125 18.9375 73 
Q 24.125 74.21875 28.421875 74.21875 
Q 39.75 74.21875 46.484375 68.546875 
Q 53.21875 62.890625 53.21875 53.421875 
Q 53.21875 48.921875 51.53125 44.890625 
Q 49.859375 40.875 45.40625 35.40625 
Q 44.1875 33.984375 37.640625 27.21875 
Q 31.109375 20.453125 19.1875 8.296875 
" id="BitstreamVeraSans-Roman-32"/>
      </defs>
      <g style="fill:#555555;" transform="translate(238.721153846 267.5984375)scale(0.1 -0.1)">
       <use xlink:href="#BitstreamVeraSans-Roman-32"/>
       <use x="63.623046875" xlink:href="#BitstreamVeraSans-Roman-30"/>
       <use x="127.24609375" xlink:href="#BitstreamVeraSans-Roman-30"/>
       <use x="190.869140625" xlink:href="#BitstreamVeraSans-Roman-30"/>
      </g>
     </g>
    </g>
    <g id="xtick_6">
     <g id="line2d_16">
      <path clip-path="url(#pfb99fc7617)" d="M 294.369231 252 
L 294.369231 28.8 
" style="fill:none;stroke:#ffffff;stroke-linecap:square;stroke-width:0.5;"/>
     </g>
     <g id="line2d_17">
      <g>
       <use style="fill:#555555;stroke:#555555;stroke-width:0.5;" x="294.369230769" xlink:href="#m3fcea100aa" y="252.0"/>
      </g>
     </g>
     <g id="line2d_18">
      <g>
       <use style="fill:#555555;stroke:#555555;stroke-width:0.5;" x="294.369230769" xlink:href="#m2f2d714df7" y="28.8"/>
      </g>
     </g>
     <g id="text_6">
      <!-- 2500 -->
      <g style="fill:#555555;" transform="translate(281.644230769 267.5984375)scale(0.1 -0.1)">
       <use xlink:href="#BitstreamVeraSans-Roman-32"/>
       <use x="63.623046875" xlink:href="#BitstreamVeraSans-Roman-35"/>
       <use x="127.24609375" xlink:href="#BitstreamVeraSans-Roman-30"/>
       <use x="190.869140625" xlink:href="#BitstreamVeraSans-Roman-30"/>
      </g>
     </g>
    </g>
    <g id="xtick_7">
     <g id="line2d_19">
      <path clip-path="url(#pfb99fc7617)" d="M 337.292308 252 
L 337.292308 28.8 
" style="fill:none;stroke:#ffffff;stroke-linecap:square;stroke-width:0.5;"/>
     </g>
     <g id="line2d_20">
      <g>
       <use style="fill:#555555;stroke:#555555;stroke-width:0.5;" x="337.292307692" xlink:href="#m3fcea100aa" y="252.0"/>
      </g>
     </g>
     <g id="line2d_21">
      <g>
       <use style="fill:#555555;stroke:#555555;stroke-width:0.5;" x="337.292307692" xlink:href="#m2f2d714df7" y="28.8"/>
      </g>
     </g>
     <g id="text_7">
      <!-- 3000 -->
      <defs>
       <path d="M 40.578125 39.3125 
Q 47.65625 37.796875 51.625 33 
Q 55.609375 28.21875 55.609375 21.1875 
Q 55.609375 10.40625 48.1875 4.484375 
Q 40.765625 -1.421875 27.09375 -1.421875 
Q 22.515625 -1.421875 17.65625 -0.515625 
Q 12.796875 0.390625 7.625 2.203125 
L 7.625 11.71875 
Q 11.71875 9.328125 16.59375 8.109375 
Q 21.484375 6.890625 26.8125 6.890625 
Q 36.078125 6.890625 40.9375 10.546875 
Q 45.796875 14.203125 45.796875 21.1875 
Q 45.796875 27.640625 41.28125 31.265625 
Q 36.765625 34.90625 28.71875 34.90625 
L 20.21875 34.90625 
L 20.21875 43.015625 
L 29.109375 43.015625 
Q 36.375 43.015625 40.234375 45.921875 
Q 44.09375 48.828125 44.09375 54.296875 
Q 44.09375 59.90625 40.109375 62.90625 
Q 36.140625 65.921875 28.71875 65.921875 
Q 24.65625 65.921875 20.015625 65.03125 
Q 15.375 64.15625 9.8125 62.3125 
L 9.8125 71.09375 
Q 15.4375 72.65625 20.34375 73.4375 
Q 25.25 74.21875 29.59375 74.21875 
Q 40.828125 74.21875 47.359375 69.109375 
Q 53.90625 64.015625 53.90625 55.328125 
Q 53.90625 49.265625 50.4375 45.09375 
Q 46.96875 40.921875 40.578125 39.3125 
" id="BitstreamVeraSans-Roman-33"/>
      </defs>
      <g style="fill:#555555;" transform="translate(324.567307692 267.5984375)scale(0.1 -0.1)">
       <use xlink:href="#BitstreamVeraSans-Roman-33"/>
       <use x="63.623046875" xlink:href="#BitstreamVeraSans-Roman-30"/>
       <use x="127.24609375" xlink:href="#BitstreamVeraSans-Roman-30"/>
       <use x="190.869140625" xlink:href="#BitstreamVeraSans-Roman-30"/>
      </g>
     </g>
    </g>
    <g id="xtick_8">
     <g id="line2d_22">
      <path clip-path="url(#pfb99fc7617)" d="M 380.215385 252 
L 380.215385 28.8 
" style="fill:none;stroke:#ffffff;stroke-linecap:square;stroke-width:0.5;"/>
     </g>
     <g id="line2d_23">
      <g>
       <use style="fill:#555555;stroke:#555555;stroke-width:0.5;" x="380.215384615" xlink:href="#m3fcea100aa" y="252.0"/>
      </g>
     </g>
     <g id="line2d_24">
      <g>
       <use style="fill:#555555;stroke:#555555;stroke-width:0.5;" x="380.215384615" xlink:href="#m2f2d714df7" y="28.8"/>
      </g>
     </g>
     <g id="text_8">
      <!-- 3500 -->
      <g style="fill:#555555;" transform="translate(367.490384615 267.5984375)scale(0.1 -0.1)">
       <use xlink:href="#BitstreamVeraSans-Roman-33"/>
       <use x="63.623046875" xlink:href="#BitstreamVeraSans-Roman-35"/>
       <use x="127.24609375" xlink:href="#BitstreamVeraSans-Roman-30"/>
       <use x="190.869140625" xlink:href="#BitstreamVeraSans-Roman-30"/>
      </g>
     </g>
    </g>
    <g id="text_9">
     <!-- Time -->
     <defs>
      <path d="M 56.203125 29.59375 
L 56.203125 25.203125 
L 14.890625 25.203125 
Q 15.484375 15.921875 20.484375 11.0625 
Q 25.484375 6.203125 34.421875 6.203125 
Q 39.59375 6.203125 44.453125 7.46875 
Q 49.3125 8.734375 54.109375 11.28125 
L 54.109375 2.78125 
Q 49.265625 0.734375 44.1875 -0.34375 
Q 39.109375 -1.421875 33.890625 -1.421875 
Q 20.796875 -1.421875 13.15625 6.1875 
Q 5.515625 13.8125 5.515625 26.8125 
Q 5.515625 40.234375 12.765625 48.109375 
Q 20.015625 56 32.328125 56 
Q 43.359375 56 49.78125 48.890625 
Q 56.203125 41.796875 56.203125 29.59375 
M 47.21875 32.234375 
Q 47.125 39.59375 43.09375 43.984375 
Q 39.0625 48.390625 32.421875 48.390625 
Q 24.90625 48.390625 20.390625 44.140625 
Q 15.875 39.890625 15.1875 32.171875 
z
" id="BitstreamVeraSans-Roman-65"/>
      <path d="M 9.421875 54.6875 
L 18.40625 54.6875 
L 18.40625 0 
L 9.421875 0 
z
M 9.421875 75.984375 
L 18.40625 75.984375 
L 18.40625 64.59375 
L 9.421875 64.59375 
z
" id="BitstreamVeraSans-Roman-69"/>
      <path d="M -0.296875 72.90625 
L 61.375 72.90625 
L 61.375 64.59375 
L 35.5 64.59375 
L 35.5 0 
L 25.59375 0 
L 25.59375 64.59375 
L -0.296875 64.59375 
z
" id="BitstreamVeraSans-Roman-54"/>
      <path d="M 52 44.1875 
Q 55.375 50.25 60.0625 53.125 
Q 64.75 56 71.09375 56 
Q 79.640625 56 84.28125 50.015625 
Q 88.921875 44.046875 88.921875 33.015625 
L 88.921875 0 
L 79.890625 0 
L 79.890625 32.71875 
Q 79.890625 40.578125 77.09375 44.375 
Q 74.3125 48.1875 68.609375 48.1875 
Q 61.625 48.1875 57.5625 43.546875 
Q 53.515625 38.921875 53.515625 30.90625 
L 53.515625 0 
L 44.484375 0 
L 44.484375 32.71875 
Q 44.484375 40.625 41.703125 44.40625 
Q 38.921875 48.1875 33.109375 48.1875 
Q 26.21875 48.1875 22.15625 43.53125 
Q 18.109375 38.875 18.109375 30.90625 
L 18.109375 0 
L 9.078125 0 
L 9.078125 54.6875 
L 18.109375 54.6875 
L 18.109375 46.1875 
Q 21.1875 51.21875 25.484375 53.609375 
Q 29.78125 56 35.6875 56 
Q 41.65625 56 45.828125 52.96875 
Q 50 49.953125 52 44.1875 
" id="BitstreamVeraSans-Roman-6d"/>
     </defs>
     <g style="fill:#555555;" transform="translate(206.535 283.79625)scale(0.12 -0.12)">
      <use xlink:href="#BitstreamVeraSans-Roman-54"/>
      <use x="61.037109375" xlink:href="#BitstreamVeraSans-Roman-69"/>
      <use x="88.8203125" xlink:href="#BitstreamVeraSans-Roman-6d"/>
      <use x="186.232421875" xlink:href="#BitstreamVeraSans-Roman-65"/>
     </g>
    </g>
   </g>
   <g id="matplotlib.axis_2">
    <g id="ytick_1">
     <g id="line2d_25">
      <path clip-path="url(#pfb99fc7617)" d="M 54 252 
L 388.8 252 
" style="fill:none;stroke:#ffffff;stroke-linecap:square;stroke-width:0.5;"/>
     </g>
     <g id="line2d_26">
      <defs>
       <path d="M 0 0 
L -4 0 
" id="mc9e1d2dcb4" style="stroke:#555555;stroke-width:0.5;"/>
      </defs>
      <g>
       <use style="fill:#555555;stroke:#555555;stroke-width:0.5;" x="54.0" xlink:href="#mc9e1d2dcb4" y="252.0"/>
      </g>
     </g>
     <g id="line2d_27">
      <defs>
       <path d="M 0 0 
L 4 0 
" id="m381a6c9c0c" style="stroke:#555555;stroke-width:0.5;"/>
      </defs>
      <g>
       <use style="fill:#555555;stroke:#555555;stroke-width:0.5;" x="388.8" xlink:href="#m381a6c9c0c" y="252.0"/>
      </g>
     </g>
     <g id="text_10">
      <!-- −800 -->
      <defs>
       <path d="M 10.59375 35.5 
L 73.1875 35.5 
L 73.1875 27.203125 
L 10.59375 27.203125 
z
" id="BitstreamVeraSans-Roman-2212"/>
       <path d="M 31.78125 34.625 
Q 24.75 34.625 20.71875 30.859375 
Q 16.703125 27.09375 16.703125 20.515625 
Q 16.703125 13.921875 20.71875 10.15625 
Q 24.75 6.390625 31.78125 6.390625 
Q 38.8125 6.390625 42.859375 10.171875 
Q 46.921875 13.96875 46.921875 20.515625 
Q 46.921875 27.09375 42.890625 30.859375 
Q 38.875 34.625 31.78125 34.625 
M 21.921875 38.8125 
Q 15.578125 40.375 12.03125 44.71875 
Q 8.5 49.078125 8.5 55.328125 
Q 8.5 64.0625 14.71875 69.140625 
Q 20.953125 74.21875 31.78125 74.21875 
Q 42.671875 74.21875 48.875 69.140625 
Q 55.078125 64.0625 55.078125 55.328125 
Q 55.078125 49.078125 51.53125 44.71875 
Q 48 40.375 41.703125 38.8125 
Q 48.828125 37.15625 52.796875 32.3125 
Q 56.78125 27.484375 56.78125 20.515625 
Q 56.78125 9.90625 50.3125 4.234375 
Q 43.84375 -1.421875 31.78125 -1.421875 
Q 19.734375 -1.421875 13.25 4.234375 
Q 6.78125 9.90625 6.78125 20.515625 
Q 6.78125 27.484375 10.78125 32.3125 
Q 14.796875 37.15625 21.921875 38.8125 
M 18.3125 54.390625 
Q 18.3125 48.734375 21.84375 45.5625 
Q 25.390625 42.390625 31.78125 42.390625 
Q 38.140625 42.390625 41.71875 45.5625 
Q 45.3125 48.734375 45.3125 54.390625 
Q 45.3125 60.0625 41.71875 63.234375 
Q 38.140625 66.40625 31.78125 66.40625 
Q 25.390625 66.40625 21.84375 63.234375 
Q 18.3125 60.0625 18.3125 54.390625 
" id="BitstreamVeraSans-Roman-38"/>
      </defs>
      <g style="fill:#555555;" transform="translate(18.5328125 254.759375)scale(0.1 -0.1)">
       <use xlink:href="#BitstreamVeraSans-Roman-2212"/>
       <use x="83.7890625" xlink:href="#BitstreamVeraSans-Roman-38"/>
       <use x="147.412109375" xlink:href="#BitstreamVeraSans-Roman-30"/>
       <use x="211.03515625" xlink:href="#BitstreamVeraSans-Roman-30"/>
      </g>
     </g>
    </g>
    <g id="ytick_2">
     <g id="line2d_28">
      <path clip-path="url(#pfb99fc7617)" d="M 54 224.1 
L 388.8 224.1 
" style="fill:none;stroke:#ffffff;stroke-linecap:square;stroke-width:0.5;"/>
     </g>
     <g id="line2d_29">
      <g>
       <use style="fill:#555555;stroke:#555555;stroke-width:0.5;" x="54.0" xlink:href="#mc9e1d2dcb4" y="224.1"/>
      </g>
     </g>
     <g id="line2d_30">
      <g>
       <use style="fill:#555555;stroke:#555555;stroke-width:0.5;" x="388.8" xlink:href="#m381a6c9c0c" y="224.1"/>
      </g>
     </g>
     <g id="text_11">
      <!-- −600 -->
      <defs>
       <path d="M 33.015625 40.375 
Q 26.375 40.375 22.484375 35.828125 
Q 18.609375 31.296875 18.609375 23.390625 
Q 18.609375 15.53125 22.484375 10.953125 
Q 26.375 6.390625 33.015625 6.390625 
Q 39.65625 6.390625 43.53125 10.953125 
Q 47.40625 15.53125 47.40625 23.390625 
Q 47.40625 31.296875 43.53125 35.828125 
Q 39.65625 40.375 33.015625 40.375 
M 52.59375 71.296875 
L 52.59375 62.3125 
Q 48.875 64.0625 45.09375 64.984375 
Q 41.3125 65.921875 37.59375 65.921875 
Q 27.828125 65.921875 22.671875 59.328125 
Q 17.53125 52.734375 16.796875 39.40625 
Q 19.671875 43.65625 24.015625 45.921875 
Q 28.375 48.1875 33.59375 48.1875 
Q 44.578125 48.1875 50.953125 41.515625 
Q 57.328125 34.859375 57.328125 23.390625 
Q 57.328125 12.15625 50.6875 5.359375 
Q 44.046875 -1.421875 33.015625 -1.421875 
Q 20.359375 -1.421875 13.671875 8.265625 
Q 6.984375 17.96875 6.984375 36.375 
Q 6.984375 53.65625 15.1875 63.9375 
Q 23.390625 74.21875 37.203125 74.21875 
Q 40.921875 74.21875 44.703125 73.484375 
Q 48.484375 72.75 52.59375 71.296875 
" id="BitstreamVeraSans-Roman-36"/>
      </defs>
      <g style="fill:#555555;" transform="translate(18.5328125 226.859375)scale(0.1 -0.1)">
       <use xlink:href="#BitstreamVeraSans-Roman-2212"/>
       <use x="83.7890625" xlink:href="#BitstreamVeraSans-Roman-36"/>
       <use x="147.412109375" xlink:href="#BitstreamVeraSans-Roman-30"/>
       <use x="211.03515625" xlink:href="#BitstreamVeraSans-Roman-30"/>
      </g>
     </g>
    </g>
    <g id="ytick_3">
     <g id="line2d_31">
      <path clip-path="url(#pfb99fc7617)" d="M 54 196.2 
L 388.8 196.2 
" style="fill:none;stroke:#ffffff;stroke-linecap:square;stroke-width:0.5;"/>
     </g>
     <g id="line2d_32">
      <g>
       <use style="fill:#555555;stroke:#555555;stroke-width:0.5;" x="54.0" xlink:href="#mc9e1d2dcb4" y="196.2"/>
      </g>
     </g>
     <g id="line2d_33">
      <g>
       <use style="fill:#555555;stroke:#555555;stroke-width:0.5;" x="388.8" xlink:href="#m381a6c9c0c" y="196.2"/>
      </g>
     </g>
     <g id="text_12">
      <!-- −400 -->
      <defs>
       <path d="M 37.796875 64.3125 
L 12.890625 25.390625 
L 37.796875 25.390625 
z
M 35.203125 72.90625 
L 47.609375 72.90625 
L 47.609375 25.390625 
L 58.015625 25.390625 
L 58.015625 17.1875 
L 47.609375 17.1875 
L 47.609375 0 
L 37.796875 0 
L 37.796875 17.1875 
L 4.890625 17.1875 
L 4.890625 26.703125 
z
" id="BitstreamVeraSans-Roman-34"/>
      </defs>
      <g style="fill:#555555;" transform="translate(18.5328125 198.959375)scale(0.1 -0.1)">
       <use xlink:href="#BitstreamVeraSans-Roman-2212"/>
       <use x="83.7890625" xlink:href="#BitstreamVeraSans-Roman-34"/>
       <use x="147.412109375" xlink:href="#BitstreamVeraSans-Roman-30"/>
       <use x="211.03515625" xlink:href="#BitstreamVeraSans-Roman-30"/>
      </g>
     </g>
    </g>
    <g id="ytick_4">
     <g id="line2d_34">
      <path clip-path="url(#pfb99fc7617)" d="M 54 168.3 
L 388.8 168.3 
" style="fill:none;stroke:#ffffff;stroke-linecap:square;stroke-width:0.5;"/>
     </g>
     <g id="line2d_35">
      <g>
       <use style="fill:#555555;stroke:#555555;stroke-width:0.5;" x="54.0" xlink:href="#mc9e1d2dcb4" y="168.3"/>
      </g>
     </g>
     <g id="line2d_36">
      <g>
       <use style="fill:#555555;stroke:#555555;stroke-width:0.5;" x="388.8" xlink:href="#m381a6c9c0c" y="168.3"/>
      </g>
     </g>
     <g id="text_13">
      <!-- −200 -->
      <g style="fill:#555555;" transform="translate(18.5328125 171.059375)scale(0.1 -0.1)">
       <use xlink:href="#BitstreamVeraSans-Roman-2212"/>
       <use x="83.7890625" xlink:href="#BitstreamVeraSans-Roman-32"/>
       <use x="147.412109375" xlink:href="#BitstreamVeraSans-Roman-30"/>
       <use x="211.03515625" xlink:href="#BitstreamVeraSans-Roman-30"/>
      </g>
     </g>
    </g>
    <g id="ytick_5">
     <g id="line2d_37">
      <path clip-path="url(#pfb99fc7617)" d="M 54 140.4 
L 388.8 140.4 
" style="fill:none;stroke:#ffffff;stroke-linecap:square;stroke-width:0.5;"/>
     </g>
     <g id="line2d_38">
      <g>
       <use style="fill:#555555;stroke:#555555;stroke-width:0.5;" x="54.0" xlink:href="#mc9e1d2dcb4" y="140.4"/>
      </g>
     </g>
     <g id="line2d_39">
      <g>
       <use style="fill:#555555;stroke:#555555;stroke-width:0.5;" x="388.8" xlink:href="#m381a6c9c0c" y="140.4"/>
      </g>
     </g>
     <g id="text_14">
      <!-- 0 -->
      <g style="fill:#555555;" transform="translate(39.6375 143.159375)scale(0.1 -0.1)">
       <use xlink:href="#BitstreamVeraSans-Roman-30"/>
      </g>
     </g>
    </g>
    <g id="ytick_6">
     <g id="line2d_40">
      <path clip-path="url(#pfb99fc7617)" d="M 54 112.5 
L 388.8 112.5 
" style="fill:none;stroke:#ffffff;stroke-linecap:square;stroke-width:0.5;"/>
     </g>
     <g id="line2d_41">
      <g>
       <use style="fill:#555555;stroke:#555555;stroke-width:0.5;" x="54.0" xlink:href="#mc9e1d2dcb4" y="112.5"/>
      </g>
     </g>
     <g id="line2d_42">
      <g>
       <use style="fill:#555555;stroke:#555555;stroke-width:0.5;" x="388.8" xlink:href="#m381a6c9c0c" y="112.5"/>
      </g>
     </g>
     <g id="text_15">
      <!-- 200 -->
      <g style="fill:#555555;" transform="translate(26.9125 115.259375)scale(0.1 -0.1)">
       <use xlink:href="#BitstreamVeraSans-Roman-32"/>
       <use x="63.623046875" xlink:href="#BitstreamVeraSans-Roman-30"/>
       <use x="127.24609375" xlink:href="#BitstreamVeraSans-Roman-30"/>
      </g>
     </g>
    </g>
    <g id="ytick_7">
     <g id="line2d_43">
      <path clip-path="url(#pfb99fc7617)" d="M 54 84.6 
L 388.8 84.6 
" style="fill:none;stroke:#ffffff;stroke-linecap:square;stroke-width:0.5;"/>
     </g>
     <g id="line2d_44">
      <g>
       <use style="fill:#555555;stroke:#555555;stroke-width:0.5;" x="54.0" xlink:href="#mc9e1d2dcb4" y="84.6"/>
      </g>
     </g>
     <g id="line2d_45">
      <g>
       <use style="fill:#555555;stroke:#555555;stroke-width:0.5;" x="388.8" xlink:href="#m381a6c9c0c" y="84.6"/>
      </g>
     </g>
     <g id="text_16">
      <!-- 400 -->
      <g style="fill:#555555;" transform="translate(26.9125 87.359375)scale(0.1 -0.1)">
       <use xlink:href="#BitstreamVeraSans-Roman-34"/>
       <use x="63.623046875" xlink:href="#BitstreamVeraSans-Roman-30"/>
       <use x="127.24609375" xlink:href="#BitstreamVeraSans-Roman-30"/>
      </g>
     </g>
    </g>
    <g id="ytick_8">
     <g id="line2d_46">
      <path clip-path="url(#pfb99fc7617)" d="M 54 56.7 
L 388.8 56.7 
" style="fill:none;stroke:#ffffff;stroke-linecap:square;stroke-width:0.5;"/>
     </g>
     <g id="line2d_47">
      <g>
       <use style="fill:#555555;stroke:#555555;stroke-width:0.5;" x="54.0" xlink:href="#mc9e1d2dcb4" y="56.7"/>
      </g>
     </g>
     <g id="line2d_48">
      <g>
       <use style="fill:#555555;stroke:#555555;stroke-width:0.5;" x="388.8" xlink:href="#m381a6c9c0c" y="56.7"/>
      </g>
     </g>
     <g id="text_17">
      <!-- 600 -->
      <g style="fill:#555555;" transform="translate(26.9125 59.459375)scale(0.1 -0.1)">
       <use xlink:href="#BitstreamVeraSans-Roman-36"/>
       <use x="63.623046875" xlink:href="#BitstreamVeraSans-Roman-30"/>
       <use x="127.24609375" xlink:href="#BitstreamVeraSans-Roman-30"/>
      </g>
     </g>
    </g>
    <g id="ytick_9">
     <g id="line2d_49">
      <path clip-path="url(#pfb99fc7617)" d="M 54 28.8 
L 388.8 28.8 
" style="fill:none;stroke:#ffffff;stroke-linecap:square;stroke-width:0.5;"/>
     </g>
     <g id="line2d_50">
      <g>
       <use style="fill:#555555;stroke:#555555;stroke-width:0.5;" x="54.0" xlink:href="#mc9e1d2dcb4" y="28.8"/>
      </g>
     </g>
     <g id="line2d_51">
      <g>
       <use style="fill:#555555;stroke:#555555;stroke-width:0.5;" x="388.8" xlink:href="#m381a6c9c0c" y="28.8"/>
      </g>
     </g>
     <g id="text_18">
      <!-- 800 -->
      <g style="fill:#555555;" transform="translate(26.9125 31.559375)scale(0.1 -0.1)">
       <use xlink:href="#BitstreamVeraSans-Roman-38"/>
       <use x="63.623046875" xlink:href="#BitstreamVeraSans-Roman-30"/>
       <use x="127.24609375" xlink:href="#BitstreamVeraSans-Roman-30"/>
      </g>
     </g>
    </g>
    <g id="text_19">
     <!-- Flux -->
     <defs>
      <path d="M 9.8125 72.90625 
L 51.703125 72.90625 
L 51.703125 64.59375 
L 19.671875 64.59375 
L 19.671875 43.109375 
L 48.578125 43.109375 
L 48.578125 34.8125 
L 19.671875 34.8125 
L 19.671875 0 
L 9.8125 0 
z
" id="BitstreamVeraSans-Roman-46"/>
      <path d="M 8.5 21.578125 
L 8.5 54.6875 
L 17.484375 54.6875 
L 17.484375 21.921875 
Q 17.484375 14.15625 20.5 10.265625 
Q 23.53125 6.390625 29.59375 6.390625 
Q 36.859375 6.390625 41.078125 11.03125 
Q 45.3125 15.671875 45.3125 23.6875 
L 45.3125 54.6875 
L 54.296875 54.6875 
L 54.296875 0 
L 45.3125 0 
L 45.3125 8.40625 
Q 42.046875 3.421875 37.71875 1 
Q 33.40625 -1.421875 27.6875 -1.421875 
Q 18.265625 -1.421875 13.375 4.4375 
Q 8.5 10.296875 8.5 21.578125 
" id="BitstreamVeraSans-Roman-75"/>
      <path d="M 54.890625 54.6875 
L 35.109375 28.078125 
L 55.90625 0 
L 45.3125 0 
L 29.390625 21.484375 
L 13.484375 0 
L 2.875 0 
L 24.125 28.609375 
L 4.6875 54.6875 
L 15.28125 54.6875 
L 29.78125 35.203125 
L 44.28125 54.6875 
z
" id="BitstreamVeraSans-Roman-78"/>
      <path d="M 9.421875 75.984375 
L 18.40625 75.984375 
L 18.40625 0 
L 9.421875 0 
z
" id="BitstreamVeraSans-Roman-6c"/>
     </defs>
     <g style="fill:#555555;" transform="translate(11.0371875 152.8715625)rotate(-90.0)scale(0.12 -0.12)">
      <use xlink:href="#BitstreamVeraSans-Roman-46"/>
      <use x="57.51953125" xlink:href="#BitstreamVeraSans-Roman-6c"/>
      <use x="85.302734375" xlink:href="#BitstreamVeraSans-Roman-75"/>
      <use x="148.681640625" xlink:href="#BitstreamVeraSans-Roman-78"/>
     </g>
    </g>
   </g>
   <g id="line2d_52">
    <path clip-path="url(#pfb99fc7617)" d="M 79.753846 158.541085 
L 79.925538 159.176099 
L 80.097231 161.159043 
L 80.354769 168.571055 
L 80.698154 188.885321 
L 81.384923 235.189646 
L 81.556615 236.92581 
L 81.728308 232.092361 
L 81.985846 214.202236 
L 82.758462 151.542364 
L 83.016 146.069897 
L 83.101846 146.350887 
L 83.273538 149.955336 
L 83.531077 163.128704 
L 84.046154 209.918547 
L 84.303692 226.872875 
L 84.389538 228.746836 
L 84.475385 228.279096 
L 84.647077 220.196217 
L 84.990462 182.46675 
L 85.505538 128.761037 
L 85.677231 123.900662 
L 85.763077 124.343255 
L 85.934769 130.163112 
L 86.364 160.377874 
L 86.707385 179.997444 
L 86.879077 182.752471 
L 86.964923 182.036181 
L 87.136615 176.862457 
L 87.909231 144.672593 
L 87.995077 144.842737 
L 88.166769 147.824714 
L 88.853538 164.898972 
L 88.939385 164.806818 
L 89.111077 163.092719 
L 89.454462 158.791767 
L 89.540308 158.548225 
L 89.626154 158.806967 
L 89.797846 160.712055 
L 90.742154 176.377366 
L 90.828 176.265902 
L 90.999692 174.391825 
L 91.257231 166.817153 
L 91.600615 147.092834 
L 92.201538 93.35636 
L 92.630769 64.027156 
L 92.802462 61.26698 
L 92.888308 62.28561 
L 93.06 68.873845 
L 93.403385 94.588677 
L 93.918462 132.57284 
L 94.261846 145.299168 
L 94.948615 163.558792 
L 95.635385 187.67845 
L 95.807077 188.700517 
L 95.978769 186.271738 
L 96.236308 176.333221 
L 96.751385 141.791659 
L 97.180615 116.833711 
L 97.438154 111.606619 
L 97.524 111.647573 
L 97.695692 113.780039 
L 99.498462 149.535709 
L 99.584308 149.544261 
L 99.756 146.572058 
L 100.013538 132.52519 
L 100.442769 87.516932 
L 100.872 46.784246 
L 101.043692 41.948387 
L 101.129538 42.960329 
L 101.301231 51.646152 
L 102.159692 120.601012 
L 102.245538 121.027698 
L 102.417231 118.432309 
L 102.846462 108.258685 
L 102.932308 108.221612 
L 103.104 111.879996 
L 103.361538 126.976318 
L 104.134154 185.796076 
L 104.305846 188.345066 
L 104.391692 187.460214 
L 104.563385 181.670358 
L 104.906769 158.652963 
L 105.507692 118.563339 
L 105.851077 107.580394 
L 106.108615 104.357117 
L 106.194462 104.192455 
L 106.280308 104.443988 
L 106.537846 106.960912 
L 107.052923 112.179681 
L 107.310462 114.454094 
L 107.568 119.148017 
L 107.997231 133.060919 
L 108.684 154.690672 
L 109.113231 162.807553 
L 109.370769 164.548626 
L 109.456615 164.60826 
L 109.628308 163.917687 
L 109.885846 160.599512 
L 110.658462 146.002708 
L 110.744308 145.88023 
L 110.916 146.487034 
L 111.087692 147.186631 
L 111.173538 147.140695 
L 111.345231 145.630622 
L 111.602769 139.762963 
L 112.032 130.241551 
L 112.117846 130.056409 
L 112.289538 132.086915 
L 112.632923 143.075609 
L 113.148 158.650186 
L 113.663077 170.293921 
L 114.435692 193.548245 
L 114.521538 193.78864 
L 114.693231 192.051843 
L 115.122462 181.206785 
L 115.723385 164.255458 
L 116.066769 142.267078 
L 117.011077 68.259802 
L 117.096923 68.896482 
L 117.268615 75.226142 
L 118.298769 131.66301 
L 118.985538 141.981802 
L 119.672308 158.564322 
L 119.758154 159.114282 
L 119.844 159.055383 
L 120.015692 157.078129 
L 120.359077 147.58851 
L 120.788308 136.711951 
L 120.874154 136.096091 
L 120.96 136.241429 
L 121.131692 138.959215 
L 121.475077 151.909731 
L 121.818462 161.673157 
L 121.904308 161.355388 
L 122.076 156.519843 
L 122.848615 118.587442 
L 122.934462 119.00375 
L 123.106154 123.410166 
L 123.792923 146.801076 
L 123.878769 146.447935 
L 124.050462 142.885932 
L 124.908923 114.774843 
L 124.994769 114.469716 
L 125.080615 114.557452 
L 125.338154 115.970873 
L 126.282462 122.754074 
L 127.140923 131.363731 
L 127.484308 138.730259 
L 127.999385 151.422091 
L 128.171077 152.510647 
L 128.256923 152.212898 
L 128.428615 150.25749 
L 129.372923 132.513678 
L 129.802154 126.305092 
L 129.973846 125.543639 
L 130.059692 125.705456 
L 130.231385 127.237817 
L 130.574769 134.433509 
L 130.918154 141.309388 
L 131.089846 142.110241 
L 131.261538 141.08485 
L 131.604923 138.224078 
L 131.690769 138.432045 
L 131.862462 140.996135 
L 132.12 150.507014 
L 132.635077 171.614277 
L 132.720923 172.0189 
L 132.806769 171.004215 
L 132.978462 164.956877 
L 133.579385 135.253926 
L 133.665231 134.410294 
L 133.751077 134.654094 
L 134.008615 139.010974 
L 134.266154 142.138429 
L 134.352 142.035716 
L 134.523692 140.31707 
L 134.952923 135.067148 
L 135.038769 134.970282 
L 135.210462 136.02209 
L 135.553846 141.279366 
L 135.983077 147.399316 
L 136.498154 151.148339 
L 136.755692 152.431834 
L 136.841538 152.358813 
L 137.013231 150.79461 
L 137.270769 144.348496 
L 137.785846 128.795815 
L 137.871692 128.344178 
L 137.957538 129.002115 
L 138.129231 133.880351 
L 138.472615 154.809884 
L 138.816 174.45162 
L 138.987692 177.243981 
L 139.073538 176.440816 
L 139.245231 171.068836 
L 140.189538 131.510357 
L 140.361231 130.702255 
L 140.532923 132.122054 
L 140.876308 139.407066 
L 141.391385 149.618166 
L 141.563077 150.18881 
L 141.734769 148.719879 
L 141.992308 143.12841 
L 142.421538 132.787462 
L 142.593231 131.719625 
L 142.679077 132.157105 
L 142.850769 134.832439 
L 143.709231 154.721121 
L 143.795077 154.468732 
L 143.966769 152.197571 
L 145.082769 130.58931 
L 145.597846 125.850947 
L 145.769538 125.590328 
L 145.941231 126.421672 
L 146.198769 129.587416 
L 147.143077 144.442492 
L 147.228923 144.169415 
L 147.400615 142.236292 
L 147.829846 132.604809 
L 148.173231 127.172385 
L 148.259077 127.05644 
L 148.430769 128.780257 
L 148.688308 135.646181 
L 149.117538 146.878931 
L 149.203385 147.228531 
L 149.289231 146.715476 
L 149.460923 143.395694 
L 150.147692 124.879308 
L 150.319385 124.220381 
L 150.491077 125.626249 
L 150.834462 132.79125 
L 151.349538 143.167596 
L 151.607077 144.435181 
L 151.692923 144.349194 
L 151.864615 143.673519 
L 152.208 140.916035 
L 152.551385 135.967869 
L 153.324 121.250911 
L 153.409846 121.578487 
L 153.581538 124.135482 
L 154.354154 141.169271 
L 154.44 141.067498 
L 154.611692 138.822045 
L 154.869231 130.825412 
L 155.470154 109.460664 
L 155.556 108.819467 
L 155.641846 109.166804 
L 155.813538 112.662066 
L 156.500308 132.517816 
L 156.586154 131.893852 
L 156.757846 127.952111 
L 157.358769 109.781933 
L 157.444615 110.142808 
L 157.616308 114.612157 
L 157.959692 134.545923 
L 158.303077 152.511055 
L 158.474769 155.439547 
L 158.560615 155.281273 
L 158.732308 152.709135 
L 159.075692 146.853551 
L 159.161538 146.629832 
L 159.333231 147.890478 
L 159.676615 150.901461 
L 159.848308 148.886489 
L 160.191692 137.81268 
L 160.620923 126.275895 
L 160.964308 123.317325 
L 161.479385 120.681619 
L 161.565231 120.917235 
L 161.736923 122.782126 
L 161.994462 129.453372 
L 162.509538 151.961158 
L 162.938769 168.278874 
L 163.196308 171.544616 
L 163.282154 171.218301 
L 163.453846 168.644592 
L 164.226462 151.704043 
L 164.913231 145.943024 
L 165.170769 144.095007 
L 165.256615 144.005294 
L 165.428308 144.524016 
L 165.771692 145.702613 
L 165.943385 145.028552 
L 166.200923 142.211648 
L 166.801846 135.013377 
L 166.973538 134.681973 
L 167.145231 135.129287 
L 167.488615 136.346453 
L 167.660308 136.378103 
L 167.832 136.271523 
L 167.917846 136.409362 
L 168.089538 137.673125 
L 168.347077 143.275836 
L 169.033846 164.834248 
L 169.119692 164.949951 
L 169.291385 162.170825 
L 169.892308 142.531938 
L 169.978154 142.700534 
L 170.149846 146.948155 
L 170.750769 171.291348 
L 170.836615 171.129523 
L 171.008308 166.812367 
L 171.695077 139.790527 
L 171.952615 138.555858 
L 172.124308 137.466636 
L 172.381846 132.555824 
L 172.725231 125.675521 
L 172.811077 125.37059 
L 172.896923 125.850266 
L 173.068615 128.871771 
L 173.669538 141.795081 
L 173.841231 142.305943 
L 174.098769 142.162336 
L 174.270462 143.098752 
L 174.442154 145.892851 
L 174.699692 154.312302 
L 175.214769 174.207987 
L 175.386462 175.249011 
L 175.558154 172.407439 
L 176.416615 149.817881 
L 176.588308 149.527933 
L 176.76 149.743212 
L 176.845846 149.675005 
L 177.017538 148.637464 
L 177.275077 144.438294 
L 178.305231 122.286482 
L 178.476923 124.133311 
L 179.163692 137.290186 
L 179.335385 135.676292 
L 179.764615 130.214444 
L 179.850462 130.13992 
L 180.022154 131.165831 
L 180.365538 135.9466 
L 181.052308 146.559585 
L 181.138154 146.655193 
L 181.309846 145.079083 
L 181.567385 138.04709 
L 182.34 110.216509 
L 182.425846 110.42718 
L 182.597538 113.642779 
L 183.284308 131.955063 
L 183.370154 132.321277 
L 183.456 132.235024 
L 183.627692 130.994381 
L 184.142769 125.437208 
L 184.228615 125.596095 
L 184.400308 127.969606 
L 184.657846 136.621026 
L 185.258769 160.384928 
L 185.516308 163.451555 
L 185.602154 163.130414 
L 185.773846 160.195579 
L 186.031385 149.481141 
L 186.718154 114.307922 
L 186.804 114.443392 
L 186.975692 118.359688 
L 187.404923 129.844979 
L 187.490769 129.253013 
L 187.662462 124.475542 
L 188.177538 106.953915 
L 188.263385 107.230903 
L 188.435077 111.336605 
L 189.379385 146.965639 
L 189.465231 147.328337 
L 189.551077 147.138526 
L 189.722769 145.439011 
L 190.152 139.804048 
L 190.237846 139.571208 
L 190.323692 139.821133 
L 190.581231 142.829852 
L 190.838769 145.70767 
L 190.924615 145.702695 
L 191.096308 143.558694 
L 191.868923 126.013607 
L 191.954769 126.083238 
L 192.212308 126.688714 
L 192.298154 126.351043 
L 192.469846 124.196543 
L 192.984923 114.477422 
L 193.070769 114.65806 
L 193.242462 117.87654 
L 193.585846 133.046301 
L 193.929231 146.572645 
L 194.100923 147.901763 
L 194.272615 145.251809 
L 194.873538 129.519982 
L 194.959385 129.391433 
L 195.131077 131.726294 
L 195.474462 143.474885 
L 195.817846 151.756967 
L 195.903692 151.823025 
L 196.075385 149.815284 
L 196.504615 143.043628 
L 196.590462 142.894405 
L 196.762154 144.017185 
L 197.620615 156.025041 
L 197.878154 159.007092 
L 197.964 159.208799 
L 198.049846 158.661365 
L 198.221538 154.573094 
L 198.479077 140.178037 
L 199.08 102.89929 
L 199.165846 102.237287 
L 199.251692 103.211895 
L 199.423385 109.394247 
L 200.024308 138.32089 
L 200.110154 139.231587 
L 200.196 139.156595 
L 200.453538 135.609902 
L 200.711077 132.830198 
L 200.796923 132.755976 
L 200.968615 133.577472 
L 201.397846 136.020723 
L 201.569538 136.919564 
L 201.741231 138.864303 
L 201.998769 144.743427 
L 202.513846 156.905477 
L 202.599692 156.699091 
L 202.771385 153.351932 
L 203.200615 135.037567 
L 203.544 123.795083 
L 203.801538 120.327352 
L 203.973231 119.915747 
L 204.144923 120.758413 
L 205.003385 129.385257 
L 205.260923 134.101863 
L 205.947692 150.517711 
L 206.033538 150.474534 
L 206.205231 148.715234 
L 206.634462 143.063361 
L 206.720308 143.314748 
L 206.892 146.156682 
L 207.578769 165.015445 
L 207.750462 162.451554 
L 208.351385 148.325822 
L 208.437231 148.177464 
L 208.608923 148.367586 
L 208.694769 148.195241 
L 208.866462 146.420612 
L 209.209846 137.908697 
L 209.553231 131.119727 
L 209.810769 129.706682 
L 209.982462 129.609845 
L 210.154154 129.787991 
L 210.325846 130.274351 
L 210.583385 131.927153 
L 210.840923 135.310964 
L 211.613538 148.784962 
L 211.699385 148.925496 
L 211.871077 148.666151 
L 212.214462 148.180978 
L 212.386154 147.839113 
L 212.643692 146.385835 
L 213.244615 141.570869 
L 213.502154 134.783333 
L 214.103077 113.551263 
L 214.188923 113.353734 
L 214.360615 115.962023 
L 214.875692 129.301432 
L 214.961538 129.405656 
L 215.133231 126.813499 
L 215.476615 114.371555 
L 215.905846 101.569387 
L 215.991692 101.096626 
L 216.077538 101.621637 
L 216.249231 105.904778 
L 216.592615 125.466917 
L 217.021846 149.956084 
L 217.193538 152.914037 
L 217.279385 152.622892 
L 217.451077 149.278041 
L 218.052 134.42043 
L 218.137846 134.15818 
L 218.223692 134.476935 
L 218.395385 136.65064 
L 218.738769 145.326165 
L 219.511385 167.558407 
L 219.597231 167.942538 
L 219.683077 167.509615 
L 219.854769 164.330208 
L 220.541538 145.789586 
L 220.627385 145.489487 
L 220.713231 145.744612 
L 221.142462 148.693376 
L 221.314154 146.187662 
L 221.571692 135.454625 
L 222.086769 110.369247 
L 222.172615 109.24126 
L 222.258462 109.431089 
L 222.430154 113.576462 
L 222.773538 131.750109 
L 223.116923 147.865212 
L 223.288615 149.583016 
L 223.460308 146.094355 
L 224.061231 126.094494 
L 224.147077 126.940322 
L 224.318769 132.229475 
L 224.919692 156.107002 
L 225.091385 157.283497 
L 225.263077 156.12817 
L 225.520615 151.901482 
L 225.864 142.730249 
L 226.550769 121.46321 
L 226.636615 121.407301 
L 226.808308 124.061358 
L 227.409231 139.025857 
L 227.495077 138.114236 
L 227.666769 132.828223 
L 228.353538 103.951576 
L 228.439385 103.909809 
L 228.611077 107.005409 
L 229.040308 124.609224 
L 229.469538 138.060089 
L 230.242154 152.78068 
L 230.328 153.027038 
L 230.413846 152.497777 
L 230.585538 148.996473 
L 231.358154 124.984323 
L 231.444 124.816875 
L 231.615692 125.856961 
L 231.873231 127.965469 
L 231.959077 128.055069 
L 232.130769 126.623215 
L 232.474154 118.894576 
L 232.731692 115.177728 
L 232.817538 115.572487 
L 232.989231 119.453668 
L 233.418462 140.541593 
L 233.676 148.970623 
L 233.761846 149.441734 
L 233.847692 148.632956 
L 234.105231 140.163719 
L 234.534462 123.814206 
L 234.792 120.588508 
L 235.049538 118.614067 
L 235.307077 113.632069 
L 235.650462 107.550627 
L 235.736308 108.020761 
L 235.908 112.812651 
L 236.251385 135.34447 
L 236.594769 157.119135 
L 236.766462 159.867549 
L 236.938154 155.288986 
L 237.281538 131.208998 
L 237.624923 113.134599 
L 237.710769 112.862958 
L 237.882462 118.043773 
L 238.483385 149.690256 
L 238.569231 149.075907 
L 238.740923 142.414299 
L 239.513538 100.319142 
L 239.599385 100.064218 
L 239.771077 102.524486 
L 240.114462 115.176118 
L 240.543692 128.709465 
L 240.629538 129.210915 
L 240.715385 128.788362 
L 240.887077 125.402638 
L 241.573846 103.971008 
L 241.659692 103.974629 
L 241.831385 107.581827 
L 242.088923 121.70485 
L 242.775692 167.108698 
L 242.947385 168.65606 
L 243.119077 164.939434 
L 243.805846 140.888753 
L 243.891692 141.044924 
L 244.149231 144.712759 
L 244.406769 147.924164 
L 244.492615 148.163895 
L 244.578462 147.965274 
L 244.750154 146.505106 
L 245.093538 140.753637 
L 245.522769 128.541019 
L 246.123692 110.541413 
L 246.295385 108.828015 
L 246.381231 108.953035 
L 246.552923 111.111416 
L 247.239692 125.105086 
L 247.325538 125.119288 
L 247.497231 123.651626 
L 247.926462 118.306882 
L 248.012308 118.483184 
L 248.184 121.312537 
L 248.441538 132.305983 
L 249.385846 186.619406 
L 249.471692 186.604409 
L 249.643385 182.748303 
L 249.986769 163.742999 
L 250.501846 133.543511 
L 250.759385 127.992942 
L 250.845231 127.798519 
L 251.016923 129.201022 
L 251.532 135.521036 
L 251.617846 135.675609 
L 251.703692 135.546239 
L 252.218769 133.520409 
L 252.304615 133.685068 
L 252.476308 134.751092 
L 253.334769 142.622115 
L 253.678154 143.620848 
L 254.021538 145.99856 
L 254.364923 148.04756 
L 254.622462 148.596576 
L 255.051692 149.101603 
L 255.309231 149.974809 
L 255.566769 152.047127 
L 256.511077 162.298383 
L 256.682769 162.72777 
L 256.768615 162.717185 
L 256.940308 162.197641 
L 257.197846 160.001035 
L 257.627077 152.917645 
L 258.056308 146.983402 
L 258.313846 146.024289 
L 258.485538 145.358337 
L 258.657231 143.621963 
L 259.000615 136.48869 
L 259.258154 131.800072 
L 259.344 131.34051 
L 259.429846 131.677432 
L 259.601538 134.961889 
L 259.944923 149.915986 
L 260.374154 167.019819 
L 260.545846 168.199445 
L 260.717538 166.039621 
L 261.232615 155.665928 
L 261.318462 155.366778 
L 261.404308 155.698041 
L 261.661846 159.524889 
L 261.919385 163.127579 
L 262.005231 163.088521 
L 262.176923 160.209429 
L 262.520308 145.742473 
L 262.863692 132.58015 
L 263.121231 129.477596 
L 263.207077 129.603928 
L 263.378769 131.138879 
L 263.636308 136.057249 
L 264.752308 162.666346 
L 264.838154 162.940514 
L 264.924 162.821829 
L 265.095692 161.306077 
L 265.439077 153.994453 
L 265.868308 145.646617 
L 266.04 144.938424 
L 266.211692 145.694902 
L 266.812615 150.560649 
L 266.898462 150.373139 
L 267.070154 148.757513 
L 267.413538 141.817182 
L 267.756923 135.685036 
L 268.014462 134.151412 
L 268.100308 134.124114 
L 268.272 134.568131 
L 268.615385 136.809273 
L 268.958769 138.590689 
L 269.044615 138.497282 
L 269.216308 137.52838 
L 269.645538 134.242061 
L 269.731385 134.24736 
L 269.903077 135.31116 
L 270.246462 140.446072 
L 270.761538 148.520657 
L 270.933231 149.539356 
L 271.019077 149.493712 
L 271.190769 148.209217 
L 271.448308 143.650145 
L 272.220923 127.365938 
L 272.392615 130.176216 
L 272.736 145.535537 
L 272.993538 155.087832 
L 273.079385 155.920818 
L 273.165231 155.268845 
L 273.336923 149.663884 
L 273.852 116.073225 
L 274.109538 105.7212 
L 274.195385 104.983426 
L 274.281231 105.724046 
L 274.452923 111.081708 
L 275.053846 135.694059 
L 275.311385 137.905566 
L 275.568923 139.383479 
L 276.084 143.168509 
L 276.341538 144.905067 
L 276.599077 149.927996 
L 277.371692 170.698946 
L 277.457538 169.90191 
L 277.629231 165.247489 
L 278.316 140.024797 
L 278.401846 140.886228 
L 278.573538 146.034747 
L 279.260308 172.994552 
L 279.346154 173.441949 
L 279.432 173.053455 
L 279.689538 168.53841 
L 280.032923 163.391158 
L 280.118769 163.425777 
L 280.290462 164.985467 
L 280.633846 168.659974 
L 280.719692 168.583593 
L 280.891385 166.798231 
L 281.578154 155.690623 
L 281.835692 153.792873 
L 282.007385 150.956614 
L 282.264923 142.256553 
L 282.608308 129.640322 
L 282.694154 128.967832 
L 282.78 130.071022 
L 282.951692 138.029177 
L 283.638462 186.873236 
L 283.724308 186.71399 
L 283.896 181.446709 
L 284.496923 156.583999 
L 284.582769 156.328271 
L 284.754462 158.836239 
L 285.097846 171.410446 
L 285.441231 182.1367 
L 285.612923 183.35041 
L 285.784615 181.676254 
L 286.471385 168.495352 
L 286.557231 168.555688 
L 286.728923 170.909385 
L 286.986462 179.581948 
L 287.501538 198.221328 
L 287.673231 199.686874 
L 287.759077 199.330558 
L 287.930769 196.690284 
L 288.274154 185.9534 
L 288.617538 176.788671 
L 288.703385 176.254942 
L 288.789231 176.553674 
L 289.046769 180.889522 
L 289.390154 186.811717 
L 289.561846 187.682288 
L 289.647692 187.503682 
L 289.819385 185.925592 
L 290.248615 179.689491 
L 290.334462 179.695841 
L 290.506154 182.10877 
L 291.107077 195.04685 
L 291.364615 196.154291 
L 291.536308 198.46572 
L 292.223077 213.771745 
L 292.308923 213.646703 
L 292.480615 211.886932 
L 293.081538 200.729822 
L 293.424923 195.364242 
L 293.682462 194.119216 
L 293.854154 193.516215 
L 294.025846 191.638016 
L 294.540923 182.906652 
L 294.626769 183.53208 
L 294.798462 188.040593 
L 295.399385 211.290294 
L 295.485231 211.542191 
L 295.656923 209.102082 
L 296.429538 190.819073 
L 296.515385 191.192915 
L 296.772923 195.12095 
L 297.030462 198.659515 
L 297.116308 198.74551 
L 297.288 196.937952 
L 297.717231 189.729375 
L 297.803077 189.616057 
L 297.974769 191.144262 
L 298.404 196.337299 
L 298.489846 196.258624 
L 298.661538 194.90609 
L 299.004923 192.091349 
L 299.090769 192.403493 
L 299.262462 194.766161 
L 299.777538 203.676675 
L 299.863385 203.345572 
L 300.292615 198.647087 
L 300.378462 199.129102 
L 300.550154 202.910721 
L 301.151077 222.891387 
L 301.236923 222.30061 
L 301.408615 217.287299 
L 302.009538 193.87581 
L 302.095385 193.560362 
L 302.267077 194.78651 
L 302.524615 196.38376 
L 302.696308 194.367191 
L 303.297231 180.208915 
L 303.383077 180.308371 
L 303.554769 182.369067 
L 303.898154 187.307137 
L 303.984 187.47485 
L 304.155692 186.011743 
L 304.756615 175.060757 
L 304.842462 175.195557 
L 305.014154 178.028467 
L 305.615077 194.957297 
L 305.700923 194.463128 
L 305.872615 190.22891 
L 306.559385 165.142995 
L 306.645231 164.647561 
L 306.731077 164.994308 
L 306.902769 167.751323 
L 307.332 175.741174 
L 307.417846 175.590363 
L 307.589538 172.890179 
L 308.104615 160.690653 
L 308.190462 160.262828 
L 308.276308 160.400726 
L 308.533846 162.740654 
L 309.564 172.995056 
L 309.649846 173.234924 
L 309.735692 173.003994 
L 309.907385 170.80522 
L 310.164923 163.161834 
L 310.765846 143.109433 
L 310.937538 141.690514 
L 311.023385 141.949116 
L 311.280923 145.404427 
L 311.538462 148.774833 
L 311.624308 149.018524 
L 311.710154 148.723815 
L 311.967692 145.762171 
L 312.225231 143.591131 
L 312.311077 143.684962 
L 312.482769 145.15202 
L 312.912 152.565019 
L 313.427077 159.985088 
L 313.598769 160.370778 
L 313.770462 159.123219 
L 314.028 154.645509 
L 314.628923 139.21335 
L 315.229846 122.194969 
L 315.315692 122.373174 
L 315.487385 125.856586 
L 316.088308 143.742434 
L 316.174154 143.925247 
L 316.345846 142.359949 
L 317.891077 114.414848 
L 318.320308 98.203887 
L 318.921231 72.337482 
L 319.092923 71.023653 
L 319.264615 74.166135 
L 319.522154 85.663499 
L 320.123077 116.007376 
L 320.380615 119.715861 
L 320.466462 119.464948 
L 320.638154 117.252459 
L 321.324923 105.236537 
L 321.410769 105.733105 
L 321.582462 108.814206 
L 322.355077 127.864629 
L 322.526769 125.083276 
L 322.870154 110.270338 
L 323.213538 97.315668 
L 323.299385 96.35245 
L 323.385231 96.422243 
L 323.556923 99.06037 
L 324.157846 112.00005 
L 324.243692 112.487974 
L 324.329538 112.469628 
L 324.501231 110.831891 
L 324.758769 104.841048 
L 325.188 94.796261 
L 325.273846 94.258188 
L 325.359692 94.351836 
L 325.531385 96.113584 
L 326.046462 103.389336 
L 326.132308 103.646565 
L 326.218154 103.546283 
L 326.389846 102.53438 
L 327.076615 95.939815 
L 327.849231 86.655309 
L 328.192615 84.755785 
L 328.450154 81.314969 
L 329.222769 65.745325 
L 329.308615 66.338198 
L 329.480308 70.037214 
L 329.823692 84.976865 
L 330.424615 111.119124 
L 330.768 117.825327 
L 330.939692 118.278631 
L 331.111385 117.382165 
L 331.368923 115.893817 
L 331.454769 115.810069 
L 331.626462 116.360321 
L 332.055692 118.329562 
L 332.313231 118.763453 
L 332.570769 120.057204 
L 332.742462 120.811603 
L 332.828308 120.706158 
L 333 118.835419 
L 333.343385 109.229934 
L 333.686769 102.107705 
L 333.772615 102.007185 
L 333.944308 103.789782 
L 334.716923 116.649891 
L 334.802769 116.487448 
L 334.974462 115.182979 
L 335.918769 105.517473 
L 336.004615 105.330671 
L 336.090462 105.473318 
L 336.262154 106.716576 
L 336.605538 109.447302 
L 336.691385 109.083341 
L 336.863077 106.193649 
L 337.206462 93.58371 
L 337.549846 82.855586 
L 337.635692 82.257296 
L 337.721538 82.832865 
L 337.893231 87.657485 
L 338.236615 108.068729 
L 338.665846 130.237546 
L 338.837538 133.128411 
L 338.923385 133.262187 
L 339.095077 131.245083 
L 339.438462 121.378726 
L 339.781846 114.398511 
L 339.867692 114.301907 
L 340.039385 115.574708 
L 340.296923 117.504989 
L 340.382769 117.384665 
L 340.554462 115.914846 
L 340.983692 111.554108 
L 341.327077 110.358148 
L 341.412923 110.238204 
L 341.498769 110.372224 
L 341.670462 112.091874 
L 341.928 119.873967 
L 342.443077 139.77388 
L 342.528923 140.71027 
L 342.614769 140.677906 
L 342.786462 138.211502 
L 343.473231 123.924986 
L 343.988308 118.274151 
L 344.331692 110.380175 
L 345.104308 89.841818 
L 345.190154 89.777559 
L 345.361846 91.957125 
L 345.705231 103.355499 
L 346.134462 117.088357 
L 346.563692 127.875248 
L 347.078769 142.392535 
L 347.164615 142.256324 
L 347.336308 139.167311 
L 347.937231 124.085616 
L 348.108923 123.234987 
L 348.194769 123.212695 
L 348.366462 123.627598 
L 348.624 125.179503 
L 349.053231 128.170821 
L 349.139077 127.799133 
L 349.310769 125.027712 
L 349.654154 112.4743 
L 349.997538 101.548621 
L 350.083385 100.791211 
L 350.169231 101.007568 
L 350.340923 103.939304 
L 350.770154 113.465618 
L 350.856 113.587356 
L 351.027692 111.473763 
L 351.456923 103.926497 
L 351.542769 104.220413 
L 351.714462 107.327044 
L 352.229538 120.876667 
L 352.315385 121.332992 
L 352.401231 121.084457 
L 352.658769 117.799273 
L 352.916308 115.829746 
L 353.088 117.680449 
L 353.774769 130.391826 
L 353.946462 129.633055 
L 354.118154 128.87101 
L 354.118154 128.87101 
" style="fill:none;stroke:#e24a33;stroke-linecap:square;"/>
   </g>
   <g id="patch_3">
    <path d="M 54 28.8 
L 388.8 28.8 
" style="fill:none;stroke:#ffffff;stroke-linecap:square;stroke-linejoin:miter;"/>
   </g>
   <g id="patch_4">
    <path d="M 388.8 252 
L 388.8 28.8 
" style="fill:none;stroke:#ffffff;stroke-linecap:square;stroke-linejoin:miter;"/>
   </g>
   <g id="patch_5">
    <path d="M 54 252 
L 388.8 252 
" style="fill:none;stroke:#ffffff;stroke-linecap:square;stroke-linejoin:miter;"/>
   </g>
   <g id="patch_6">
    <path d="M 54 252 
L 54 28.8 
" style="fill:none;stroke:#ffffff;stroke-linecap:square;stroke-linejoin:miter;"/>
   </g>
   <g id="text_20">
    <!-- Star without an exoplanet -->
    <defs>
     <path id="BitstreamVeraSans-Roman-20"/>
     <path d="M 54.890625 33.015625 
L 54.890625 0 
L 45.90625 0 
L 45.90625 32.71875 
Q 45.90625 40.484375 42.875 44.328125 
Q 39.84375 48.1875 33.796875 48.1875 
Q 26.515625 48.1875 22.3125 43.546875 
Q 18.109375 38.921875 18.109375 30.90625 
L 18.109375 0 
L 9.078125 0 
L 9.078125 54.6875 
L 18.109375 54.6875 
L 18.109375 46.1875 
Q 21.34375 51.125 25.703125 53.5625 
Q 30.078125 56 35.796875 56 
Q 45.21875 56 50.046875 50.171875 
Q 54.890625 44.34375 54.890625 33.015625 
" id="BitstreamVeraSans-Roman-6e"/>
     <path d="M 34.28125 27.484375 
Q 23.390625 27.484375 19.1875 25 
Q 14.984375 22.515625 14.984375 16.5 
Q 14.984375 11.71875 18.140625 8.90625 
Q 21.296875 6.109375 26.703125 6.109375 
Q 34.1875 6.109375 38.703125 11.40625 
Q 43.21875 16.703125 43.21875 25.484375 
L 43.21875 27.484375 
z
M 52.203125 31.203125 
L 52.203125 0 
L 43.21875 0 
L 43.21875 8.296875 
Q 40.140625 3.328125 35.546875 0.953125 
Q 30.953125 -1.421875 24.3125 -1.421875 
Q 15.921875 -1.421875 10.953125 3.296875 
Q 6 8.015625 6 15.921875 
Q 6 25.140625 12.171875 29.828125 
Q 18.359375 34.515625 30.609375 34.515625 
L 43.21875 34.515625 
L 43.21875 35.40625 
Q 43.21875 41.609375 39.140625 45 
Q 35.0625 48.390625 27.6875 48.390625 
Q 23 48.390625 18.546875 47.265625 
Q 14.109375 46.140625 10.015625 43.890625 
L 10.015625 52.203125 
Q 14.9375 54.109375 19.578125 55.046875 
Q 24.21875 56 28.609375 56 
Q 40.484375 56 46.34375 49.84375 
Q 52.203125 43.703125 52.203125 31.203125 
" id="BitstreamVeraSans-Roman-61"/>
     <path d="M 30.609375 48.390625 
Q 23.390625 48.390625 19.1875 42.75 
Q 14.984375 37.109375 14.984375 27.296875 
Q 14.984375 17.484375 19.15625 11.84375 
Q 23.34375 6.203125 30.609375 6.203125 
Q 37.796875 6.203125 41.984375 11.859375 
Q 46.1875 17.53125 46.1875 27.296875 
Q 46.1875 37.015625 41.984375 42.703125 
Q 37.796875 48.390625 30.609375 48.390625 
M 30.609375 56 
Q 42.328125 56 49.015625 48.375 
Q 55.71875 40.765625 55.71875 27.296875 
Q 55.71875 13.875 49.015625 6.21875 
Q 42.328125 -1.421875 30.609375 -1.421875 
Q 18.84375 -1.421875 12.171875 6.21875 
Q 5.515625 13.875 5.515625 27.296875 
Q 5.515625 40.765625 12.171875 48.375 
Q 18.84375 56 30.609375 56 
" id="BitstreamVeraSans-Roman-6f"/>
     <path d="M 53.515625 70.515625 
L 53.515625 60.890625 
Q 47.90625 63.578125 42.921875 64.890625 
Q 37.9375 66.21875 33.296875 66.21875 
Q 25.25 66.21875 20.875 63.09375 
Q 16.5 59.96875 16.5 54.203125 
Q 16.5 49.359375 19.40625 46.890625 
Q 22.3125 44.4375 30.421875 42.921875 
L 36.375 41.703125 
Q 47.40625 39.59375 52.65625 34.296875 
Q 57.90625 29 57.90625 20.125 
Q 57.90625 9.515625 50.796875 4.046875 
Q 43.703125 -1.421875 29.984375 -1.421875 
Q 24.8125 -1.421875 18.96875 -0.25 
Q 13.140625 0.921875 6.890625 3.21875 
L 6.890625 13.375 
Q 12.890625 10.015625 18.65625 8.296875 
Q 24.421875 6.59375 29.984375 6.59375 
Q 38.421875 6.59375 43.015625 9.90625 
Q 47.609375 13.234375 47.609375 19.390625 
Q 47.609375 24.75 44.3125 27.78125 
Q 41.015625 30.8125 33.5 32.328125 
L 27.484375 33.5 
Q 16.453125 35.6875 11.515625 40.375 
Q 6.59375 45.0625 6.59375 53.421875 
Q 6.59375 63.09375 13.40625 68.65625 
Q 20.21875 74.21875 32.171875 74.21875 
Q 37.3125 74.21875 42.625 73.28125 
Q 47.953125 72.359375 53.515625 70.515625 
" id="BitstreamVeraSans-Roman-53"/>
     <path d="M 54.890625 33.015625 
L 54.890625 0 
L 45.90625 0 
L 45.90625 32.71875 
Q 45.90625 40.484375 42.875 44.328125 
Q 39.84375 48.1875 33.796875 48.1875 
Q 26.515625 48.1875 22.3125 43.546875 
Q 18.109375 38.921875 18.109375 30.90625 
L 18.109375 0 
L 9.078125 0 
L 9.078125 75.984375 
L 18.109375 75.984375 
L 18.109375 46.1875 
Q 21.34375 51.125 25.703125 53.5625 
Q 30.078125 56 35.796875 56 
Q 45.21875 56 50.046875 50.171875 
Q 54.890625 44.34375 54.890625 33.015625 
" id="BitstreamVeraSans-Roman-68"/>
     <path d="M 4.203125 54.6875 
L 13.1875 54.6875 
L 24.421875 12.015625 
L 35.59375 54.6875 
L 46.1875 54.6875 
L 57.421875 12.015625 
L 68.609375 54.6875 
L 77.59375 54.6875 
L 63.28125 0 
L 52.6875 0 
L 40.921875 44.828125 
L 29.109375 0 
L 18.5 0 
z
" id="BitstreamVeraSans-Roman-77"/>
     <path d="M 18.3125 70.21875 
L 18.3125 54.6875 
L 36.8125 54.6875 
L 36.8125 47.703125 
L 18.3125 47.703125 
L 18.3125 18.015625 
Q 18.3125 11.328125 20.140625 9.421875 
Q 21.96875 7.515625 27.59375 7.515625 
L 36.8125 7.515625 
L 36.8125 0 
L 27.59375 0 
Q 17.1875 0 13.234375 3.875 
Q 9.28125 7.765625 9.28125 18.015625 
L 9.28125 47.703125 
L 2.6875 47.703125 
L 2.6875 54.6875 
L 9.28125 54.6875 
L 9.28125 70.21875 
z
" id="BitstreamVeraSans-Roman-74"/>
     <path d="M 41.109375 46.296875 
Q 39.59375 47.171875 37.8125 47.578125 
Q 36.03125 48 33.890625 48 
Q 26.265625 48 22.1875 43.046875 
Q 18.109375 38.09375 18.109375 28.8125 
L 18.109375 0 
L 9.078125 0 
L 9.078125 54.6875 
L 18.109375 54.6875 
L 18.109375 46.1875 
Q 20.953125 51.171875 25.484375 53.578125 
Q 30.03125 56 36.53125 56 
Q 37.453125 56 38.578125 55.875 
Q 39.703125 55.765625 41.0625 55.515625 
z
" id="BitstreamVeraSans-Roman-72"/>
     <path d="M 18.109375 8.203125 
L 18.109375 -20.796875 
L 9.078125 -20.796875 
L 9.078125 54.6875 
L 18.109375 54.6875 
L 18.109375 46.390625 
Q 20.953125 51.265625 25.265625 53.625 
Q 29.59375 56 35.59375 56 
Q 45.5625 56 51.78125 48.09375 
Q 58.015625 40.1875 58.015625 27.296875 
Q 58.015625 14.40625 51.78125 6.484375 
Q 45.5625 -1.421875 35.59375 -1.421875 
Q 29.59375 -1.421875 25.265625 0.953125 
Q 20.953125 3.328125 18.109375 8.203125 
M 48.6875 27.296875 
Q 48.6875 37.203125 44.609375 42.84375 
Q 40.53125 48.484375 33.40625 48.484375 
Q 26.265625 48.484375 22.1875 42.84375 
Q 18.109375 37.203125 18.109375 27.296875 
Q 18.109375 17.390625 22.1875 11.75 
Q 26.265625 6.109375 33.40625 6.109375 
Q 40.53125 6.109375 44.609375 11.75 
Q 48.6875 17.390625 48.6875 27.296875 
" id="BitstreamVeraSans-Roman-70"/>
    </defs>
    <g transform="translate(127.837125 23.8)scale(0.144 -0.144)">
     <use xlink:href="#BitstreamVeraSans-Roman-53"/>
     <use x="63.4765625" xlink:href="#BitstreamVeraSans-Roman-74"/>
     <use x="102.685546875" xlink:href="#BitstreamVeraSans-Roman-61"/>
     <use x="163.96484375" xlink:href="#BitstreamVeraSans-Roman-72"/>
     <use x="205.078125" xlink:href="#BitstreamVeraSans-Roman-20"/>
     <use x="236.865234375" xlink:href="#BitstreamVeraSans-Roman-77"/>
     <use x="318.65234375" xlink:href="#BitstreamVeraSans-Roman-69"/>
     <use x="346.435546875" xlink:href="#BitstreamVeraSans-Roman-74"/>
     <use x="385.64453125" xlink:href="#BitstreamVeraSans-Roman-68"/>
     <use x="449.0234375" xlink:href="#BitstreamVeraSans-Roman-6f"/>
     <use x="510.205078125" xlink:href="#BitstreamVeraSans-Roman-75"/>
     <use x="573.583984375" xlink:href="#BitstreamVeraSans-Roman-74"/>
     <use x="612.79296875" xlink:href="#BitstreamVeraSans-Roman-20"/>
     <use x="644.580078125" xlink:href="#BitstreamVeraSans-Roman-61"/>
     <use x="705.859375" xlink:href="#BitstreamVeraSans-Roman-6e"/>
     <use x="769.23828125" xlink:href="#BitstreamVeraSans-Roman-20"/>
     <use x="801.025390625" xlink:href="#BitstreamVeraSans-Roman-65"/>
     <use x="862.533203125" xlink:href="#BitstreamVeraSans-Roman-78"/>
     <use x="921.666015625" xlink:href="#BitstreamVeraSans-Roman-6f"/>
     <use x="982.84765625" xlink:href="#BitstreamVeraSans-Roman-70"/>
     <use x="1046.32421875" xlink:href="#BitstreamVeraSans-Roman-6c"/>
     <use x="1074.10742188" xlink:href="#BitstreamVeraSans-Roman-61"/>
     <use x="1135.38671875" xlink:href="#BitstreamVeraSans-Roman-6e"/>
     <use x="1198.765625" xlink:href="#BitstreamVeraSans-Roman-65"/>
     <use x="1260.2890625" xlink:href="#BitstreamVeraSans-Roman-74"/>
    </g>
   </g>
   <g id="legend_1">
    <g id="patch_7">
     <path d="M 136.62125 259.16 
L 310.17875 259.16 
Q 312.57875 259.16 312.57875 256.76 
L 312.57875 240.34625 
Q 312.57875 237.94625 310.17875 237.94625 
L 136.62125 237.94625 
Q 134.22125 237.94625 134.22125 240.34625 
L 134.22125 256.76 
Q 134.22125 259.16 136.62125 259.16 
z
" style="fill:#454545;opacity:0.5;stroke:#454545;stroke-linejoin:miter;stroke-width:0.5;"/>
    </g>
    <g id="patch_8">
     <path d="M 134.62125 257.16 
L 308.17875 257.16 
Q 310.57875 257.16 310.57875 254.76 
L 310.57875 238.34625 
Q 310.57875 235.94625 308.17875 235.94625 
L 134.62125 235.94625 
Q 132.22125 235.94625 132.22125 238.34625 
L 132.22125 254.76 
Q 132.22125 257.16 134.62125 257.16 
z
" style="fill:#e5e5e5;stroke:#ffffff;stroke-linejoin:miter;stroke-width:0.5;"/>
    </g>
    <g id="line2d_53">
     <path d="M 140.62125 245.664375 
L 157.42125 245.664375 
" style="fill:none;stroke:#e24a33;stroke-linecap:square;"/>
    </g>
    <g id="line2d_54"/>
    <g id="text_21">
     <!-- Gaussian Smoothened -->
     <defs>
      <path d="M 59.515625 10.40625 
L 59.515625 29.984375 
L 43.40625 29.984375 
L 43.40625 38.09375 
L 69.28125 38.09375 
L 69.28125 6.78125 
Q 63.578125 2.734375 56.6875 0.65625 
Q 49.8125 -1.421875 42 -1.421875 
Q 24.90625 -1.421875 15.25 8.5625 
Q 5.609375 18.5625 5.609375 36.375 
Q 5.609375 54.25 15.25 64.234375 
Q 24.90625 74.21875 42 74.21875 
Q 49.125 74.21875 55.546875 72.453125 
Q 61.96875 70.703125 67.390625 67.28125 
L 67.390625 56.78125 
Q 61.921875 61.421875 55.765625 63.765625 
Q 49.609375 66.109375 42.828125 66.109375 
Q 29.4375 66.109375 22.71875 58.640625 
Q 16.015625 51.171875 16.015625 36.375 
Q 16.015625 21.625 22.71875 14.15625 
Q 29.4375 6.6875 42.828125 6.6875 
Q 48.046875 6.6875 52.140625 7.59375 
Q 56.25 8.5 59.515625 10.40625 
" id="BitstreamVeraSans-Roman-47"/>
      <path d="M 45.40625 46.390625 
L 45.40625 75.984375 
L 54.390625 75.984375 
L 54.390625 0 
L 45.40625 0 
L 45.40625 8.203125 
Q 42.578125 3.328125 38.25 0.953125 
Q 33.9375 -1.421875 27.875 -1.421875 
Q 17.96875 -1.421875 11.734375 6.484375 
Q 5.515625 14.40625 5.515625 27.296875 
Q 5.515625 40.1875 11.734375 48.09375 
Q 17.96875 56 27.875 56 
Q 33.9375 56 38.25 53.625 
Q 42.578125 51.265625 45.40625 46.390625 
M 14.796875 27.296875 
Q 14.796875 17.390625 18.875 11.75 
Q 22.953125 6.109375 30.078125 6.109375 
Q 37.203125 6.109375 41.296875 11.75 
Q 45.40625 17.390625 45.40625 27.296875 
Q 45.40625 37.203125 41.296875 42.84375 
Q 37.203125 48.484375 30.078125 48.484375 
Q 22.953125 48.484375 18.875 42.84375 
Q 14.796875 37.203125 14.796875 27.296875 
" id="BitstreamVeraSans-Roman-64"/>
      <path d="M 44.28125 53.078125 
L 44.28125 44.578125 
Q 40.484375 46.53125 36.375 47.5 
Q 32.28125 48.484375 27.875 48.484375 
Q 21.1875 48.484375 17.84375 46.4375 
Q 14.5 44.390625 14.5 40.28125 
Q 14.5 37.15625 16.890625 35.375 
Q 19.28125 33.59375 26.515625 31.984375 
L 29.59375 31.296875 
Q 39.15625 29.25 43.1875 25.515625 
Q 47.21875 21.78125 47.21875 15.09375 
Q 47.21875 7.46875 41.1875 3.015625 
Q 35.15625 -1.421875 24.609375 -1.421875 
Q 20.21875 -1.421875 15.453125 -0.5625 
Q 10.6875 0.296875 5.421875 2 
L 5.421875 11.28125 
Q 10.40625 8.6875 15.234375 7.390625 
Q 20.0625 6.109375 24.8125 6.109375 
Q 31.15625 6.109375 34.5625 8.28125 
Q 37.984375 10.453125 37.984375 14.40625 
Q 37.984375 18.0625 35.515625 20.015625 
Q 33.0625 21.96875 24.703125 23.78125 
L 21.578125 24.515625 
Q 13.234375 26.265625 9.515625 29.90625 
Q 5.8125 33.546875 5.8125 39.890625 
Q 5.8125 47.609375 11.28125 51.796875 
Q 16.75 56 26.8125 56 
Q 31.78125 56 36.171875 55.265625 
Q 40.578125 54.546875 44.28125 53.078125 
" id="BitstreamVeraSans-Roman-73"/>
     </defs>
     <g transform="translate(170.62125 249.864375)scale(0.12 -0.12)">
      <use xlink:href="#BitstreamVeraSans-Roman-47"/>
      <use x="77.490234375" xlink:href="#BitstreamVeraSans-Roman-61"/>
      <use x="138.76953125" xlink:href="#BitstreamVeraSans-Roman-75"/>
      <use x="202.1484375" xlink:href="#BitstreamVeraSans-Roman-73"/>
      <use x="254.248046875" xlink:href="#BitstreamVeraSans-Roman-73"/>
      <use x="306.34765625" xlink:href="#BitstreamVeraSans-Roman-69"/>
      <use x="334.130859375" xlink:href="#BitstreamVeraSans-Roman-61"/>
      <use x="395.41015625" xlink:href="#BitstreamVeraSans-Roman-6e"/>
      <use x="458.7890625" xlink:href="#BitstreamVeraSans-Roman-20"/>
      <use x="490.576171875" xlink:href="#BitstreamVeraSans-Roman-53"/>
      <use x="554.052734375" xlink:href="#BitstreamVeraSans-Roman-6d"/>
      <use x="651.46484375" xlink:href="#BitstreamVeraSans-Roman-6f"/>
      <use x="712.646484375" xlink:href="#BitstreamVeraSans-Roman-6f"/>
      <use x="773.828125" xlink:href="#BitstreamVeraSans-Roman-74"/>
      <use x="813.037109375" xlink:href="#BitstreamVeraSans-Roman-68"/>
      <use x="876.416015625" xlink:href="#BitstreamVeraSans-Roman-65"/>
      <use x="937.939453125" xlink:href="#BitstreamVeraSans-Roman-6e"/>
      <use x="1001.31835938" xlink:href="#BitstreamVeraSans-Roman-65"/>
      <use x="1062.84179688" xlink:href="#BitstreamVeraSans-Roman-64"/>
     </g>
    </g>
   </g>
  </g>
 </g>
 <defs>
  <clipPath id="pfb99fc7617">
   <rect height="223.2" width="334.8" x="54.0" y="28.8"/>
  </clipPath>
 </defs>
</svg>
