<?xml version="1.0" encoding="utf-8" standalone="no"?>
<!DOCTYPE svg PUBLIC "-//W3C//DTD SVG 1.1//EN"
  "http://www.w3.org/Graphics/SVG/1.1/DTD/svg11.dtd">
<!-- Created with matplotlib (http://matplotlib.org/) -->
<svg height="288pt" version="1.1" viewBox="0 0 432 288" width="432pt" xmlns="http://www.w3.org/2000/svg" xmlns:xlink="http://www.w3.org/1999/xlink">
 <defs>
  <style type="text/css">
*{stroke-linecap:butt;stroke-linejoin:round;stroke-miterlimit:100000;}
  </style>
 </defs>
 <g id="figure_1">
  <g id="patch_1">
   <path d="M 0 288 
L 432 288 
L 432 0 
L 0 0 
z
" style="fill:#ffffff;"/>
  </g>
  <g id="axes_1">
   <g id="patch_2">
    <path d="M 54 252 
L 388.8 252 
L 388.8 28.8 
L 54 28.8 
z
" style="fill:#e5e5e5;"/>
   </g>
   <g id="matplotlib.axis_1">
    <g id="xtick_1">
     <g id="line2d_1">
      <path clip-path="url(#p4efa6b7ff1)" d="M 79.753846 252 
L 79.753846 28.8 
" style="fill:none;stroke:#ffffff;stroke-linecap:square;stroke-width:0.5;"/>
     </g>
     <g id="line2d_2">
      <defs>
       <path d="M 0 0 
L 0 4 
" id="mdcb4130dca" style="stroke:#555555;stroke-width:0.5;"/>
      </defs>
      <g>
       <use style="fill:#555555;stroke:#555555;stroke-width:0.5;" x="79.7538461538" xlink:href="#mdcb4130dca" y="252.0"/>
      </g>
     </g>
     <g id="line2d_3">
      <defs>
       <path d="M 0 0 
L 0 -4 
" id="m4231e60d83" style="stroke:#555555;stroke-width:0.5;"/>
      </defs>
      <g>
       <use style="fill:#555555;stroke:#555555;stroke-width:0.5;" x="79.7538461538" xlink:href="#m4231e60d83" y="28.8"/>
      </g>
     </g>
     <g id="text_1">
      <!-- 0 -->
      <defs>
       <path d="M 31.78125 66.40625 
Q 24.171875 66.40625 20.328125 58.90625 
Q 16.5 51.421875 16.5 36.375 
Q 16.5 21.390625 20.328125 13.890625 
Q 24.171875 6.390625 31.78125 6.390625 
Q 39.453125 6.390625 43.28125 13.890625 
Q 47.125 21.390625 47.125 36.375 
Q 47.125 51.421875 43.28125 58.90625 
Q 39.453125 66.40625 31.78125 66.40625 
M 31.78125 74.21875 
Q 44.046875 74.21875 50.515625 64.515625 
Q 56.984375 54.828125 56.984375 36.375 
Q 56.984375 17.96875 50.515625 8.265625 
Q 44.046875 -1.421875 31.78125 -1.421875 
Q 19.53125 -1.421875 13.0625 8.265625 
Q 6.59375 17.96875 6.59375 36.375 
Q 6.59375 54.828125 13.0625 64.515625 
Q 19.53125 74.21875 31.78125 74.21875 
" id="BitstreamVeraSans-Roman-30"/>
      </defs>
      <g style="fill:#555555;" transform="translate(76.5725961538 267.5984375)scale(0.1 -0.1)">
       <use xlink:href="#BitstreamVeraSans-Roman-30"/>
      </g>
     </g>
    </g>
    <g id="xtick_2">
     <g id="line2d_4">
      <path clip-path="url(#p4efa6b7ff1)" d="M 122.676923 252 
L 122.676923 28.8 
" style="fill:none;stroke:#ffffff;stroke-linecap:square;stroke-width:0.5;"/>
     </g>
     <g id="line2d_5">
      <g>
       <use style="fill:#555555;stroke:#555555;stroke-width:0.5;" x="122.676923077" xlink:href="#mdcb4130dca" y="252.0"/>
      </g>
     </g>
     <g id="line2d_6">
      <g>
       <use style="fill:#555555;stroke:#555555;stroke-width:0.5;" x="122.676923077" xlink:href="#m4231e60d83" y="28.8"/>
      </g>
     </g>
     <g id="text_2">
      <!-- 500 -->
      <defs>
       <path d="M 10.796875 72.90625 
L 49.515625 72.90625 
L 49.515625 64.59375 
L 19.828125 64.59375 
L 19.828125 46.734375 
Q 21.96875 47.46875 24.109375 47.828125 
Q 26.265625 48.1875 28.421875 48.1875 
Q 40.625 48.1875 47.75 41.5 
Q 54.890625 34.8125 54.890625 23.390625 
Q 54.890625 11.625 47.5625 5.09375 
Q 40.234375 -1.421875 26.90625 -1.421875 
Q 22.3125 -1.421875 17.546875 -0.640625 
Q 12.796875 0.140625 7.71875 1.703125 
L 7.71875 11.625 
Q 12.109375 9.234375 16.796875 8.0625 
Q 21.484375 6.890625 26.703125 6.890625 
Q 35.15625 6.890625 40.078125 11.328125 
Q 45.015625 15.765625 45.015625 23.390625 
Q 45.015625 31 40.078125 35.4375 
Q 35.15625 39.890625 26.703125 39.890625 
Q 22.75 39.890625 18.8125 39.015625 
Q 14.890625 38.140625 10.796875 36.28125 
z
" id="BitstreamVeraSans-Roman-35"/>
      </defs>
      <g style="fill:#555555;" transform="translate(113.133173077 267.5984375)scale(0.1 -0.1)">
       <use xlink:href="#BitstreamVeraSans-Roman-35"/>
       <use x="63.623046875" xlink:href="#BitstreamVeraSans-Roman-30"/>
       <use x="127.24609375" xlink:href="#BitstreamVeraSans-Roman-30"/>
      </g>
     </g>
    </g>
    <g id="xtick_3">
     <g id="line2d_7">
      <path clip-path="url(#p4efa6b7ff1)" d="M 165.6 252 
L 165.6 28.8 
" style="fill:none;stroke:#ffffff;stroke-linecap:square;stroke-width:0.5;"/>
     </g>
     <g id="line2d_8">
      <g>
       <use style="fill:#555555;stroke:#555555;stroke-width:0.5;" x="165.6" xlink:href="#mdcb4130dca" y="252.0"/>
      </g>
     </g>
     <g id="line2d_9">
      <g>
       <use style="fill:#555555;stroke:#555555;stroke-width:0.5;" x="165.6" xlink:href="#m4231e60d83" y="28.8"/>
      </g>
     </g>
     <g id="text_3">
      <!-- 1000 -->
      <defs>
       <path d="M 12.40625 8.296875 
L 28.515625 8.296875 
L 28.515625 63.921875 
L 10.984375 60.40625 
L 10.984375 69.390625 
L 28.421875 72.90625 
L 38.28125 72.90625 
L 38.28125 8.296875 
L 54.390625 8.296875 
L 54.390625 0 
L 12.40625 0 
z
" id="BitstreamVeraSans-Roman-31"/>
      </defs>
      <g style="fill:#555555;" transform="translate(152.875 267.5984375)scale(0.1 -0.1)">
       <use xlink:href="#BitstreamVeraSans-Roman-31"/>
       <use x="63.623046875" xlink:href="#BitstreamVeraSans-Roman-30"/>
       <use x="127.24609375" xlink:href="#BitstreamVeraSans-Roman-30"/>
       <use x="190.869140625" xlink:href="#BitstreamVeraSans-Roman-30"/>
      </g>
     </g>
    </g>
    <g id="xtick_4">
     <g id="line2d_10">
      <path clip-path="url(#p4efa6b7ff1)" d="M 208.523077 252 
L 208.523077 28.8 
" style="fill:none;stroke:#ffffff;stroke-linecap:square;stroke-width:0.5;"/>
     </g>
     <g id="line2d_11">
      <g>
       <use style="fill:#555555;stroke:#555555;stroke-width:0.5;" x="208.523076923" xlink:href="#mdcb4130dca" y="252.0"/>
      </g>
     </g>
     <g id="line2d_12">
      <g>
       <use style="fill:#555555;stroke:#555555;stroke-width:0.5;" x="208.523076923" xlink:href="#m4231e60d83" y="28.8"/>
      </g>
     </g>
     <g id="text_4">
      <!-- 1500 -->
      <g style="fill:#555555;" transform="translate(195.798076923 267.5984375)scale(0.1 -0.1)">
       <use xlink:href="#BitstreamVeraSans-Roman-31"/>
       <use x="63.623046875" xlink:href="#BitstreamVeraSans-Roman-35"/>
       <use x="127.24609375" xlink:href="#BitstreamVeraSans-Roman-30"/>
       <use x="190.869140625" xlink:href="#BitstreamVeraSans-Roman-30"/>
      </g>
     </g>
    </g>
    <g id="xtick_5">
     <g id="line2d_13">
      <path clip-path="url(#p4efa6b7ff1)" d="M 251.446154 252 
L 251.446154 28.8 
" style="fill:none;stroke:#ffffff;stroke-linecap:square;stroke-width:0.5;"/>
     </g>
     <g id="line2d_14">
      <g>
       <use style="fill:#555555;stroke:#555555;stroke-width:0.5;" x="251.446153846" xlink:href="#mdcb4130dca" y="252.0"/>
      </g>
     </g>
     <g id="line2d_15">
      <g>
       <use style="fill:#555555;stroke:#555555;stroke-width:0.5;" x="251.446153846" xlink:href="#m4231e60d83" y="28.8"/>
      </g>
     </g>
     <g id="text_5">
      <!-- 2000 -->
      <defs>
       <path d="M 19.1875 8.296875 
L 53.609375 8.296875 
L 53.609375 0 
L 7.328125 0 
L 7.328125 8.296875 
Q 12.9375 14.109375 22.625 23.890625 
Q 32.328125 33.6875 34.8125 36.53125 
Q 39.546875 41.84375 41.421875 45.53125 
Q 43.3125 49.21875 43.3125 52.78125 
Q 43.3125 58.59375 39.234375 62.25 
Q 35.15625 65.921875 28.609375 65.921875 
Q 23.96875 65.921875 18.8125 64.3125 
Q 13.671875 62.703125 7.8125 59.421875 
L 7.8125 69.390625 
Q 13.765625 71.78125 18.9375 73 
Q 24.125 74.21875 28.421875 74.21875 
Q 39.75 74.21875 46.484375 68.546875 
Q 53.21875 62.890625 53.21875 53.421875 
Q 53.21875 48.921875 51.53125 44.890625 
Q 49.859375 40.875 45.40625 35.40625 
Q 44.1875 33.984375 37.640625 27.21875 
Q 31.109375 20.453125 19.1875 8.296875 
" id="BitstreamVeraSans-Roman-32"/>
      </defs>
      <g style="fill:#555555;" transform="translate(238.721153846 267.5984375)scale(0.1 -0.1)">
       <use xlink:href="#BitstreamVeraSans-Roman-32"/>
       <use x="63.623046875" xlink:href="#BitstreamVeraSans-Roman-30"/>
       <use x="127.24609375" xlink:href="#BitstreamVeraSans-Roman-30"/>
       <use x="190.869140625" xlink:href="#BitstreamVeraSans-Roman-30"/>
      </g>
     </g>
    </g>
    <g id="xtick_6">
     <g id="line2d_16">
      <path clip-path="url(#p4efa6b7ff1)" d="M 294.369231 252 
L 294.369231 28.8 
" style="fill:none;stroke:#ffffff;stroke-linecap:square;stroke-width:0.5;"/>
     </g>
     <g id="line2d_17">
      <g>
       <use style="fill:#555555;stroke:#555555;stroke-width:0.5;" x="294.369230769" xlink:href="#mdcb4130dca" y="252.0"/>
      </g>
     </g>
     <g id="line2d_18">
      <g>
       <use style="fill:#555555;stroke:#555555;stroke-width:0.5;" x="294.369230769" xlink:href="#m4231e60d83" y="28.8"/>
      </g>
     </g>
     <g id="text_6">
      <!-- 2500 -->
      <g style="fill:#555555;" transform="translate(281.644230769 267.5984375)scale(0.1 -0.1)">
       <use xlink:href="#BitstreamVeraSans-Roman-32"/>
       <use x="63.623046875" xlink:href="#BitstreamVeraSans-Roman-35"/>
       <use x="127.24609375" xlink:href="#BitstreamVeraSans-Roman-30"/>
       <use x="190.869140625" xlink:href="#BitstreamVeraSans-Roman-30"/>
      </g>
     </g>
    </g>
    <g id="xtick_7">
     <g id="line2d_19">
      <path clip-path="url(#p4efa6b7ff1)" d="M 337.292308 252 
L 337.292308 28.8 
" style="fill:none;stroke:#ffffff;stroke-linecap:square;stroke-width:0.5;"/>
     </g>
     <g id="line2d_20">
      <g>
       <use style="fill:#555555;stroke:#555555;stroke-width:0.5;" x="337.292307692" xlink:href="#mdcb4130dca" y="252.0"/>
      </g>
     </g>
     <g id="line2d_21">
      <g>
       <use style="fill:#555555;stroke:#555555;stroke-width:0.5;" x="337.292307692" xlink:href="#m4231e60d83" y="28.8"/>
      </g>
     </g>
     <g id="text_7">
      <!-- 3000 -->
      <defs>
       <path d="M 40.578125 39.3125 
Q 47.65625 37.796875 51.625 33 
Q 55.609375 28.21875 55.609375 21.1875 
Q 55.609375 10.40625 48.1875 4.484375 
Q 40.765625 -1.421875 27.09375 -1.421875 
Q 22.515625 -1.421875 17.65625 -0.515625 
Q 12.796875 0.390625 7.625 2.203125 
L 7.625 11.71875 
Q 11.71875 9.328125 16.59375 8.109375 
Q 21.484375 6.890625 26.8125 6.890625 
Q 36.078125 6.890625 40.9375 10.546875 
Q 45.796875 14.203125 45.796875 21.1875 
Q 45.796875 27.640625 41.28125 31.265625 
Q 36.765625 34.90625 28.71875 34.90625 
L 20.21875 34.90625 
L 20.21875 43.015625 
L 29.109375 43.015625 
Q 36.375 43.015625 40.234375 45.921875 
Q 44.09375 48.828125 44.09375 54.296875 
Q 44.09375 59.90625 40.109375 62.90625 
Q 36.140625 65.921875 28.71875 65.921875 
Q 24.65625 65.921875 20.015625 65.03125 
Q 15.375 64.15625 9.8125 62.3125 
L 9.8125 71.09375 
Q 15.4375 72.65625 20.34375 73.4375 
Q 25.25 74.21875 29.59375 74.21875 
Q 40.828125 74.21875 47.359375 69.109375 
Q 53.90625 64.015625 53.90625 55.328125 
Q 53.90625 49.265625 50.4375 45.09375 
Q 46.96875 40.921875 40.578125 39.3125 
" id="BitstreamVeraSans-Roman-33"/>
      </defs>
      <g style="fill:#555555;" transform="translate(324.567307692 267.5984375)scale(0.1 -0.1)">
       <use xlink:href="#BitstreamVeraSans-Roman-33"/>
       <use x="63.623046875" xlink:href="#BitstreamVeraSans-Roman-30"/>
       <use x="127.24609375" xlink:href="#BitstreamVeraSans-Roman-30"/>
       <use x="190.869140625" xlink:href="#BitstreamVeraSans-Roman-30"/>
      </g>
     </g>
    </g>
    <g id="xtick_8">
     <g id="line2d_22">
      <path clip-path="url(#p4efa6b7ff1)" d="M 380.215385 252 
L 380.215385 28.8 
" style="fill:none;stroke:#ffffff;stroke-linecap:square;stroke-width:0.5;"/>
     </g>
     <g id="line2d_23">
      <g>
       <use style="fill:#555555;stroke:#555555;stroke-width:0.5;" x="380.215384615" xlink:href="#mdcb4130dca" y="252.0"/>
      </g>
     </g>
     <g id="line2d_24">
      <g>
       <use style="fill:#555555;stroke:#555555;stroke-width:0.5;" x="380.215384615" xlink:href="#m4231e60d83" y="28.8"/>
      </g>
     </g>
     <g id="text_8">
      <!-- 3500 -->
      <g style="fill:#555555;" transform="translate(367.490384615 267.5984375)scale(0.1 -0.1)">
       <use xlink:href="#BitstreamVeraSans-Roman-33"/>
       <use x="63.623046875" xlink:href="#BitstreamVeraSans-Roman-35"/>
       <use x="127.24609375" xlink:href="#BitstreamVeraSans-Roman-30"/>
       <use x="190.869140625" xlink:href="#BitstreamVeraSans-Roman-30"/>
      </g>
     </g>
    </g>
    <g id="text_9">
     <!-- Time -->
     <defs>
      <path d="M 56.203125 29.59375 
L 56.203125 25.203125 
L 14.890625 25.203125 
Q 15.484375 15.921875 20.484375 11.0625 
Q 25.484375 6.203125 34.421875 6.203125 
Q 39.59375 6.203125 44.453125 7.46875 
Q 49.3125 8.734375 54.109375 11.28125 
L 54.109375 2.78125 
Q 49.265625 0.734375 44.1875 -0.34375 
Q 39.109375 -1.421875 33.890625 -1.421875 
Q 20.796875 -1.421875 13.15625 6.1875 
Q 5.515625 13.8125 5.515625 26.8125 
Q 5.515625 40.234375 12.765625 48.109375 
Q 20.015625 56 32.328125 56 
Q 43.359375 56 49.78125 48.890625 
Q 56.203125 41.796875 56.203125 29.59375 
M 47.21875 32.234375 
Q 47.125 39.59375 43.09375 43.984375 
Q 39.0625 48.390625 32.421875 48.390625 
Q 24.90625 48.390625 20.390625 44.140625 
Q 15.875 39.890625 15.1875 32.171875 
z
" id="BitstreamVeraSans-Roman-65"/>
      <path d="M 9.421875 54.6875 
L 18.40625 54.6875 
L 18.40625 0 
L 9.421875 0 
z
M 9.421875 75.984375 
L 18.40625 75.984375 
L 18.40625 64.59375 
L 9.421875 64.59375 
z
" id="BitstreamVeraSans-Roman-69"/>
      <path d="M -0.296875 72.90625 
L 61.375 72.90625 
L 61.375 64.59375 
L 35.5 64.59375 
L 35.5 0 
L 25.59375 0 
L 25.59375 64.59375 
L -0.296875 64.59375 
z
" id="BitstreamVeraSans-Roman-54"/>
      <path d="M 52 44.1875 
Q 55.375 50.25 60.0625 53.125 
Q 64.75 56 71.09375 56 
Q 79.640625 56 84.28125 50.015625 
Q 88.921875 44.046875 88.921875 33.015625 
L 88.921875 0 
L 79.890625 0 
L 79.890625 32.71875 
Q 79.890625 40.578125 77.09375 44.375 
Q 74.3125 48.1875 68.609375 48.1875 
Q 61.625 48.1875 57.5625 43.546875 
Q 53.515625 38.921875 53.515625 30.90625 
L 53.515625 0 
L 44.484375 0 
L 44.484375 32.71875 
Q 44.484375 40.625 41.703125 44.40625 
Q 38.921875 48.1875 33.109375 48.1875 
Q 26.21875 48.1875 22.15625 43.53125 
Q 18.109375 38.875 18.109375 30.90625 
L 18.109375 0 
L 9.078125 0 
L 9.078125 54.6875 
L 18.109375 54.6875 
L 18.109375 46.1875 
Q 21.1875 51.21875 25.484375 53.609375 
Q 29.78125 56 35.6875 56 
Q 41.65625 56 45.828125 52.96875 
Q 50 49.953125 52 44.1875 
" id="BitstreamVeraSans-Roman-6d"/>
     </defs>
     <g style="fill:#555555;" transform="translate(206.535 283.79625)scale(0.12 -0.12)">
      <use xlink:href="#BitstreamVeraSans-Roman-54"/>
      <use x="61.037109375" xlink:href="#BitstreamVeraSans-Roman-69"/>
      <use x="88.8203125" xlink:href="#BitstreamVeraSans-Roman-6d"/>
      <use x="186.232421875" xlink:href="#BitstreamVeraSans-Roman-65"/>
     </g>
    </g>
   </g>
   <g id="matplotlib.axis_2">
    <g id="ytick_1">
     <g id="line2d_25">
      <path clip-path="url(#p4efa6b7ff1)" d="M 54 252 
L 388.8 252 
" style="fill:none;stroke:#ffffff;stroke-linecap:square;stroke-width:0.5;"/>
     </g>
     <g id="line2d_26">
      <defs>
       <path d="M 0 0 
L -4 0 
" id="mc06536b354" style="stroke:#555555;stroke-width:0.5;"/>
      </defs>
      <g>
       <use style="fill:#555555;stroke:#555555;stroke-width:0.5;" x="54.0" xlink:href="#mc06536b354" y="252.0"/>
      </g>
     </g>
     <g id="line2d_27">
      <defs>
       <path d="M 0 0 
L 4 0 
" id="ma7a2b64a4a" style="stroke:#555555;stroke-width:0.5;"/>
      </defs>
      <g>
       <use style="fill:#555555;stroke:#555555;stroke-width:0.5;" x="388.8" xlink:href="#ma7a2b64a4a" y="252.0"/>
      </g>
     </g>
     <g id="text_10">
      <!-- −2000 -->
      <defs>
       <path d="M 10.59375 35.5 
L 73.1875 35.5 
L 73.1875 27.203125 
L 10.59375 27.203125 
z
" id="BitstreamVeraSans-Roman-2212"/>
      </defs>
      <g style="fill:#555555;" transform="translate(12.1703125 254.759375)scale(0.1 -0.1)">
       <use xlink:href="#BitstreamVeraSans-Roman-2212"/>
       <use x="83.7890625" xlink:href="#BitstreamVeraSans-Roman-32"/>
       <use x="147.412109375" xlink:href="#BitstreamVeraSans-Roman-30"/>
       <use x="211.03515625" xlink:href="#BitstreamVeraSans-Roman-30"/>
       <use x="274.658203125" xlink:href="#BitstreamVeraSans-Roman-30"/>
      </g>
     </g>
    </g>
    <g id="ytick_2">
     <g id="line2d_28">
      <path clip-path="url(#p4efa6b7ff1)" d="M 54 220.114286 
L 388.8 220.114286 
" style="fill:none;stroke:#ffffff;stroke-linecap:square;stroke-width:0.5;"/>
     </g>
     <g id="line2d_29">
      <g>
       <use style="fill:#555555;stroke:#555555;stroke-width:0.5;" x="54.0" xlink:href="#mc06536b354" y="220.114285714"/>
      </g>
     </g>
     <g id="line2d_30">
      <g>
       <use style="fill:#555555;stroke:#555555;stroke-width:0.5;" x="388.8" xlink:href="#ma7a2b64a4a" y="220.114285714"/>
      </g>
     </g>
     <g id="text_11">
      <!-- −1500 -->
      <g style="fill:#555555;" transform="translate(12.1703125 222.873660714)scale(0.1 -0.1)">
       <use xlink:href="#BitstreamVeraSans-Roman-2212"/>
       <use x="83.7890625" xlink:href="#BitstreamVeraSans-Roman-31"/>
       <use x="147.412109375" xlink:href="#BitstreamVeraSans-Roman-35"/>
       <use x="211.03515625" xlink:href="#BitstreamVeraSans-Roman-30"/>
       <use x="274.658203125" xlink:href="#BitstreamVeraSans-Roman-30"/>
      </g>
     </g>
    </g>
    <g id="ytick_3">
     <g id="line2d_31">
      <path clip-path="url(#p4efa6b7ff1)" d="M 54 188.228571 
L 388.8 188.228571 
" style="fill:none;stroke:#ffffff;stroke-linecap:square;stroke-width:0.5;"/>
     </g>
     <g id="line2d_32">
      <g>
       <use style="fill:#555555;stroke:#555555;stroke-width:0.5;" x="54.0" xlink:href="#mc06536b354" y="188.228571429"/>
      </g>
     </g>
     <g id="line2d_33">
      <g>
       <use style="fill:#555555;stroke:#555555;stroke-width:0.5;" x="388.8" xlink:href="#ma7a2b64a4a" y="188.228571429"/>
      </g>
     </g>
     <g id="text_12">
      <!-- −1000 -->
      <g style="fill:#555555;" transform="translate(12.1703125 190.987946429)scale(0.1 -0.1)">
       <use xlink:href="#BitstreamVeraSans-Roman-2212"/>
       <use x="83.7890625" xlink:href="#BitstreamVeraSans-Roman-31"/>
       <use x="147.412109375" xlink:href="#BitstreamVeraSans-Roman-30"/>
       <use x="211.03515625" xlink:href="#BitstreamVeraSans-Roman-30"/>
       <use x="274.658203125" xlink:href="#BitstreamVeraSans-Roman-30"/>
      </g>
     </g>
    </g>
    <g id="ytick_4">
     <g id="line2d_34">
      <path clip-path="url(#p4efa6b7ff1)" d="M 54 156.342857 
L 388.8 156.342857 
" style="fill:none;stroke:#ffffff;stroke-linecap:square;stroke-width:0.5;"/>
     </g>
     <g id="line2d_35">
      <g>
       <use style="fill:#555555;stroke:#555555;stroke-width:0.5;" x="54.0" xlink:href="#mc06536b354" y="156.342857143"/>
      </g>
     </g>
     <g id="line2d_36">
      <g>
       <use style="fill:#555555;stroke:#555555;stroke-width:0.5;" x="388.8" xlink:href="#ma7a2b64a4a" y="156.342857143"/>
      </g>
     </g>
     <g id="text_13">
      <!-- −500 -->
      <g style="fill:#555555;" transform="translate(18.5328125 159.102232143)scale(0.1 -0.1)">
       <use xlink:href="#BitstreamVeraSans-Roman-2212"/>
       <use x="83.7890625" xlink:href="#BitstreamVeraSans-Roman-35"/>
       <use x="147.412109375" xlink:href="#BitstreamVeraSans-Roman-30"/>
       <use x="211.03515625" xlink:href="#BitstreamVeraSans-Roman-30"/>
      </g>
     </g>
    </g>
    <g id="ytick_5">
     <g id="line2d_37">
      <path clip-path="url(#p4efa6b7ff1)" d="M 54 124.457143 
L 388.8 124.457143 
" style="fill:none;stroke:#ffffff;stroke-linecap:square;stroke-width:0.5;"/>
     </g>
     <g id="line2d_38">
      <g>
       <use style="fill:#555555;stroke:#555555;stroke-width:0.5;" x="54.0" xlink:href="#mc06536b354" y="124.457142857"/>
      </g>
     </g>
     <g id="line2d_39">
      <g>
       <use style="fill:#555555;stroke:#555555;stroke-width:0.5;" x="388.8" xlink:href="#ma7a2b64a4a" y="124.457142857"/>
      </g>
     </g>
     <g id="text_14">
      <!-- 0 -->
      <g style="fill:#555555;" transform="translate(39.6375 127.216517857)scale(0.1 -0.1)">
       <use xlink:href="#BitstreamVeraSans-Roman-30"/>
      </g>
     </g>
    </g>
    <g id="ytick_6">
     <g id="line2d_40">
      <path clip-path="url(#p4efa6b7ff1)" d="M 54 92.571429 
L 388.8 92.571429 
" style="fill:none;stroke:#ffffff;stroke-linecap:square;stroke-width:0.5;"/>
     </g>
     <g id="line2d_41">
      <g>
       <use style="fill:#555555;stroke:#555555;stroke-width:0.5;" x="54.0" xlink:href="#mc06536b354" y="92.5714285714"/>
      </g>
     </g>
     <g id="line2d_42">
      <g>
       <use style="fill:#555555;stroke:#555555;stroke-width:0.5;" x="388.8" xlink:href="#ma7a2b64a4a" y="92.5714285714"/>
      </g>
     </g>
     <g id="text_15">
      <!-- 500 -->
      <g style="fill:#555555;" transform="translate(26.9125 95.3308035714)scale(0.1 -0.1)">
       <use xlink:href="#BitstreamVeraSans-Roman-35"/>
       <use x="63.623046875" xlink:href="#BitstreamVeraSans-Roman-30"/>
       <use x="127.24609375" xlink:href="#BitstreamVeraSans-Roman-30"/>
      </g>
     </g>
    </g>
    <g id="ytick_7">
     <g id="line2d_43">
      <path clip-path="url(#p4efa6b7ff1)" d="M 54 60.685714 
L 388.8 60.685714 
" style="fill:none;stroke:#ffffff;stroke-linecap:square;stroke-width:0.5;"/>
     </g>
     <g id="line2d_44">
      <g>
       <use style="fill:#555555;stroke:#555555;stroke-width:0.5;" x="54.0" xlink:href="#mc06536b354" y="60.6857142857"/>
      </g>
     </g>
     <g id="line2d_45">
      <g>
       <use style="fill:#555555;stroke:#555555;stroke-width:0.5;" x="388.8" xlink:href="#ma7a2b64a4a" y="60.6857142857"/>
      </g>
     </g>
     <g id="text_16">
      <!-- 1000 -->
      <g style="fill:#555555;" transform="translate(20.55 63.4450892857)scale(0.1 -0.1)">
       <use xlink:href="#BitstreamVeraSans-Roman-31"/>
       <use x="63.623046875" xlink:href="#BitstreamVeraSans-Roman-30"/>
       <use x="127.24609375" xlink:href="#BitstreamVeraSans-Roman-30"/>
       <use x="190.869140625" xlink:href="#BitstreamVeraSans-Roman-30"/>
      </g>
     </g>
    </g>
    <g id="ytick_8">
     <g id="line2d_46">
      <path clip-path="url(#p4efa6b7ff1)" d="M 54 28.8 
L 388.8 28.8 
" style="fill:none;stroke:#ffffff;stroke-linecap:square;stroke-width:0.5;"/>
     </g>
     <g id="line2d_47">
      <g>
       <use style="fill:#555555;stroke:#555555;stroke-width:0.5;" x="54.0" xlink:href="#mc06536b354" y="28.8"/>
      </g>
     </g>
     <g id="line2d_48">
      <g>
       <use style="fill:#555555;stroke:#555555;stroke-width:0.5;" x="388.8" xlink:href="#ma7a2b64a4a" y="28.8"/>
      </g>
     </g>
     <g id="text_17">
      <!-- 1500 -->
      <g style="fill:#555555;" transform="translate(20.55 31.559375)scale(0.1 -0.1)">
       <use xlink:href="#BitstreamVeraSans-Roman-31"/>
       <use x="63.623046875" xlink:href="#BitstreamVeraSans-Roman-35"/>
       <use x="127.24609375" xlink:href="#BitstreamVeraSans-Roman-30"/>
       <use x="190.869140625" xlink:href="#BitstreamVeraSans-Roman-30"/>
      </g>
     </g>
    </g>
    <g id="text_18">
     <!-- Flux -->
     <defs>
      <path d="M 9.8125 72.90625 
L 51.703125 72.90625 
L 51.703125 64.59375 
L 19.671875 64.59375 
L 19.671875 43.109375 
L 48.578125 43.109375 
L 48.578125 34.8125 
L 19.671875 34.8125 
L 19.671875 0 
L 9.8125 0 
z
" id="BitstreamVeraSans-Roman-46"/>
      <path d="M 8.5 21.578125 
L 8.5 54.6875 
L 17.484375 54.6875 
L 17.484375 21.921875 
Q 17.484375 14.15625 20.5 10.265625 
Q 23.53125 6.390625 29.59375 6.390625 
Q 36.859375 6.390625 41.078125 11.03125 
Q 45.3125 15.671875 45.3125 23.6875 
L 45.3125 54.6875 
L 54.296875 54.6875 
L 54.296875 0 
L 45.3125 0 
L 45.3125 8.40625 
Q 42.046875 3.421875 37.71875 1 
Q 33.40625 -1.421875 27.6875 -1.421875 
Q 18.265625 -1.421875 13.375 4.4375 
Q 8.5 10.296875 8.5 21.578125 
" id="BitstreamVeraSans-Roman-75"/>
      <path d="M 54.890625 54.6875 
L 35.109375 28.078125 
L 55.90625 0 
L 45.3125 0 
L 29.390625 21.484375 
L 13.484375 0 
L 2.875 0 
L 24.125 28.609375 
L 4.6875 54.6875 
L 15.28125 54.6875 
L 29.78125 35.203125 
L 44.28125 54.6875 
z
" id="BitstreamVeraSans-Roman-78"/>
      <path d="M 9.421875 75.984375 
L 18.40625 75.984375 
L 18.40625 0 
L 9.421875 0 
z
" id="BitstreamVeraSans-Roman-6c"/>
     </defs>
     <g style="fill:#555555;" transform="translate(4.6746875 152.8715625)rotate(-90.0)scale(0.12 -0.12)">
      <use xlink:href="#BitstreamVeraSans-Roman-46"/>
      <use x="57.51953125" xlink:href="#BitstreamVeraSans-Roman-6c"/>
      <use x="85.302734375" xlink:href="#BitstreamVeraSans-Roman-75"/>
      <use x="148.681640625" xlink:href="#BitstreamVeraSans-Roman-78"/>
     </g>
    </g>
   </g>
   <g id="line2d_49">
    <path clip-path="url(#p4efa6b7ff1)" d="M 79.753846 135.310402 
L 79.839692 134.457778 
L 79.925538 136.298859 
L 80.011385 129.594569 
L 80.097231 129.965719 
L 80.268923 124.306005 
L 80.526462 135.776571 
L 80.698154 144.059205 
L 80.784 154.146569 
L 80.955692 147.55069 
L 81.384923 181.114231 
L 81.470769 176.618345 
L 81.556615 187.602974 
L 81.642462 179.902574 
L 81.728308 180.074119 
L 81.814154 180.611712 
L 82.243385 140.655086 
L 82.329231 139.331829 
L 82.415077 160.63595 
L 82.586769 111.706683 
L 82.758462 119.371371 
L 82.844308 121.037719 
L 83.016 128.993205 
L 83.101846 126.565426 
L 83.187692 118.937088 
L 83.273538 127.067945 
L 83.359385 124.178462 
L 83.445231 127.7892 
L 83.531077 125.266402 
L 83.616923 125.716629 
L 83.788615 134.963486 
L 84.389538 184.753029 
L 84.475385 190.604057 
L 84.818769 164.473714 
L 85.591385 94.305374 
L 85.677231 108.813374 
L 85.763077 104.085998 
L 86.106462 126.872805 
L 86.192308 125.437947 
L 86.278154 125.617145 
L 86.364 137.837664 
L 86.449846 133.680405 
L 86.621538 149.758457 
L 86.707385 159.658971 
L 86.793231 151.141659 
L 86.879077 159.300576 
L 87.222462 144.963483 
L 87.308308 150.197205 
L 87.48 114.333429 
L 87.565846 118.430743 
L 87.651692 118.100407 
L 87.823385 122.811202 
L 87.909231 122.265319 
L 88.080923 116.765033 
L 88.166769 115.353771 
L 88.424308 141.66395 
L 88.510154 135.326345 
L 88.596 139.387947 
L 88.767692 135.159264 
L 88.853538 148.407141 
L 88.939385 147.084521 
L 89.282769 127.195488 
L 89.368615 117.011829 
L 89.454462 124.373602 
L 89.540308 124.006917 
L 89.626154 126.864514 
L 89.797846 134.915657 
L 89.969538 137.852969 
L 90.055385 137.698005 
L 90.141231 134.413776 
L 90.227077 140.420407 
L 90.398769 134.923947 
L 90.484615 141.372514 
L 90.570462 139.156457 
L 90.656308 149.348407 
L 90.913846 140.962464 
L 91.085538 146.717198 
L 91.343077 136.107545 
L 91.428923 135.063607 
L 91.514769 138.06469 
L 91.600615 128.602286 
L 91.686462 132.205371 
L 92.201538 99.323547 
L 92.287385 102.922807 
L 92.630769 72.886464 
L 92.716615 73.930402 
L 92.802462 78.534062 
L 92.888308 77.673147 
L 92.974154 77.545605 
L 93.231692 89.111829 
L 93.489231 114.744117 
L 93.575077 114.580862 
L 93.746769 120.810693 
L 94.004308 135.198802 
L 94.176 123.341143 
L 94.261846 121.930519 
L 94.433538 130.040969 
L 94.519385 138.012398 
L 94.776923 125.748514 
L 94.862769 123.066288 
L 95.120308 142.341202 
L 95.206154 141.368688 
L 95.292 146.936571 
L 95.377846 136.780971 
L 95.549538 152.022343 
L 95.635385 154.760688 
L 95.721231 151.747488 
L 95.807077 157.171886 
L 95.978769 143.632574 
L 96.150462 150.153202 
L 96.236308 149.331826 
L 96.322154 139.73869 
L 96.408 139.886002 
L 96.923077 115.564855 
L 97.008923 114.999202 
L 97.094769 112.360978 
L 97.266462 95.596745 
L 97.352308 98.203721 
L 97.438154 110.27629 
L 97.524 106.182802 
L 97.609846 112.037657 
L 97.695692 108.606117 
L 97.867385 114.453319 
L 97.953231 110.738633 
L 98.124923 130.571547 
L 98.382462 108.769371 
L 98.811692 134.752402 
L 99.155077 111.695205 
L 99.412615 132.098235 
L 99.498462 135.620969 
L 99.670154 131.974519 
L 99.756 142.313143 
L 99.841846 141.950921 
L 99.927692 127.354917 
L 100.013538 137.155947 
L 100.099385 133.146 
L 100.356923 95.441143 
L 100.442769 96.816055 
L 100.528615 93.627483 
L 100.614462 97.7688 
L 100.872 65.620347 
L 101.043692 55.241547 
L 101.129538 63.790745 
L 101.301231 57.170633 
L 101.387077 58.963886 
L 101.472923 101.949655 
L 101.558769 101.838693 
L 101.644615 100.662747 
L 101.816308 127.394455 
L 101.902154 125.497893 
L 101.988 126.342226 
L 102.073846 135.63755 
L 102.503077 110.180633 
L 102.588923 111.141031 
L 102.674769 100.427431 
L 102.760615 107.578121 
L 102.846462 106.828169 
L 103.018154 99.040402 
L 103.104 102.484059 
L 103.189846 101.690743 
L 103.275692 94.154235 
L 103.447385 118.733657 
L 103.704923 142.879433 
L 103.790769 141.930514 
L 103.876615 147.801312 
L 103.962462 147.347259 
L 104.048308 141.683719 
L 104.22 163.433602 
L 104.305846 163.393426 
L 104.477538 151.815086 
L 104.563385 151.919033 
L 104.649231 141.085543 
L 104.735077 144.063031 
L 104.820923 138.973433 
L 104.906769 142.616057 
L 104.992615 135.461541 
L 105.250154 88.243262 
L 105.421846 117.605541 
L 105.507692 122.304857 
L 105.593538 106.314171 
L 105.679385 106.604969 
L 105.765231 107.522002 
L 105.851077 114.038805 
L 105.936923 107.047543 
L 106.022769 108.988745 
L 106.194462 102.595659 
L 106.366154 84.337262 
L 106.452 119.877717 
L 106.537846 117.601714 
L 106.623692 120.754574 
L 106.795385 106.633029 
L 106.881231 112.639659 
L 106.967077 109.502743 
L 107.138769 111.957943 
L 107.224615 111.934347 
L 107.310462 113.962917 
L 107.396308 113.141541 
L 107.653846 103.484633 
L 107.739692 117.828741 
L 107.825538 115.692398 
L 107.997231 128.13229 
L 108.168923 125.493429 
L 108.254769 129.491259 
L 108.426462 122.0976 
L 108.684 135.19115 
L 108.855692 132.934917 
L 108.941538 134.628686 
L 109.027385 138.646286 
L 109.113231 138.451145 
L 109.199077 136.765029 
L 109.284923 140.160857 
L 109.370769 140.057547 
L 109.542462 129.985488 
L 109.628308 129.770578 
L 109.714154 134.49349 
L 109.885846 148.1004 
L 110.229231 125.135033 
L 110.315077 131.002005 
L 110.486769 122.304857 
L 110.572615 124.246059 
L 110.744308 119.678112 
L 110.830154 120.384062 
L 110.916 133.664462 
L 111.001846 109.196002 
L 111.087692 142.149888 
L 111.173538 137.203776 
L 111.259385 138.750233 
L 111.516923 124.286235 
L 111.602769 124.660574 
L 111.688615 124.373602 
L 111.774462 123.413205 
L 112.032 108.857376 
L 112.203692 112.093776 
L 112.375385 118.793602 
L 112.461231 116.601778 
L 112.547077 118.008576 
L 112.632923 121.890343 
L 112.804615 138.044283 
L 112.890462 140.635317 
L 113.148 127.219721 
L 113.405538 134.628686 
L 113.577231 136.7172 
L 113.663077 136.286743 
L 113.748923 132.109714 
L 113.834769 133.71229 
L 114.006462 142.978917 
L 114.092308 143.317543 
L 114.264 156.4704 
L 114.349846 147.881664 
L 114.693231 165.434112 
L 114.864923 153.281829 
L 114.950769 105.724286 
L 115.122462 139.846464 
L 115.208308 144.672686 
L 115.38 141.021771 
L 115.465846 140.730974 
L 115.551692 137.550693 
L 115.637538 138.052574 
L 115.809231 143.887659 
L 115.895077 144.676512 
L 116.324308 112.037657 
L 116.410154 111.758976 
L 116.496 115.764459 
L 116.581846 113.580288 
L 116.839385 63.212976 
L 116.925231 63.296517 
L 117.354462 99.618171 
L 117.526154 86.716574 
L 117.697846 123.082231 
L 117.783692 124.704576 
L 117.869538 116.163031 
L 117.955385 118.924971 
L 118.041231 118.044288 
L 118.298769 130.746919 
L 118.384615 128.642462 
L 118.642154 108.949207 
L 118.813846 115.381831 
L 119.071385 130.403829 
L 119.157231 124.720519 
L 119.328923 133.528629 
L 119.500615 127.840855 
L 119.586462 132.217488 
L 119.672308 142.819488 
L 119.758154 137.546229 
L 119.844 142.767833 
L 120.015692 135.501717 
L 120.101538 132.915147 
L 120.187385 139.965717 
L 120.444923 121.399941 
L 120.616615 116.5176 
L 120.874154 126.055255 
L 121.045846 111.750686 
L 121.303385 117.036062 
L 121.475077 133.229541 
L 121.560923 125.493429 
L 121.904308 159.137321 
L 121.990154 157.072402 
L 122.333538 121.503888 
L 122.419385 113.962917 
L 122.505231 119.718288 
L 122.762769 98.398862 
L 122.934462 94.632521 
L 123.192 119.240002 
L 123.277846 122.412631 
L 123.363692 132.348857 
L 123.449538 127.275202 
L 123.535385 133.301602 
L 123.621231 128.506629 
L 123.707077 135.577605 
L 123.792923 133.142174 
L 123.878769 139.120745 
L 123.964615 132.994862 
L 124.050462 136.872802 
L 124.136308 121.655026 
L 124.222154 127.036059 
L 124.393846 123.544574 
L 124.565538 108.311493 
L 124.651385 101.364233 
L 124.737231 103.899147 
L 124.823077 98.020059 
L 124.994769 119.280178 
L 125.080615 118.45115 
L 125.166462 119.42749 
L 125.252308 114.389547 
L 125.338154 116.617083 
L 125.509846 105.939833 
L 125.681538 122.061888 
L 125.767385 112.352688 
L 125.939077 115.860117 
L 126.024923 116.848574 
L 126.110769 111.472005 
L 126.196615 112.097602 
L 126.282462 113.528633 
L 126.368308 120.846405 
L 126.454154 119.199826 
L 126.54 124.321947 
L 126.711692 110.084976 
L 126.969231 122.711719 
L 127.055077 127.243317 
L 127.226769 117.055831 
L 127.398462 113.970569 
L 127.484308 125.302114 
L 127.570154 121.595719 
L 127.827692 127.610002 
L 128.085231 143.106459 
L 128.514462 122.265319 
L 128.600308 124.321947 
L 128.686154 131.503886 
L 128.943692 118.19989 
L 129.029538 117.733083 
L 129.201231 128.120174 
L 129.372923 125.716629 
L 129.458769 116.027835 
L 129.544615 116.800745 
L 129.716308 112.503826 
L 129.888 119.240002 
L 129.973846 118.223486 
L 130.059692 116.398347 
L 130.145538 122.118007 
L 130.403077 109.311429 
L 130.574769 118.347202 
L 130.660615 128.199888 
L 130.746462 126.788626 
L 131.004 139.287826 
L 131.175692 128.701769 
L 131.519077 117.737547 
L 131.690769 124.577033 
L 131.776615 124.357659 
L 131.948308 113.640233 
L 132.034154 113.073943 
L 132.12 113.229545 
L 132.291692 136.562235 
L 132.463385 146.900859 
L 132.635077 142.165831 
L 132.806769 158.814 
L 132.892615 156.578174 
L 133.493538 103.671483 
L 133.579385 101.846345 
L 133.665231 94.959031 
L 134.094462 146.865147 
L 134.352 121.579776 
L 134.609538 125.955771 
L 134.695385 125.764457 
L 134.781231 120.475255 
L 134.867077 104.213541 
L 135.038769 121.089374 
L 135.124615 119.857947 
L 135.296308 121.898633 
L 135.382154 123.234007 
L 135.553846 128.968971 
L 135.725538 120.104743 
L 135.897231 135.370347 
L 135.983077 126.868978 
L 136.154769 138.933257 
L 136.326462 120.232286 
L 136.669846 131.930517 
L 136.755692 128.877778 
L 136.841538 130.216978 
L 137.013231 141.41269 
L 137.099077 141.313207 
L 137.184923 137.629769 
L 137.356615 122.058062 
L 137.442462 121.794686 
L 137.528308 116.708914 
L 137.7 120.260345 
L 137.871692 111.1608 
L 137.957538 106.685321 
L 138.043385 109.754002 
L 138.129231 106.509312 
L 138.730154 147.375319 
L 138.901846 169.176857 
L 139.073538 152.783774 
L 139.245231 131.982171 
L 139.331077 143.070747 
L 139.588615 121.428 
L 139.674462 120.411483 
L 139.760308 121.544064 
L 139.846154 114.361488 
L 140.017846 130.901883 
L 140.189538 114.895255 
L 140.275385 110.766693 
L 140.618769 121.866747 
L 140.704615 121.340633 
L 140.962154 125.90029 
L 141.048 129.785883 
L 141.133846 126.984405 
L 141.219692 128.112521 
L 141.305538 133.847486 
L 141.477231 128.435205 
L 141.563077 136.043774 
L 141.648923 128.331257 
L 141.734769 129.61115 
L 141.820615 139.595205 
L 141.906462 135.649029 
L 141.992308 124.321947 
L 142.078154 128.782121 
L 142.335692 109.530802 
L 142.421538 114.465435 
L 142.507385 118.685829 
L 142.593231 117.877207 
L 142.679077 110.750112 
L 142.764923 119.048688 
L 142.850769 118.171831 
L 142.936615 119.180057 
L 143.194154 132.628176 
L 143.365846 125.14715 
L 143.537538 131.61995 
L 143.709231 144.138919 
L 143.966769 132.70789 
L 144.052615 131.575947 
L 144.138462 120.415947 
L 144.310154 129.91789 
L 144.481846 118.566576 
L 144.567692 119.176231 
L 144.739385 117.19549 
L 144.825231 127.861262 
L 144.911077 126.805207 
L 144.996923 125.250459 
L 145.168615 109.518686 
L 145.254462 112.436229 
L 145.426154 129.710633 
L 145.683692 99.961262 
L 145.855385 118.486862 
L 145.941231 110.686341 
L 146.112923 121.2048 
L 146.198769 123.313083 
L 146.456308 112.584178 
L 146.628 131.890341 
L 146.713846 130.898057 
L 146.799692 99.160293 
L 146.971385 136.39069 
L 147.228923 127.889321 
L 147.400615 130.929943 
L 147.486462 130.248864 
L 147.658154 117.681429 
L 147.829846 122.197083 
L 147.915692 123.381319 
L 148.087385 113.488457 
L 148.173231 116.059721 
L 148.259077 115.904119 
L 148.430769 109.27189 
L 148.945846 130.961829 
L 149.117538 139.328002 
L 149.203385 143.528626 
L 149.375077 134.915657 
L 149.546769 117.849147 
L 149.632615 117.362571 
L 149.718462 126.035486 
L 149.890154 115.920062 
L 149.976 107.1432 
L 150.061846 118.359319 
L 150.147692 117.11195 
L 150.233538 105.720459 
L 150.491077 122.492345 
L 150.576923 114.947547 
L 150.662769 115.18669 
L 150.748615 110.248231 
L 150.920308 126.876631 
L 151.006154 125.576969 
L 151.092 126.979941 
L 151.177846 130.272459 
L 151.263692 127.219721 
L 151.435385 131.372517 
L 151.521231 131.875035 
L 151.778769 117.964574 
L 151.950462 133.739712 
L 152.122154 123.680407 
L 152.208 125.920059 
L 152.293846 126.944229 
L 152.379692 115.477488 
L 152.465538 125.636914 
L 152.551385 123.915086 
L 152.637231 115.29829 
L 152.808923 135.533602 
L 152.980615 117.992633 
L 153.066462 123.241659 
L 153.152308 100.850235 
L 153.238154 102.587369 
L 153.324 98.909033 
L 153.753231 126.214683 
L 153.839077 119.785886 
L 153.924923 124.648457 
L 154.010769 115.150341 
L 154.268308 130.148743 
L 154.354154 124.457143 
L 154.44 138.681998 
L 154.697538 120.248229 
L 154.783385 122.137776 
L 154.869231 121.037719 
L 154.955077 118.008576 
L 155.040923 126.258686 
L 155.126769 121.484119 
L 155.212615 107.222914 
L 155.298462 110.025031 
L 155.470154 96.425774 
L 155.641846 103.249317 
L 155.727692 101.902464 
L 156.071077 114.680345 
L 156.156923 120.164688 
L 156.242769 135.290633 
L 156.328615 129.168576 
L 156.414462 139.017435 
L 156.586154 124.588512 
L 156.672 126.410462 
L 156.757846 119.833714 
L 156.929538 124.864005 
L 157.101231 108.179486 
L 157.272923 101.977714 
L 157.444615 106.609433 
L 157.530462 95.074457 
L 157.616308 95.389488 
L 158.131385 140.986059 
L 158.217231 139.698514 
L 158.303077 147.163598 
L 158.388923 146.562233 
L 158.474769 124.548974 
L 158.646462 141.225202 
L 158.989846 121.049198 
L 159.075692 104.691826 
L 159.762462 150.224626 
L 159.848308 150.00589 
L 160.02 120.375771 
L 160.191692 113.8392 
L 160.277538 116.940405 
L 160.363385 115.724283 
L 160.449231 122.093774 
L 160.706769 110.072859 
L 160.792615 110.27629 
L 161.050154 128.506629 
L 161.136 126.788626 
L 161.393538 104.560457 
L 161.651077 115.613321 
L 161.822769 107.03989 
L 161.994462 123.261429 
L 162.166154 119.961257 
L 162.252 119.993143 
L 162.337846 121.65949 
L 162.852923 142.635826 
L 163.024615 135.960233 
L 163.196308 149.236169 
L 163.282154 148.902007 
L 163.453846 140.982233 
L 163.539692 134.732633 
L 163.625538 141.125719 
L 163.711385 137.64635 
L 163.797231 121.037719 
L 163.883077 130.846402 
L 164.054769 119.148171 
L 164.226462 132.432398 
L 164.312308 125.844171 
L 164.398154 127.466517 
L 164.655692 139.790345 
L 165.170769 115.011319 
L 165.256615 123.544574 
L 165.342462 117.155314 
L 165.6 138.722174 
L 165.685846 132.603943 
L 165.771692 126.238917 
L 165.857538 131.838686 
L 166.029231 122.324626 
L 166.115077 123.855141 
L 166.200923 125.601202 
L 166.286769 125.397771 
L 166.372615 124.692459 
L 166.458462 130.116857 
L 166.544308 123.716119 
L 166.630154 127.386802 
L 166.716 118.829314 
L 166.801846 82.954059 
L 166.887692 136.238914 
L 166.973538 131.037717 
L 167.231077 115.381831 
L 167.402769 127.426341 
L 167.488615 123.161945 
L 167.746154 129.618802 
L 167.917846 113.704005 
L 168.003692 118.821662 
L 168.089538 120.45995 
L 168.261231 114.636343 
L 168.518769 129.012974 
L 168.604615 125.863941 
L 168.776308 139.280174 
L 168.862154 141.695835 
L 168.948 137.398917 
L 169.119692 141.448402 
L 169.205538 142.991033 
L 169.377231 151.340626 
L 169.548923 127.542405 
L 169.634769 133.476974 
L 169.806462 111.300459 
L 169.978154 105.206462 
L 170.064 114.971143 
L 170.149846 109.491264 
L 170.493231 142.859026 
L 170.579077 144.923945 
L 170.664923 155.621602 
L 170.750769 155.226857 
L 170.836615 156.960802 
L 170.922462 146.99269 
L 171.008308 151.169719 
L 171.094154 144.668859 
L 171.265846 121.990464 
L 171.351692 126.295035 
L 171.695077 105.385659 
L 172.210154 146.319264 
L 172.553538 106.266343 
L 172.639385 104.02669 
L 172.725231 105.078919 
L 172.811077 104.684174 
L 172.982769 120.471429 
L 173.068615 118.08 
L 173.154462 115.99595 
L 173.240308 123.855141 
L 173.326154 119.842005 
L 173.497846 137.490747 
L 173.583692 131.448405 
L 173.669538 134.453314 
L 173.755385 134.254347 
L 173.841231 130.759035 
L 173.927077 121.990464 
L 174.012923 89.127771 
L 174.184615 129.766114 
L 174.356308 131.188855 
L 174.528 120.619378 
L 174.613846 123.237833 
L 174.699692 106.70509 
L 174.871385 130.910174 
L 175.386462 162.971259 
L 175.644 127.566 
L 175.729846 127.861262 
L 175.815692 135.290633 
L 175.901538 134.170807 
L 176.159077 130.982235 
L 176.244923 127.881031 
L 176.416615 113.891493 
L 176.674154 131.519829 
L 176.76 132.647945 
L 176.845846 132.137774 
L 177.017538 138.973433 
L 177.103385 137.661655 
L 177.446769 114.708405 
L 177.532615 130.352174 
L 177.618462 125.832055 
L 177.704308 119.76229 
L 177.876 127.757314 
L 178.047692 112.695141 
L 178.133538 112.033831 
L 178.219385 110.41595 
L 178.305231 97.625314 
L 178.476923 112.456635 
L 178.562769 111.28069 
L 178.734462 125.505545 
L 178.820308 115.437312 
L 179.249538 145.354402 
L 179.507077 105.907947 
L 179.592923 111.993655 
L 179.678769 108.749602 
L 179.764615 111.117435 
L 179.936308 119.339486 
L 180.108 129.634745 
L 180.193846 128.008574 
L 180.451385 115.29829 
L 180.537231 120.671033 
L 180.623077 120.630857 
L 181.138154 136.171317 
L 181.309846 125.326347 
L 181.395692 131.468174 
L 181.481538 126.465943 
L 181.567385 128.630345 
L 181.653231 127.570464 
L 181.996615 111.683088 
L 182.082462 115.63309 
L 182.254154 99.295488 
L 182.34 110.188286 
L 182.425846 106.453831 
L 182.511692 55.297029 
L 182.683385 116.027835 
L 182.855077 132.771662 
L 183.026769 120.419774 
L 183.112615 122.46875 
L 183.198462 127.581943 
L 183.370154 119.008512 
L 183.456 122.771026 
L 183.541846 113.656176 
L 183.627692 119.893659 
L 183.713538 117.119602 
L 183.885231 134.621033 
L 184.056923 105.736402 
L 184.228615 106.430235 
L 184.572 119.20429 
L 184.657846 96.485719 
L 184.743692 134.134457 
L 184.829538 131.041543 
L 184.915385 138.458798 
L 185.087077 134.413776 
L 185.172923 133.452741 
L 185.258769 143.357719 
L 185.516308 133.524802 
L 185.602154 136.123488 
L 185.688 132.81949 
L 185.773846 138.98555 
L 185.859692 137.884855 
L 185.945538 136.39069 
L 186.031385 144.055378 
L 186.117231 142.576519 
L 186.203077 136.506117 
L 186.374769 109.877719 
L 186.460615 110.399369 
L 186.546462 104.349374 
L 186.718154 87.812805 
L 186.804 91.559376 
L 186.889846 106.557778 
L 186.975692 105.819943 
L 187.233231 121.986 
L 187.404923 150.280745 
L 187.490769 149.846462 
L 187.748308 110.188286 
L 187.92 100.67869 
L 188.005846 103.883205 
L 188.091692 90.794119 
L 188.177538 94.923319 
L 188.263385 93.887033 
L 188.349231 94.496688 
L 188.606769 129.570974 
L 188.778462 107.51435 
L 188.950154 133.050343 
L 189.036 131.794683 
L 189.121846 128.068519 
L 189.207692 131.093198 
L 189.465231 122.910686 
L 189.722769 145.055314 
L 189.894462 121.671607 
L 190.066154 113.631943 
L 190.237846 121.208626 
L 190.323692 123.489093 
L 190.409538 117.808971 
L 190.495385 122.045945 
L 190.581231 118.319143 
L 190.752923 127.781547 
L 190.924615 135.015141 
L 191.010462 147.168062 
L 191.096308 142.959147 
L 191.525538 102.133317 
L 191.783077 120.403831 
L 191.954769 111.380174 
L 192.298154 125.748514 
L 192.384 127.446747 
L 192.469846 131.615486 
L 192.727385 111.415886 
L 192.899077 101.300462 
L 192.984923 101.503255 
L 193.070769 108.060233 
L 193.156615 100.606629 
L 193.328308 112.06189 
L 193.5 114.473088 
L 193.585846 113.732064 
L 194.015077 146.247202 
L 194.186769 140.85469 
L 194.358462 121.970057 
L 194.444308 120.818345 
L 194.616 111.790862 
L 194.787692 123.580286 
L 194.873538 113.683598 
L 194.959385 117.849147 
L 195.216923 101.144859 
L 195.388615 126.884283 
L 195.474462 122.894743 
L 195.732 146.988864 
L 195.817846 151.472633 
L 196.075385 129.539088 
L 196.161231 128.391202 
L 196.418769 111.16909 
L 196.676308 126.577543 
L 196.762154 126.565426 
L 196.848 127.020117 
L 196.933846 130.128974 
L 197.019692 129.211941 
L 197.191385 134.090455 
L 197.277231 132.297202 
L 197.363077 126.960171 
L 197.448923 128.5704 
L 197.534769 132.628176 
L 197.620615 119.778233 
L 197.706462 131.220741 
L 197.792308 128.155886 
L 197.878154 135.992119 
L 197.964 130.555605 
L 198.221538 152.110347 
L 198.479077 126.924459 
L 198.564923 129.643035 
L 199.08 85.592283 
L 199.337538 104.974971 
L 199.509231 102.727029 
L 199.938462 143.652343 
L 200.024308 146.589655 
L 200.367692 118.136119 
L 200.453538 115.082743 
L 200.539385 106.824343 
L 200.625231 108.26749 
L 200.711077 108.682005 
L 201.140308 134.577031 
L 201.483692 109.945317 
L 201.655385 119.112459 
L 201.827077 127.251607 
L 201.912923 125.907943 
L 202.084615 114.540686 
L 202.256308 132.947033 
L 202.342154 132.927264 
L 202.428 133.903605 
L 202.513846 151.081714 
L 202.599692 150.352169 
L 202.771385 141.743026 
L 203.200615 110.248231 
L 203.286462 112.73149 
L 203.372308 96.581376 
L 203.544 125.541257 
L 203.715692 121.156971 
L 203.887385 109.391143 
L 203.973231 112.39669 
L 204.144923 109.885371 
L 204.230769 116.011255 
L 204.316615 102.742971 
L 204.488308 125.338464 
L 204.574154 124.92395 
L 204.66 119.323543 
L 204.745846 124.126807 
L 205.003385 113.190007 
L 205.089231 116.051431 
L 205.175077 123.656174 
L 205.346769 104.333431 
L 205.432615 112.591831 
L 205.776 144.178457 
L 205.861846 142.034462 
L 206.033538 132.950859 
L 206.119385 134.421429 
L 206.205231 123.237833 
L 206.291077 125.629262 
L 206.376923 123.631941 
L 206.462769 131.404402 
L 206.720308 114.225655 
L 206.806154 120.977774 
L 206.892 115.920062 
L 207.149538 121.304283 
L 207.407077 150.918459 
L 207.492923 152.548457 
L 207.578769 156.749719 
L 207.664615 154.737093 
L 207.836308 137.61 
L 208.179692 105.274059 
L 208.437231 129.180055 
L 208.523077 127.023943 
L 208.608923 131.097662 
L 208.780615 143.234002 
L 208.866462 143.864064 
L 209.295692 114.799598 
L 209.381538 109.116288 
L 209.467385 114.341719 
L 209.553231 113.293317 
L 209.639077 115.126745 
L 209.896615 136.661719 
L 210.154154 107.645719 
L 210.24 111.296633 
L 210.325846 112.416459 
L 210.497538 132.389033 
L 210.583385 131.177376 
L 210.840923 112.591831 
L 210.926769 124.473086 
L 211.012615 106.856229 
L 211.184308 120.634683 
L 211.441846 143.038862 
L 211.785231 127.055829 
L 211.956923 106.573083 
L 212.042769 115.788055 
L 212.214462 137.155947 
L 212.300308 130.718859 
L 212.386154 144.489662 
L 212.557846 129.012974 
L 212.643692 128.968971 
L 212.729538 128.594633 
L 212.815385 119.020629 
L 212.901231 122.014059 
L 212.987077 121.730914 
L 213.072923 84.631886 
L 213.158769 143.145998 
L 213.244615 141.540233 
L 213.330462 142.130119 
L 214.017231 100.977778 
L 214.103077 103.149833 
L 214.274769 96.736978 
L 214.532308 114.959026 
L 214.789846 139.774402 
L 214.961538 124.556626 
L 215.047385 124.752405 
L 215.133231 127.769431 
L 215.219077 125.321883 
L 215.476615 98.366976 
L 215.648308 109.199829 
L 215.734154 108.410976 
L 215.82 108.749602 
L 215.991692 101.360407 
L 216.077538 102.57589 
L 216.249231 91.75069 
L 216.335077 90.112402 
L 216.420923 115.489605 
L 216.506769 112.460462 
L 216.592615 113.608347 
L 217.021846 143.832178 
L 217.107692 146.394514 
L 217.279385 138.284064 
L 217.365231 138.965143 
L 217.536923 127.370859 
L 217.622769 113.739717 
L 217.708615 119.032745 
L 217.880308 112.918341 
L 217.966154 127.530288 
L 218.052 116.011255 
L 218.137846 120.778807 
L 218.223692 117.601714 
L 218.309538 122.356512 
L 218.481231 117.275205 
L 218.567077 113.440629 
L 218.738769 136.705083 
L 218.824615 134.580857 
L 218.996308 126.481886 
L 219.082154 128.606112 
L 219.168 124.230117 
L 219.683077 155.302745 
L 219.940615 128.961319 
L 220.026462 134.724343 
L 220.284 119.495088 
L 220.369846 123.823255 
L 220.455692 122.101426 
L 220.627385 127.215257 
L 220.799077 112.304859 
L 221.228308 147.418683 
L 221.314154 144.151035 
L 221.4 119.570976 
L 221.485846 139.981659 
L 221.571692 136.617717 
L 221.829231 99.139886 
L 221.915077 103.077771 
L 222.086769 95.43349 
L 222.258462 102.225147 
L 222.344308 107.581947 
L 222.430154 102.528062 
L 222.687692 123.225717 
L 222.773538 115.564855 
L 223.116923 135.214745 
L 223.202769 147.526457 
L 223.288615 146.319264 
L 223.460308 141.173547 
L 223.717846 118.338912 
L 223.803692 128.27195 
L 223.889538 115.6248 
L 223.975385 54.237147 
L 224.061231 112.260857 
L 224.147077 102.79909 
L 224.232923 107.749029 
L 224.404615 124.417605 
L 224.490462 129.742519 
L 224.576308 125.976178 
L 224.748 145.067431 
L 224.833846 141.173547 
L 224.919692 144.050914 
L 225.177231 123.245486 
L 225.263077 134.864002 
L 225.348923 133.205945 
L 225.606462 126.984405 
L 225.692308 130.36429 
L 225.778154 124.9992 
L 225.949846 133.37749 
L 226.121538 129.491259 
L 226.379077 103.05035 
L 226.464923 103.911264 
L 226.636615 111.766629 
L 226.722462 106.083319 
L 226.808308 111.961769 
L 226.894154 107.175086 
L 227.323385 141.607831 
L 227.409231 137.215255 
L 227.495077 139.100976 
L 227.924308 116.944231 
L 228.096 96.134976 
L 228.181846 94.436743 
L 228.267692 103.584117 
L 228.353538 98.171835 
L 228.439385 107.011831 
L 228.611077 96.629205 
L 228.782769 108.972802 
L 228.954462 121.619314 
L 229.040308 117.039888 
L 229.212 129.303771 
L 229.297846 133.803483 
L 229.383692 124.740288 
L 229.469538 127.912917 
L 229.555385 118.462629 
L 229.641231 119.822235 
L 229.727077 114.584688 
L 229.898769 128.741945 
L 229.984615 125.768283 
L 230.242154 134.070686 
L 230.413846 145.54189 
L 231.186462 108.016231 
L 231.358154 109.546745 
L 231.444 113.98715 
L 231.529846 126.657257 
L 231.701538 110.0448 
L 232.044923 135.007488 
L 232.130769 124.453317 
L 232.216615 126.518235 
L 232.474154 108.343378 
L 232.56 108.538519 
L 232.731692 105.70069 
L 232.817538 101.917769 
L 232.903385 102.838629 
L 232.989231 102.025543 
L 233.075077 103.651714 
L 233.332615 127.135543 
L 233.418462 127.000347 
L 233.676 142.461093 
L 233.761846 145.713435 
L 234.019385 133.847486 
L 234.276923 109.642402 
L 234.362769 112.786971 
L 234.448615 108.85355 
L 234.534462 92.069547 
L 234.706154 113.269083 
L 234.792 116.402174 
L 234.877846 124.457143 
L 234.963692 123.042693 
L 235.049538 114.090459 
L 235.221231 124.588512 
L 235.392923 121.252629 
L 235.650462 86.927657 
L 235.736308 94.576402 
L 235.822154 90.921662 
L 236.251385 120.296057 
L 236.423077 130.368117 
L 236.680615 157.570457 
L 236.852308 145.721088 
L 236.938154 147.937145 
L 237.109846 142.512747 
L 237.281538 106.207035 
L 237.367385 106.800747 
L 237.796615 88.645659 
L 237.968308 101.01349 
L 238.397538 160.081776 
L 238.483385 150.759031 
L 238.569231 159.989945 
L 238.655077 159.109262 
L 238.826769 120.5352 
L 238.912615 109.658345 
L 238.998462 111.268574 
L 239.170154 100.108574 
L 239.256 99.084405 
L 239.341846 99.921086 
L 239.427692 102.599486 
L 239.513538 99.694059 
L 239.599385 104.046459 
L 239.685231 98.745778 
L 239.856923 105.453257 
L 240.028615 102.452174 
L 240.286154 123.484629 
L 240.372 121.304283 
L 240.629538 136.741433 
L 240.715385 124.010743 
L 240.801231 125.573143 
L 240.887077 115.537433 
L 240.972923 115.764459 
L 241.058769 122.02235 
L 241.230462 110.698457 
L 241.316308 112.512117 
L 241.573846 93.587945 
L 241.745538 102.089314 
L 241.831385 95.337833 
L 241.917231 106.163033 
L 242.003077 105.561031 
L 242.088923 102.181145 
L 242.174769 107.764971 
L 242.518154 143.230176 
L 242.604 143.560512 
L 242.689846 144.732631 
L 242.775692 137.406569 
L 243.033231 156.633655 
L 243.290769 137.067943 
L 243.376615 116.999712 
L 243.462462 118.8612 
L 243.548308 126.478059 
L 243.72 102.0096 
L 244.235077 140.488005 
L 244.320923 140.084969 
L 244.406769 135.138857 
L 244.492615 138.203712 
L 244.578462 133.086693 
L 244.664308 113.126235 
L 244.750154 116.541833 
L 245.179385 133.101998 
L 245.351077 119.415374 
L 245.436923 119.56715 
L 245.522769 127.199314 
L 245.608615 117.701198 
L 245.694462 88.817205 
L 245.780308 121.544064 
L 245.866154 119.678112 
L 245.952 121.288978 
L 246.209538 99.853488 
L 246.295385 99.327374 
L 246.381231 89.570345 
L 246.724615 119.658343 
L 246.982154 112.9464 
L 247.239692 128.247717 
L 247.497231 122.452169 
L 247.583077 111.647376 
L 247.668923 117.063483 
L 248.012308 102.045312 
L 248.098154 111.599547 
L 248.269846 107.880398 
L 248.355692 109.984855 
L 248.527385 122.827145 
L 248.613231 119.921719 
L 249.214154 158.036626 
L 249.385846 152.365433 
L 249.557538 156.6936 
L 249.643385 154.493486 
L 249.729231 143.110286 
L 249.815077 148.236233 
L 249.900923 144.732631 
L 250.072615 124.584686 
L 250.158462 133.855776 
L 250.416 115.692398 
L 250.501846 115.848 
L 250.587692 114.050921 
L 250.673538 109.020631 
L 250.759385 112.922805 
L 250.845231 107.860629 
L 251.016923 122.228969 
L 251.102769 120.32029 
L 251.188615 118.434569 
L 251.360308 129.866235 
L 251.446154 128.738119 
L 251.532 125.266402 
L 251.617846 126.5616 
L 251.703692 126.219147 
L 251.875385 113.867259 
L 251.961231 116.828805 
L 252.132923 125.425831 
L 252.218769 121.077257 
L 252.304615 124.373602 
L 252.476308 116.067374 
L 252.562154 113.193833 
L 252.648 117.884859 
L 252.733846 130.970119 
L 252.819692 128.068519 
L 252.905538 127.60235 
L 252.991385 121.946462 
L 253.163077 131.539598 
L 253.248923 124.92395 
L 253.420615 129.710633 
L 253.592308 120.379598 
L 253.678154 120.228459 
L 253.764 114.664402 
L 253.849846 134.330235 
L 253.935692 126.469769 
L 254.021538 130.272459 
L 254.107385 127.466517 
L 254.193231 136.53035 
L 254.279077 118.889259 
L 254.364923 135.521486 
L 254.536615 128.522571 
L 254.622462 129.547378 
L 254.708308 126.964635 
L 254.794154 118.797429 
L 255.137538 135.226862 
L 255.480923 120.798576 
L 255.738462 137.19995 
L 255.910154 136.386226 
L 255.996 131.156969 
L 256.081846 134.919483 
L 256.167692 129.937659 
L 256.253538 139.570971 
L 256.339385 130.730976 
L 256.425231 136.251031 
L 256.511077 133.584747 
L 256.596923 134.628686 
L 256.768615 138.646286 
L 256.854462 132.966802 
L 256.940308 134.054743 
L 257.026154 131.105314 
L 257.112 139.475314 
L 257.197846 133.783714 
L 257.283692 137.622117 
L 257.541231 127.622119 
L 257.627077 127.745198 
L 257.798769 138.363141 
L 258.056308 112.069543 
L 258.485538 136.003598 
L 258.571385 136.095429 
L 258.743077 122.8788 
L 258.828923 130.535835 
L 258.914769 125.844171 
L 259.000615 127.996457 
L 259.172308 119.630921 
L 259.344 106.186629 
L 259.601538 117.191026 
L 259.687385 119.702345 
L 259.773231 129.714459 
L 259.859077 120.702919 
L 259.944923 120.706745 
L 260.030769 123.464859 
L 260.288308 147.052635 
L 260.46 154.700743 
L 260.545846 143.955257 
L 260.631692 144.019029 
L 260.717538 144.652917 
L 260.889231 124.879947 
L 260.975077 124.804059 
L 261.146769 134.306002 
L 261.404308 124.094921 
L 261.490154 121.308747 
L 261.576 122.500635 
L 261.747692 130.571547 
L 262.005231 153.006974 
L 262.091077 151.771721 
L 262.176923 152.891547 
L 262.348615 125.880521 
L 262.434462 131.296629 
L 262.692 109.793541 
L 262.777846 118.068521 
L 262.863692 107.370226 
L 262.949538 110.124514 
L 263.207077 126.422578 
L 263.636308 111.248805 
L 263.893846 126.649605 
L 263.979692 133.843659 
L 264.065538 132.233431 
L 264.151385 133.8156 
L 264.237231 128.315314 
L 264.408923 142.241719 
L 264.494769 140.444002 
L 264.580615 135.772745 
L 264.666462 124.321947 
L 264.752308 135.63755 
L 264.838154 124.090457 
L 265.095692 148.55509 
L 265.181538 147.654 
L 265.353231 124.752405 
L 265.439077 127.251607 
L 265.610769 122.966805 
L 265.696615 132.098235 
L 265.782462 122.488519 
L 265.868308 122.739141 
L 265.954154 124.142112 
L 266.125846 120.997543 
L 266.383385 131.193319 
L 266.469231 129.343947 
L 266.555077 134.266464 
L 266.640923 129.973371 
L 266.726769 117.4104 
L 266.984308 145.294457 
L 267.070154 131.400576 
L 267.156 132.329088 
L 267.241846 136.972286 
L 267.413538 119.224059 
L 267.585231 119.303774 
L 267.671077 113.062464 
L 267.928615 123.309257 
L 268.014462 121.288978 
L 268.100308 129.498912 
L 268.186154 120.846405 
L 268.272 126.187262 
L 268.357846 115.015145 
L 268.443692 123.329664 
L 268.615385 114.262005 
L 268.701231 115.844174 
L 268.872923 136.506117 
L 269.044615 119.562686 
L 269.216308 128.634171 
L 269.302154 129.762288 
L 269.388 121.002007 
L 269.473846 121.328517 
L 269.559692 121.049198 
L 269.645538 108.63035 
L 269.731385 109.590747 
L 269.903077 121.535774 
L 269.988923 122.575886 
L 270.074769 132.452805 
L 270.160615 130.782631 
L 270.332308 117.904629 
L 270.504 134.07515 
L 270.589846 122.846914 
L 270.675692 127.46269 
L 270.761538 127.143833 
L 271.104923 141.281321 
L 271.276615 132.213662 
L 271.448308 114.476914 
L 271.62 124.524741 
L 271.705846 132.464283 
L 272.306769 103.572 
L 272.392615 103.823259 
L 272.478462 102.938112 
L 272.993538 160.480347 
L 273.336923 133.353257 
L 273.680308 117.793029 
L 273.766154 118.518747 
L 274.109538 92.228976 
L 274.367077 92.563776 
L 274.452923 97.047545 
L 274.538769 94.990917 
L 274.624615 100.268002 
L 274.710462 150.587486 
L 274.796308 148.112517 
L 275.139692 113.3928 
L 275.225538 116.003602 
L 275.311385 116.434059 
L 275.397231 114.046457 
L 275.483077 118.538517 
L 275.568923 103.763314 
L 275.740615 132.197719 
L 275.912308 140.133435 
L 276.255692 115.142688 
L 276.427385 124.848062 
L 276.513231 114.126171 
L 276.684923 126.150912 
L 277.114154 144.888233 
L 277.2 138.419259 
L 277.285846 146.916802 
L 277.371692 137.873376 
L 277.457538 138.367605 
L 277.629231 153.612802 
L 277.715077 152.281893 
L 278.058462 110.256521 
L 278.230154 104.372969 
L 278.401846 109.024457 
L 278.573538 129.284002 
L 278.659385 123.050345 
L 278.745231 128.407145 
L 278.831077 142.496805 
L 278.916923 139.324176 
L 279.174462 146.506114 
L 279.346154 141.950921 
L 279.432 153.740345 
L 279.517846 150.392345 
L 279.689538 139.826057 
L 279.775385 132.704064 
L 279.861231 115.146514 
L 279.947077 127.833202 
L 280.032923 118.335086 
L 280.118769 133.971202 
L 280.204615 133.672114 
L 280.290462 127.793664 
L 280.719692 153.644688 
L 280.805538 139.136688 
L 280.891385 141.563829 
L 281.148923 128.060229 
L 281.234769 129.084398 
L 281.492308 122.859031 
L 281.578154 137.678235 
L 281.664 132.954686 
L 281.749846 140.208686 
L 281.921538 118.215833 
L 282.007385 107.378517 
L 282.179077 186.212119 
L 282.350769 129.431314 
L 282.951692 75.859488 
L 283.295077 149.810112 
L 283.380923 149.487429 
L 283.638462 174.442464 
L 283.724308 174.701376 
L 284.067692 127.367033 
L 284.153538 112.679835 
L 284.325231 136.258683 
L 284.411077 117.984343 
L 284.582769 132.950859 
L 284.754462 124.513262 
L 284.840308 128.291719 
L 285.012 122.91515 
L 285.183692 151.93115 
L 285.355385 156.271433 
L 285.527077 145.377998 
L 285.612923 145.737031 
L 285.784615 150.3324 
L 286.042154 138.534686 
L 286.128 124.162519 
L 286.299692 140.715031 
L 286.385538 132.799721 
L 286.471385 144.7524 
L 286.557231 141.141662 
L 286.728923 119.271888 
L 286.900615 137.203776 
L 286.986462 133.887662 
L 287.072308 138.554455 
L 287.244 154.334057 
L 287.415692 166.726121 
L 287.501538 163.788171 
L 287.844923 144.696919 
L 287.930769 126.7848 
L 288.102462 165.438576 
L 288.188308 162.891545 
L 288.274154 164.122971 
L 288.445846 140.424233 
L 288.617538 126.828802 
L 288.703385 96.916176 
L 288.789231 105.118457 
L 288.960923 153.090514 
L 289.132615 168.495141 
L 289.561846 116.935941 
L 289.647692 116.509947 
L 289.733538 143.481435 
L 289.819385 220.496914 
L 289.991077 151.304914 
L 290.506154 103.958455 
L 290.592 111.926057 
L 290.677846 145.995943 
L 290.763692 230.625093 
L 290.935385 146.139429 
L 291.107077 161.847607 
L 291.450462 124.277945 
L 291.622154 153.218057 
L 291.879692 153.302235 
L 292.137231 178.838229 
L 292.223077 176.562226 
L 292.480615 153.971835 
L 292.652308 129.483607 
L 292.738154 161.476457 
L 292.824 159.643029 
L 292.995692 165.402226 
L 293.596615 123.795833 
L 293.682462 159.352231 
L 293.768308 158.0328 
L 293.854154 152.512745 
L 294.025846 168.025145 
L 294.111692 161.325319 
L 294.197538 138.869486 
L 294.283385 154.138917 
L 294.626769 123.277371 
L 294.798462 136.011888 
L 294.884308 133.608343 
L 294.970154 141.388457 
L 295.227692 176.458917 
L 295.313538 174.494119 
L 295.399385 192.664512 
L 295.571077 151.297262 
L 295.656923 145.3104 
L 295.742769 147.8772 
L 295.914462 158.646919 
L 296.000308 157.969029 
L 296.172 130.256517 
L 296.343692 149.965714 
L 296.429538 151.604002 
L 296.601231 128.765541 
L 296.687077 119.602862 
L 296.944615 173.876174 
L 297.288 154.047086 
L 297.373846 157.685883 
L 297.803077 121.360402 
L 298.146462 165.869033 
L 298.232308 168.0768 
L 298.404 146.956978 
L 298.575692 152.827776 
L 298.661538 150.245033 
L 298.747385 143.768407 
L 298.919077 159.29675 
L 299.004923 137.95309 
L 299.090769 138.319776 
L 299.176615 133.026747 
L 299.434154 147.977321 
L 299.691692 169.802455 
L 299.777538 190.145541 
L 299.949231 159.340114 
L 300.206769 131.500059 
L 300.464308 146.940398 
L 300.636 144.110859 
L 300.979385 165.238971 
L 301.065231 184.617833 
L 301.151077 183.585374 
L 301.494462 170.914629 
L 301.752 126.246569 
L 301.837846 136.231262 
L 301.923692 132.197719 
L 302.009538 134.668862 
L 302.267077 155.506176 
L 302.438769 142.763369 
L 302.610462 179.631545 
L 302.696308 178.710686 
L 302.868 141.695835 
L 302.953846 144.282405 
L 303.125538 128.646288 
L 303.211385 127.530288 
L 303.383077 132.998688 
L 303.812308 155.916864 
L 303.898154 143.194464 
L 304.069846 164.314286 
L 304.413231 120.220169 
L 304.584923 185.099945 
L 304.756615 128.534688 
L 304.842462 117.872743 
L 304.928308 121.005833 
L 305.014154 134.465431 
L 305.1 126.390693 
L 305.271692 144.844231 
L 305.443385 165.231319 
L 305.529231 150.695259 
L 305.615077 175.601829 
L 305.872615 151.34509 
L 306.044308 131.36869 
L 306.216 142.273605 
L 306.301846 130.551141 
L 306.387692 144.633147 
L 306.473538 137.976686 
L 306.559385 116.645143 
L 306.731077 129.24 
L 306.816923 129.419835 
L 306.902769 126.210857 
L 307.160308 142.337376 
L 307.246154 159.212571 
L 307.332 158.351657 
L 307.417846 162.325893 
L 307.589538 136.626007 
L 307.761231 143.453376 
L 308.018769 115.668802 
L 308.190462 109.056343 
L 308.533846 157.543035 
L 308.791385 117.657833 
L 308.963077 134.536855 
L 309.134769 144.931598 
L 309.306462 134.405486 
L 309.564 145.306574 
L 309.649846 130.750745 
L 309.993231 154.433541 
L 310.079077 156.546288 
L 310.164923 148.004743 
L 310.336615 111.125088 
L 310.422462 125.863941 
L 310.508308 121.711145 
L 310.594154 114.485205 
L 310.765846 140.942057 
L 310.851692 139.846464 
L 311.109231 96.082683 
L 311.195077 102.635835 
L 311.280923 147.2076 
L 311.366769 130.766688 
L 311.710154 150.858514 
L 311.967692 105.907947 
L 312.053538 106.999714 
L 312.139385 154.055376 
L 312.311077 111.8304 
L 312.396923 122.384571 
L 312.482769 118.530226 
L 312.740308 147.499035 
L 312.826154 138.199886 
L 312.997846 89.705541 
L 313.169538 199.647483 
L 313.341231 118.395031 
L 313.598769 131.316398 
L 313.770462 163.529259 
L 314.028 103.146007 
L 314.113846 149.120743 
L 314.199692 136.115835 
L 314.285538 121.794686 
L 314.371385 131.169086 
L 314.543077 114.042631 
L 314.972308 145.685376 
L 315.144 95.034919 
L 315.315692 91.841883 
L 315.401538 92.998059 
L 315.830769 149.7744 
L 315.916615 159.316519 
L 316.002462 114.202059 
L 316.088308 123.393435 
L 316.174154 127.494576 
L 316.345846 115.532969 
L 316.431692 132.444514 
L 316.517538 130.264169 
L 316.603385 127.506693 
L 316.689231 133.209771 
L 316.946769 97.685259 
L 317.204308 121.970057 
L 317.290154 111.264747 
L 317.547692 146.569886 
L 317.805231 95.43349 
L 317.891077 104.221831 
L 318.062769 99.638578 
L 318.234462 120.471429 
L 318.320308 127.904626 
L 318.406154 123.429147 
L 318.577846 83.1492 
L 318.663692 84.209719 
L 318.749538 101.061319 
L 319.007077 74.687369 
L 319.092923 77.393829 
L 319.178769 93.093717 
L 319.264615 84.751776 
L 319.436308 103.867262 
L 319.522154 102.866688 
L 319.693846 72.121207 
L 319.865538 126.717202 
L 320.037231 118.466455 
L 320.208923 114.0624 
L 320.294769 119.128402 
L 320.380615 132.727659 
L 320.466462 126.422578 
L 320.638154 94.520283 
L 320.724 121.619314 
L 320.809846 113.305433 
L 320.895692 113.743543 
L 320.981538 125.569317 
L 321.153231 105.5808 
L 321.324923 90.594514 
L 321.410769 91.905655 
L 321.496615 98.278971 
L 321.582462 117.390631 
L 321.668308 106.286112 
L 321.84 120.882117 
L 321.925846 119.726578 
L 322.097538 112.28509 
L 322.183385 124.218 
L 322.269231 122.02235 
L 322.355077 131.216914 
L 322.440923 128.757888 
L 322.526769 119.299947 
L 322.612615 129.399429 
L 322.784308 125.182862 
L 323.127692 83.910631 
L 323.213538 85.481321 
L 323.471077 98.478576 
L 323.642769 118.271314 
L 323.728615 114.533033 
L 323.814462 120.499488 
L 323.986154 106.047607 
L 324.157846 114.066226 
L 324.329538 104.034343 
L 324.501231 130.072855 
L 324.587077 124.903543 
L 324.844615 103.3488 
L 324.930462 108.152064 
L 325.016308 102.336747 
L 325.102154 85.517033 
L 325.188 87.689088 
L 325.273846 97.995826 
L 325.359692 95.305947 
L 325.531385 113.966743 
L 325.617231 102.866688 
L 325.703077 110.021205 
L 325.874769 102.140969 
L 326.218154 120.511605 
L 326.304 121.252629 
L 326.475692 96.174514 
L 326.561538 93.8628 
L 326.647385 97.449943 
L 326.733231 117.0756 
L 326.819077 116.115202 
L 327.076615 79.976571 
L 327.162462 188.782745 
L 327.248308 92.427943 
L 327.334154 95.716635 
L 327.42 87.664855 
L 327.505846 89.977207 
L 327.591692 82.415829 
L 327.849231 120.471429 
L 328.020923 91.838057 
L 328.106769 92.930462 
L 328.192615 99.092057 
L 328.278462 92.352055 
L 328.536 109.798005 
L 328.621846 118.889259 
L 328.707692 112.707257 
L 328.879385 61.120635 
L 328.965231 64.587888 
L 329.051077 127.008 
L 329.222769 83.504407 
L 329.394462 78.6852 
L 329.480308 86.676398 
L 329.566154 84.297086 
L 329.995385 116.067374 
L 330.081231 110.395543 
L 330.167077 116.446176 
L 330.252923 105.525319 
L 330.338769 114.564919 
L 330.424615 99.965088 
L 330.510462 101.284519 
L 330.853846 132.336741 
L 331.197231 100.622571 
L 331.540615 115.592914 
L 331.626462 111.858459 
L 331.712308 102.013426 
L 331.884 128.27195 
L 332.141538 118.083826 
L 332.227385 105.839712 
L 332.399077 112.906862 
L 332.484923 99.981031 
L 332.570769 101.120626 
L 332.656615 107.055833 
L 332.828308 135.342288 
L 332.914154 122.428574 
L 333 129.16475 
L 333.085846 126.796917 
L 333.515077 92.11355 
L 333.600923 95.401605 
L 333.686769 106.094798 
L 333.772615 93.671486 
L 333.858462 116.30269 
L 334.030154 100.774347 
L 334.116 112.360978 
L 334.201846 103.500576 
L 334.287692 127.370859 
L 334.459385 108.737486 
L 334.545231 121.332343 
L 334.631077 113.584114 
L 334.716923 115.585262 
L 334.802769 124.6644 
L 335.146154 106.749093 
L 335.232 112.216855 
L 335.403692 92.280631 
L 335.575385 114.520917 
L 335.661231 123.174062 
L 335.832923 116.733147 
L 336.004615 96.728688 
L 336.090462 100.144286 
L 336.176308 93.8628 
L 336.348 99.749541 
L 336.519692 134.453314 
L 336.691385 110.060743 
L 336.777231 119.060805 
L 336.863077 119.032745 
L 337.120615 101.782574 
L 337.292308 107.195493 
L 337.464 86.676398 
L 337.721538 93.922745 
L 337.807385 96.80075 
L 337.979077 84.886971 
L 338.150769 92.507657 
L 338.494154 157.766235 
L 338.58 114.504974 
L 338.665846 117.793029 
L 338.751692 122.619888 
L 338.837538 112.157547 
L 338.923385 114.333429 
L 339.095077 130.507776 
L 339.180923 129.356064 
L 339.266769 146.729314 
L 339.610154 93.735257 
L 339.696 94.604462 
L 339.867692 105.764462 
L 339.953538 104.935433 
L 340.039385 98.406514 
L 340.382769 151.803607 
L 340.554462 105.0228 
L 340.812 90.07669 
L 341.155385 131.328514 
L 341.241231 130.2444 
L 341.327077 120.308174 
L 341.412923 97.10749 
L 341.498769 106.190455 
L 341.584615 104.333431 
L 341.670462 105.50555 
L 341.756308 103.27355 
L 341.928 94.696293 
L 342.357231 146.884917 
L 342.528923 128.861198 
L 342.614769 129.200462 
L 342.786462 127.087714 
L 343.044 116.88875 
L 343.129846 114.07069 
L 343.215692 116.051431 
L 343.473231 101.842519 
L 343.644923 147.072405 
L 343.902462 85.652229 
L 343.988308 88.844626 
L 344.074154 113.002519 
L 344.16 185.689831 
L 344.331692 102.089314 
L 344.417538 110.280117 
L 344.503385 87.354288 
L 344.675077 115.537433 
L 344.932615 95.249829 
L 345.018462 84.034347 
L 345.104308 89.609883 
L 345.190154 103.325205 
L 345.276 100.0008 
L 345.361846 100.914007 
L 345.619385 91.986007 
L 345.791077 113.719947 
L 345.876923 111.296633 
L 346.048615 133.508859 
L 346.563692 99.968914 
L 346.649538 96.864521 
L 347.078769 160.847033 
L 347.336308 118.837605 
L 347.422154 124.277945 
L 347.508 113.141541 
L 347.593846 116.202569 
L 347.765538 103.552231 
L 347.851385 105.871598 
L 348.023077 131.8068 
L 348.108923 119.937662 
L 348.194769 120.340059 
L 348.366462 112.655602 
L 348.452308 117.654007 
L 348.624 114.349371 
L 348.709846 124.779826 
L 348.881538 97.362576 
L 348.967385 100.224 
L 349.053231 148.782117 
L 349.139077 140.229093 
L 349.396615 112.755086 
L 349.482462 121.623141 
L 349.997538 95.062341 
L 350.083385 102.906226 
L 350.169231 101.874405 
L 350.340923 85.584631 
L 350.684308 138.877776 
L 350.770154 134.107035 
L 350.941846 97.294341 
L 351.113538 127.948629 
L 351.285231 90.650633 
L 351.371077 91.945831 
L 351.456923 91.635264 
L 351.542769 96.645147 
L 351.628615 93.320743 
L 351.800308 105.138226 
L 351.886154 129.363717 
L 351.972 117.681429 
L 352.143692 124.453317 
L 352.229538 124.126807 
L 352.401231 119.100343 
L 352.487077 119.144345 
L 352.572923 118.738121 
L 352.658769 123.357086 
L 352.830462 97.2108 
L 352.916308 99.749541 
L 353.002154 99.064635 
L 353.173846 109.973376 
L 353.259692 93.735257 
L 353.431385 132.966802 
L 353.517231 128.315314 
L 353.603077 144.1944 
L 353.688923 141.954747 
L 353.860615 110.120688 
L 353.946462 115.266405 
L 354.118154 108.669888 
L 354.118154 108.669888 
" style="fill:none;stroke:#e24a33;stroke-linecap:square;"/>
   </g>
   <g id="patch_3">
    <path d="M 54 28.8 
L 388.8 28.8 
" style="fill:none;stroke:#ffffff;stroke-linecap:square;stroke-linejoin:miter;"/>
   </g>
   <g id="patch_4">
    <path d="M 388.8 252 
L 388.8 28.8 
" style="fill:none;stroke:#ffffff;stroke-linecap:square;stroke-linejoin:miter;"/>
   </g>
   <g id="patch_5">
    <path d="M 54 252 
L 388.8 252 
" style="fill:none;stroke:#ffffff;stroke-linecap:square;stroke-linejoin:miter;"/>
   </g>
   <g id="patch_6">
    <path d="M 54 252 
L 54 28.8 
" style="fill:none;stroke:#ffffff;stroke-linecap:square;stroke-linejoin:miter;"/>
   </g>
   <g id="text_19">
    <!-- Star without an exoplanet -->
    <defs>
     <path id="BitstreamVeraSans-Roman-20"/>
     <path d="M 54.890625 33.015625 
L 54.890625 0 
L 45.90625 0 
L 45.90625 32.71875 
Q 45.90625 40.484375 42.875 44.328125 
Q 39.84375 48.1875 33.796875 48.1875 
Q 26.515625 48.1875 22.3125 43.546875 
Q 18.109375 38.921875 18.109375 30.90625 
L 18.109375 0 
L 9.078125 0 
L 9.078125 54.6875 
L 18.109375 54.6875 
L 18.109375 46.1875 
Q 21.34375 51.125 25.703125 53.5625 
Q 30.078125 56 35.796875 56 
Q 45.21875 56 50.046875 50.171875 
Q 54.890625 44.34375 54.890625 33.015625 
" id="BitstreamVeraSans-Roman-6e"/>
     <path d="M 34.28125 27.484375 
Q 23.390625 27.484375 19.1875 25 
Q 14.984375 22.515625 14.984375 16.5 
Q 14.984375 11.71875 18.140625 8.90625 
Q 21.296875 6.109375 26.703125 6.109375 
Q 34.1875 6.109375 38.703125 11.40625 
Q 43.21875 16.703125 43.21875 25.484375 
L 43.21875 27.484375 
z
M 52.203125 31.203125 
L 52.203125 0 
L 43.21875 0 
L 43.21875 8.296875 
Q 40.140625 3.328125 35.546875 0.953125 
Q 30.953125 -1.421875 24.3125 -1.421875 
Q 15.921875 -1.421875 10.953125 3.296875 
Q 6 8.015625 6 15.921875 
Q 6 25.140625 12.171875 29.828125 
Q 18.359375 34.515625 30.609375 34.515625 
L 43.21875 34.515625 
L 43.21875 35.40625 
Q 43.21875 41.609375 39.140625 45 
Q 35.0625 48.390625 27.6875 48.390625 
Q 23 48.390625 18.546875 47.265625 
Q 14.109375 46.140625 10.015625 43.890625 
L 10.015625 52.203125 
Q 14.9375 54.109375 19.578125 55.046875 
Q 24.21875 56 28.609375 56 
Q 40.484375 56 46.34375 49.84375 
Q 52.203125 43.703125 52.203125 31.203125 
" id="BitstreamVeraSans-Roman-61"/>
     <path d="M 30.609375 48.390625 
Q 23.390625 48.390625 19.1875 42.75 
Q 14.984375 37.109375 14.984375 27.296875 
Q 14.984375 17.484375 19.15625 11.84375 
Q 23.34375 6.203125 30.609375 6.203125 
Q 37.796875 6.203125 41.984375 11.859375 
Q 46.1875 17.53125 46.1875 27.296875 
Q 46.1875 37.015625 41.984375 42.703125 
Q 37.796875 48.390625 30.609375 48.390625 
M 30.609375 56 
Q 42.328125 56 49.015625 48.375 
Q 55.71875 40.765625 55.71875 27.296875 
Q 55.71875 13.875 49.015625 6.21875 
Q 42.328125 -1.421875 30.609375 -1.421875 
Q 18.84375 -1.421875 12.171875 6.21875 
Q 5.515625 13.875 5.515625 27.296875 
Q 5.515625 40.765625 12.171875 48.375 
Q 18.84375 56 30.609375 56 
" id="BitstreamVeraSans-Roman-6f"/>
     <path d="M 53.515625 70.515625 
L 53.515625 60.890625 
Q 47.90625 63.578125 42.921875 64.890625 
Q 37.9375 66.21875 33.296875 66.21875 
Q 25.25 66.21875 20.875 63.09375 
Q 16.5 59.96875 16.5 54.203125 
Q 16.5 49.359375 19.40625 46.890625 
Q 22.3125 44.4375 30.421875 42.921875 
L 36.375 41.703125 
Q 47.40625 39.59375 52.65625 34.296875 
Q 57.90625 29 57.90625 20.125 
Q 57.90625 9.515625 50.796875 4.046875 
Q 43.703125 -1.421875 29.984375 -1.421875 
Q 24.8125 -1.421875 18.96875 -0.25 
Q 13.140625 0.921875 6.890625 3.21875 
L 6.890625 13.375 
Q 12.890625 10.015625 18.65625 8.296875 
Q 24.421875 6.59375 29.984375 6.59375 
Q 38.421875 6.59375 43.015625 9.90625 
Q 47.609375 13.234375 47.609375 19.390625 
Q 47.609375 24.75 44.3125 27.78125 
Q 41.015625 30.8125 33.5 32.328125 
L 27.484375 33.5 
Q 16.453125 35.6875 11.515625 40.375 
Q 6.59375 45.0625 6.59375 53.421875 
Q 6.59375 63.09375 13.40625 68.65625 
Q 20.21875 74.21875 32.171875 74.21875 
Q 37.3125 74.21875 42.625 73.28125 
Q 47.953125 72.359375 53.515625 70.515625 
" id="BitstreamVeraSans-Roman-53"/>
     <path d="M 54.890625 33.015625 
L 54.890625 0 
L 45.90625 0 
L 45.90625 32.71875 
Q 45.90625 40.484375 42.875 44.328125 
Q 39.84375 48.1875 33.796875 48.1875 
Q 26.515625 48.1875 22.3125 43.546875 
Q 18.109375 38.921875 18.109375 30.90625 
L 18.109375 0 
L 9.078125 0 
L 9.078125 75.984375 
L 18.109375 75.984375 
L 18.109375 46.1875 
Q 21.34375 51.125 25.703125 53.5625 
Q 30.078125 56 35.796875 56 
Q 45.21875 56 50.046875 50.171875 
Q 54.890625 44.34375 54.890625 33.015625 
" id="BitstreamVeraSans-Roman-68"/>
     <path d="M 4.203125 54.6875 
L 13.1875 54.6875 
L 24.421875 12.015625 
L 35.59375 54.6875 
L 46.1875 54.6875 
L 57.421875 12.015625 
L 68.609375 54.6875 
L 77.59375 54.6875 
L 63.28125 0 
L 52.6875 0 
L 40.921875 44.828125 
L 29.109375 0 
L 18.5 0 
z
" id="BitstreamVeraSans-Roman-77"/>
     <path d="M 18.3125 70.21875 
L 18.3125 54.6875 
L 36.8125 54.6875 
L 36.8125 47.703125 
L 18.3125 47.703125 
L 18.3125 18.015625 
Q 18.3125 11.328125 20.140625 9.421875 
Q 21.96875 7.515625 27.59375 7.515625 
L 36.8125 7.515625 
L 36.8125 0 
L 27.59375 0 
Q 17.1875 0 13.234375 3.875 
Q 9.28125 7.765625 9.28125 18.015625 
L 9.28125 47.703125 
L 2.6875 47.703125 
L 2.6875 54.6875 
L 9.28125 54.6875 
L 9.28125 70.21875 
z
" id="BitstreamVeraSans-Roman-74"/>
     <path d="M 41.109375 46.296875 
Q 39.59375 47.171875 37.8125 47.578125 
Q 36.03125 48 33.890625 48 
Q 26.265625 48 22.1875 43.046875 
Q 18.109375 38.09375 18.109375 28.8125 
L 18.109375 0 
L 9.078125 0 
L 9.078125 54.6875 
L 18.109375 54.6875 
L 18.109375 46.1875 
Q 20.953125 51.171875 25.484375 53.578125 
Q 30.03125 56 36.53125 56 
Q 37.453125 56 38.578125 55.875 
Q 39.703125 55.765625 41.0625 55.515625 
z
" id="BitstreamVeraSans-Roman-72"/>
     <path d="M 18.109375 8.203125 
L 18.109375 -20.796875 
L 9.078125 -20.796875 
L 9.078125 54.6875 
L 18.109375 54.6875 
L 18.109375 46.390625 
Q 20.953125 51.265625 25.265625 53.625 
Q 29.59375 56 35.59375 56 
Q 45.5625 56 51.78125 48.09375 
Q 58.015625 40.1875 58.015625 27.296875 
Q 58.015625 14.40625 51.78125 6.484375 
Q 45.5625 -1.421875 35.59375 -1.421875 
Q 29.59375 -1.421875 25.265625 0.953125 
Q 20.953125 3.328125 18.109375 8.203125 
M 48.6875 27.296875 
Q 48.6875 37.203125 44.609375 42.84375 
Q 40.53125 48.484375 33.40625 48.484375 
Q 26.265625 48.484375 22.1875 42.84375 
Q 18.109375 37.203125 18.109375 27.296875 
Q 18.109375 17.390625 22.1875 11.75 
Q 26.265625 6.109375 33.40625 6.109375 
Q 40.53125 6.109375 44.609375 11.75 
Q 48.6875 17.390625 48.6875 27.296875 
" id="BitstreamVeraSans-Roman-70"/>
    </defs>
    <g transform="translate(127.837125 23.8)scale(0.144 -0.144)">
     <use xlink:href="#BitstreamVeraSans-Roman-53"/>
     <use x="63.4765625" xlink:href="#BitstreamVeraSans-Roman-74"/>
     <use x="102.685546875" xlink:href="#BitstreamVeraSans-Roman-61"/>
     <use x="163.96484375" xlink:href="#BitstreamVeraSans-Roman-72"/>
     <use x="205.078125" xlink:href="#BitstreamVeraSans-Roman-20"/>
     <use x="236.865234375" xlink:href="#BitstreamVeraSans-Roman-77"/>
     <use x="318.65234375" xlink:href="#BitstreamVeraSans-Roman-69"/>
     <use x="346.435546875" xlink:href="#BitstreamVeraSans-Roman-74"/>
     <use x="385.64453125" xlink:href="#BitstreamVeraSans-Roman-68"/>
     <use x="449.0234375" xlink:href="#BitstreamVeraSans-Roman-6f"/>
     <use x="510.205078125" xlink:href="#BitstreamVeraSans-Roman-75"/>
     <use x="573.583984375" xlink:href="#BitstreamVeraSans-Roman-74"/>
     <use x="612.79296875" xlink:href="#BitstreamVeraSans-Roman-20"/>
     <use x="644.580078125" xlink:href="#BitstreamVeraSans-Roman-61"/>
     <use x="705.859375" xlink:href="#BitstreamVeraSans-Roman-6e"/>
     <use x="769.23828125" xlink:href="#BitstreamVeraSans-Roman-20"/>
     <use x="801.025390625" xlink:href="#BitstreamVeraSans-Roman-65"/>
     <use x="862.533203125" xlink:href="#BitstreamVeraSans-Roman-78"/>
     <use x="921.666015625" xlink:href="#BitstreamVeraSans-Roman-6f"/>
     <use x="982.84765625" xlink:href="#BitstreamVeraSans-Roman-70"/>
     <use x="1046.32421875" xlink:href="#BitstreamVeraSans-Roman-6c"/>
     <use x="1074.10742188" xlink:href="#BitstreamVeraSans-Roman-61"/>
     <use x="1135.38671875" xlink:href="#BitstreamVeraSans-Roman-6e"/>
     <use x="1198.765625" xlink:href="#BitstreamVeraSans-Roman-65"/>
     <use x="1260.2890625" xlink:href="#BitstreamVeraSans-Roman-74"/>
    </g>
   </g>
   <g id="legend_1">
    <g id="patch_7">
     <path d="M 171.726875 259.16 
L 275.073125 259.16 
Q 277.473125 259.16 277.473125 256.76 
L 277.473125 240.34625 
Q 277.473125 237.94625 275.073125 237.94625 
L 171.726875 237.94625 
Q 169.326875 237.94625 169.326875 240.34625 
L 169.326875 256.76 
Q 169.326875 259.16 171.726875 259.16 
z
" style="fill:#454545;opacity:0.5;stroke:#454545;stroke-linejoin:miter;stroke-width:0.5;"/>
    </g>
    <g id="patch_8">
     <path d="M 169.726875 257.16 
L 273.073125 257.16 
Q 275.473125 257.16 275.473125 254.76 
L 275.473125 238.34625 
Q 275.473125 235.94625 273.073125 235.94625 
L 169.726875 235.94625 
Q 167.326875 235.94625 167.326875 238.34625 
L 167.326875 254.76 
Q 167.326875 257.16 169.726875 257.16 
z
" style="fill:#e5e5e5;stroke:#ffffff;stroke-linejoin:miter;stroke-width:0.5;"/>
    </g>
    <g id="line2d_50">
     <path d="M 175.726875 245.664375 
L 192.526875 245.664375 
" style="fill:none;stroke:#e24a33;stroke-linecap:square;"/>
    </g>
    <g id="line2d_51"/>
    <g id="text_20">
     <!-- Direct Flux -->
     <defs>
      <path d="M 19.671875 64.796875 
L 19.671875 8.109375 
L 31.59375 8.109375 
Q 46.6875 8.109375 53.6875 14.9375 
Q 60.6875 21.78125 60.6875 36.53125 
Q 60.6875 51.171875 53.6875 57.984375 
Q 46.6875 64.796875 31.59375 64.796875 
z
M 9.8125 72.90625 
L 30.078125 72.90625 
Q 51.265625 72.90625 61.171875 64.09375 
Q 71.09375 55.28125 71.09375 36.53125 
Q 71.09375 17.671875 61.125 8.828125 
Q 51.171875 0 30.078125 0 
L 9.8125 0 
z
" id="BitstreamVeraSans-Roman-44"/>
      <path d="M 48.78125 52.59375 
L 48.78125 44.1875 
Q 44.96875 46.296875 41.140625 47.34375 
Q 37.3125 48.390625 33.40625 48.390625 
Q 24.65625 48.390625 19.8125 42.84375 
Q 14.984375 37.3125 14.984375 27.296875 
Q 14.984375 17.28125 19.8125 11.734375 
Q 24.65625 6.203125 33.40625 6.203125 
Q 37.3125 6.203125 41.140625 7.25 
Q 44.96875 8.296875 48.78125 10.40625 
L 48.78125 2.09375 
Q 45.015625 0.34375 40.984375 -0.53125 
Q 36.96875 -1.421875 32.421875 -1.421875 
Q 20.0625 -1.421875 12.78125 6.34375 
Q 5.515625 14.109375 5.515625 27.296875 
Q 5.515625 40.671875 12.859375 48.328125 
Q 20.21875 56 33.015625 56 
Q 37.15625 56 41.109375 55.140625 
Q 45.0625 54.296875 48.78125 52.59375 
" id="BitstreamVeraSans-Roman-63"/>
     </defs>
     <g transform="translate(205.726875 249.864375)scale(0.12 -0.12)">
      <use xlink:href="#BitstreamVeraSans-Roman-44"/>
      <use x="77.001953125" xlink:href="#BitstreamVeraSans-Roman-69"/>
      <use x="104.78515625" xlink:href="#BitstreamVeraSans-Roman-72"/>
      <use x="145.8671875" xlink:href="#BitstreamVeraSans-Roman-65"/>
      <use x="207.390625" xlink:href="#BitstreamVeraSans-Roman-63"/>
      <use x="262.37109375" xlink:href="#BitstreamVeraSans-Roman-74"/>
      <use x="301.580078125" xlink:href="#BitstreamVeraSans-Roman-20"/>
      <use x="333.3671875" xlink:href="#BitstreamVeraSans-Roman-46"/>
      <use x="390.88671875" xlink:href="#BitstreamVeraSans-Roman-6c"/>
      <use x="418.669921875" xlink:href="#BitstreamVeraSans-Roman-75"/>
      <use x="482.048828125" xlink:href="#BitstreamVeraSans-Roman-78"/>
     </g>
    </g>
   </g>
  </g>
 </g>
 <defs>
  <clipPath id="p4efa6b7ff1">
   <rect height="223.2" width="334.8" x="54.0" y="28.8"/>
  </clipPath>
 </defs>
</svg>
