<?xml version="1.0" encoding="utf-8" standalone="no"?>
<!DOCTYPE svg PUBLIC "-//W3C//DTD SVG 1.1//EN"
  "http://www.w3.org/Graphics/SVG/1.1/DTD/svg11.dtd">
<!-- Created with matplotlib (http://matplotlib.org/) -->
<svg height="288pt" version="1.1" viewBox="0 0 432 288" width="432pt" xmlns="http://www.w3.org/2000/svg" xmlns:xlink="http://www.w3.org/1999/xlink">
 <defs>
  <style type="text/css">
*{stroke-linecap:butt;stroke-linejoin:round;stroke-miterlimit:100000;}
  </style>
 </defs>
 <g id="figure_1">
  <g id="patch_1">
   <path d="M 0 288 
L 432 288 
L 432 0 
L 0 0 
z
" style="fill:#ffffff;"/>
  </g>
  <g id="axes_1">
   <g id="patch_2">
    <path d="M 54 252 
L 388.8 252 
L 388.8 28.8 
L 54 28.8 
z
" style="fill:#e5e5e5;"/>
   </g>
   <g id="matplotlib.axis_1">
    <g id="xtick_1">
     <g id="line2d_1">
      <path clip-path="url(#pa42bec5209)" d="M 79.753846 252 
L 79.753846 28.8 
" style="fill:none;stroke:#ffffff;stroke-linecap:square;stroke-width:0.5;"/>
     </g>
     <g id="line2d_2">
      <defs>
       <path d="M 0 0 
L 0 4 
" id="m4bbc7f3ab5" style="stroke:#555555;stroke-width:0.5;"/>
      </defs>
      <g>
       <use style="fill:#555555;stroke:#555555;stroke-width:0.5;" x="79.7538461538" xlink:href="#m4bbc7f3ab5" y="252.0"/>
      </g>
     </g>
     <g id="line2d_3">
      <defs>
       <path d="M 0 0 
L 0 -4 
" id="m8b9527980e" style="stroke:#555555;stroke-width:0.5;"/>
      </defs>
      <g>
       <use style="fill:#555555;stroke:#555555;stroke-width:0.5;" x="79.7538461538" xlink:href="#m8b9527980e" y="28.8"/>
      </g>
     </g>
     <g id="text_1">
      <!-- 0 -->
      <defs>
       <path d="M 31.78125 66.40625 
Q 24.171875 66.40625 20.328125 58.90625 
Q 16.5 51.421875 16.5 36.375 
Q 16.5 21.390625 20.328125 13.890625 
Q 24.171875 6.390625 31.78125 6.390625 
Q 39.453125 6.390625 43.28125 13.890625 
Q 47.125 21.390625 47.125 36.375 
Q 47.125 51.421875 43.28125 58.90625 
Q 39.453125 66.40625 31.78125 66.40625 
M 31.78125 74.21875 
Q 44.046875 74.21875 50.515625 64.515625 
Q 56.984375 54.828125 56.984375 36.375 
Q 56.984375 17.96875 50.515625 8.265625 
Q 44.046875 -1.421875 31.78125 -1.421875 
Q 19.53125 -1.421875 13.0625 8.265625 
Q 6.59375 17.96875 6.59375 36.375 
Q 6.59375 54.828125 13.0625 64.515625 
Q 19.53125 74.21875 31.78125 74.21875 
" id="BitstreamVeraSans-Roman-30"/>
      </defs>
      <g style="fill:#555555;" transform="translate(76.5725961538 267.5984375)scale(0.1 -0.1)">
       <use xlink:href="#BitstreamVeraSans-Roman-30"/>
      </g>
     </g>
    </g>
    <g id="xtick_2">
     <g id="line2d_4">
      <path clip-path="url(#pa42bec5209)" d="M 122.676923 252 
L 122.676923 28.8 
" style="fill:none;stroke:#ffffff;stroke-linecap:square;stroke-width:0.5;"/>
     </g>
     <g id="line2d_5">
      <g>
       <use style="fill:#555555;stroke:#555555;stroke-width:0.5;" x="122.676923077" xlink:href="#m4bbc7f3ab5" y="252.0"/>
      </g>
     </g>
     <g id="line2d_6">
      <g>
       <use style="fill:#555555;stroke:#555555;stroke-width:0.5;" x="122.676923077" xlink:href="#m8b9527980e" y="28.8"/>
      </g>
     </g>
     <g id="text_2">
      <!-- 500 -->
      <defs>
       <path d="M 10.796875 72.90625 
L 49.515625 72.90625 
L 49.515625 64.59375 
L 19.828125 64.59375 
L 19.828125 46.734375 
Q 21.96875 47.46875 24.109375 47.828125 
Q 26.265625 48.1875 28.421875 48.1875 
Q 40.625 48.1875 47.75 41.5 
Q 54.890625 34.8125 54.890625 23.390625 
Q 54.890625 11.625 47.5625 5.09375 
Q 40.234375 -1.421875 26.90625 -1.421875 
Q 22.3125 -1.421875 17.546875 -0.640625 
Q 12.796875 0.140625 7.71875 1.703125 
L 7.71875 11.625 
Q 12.109375 9.234375 16.796875 8.0625 
Q 21.484375 6.890625 26.703125 6.890625 
Q 35.15625 6.890625 40.078125 11.328125 
Q 45.015625 15.765625 45.015625 23.390625 
Q 45.015625 31 40.078125 35.4375 
Q 35.15625 39.890625 26.703125 39.890625 
Q 22.75 39.890625 18.8125 39.015625 
Q 14.890625 38.140625 10.796875 36.28125 
z
" id="BitstreamVeraSans-Roman-35"/>
      </defs>
      <g style="fill:#555555;" transform="translate(113.133173077 267.5984375)scale(0.1 -0.1)">
       <use xlink:href="#BitstreamVeraSans-Roman-35"/>
       <use x="63.623046875" xlink:href="#BitstreamVeraSans-Roman-30"/>
       <use x="127.24609375" xlink:href="#BitstreamVeraSans-Roman-30"/>
      </g>
     </g>
    </g>
    <g id="xtick_3">
     <g id="line2d_7">
      <path clip-path="url(#pa42bec5209)" d="M 165.6 252 
L 165.6 28.8 
" style="fill:none;stroke:#ffffff;stroke-linecap:square;stroke-width:0.5;"/>
     </g>
     <g id="line2d_8">
      <g>
       <use style="fill:#555555;stroke:#555555;stroke-width:0.5;" x="165.6" xlink:href="#m4bbc7f3ab5" y="252.0"/>
      </g>
     </g>
     <g id="line2d_9">
      <g>
       <use style="fill:#555555;stroke:#555555;stroke-width:0.5;" x="165.6" xlink:href="#m8b9527980e" y="28.8"/>
      </g>
     </g>
     <g id="text_3">
      <!-- 1000 -->
      <defs>
       <path d="M 12.40625 8.296875 
L 28.515625 8.296875 
L 28.515625 63.921875 
L 10.984375 60.40625 
L 10.984375 69.390625 
L 28.421875 72.90625 
L 38.28125 72.90625 
L 38.28125 8.296875 
L 54.390625 8.296875 
L 54.390625 0 
L 12.40625 0 
z
" id="BitstreamVeraSans-Roman-31"/>
      </defs>
      <g style="fill:#555555;" transform="translate(152.875 267.5984375)scale(0.1 -0.1)">
       <use xlink:href="#BitstreamVeraSans-Roman-31"/>
       <use x="63.623046875" xlink:href="#BitstreamVeraSans-Roman-30"/>
       <use x="127.24609375" xlink:href="#BitstreamVeraSans-Roman-30"/>
       <use x="190.869140625" xlink:href="#BitstreamVeraSans-Roman-30"/>
      </g>
     </g>
    </g>
    <g id="xtick_4">
     <g id="line2d_10">
      <path clip-path="url(#pa42bec5209)" d="M 208.523077 252 
L 208.523077 28.8 
" style="fill:none;stroke:#ffffff;stroke-linecap:square;stroke-width:0.5;"/>
     </g>
     <g id="line2d_11">
      <g>
       <use style="fill:#555555;stroke:#555555;stroke-width:0.5;" x="208.523076923" xlink:href="#m4bbc7f3ab5" y="252.0"/>
      </g>
     </g>
     <g id="line2d_12">
      <g>
       <use style="fill:#555555;stroke:#555555;stroke-width:0.5;" x="208.523076923" xlink:href="#m8b9527980e" y="28.8"/>
      </g>
     </g>
     <g id="text_4">
      <!-- 1500 -->
      <g style="fill:#555555;" transform="translate(195.798076923 267.5984375)scale(0.1 -0.1)">
       <use xlink:href="#BitstreamVeraSans-Roman-31"/>
       <use x="63.623046875" xlink:href="#BitstreamVeraSans-Roman-35"/>
       <use x="127.24609375" xlink:href="#BitstreamVeraSans-Roman-30"/>
       <use x="190.869140625" xlink:href="#BitstreamVeraSans-Roman-30"/>
      </g>
     </g>
    </g>
    <g id="xtick_5">
     <g id="line2d_13">
      <path clip-path="url(#pa42bec5209)" d="M 251.446154 252 
L 251.446154 28.8 
" style="fill:none;stroke:#ffffff;stroke-linecap:square;stroke-width:0.5;"/>
     </g>
     <g id="line2d_14">
      <g>
       <use style="fill:#555555;stroke:#555555;stroke-width:0.5;" x="251.446153846" xlink:href="#m4bbc7f3ab5" y="252.0"/>
      </g>
     </g>
     <g id="line2d_15">
      <g>
       <use style="fill:#555555;stroke:#555555;stroke-width:0.5;" x="251.446153846" xlink:href="#m8b9527980e" y="28.8"/>
      </g>
     </g>
     <g id="text_5">
      <!-- 2000 -->
      <defs>
       <path d="M 19.1875 8.296875 
L 53.609375 8.296875 
L 53.609375 0 
L 7.328125 0 
L 7.328125 8.296875 
Q 12.9375 14.109375 22.625 23.890625 
Q 32.328125 33.6875 34.8125 36.53125 
Q 39.546875 41.84375 41.421875 45.53125 
Q 43.3125 49.21875 43.3125 52.78125 
Q 43.3125 58.59375 39.234375 62.25 
Q 35.15625 65.921875 28.609375 65.921875 
Q 23.96875 65.921875 18.8125 64.3125 
Q 13.671875 62.703125 7.8125 59.421875 
L 7.8125 69.390625 
Q 13.765625 71.78125 18.9375 73 
Q 24.125 74.21875 28.421875 74.21875 
Q 39.75 74.21875 46.484375 68.546875 
Q 53.21875 62.890625 53.21875 53.421875 
Q 53.21875 48.921875 51.53125 44.890625 
Q 49.859375 40.875 45.40625 35.40625 
Q 44.1875 33.984375 37.640625 27.21875 
Q 31.109375 20.453125 19.1875 8.296875 
" id="BitstreamVeraSans-Roman-32"/>
      </defs>
      <g style="fill:#555555;" transform="translate(238.721153846 267.5984375)scale(0.1 -0.1)">
       <use xlink:href="#BitstreamVeraSans-Roman-32"/>
       <use x="63.623046875" xlink:href="#BitstreamVeraSans-Roman-30"/>
       <use x="127.24609375" xlink:href="#BitstreamVeraSans-Roman-30"/>
       <use x="190.869140625" xlink:href="#BitstreamVeraSans-Roman-30"/>
      </g>
     </g>
    </g>
    <g id="xtick_6">
     <g id="line2d_16">
      <path clip-path="url(#pa42bec5209)" d="M 294.369231 252 
L 294.369231 28.8 
" style="fill:none;stroke:#ffffff;stroke-linecap:square;stroke-width:0.5;"/>
     </g>
     <g id="line2d_17">
      <g>
       <use style="fill:#555555;stroke:#555555;stroke-width:0.5;" x="294.369230769" xlink:href="#m4bbc7f3ab5" y="252.0"/>
      </g>
     </g>
     <g id="line2d_18">
      <g>
       <use style="fill:#555555;stroke:#555555;stroke-width:0.5;" x="294.369230769" xlink:href="#m8b9527980e" y="28.8"/>
      </g>
     </g>
     <g id="text_6">
      <!-- 2500 -->
      <g style="fill:#555555;" transform="translate(281.644230769 267.5984375)scale(0.1 -0.1)">
       <use xlink:href="#BitstreamVeraSans-Roman-32"/>
       <use x="63.623046875" xlink:href="#BitstreamVeraSans-Roman-35"/>
       <use x="127.24609375" xlink:href="#BitstreamVeraSans-Roman-30"/>
       <use x="190.869140625" xlink:href="#BitstreamVeraSans-Roman-30"/>
      </g>
     </g>
    </g>
    <g id="xtick_7">
     <g id="line2d_19">
      <path clip-path="url(#pa42bec5209)" d="M 337.292308 252 
L 337.292308 28.8 
" style="fill:none;stroke:#ffffff;stroke-linecap:square;stroke-width:0.5;"/>
     </g>
     <g id="line2d_20">
      <g>
       <use style="fill:#555555;stroke:#555555;stroke-width:0.5;" x="337.292307692" xlink:href="#m4bbc7f3ab5" y="252.0"/>
      </g>
     </g>
     <g id="line2d_21">
      <g>
       <use style="fill:#555555;stroke:#555555;stroke-width:0.5;" x="337.292307692" xlink:href="#m8b9527980e" y="28.8"/>
      </g>
     </g>
     <g id="text_7">
      <!-- 3000 -->
      <defs>
       <path d="M 40.578125 39.3125 
Q 47.65625 37.796875 51.625 33 
Q 55.609375 28.21875 55.609375 21.1875 
Q 55.609375 10.40625 48.1875 4.484375 
Q 40.765625 -1.421875 27.09375 -1.421875 
Q 22.515625 -1.421875 17.65625 -0.515625 
Q 12.796875 0.390625 7.625 2.203125 
L 7.625 11.71875 
Q 11.71875 9.328125 16.59375 8.109375 
Q 21.484375 6.890625 26.8125 6.890625 
Q 36.078125 6.890625 40.9375 10.546875 
Q 45.796875 14.203125 45.796875 21.1875 
Q 45.796875 27.640625 41.28125 31.265625 
Q 36.765625 34.90625 28.71875 34.90625 
L 20.21875 34.90625 
L 20.21875 43.015625 
L 29.109375 43.015625 
Q 36.375 43.015625 40.234375 45.921875 
Q 44.09375 48.828125 44.09375 54.296875 
Q 44.09375 59.90625 40.109375 62.90625 
Q 36.140625 65.921875 28.71875 65.921875 
Q 24.65625 65.921875 20.015625 65.03125 
Q 15.375 64.15625 9.8125 62.3125 
L 9.8125 71.09375 
Q 15.4375 72.65625 20.34375 73.4375 
Q 25.25 74.21875 29.59375 74.21875 
Q 40.828125 74.21875 47.359375 69.109375 
Q 53.90625 64.015625 53.90625 55.328125 
Q 53.90625 49.265625 50.4375 45.09375 
Q 46.96875 40.921875 40.578125 39.3125 
" id="BitstreamVeraSans-Roman-33"/>
      </defs>
      <g style="fill:#555555;" transform="translate(324.567307692 267.5984375)scale(0.1 -0.1)">
       <use xlink:href="#BitstreamVeraSans-Roman-33"/>
       <use x="63.623046875" xlink:href="#BitstreamVeraSans-Roman-30"/>
       <use x="127.24609375" xlink:href="#BitstreamVeraSans-Roman-30"/>
       <use x="190.869140625" xlink:href="#BitstreamVeraSans-Roman-30"/>
      </g>
     </g>
    </g>
    <g id="xtick_8">
     <g id="line2d_22">
      <path clip-path="url(#pa42bec5209)" d="M 380.215385 252 
L 380.215385 28.8 
" style="fill:none;stroke:#ffffff;stroke-linecap:square;stroke-width:0.5;"/>
     </g>
     <g id="line2d_23">
      <g>
       <use style="fill:#555555;stroke:#555555;stroke-width:0.5;" x="380.215384615" xlink:href="#m4bbc7f3ab5" y="252.0"/>
      </g>
     </g>
     <g id="line2d_24">
      <g>
       <use style="fill:#555555;stroke:#555555;stroke-width:0.5;" x="380.215384615" xlink:href="#m8b9527980e" y="28.8"/>
      </g>
     </g>
     <g id="text_8">
      <!-- 3500 -->
      <g style="fill:#555555;" transform="translate(367.490384615 267.5984375)scale(0.1 -0.1)">
       <use xlink:href="#BitstreamVeraSans-Roman-33"/>
       <use x="63.623046875" xlink:href="#BitstreamVeraSans-Roman-35"/>
       <use x="127.24609375" xlink:href="#BitstreamVeraSans-Roman-30"/>
       <use x="190.869140625" xlink:href="#BitstreamVeraSans-Roman-30"/>
      </g>
     </g>
    </g>
    <g id="text_9">
     <!-- Time -->
     <defs>
      <path d="M 56.203125 29.59375 
L 56.203125 25.203125 
L 14.890625 25.203125 
Q 15.484375 15.921875 20.484375 11.0625 
Q 25.484375 6.203125 34.421875 6.203125 
Q 39.59375 6.203125 44.453125 7.46875 
Q 49.3125 8.734375 54.109375 11.28125 
L 54.109375 2.78125 
Q 49.265625 0.734375 44.1875 -0.34375 
Q 39.109375 -1.421875 33.890625 -1.421875 
Q 20.796875 -1.421875 13.15625 6.1875 
Q 5.515625 13.8125 5.515625 26.8125 
Q 5.515625 40.234375 12.765625 48.109375 
Q 20.015625 56 32.328125 56 
Q 43.359375 56 49.78125 48.890625 
Q 56.203125 41.796875 56.203125 29.59375 
M 47.21875 32.234375 
Q 47.125 39.59375 43.09375 43.984375 
Q 39.0625 48.390625 32.421875 48.390625 
Q 24.90625 48.390625 20.390625 44.140625 
Q 15.875 39.890625 15.1875 32.171875 
z
" id="BitstreamVeraSans-Roman-65"/>
      <path d="M 9.421875 54.6875 
L 18.40625 54.6875 
L 18.40625 0 
L 9.421875 0 
z
M 9.421875 75.984375 
L 18.40625 75.984375 
L 18.40625 64.59375 
L 9.421875 64.59375 
z
" id="BitstreamVeraSans-Roman-69"/>
      <path d="M -0.296875 72.90625 
L 61.375 72.90625 
L 61.375 64.59375 
L 35.5 64.59375 
L 35.5 0 
L 25.59375 0 
L 25.59375 64.59375 
L -0.296875 64.59375 
z
" id="BitstreamVeraSans-Roman-54"/>
      <path d="M 52 44.1875 
Q 55.375 50.25 60.0625 53.125 
Q 64.75 56 71.09375 56 
Q 79.640625 56 84.28125 50.015625 
Q 88.921875 44.046875 88.921875 33.015625 
L 88.921875 0 
L 79.890625 0 
L 79.890625 32.71875 
Q 79.890625 40.578125 77.09375 44.375 
Q 74.3125 48.1875 68.609375 48.1875 
Q 61.625 48.1875 57.5625 43.546875 
Q 53.515625 38.921875 53.515625 30.90625 
L 53.515625 0 
L 44.484375 0 
L 44.484375 32.71875 
Q 44.484375 40.625 41.703125 44.40625 
Q 38.921875 48.1875 33.109375 48.1875 
Q 26.21875 48.1875 22.15625 43.53125 
Q 18.109375 38.875 18.109375 30.90625 
L 18.109375 0 
L 9.078125 0 
L 9.078125 54.6875 
L 18.109375 54.6875 
L 18.109375 46.1875 
Q 21.1875 51.21875 25.484375 53.609375 
Q 29.78125 56 35.6875 56 
Q 41.65625 56 45.828125 52.96875 
Q 50 49.953125 52 44.1875 
" id="BitstreamVeraSans-Roman-6d"/>
     </defs>
     <g style="fill:#555555;" transform="translate(206.535 283.79625)scale(0.12 -0.12)">
      <use xlink:href="#BitstreamVeraSans-Roman-54"/>
      <use x="61.037109375" xlink:href="#BitstreamVeraSans-Roman-69"/>
      <use x="88.8203125" xlink:href="#BitstreamVeraSans-Roman-6d"/>
      <use x="186.232421875" xlink:href="#BitstreamVeraSans-Roman-65"/>
     </g>
    </g>
   </g>
   <g id="matplotlib.axis_2">
    <g id="ytick_1">
     <g id="line2d_25">
      <path clip-path="url(#pa42bec5209)" d="M 54 252 
L 388.8 252 
" style="fill:none;stroke:#ffffff;stroke-linecap:square;stroke-width:0.5;"/>
     </g>
     <g id="line2d_26">
      <defs>
       <path d="M 0 0 
L -4 0 
" id="m6fed71c4b0" style="stroke:#555555;stroke-width:0.5;"/>
      </defs>
      <g>
       <use style="fill:#555555;stroke:#555555;stroke-width:0.5;" x="54.0" xlink:href="#m6fed71c4b0" y="252.0"/>
      </g>
     </g>
     <g id="line2d_27">
      <defs>
       <path d="M 0 0 
L 4 0 
" id="m578f4f7de1" style="stroke:#555555;stroke-width:0.5;"/>
      </defs>
      <g>
       <use style="fill:#555555;stroke:#555555;stroke-width:0.5;" x="388.8" xlink:href="#m578f4f7de1" y="252.0"/>
      </g>
     </g>
     <g id="text_10">
      <!-- −60000 -->
      <defs>
       <path d="M 10.59375 35.5 
L 73.1875 35.5 
L 73.1875 27.203125 
L 10.59375 27.203125 
z
" id="BitstreamVeraSans-Roman-2212"/>
       <path d="M 33.015625 40.375 
Q 26.375 40.375 22.484375 35.828125 
Q 18.609375 31.296875 18.609375 23.390625 
Q 18.609375 15.53125 22.484375 10.953125 
Q 26.375 6.390625 33.015625 6.390625 
Q 39.65625 6.390625 43.53125 10.953125 
Q 47.40625 15.53125 47.40625 23.390625 
Q 47.40625 31.296875 43.53125 35.828125 
Q 39.65625 40.375 33.015625 40.375 
M 52.59375 71.296875 
L 52.59375 62.3125 
Q 48.875 64.0625 45.09375 64.984375 
Q 41.3125 65.921875 37.59375 65.921875 
Q 27.828125 65.921875 22.671875 59.328125 
Q 17.53125 52.734375 16.796875 39.40625 
Q 19.671875 43.65625 24.015625 45.921875 
Q 28.375 48.1875 33.59375 48.1875 
Q 44.578125 48.1875 50.953125 41.515625 
Q 57.328125 34.859375 57.328125 23.390625 
Q 57.328125 12.15625 50.6875 5.359375 
Q 44.046875 -1.421875 33.015625 -1.421875 
Q 20.359375 -1.421875 13.671875 8.265625 
Q 6.984375 17.96875 6.984375 36.375 
Q 6.984375 53.65625 15.1875 63.9375 
Q 23.390625 74.21875 37.203125 74.21875 
Q 40.921875 74.21875 44.703125 73.484375 
Q 48.484375 72.75 52.59375 71.296875 
" id="BitstreamVeraSans-Roman-36"/>
      </defs>
      <g style="fill:#555555;" transform="translate(5.8078125 254.759375)scale(0.1 -0.1)">
       <use xlink:href="#BitstreamVeraSans-Roman-2212"/>
       <use x="83.7890625" xlink:href="#BitstreamVeraSans-Roman-36"/>
       <use x="147.412109375" xlink:href="#BitstreamVeraSans-Roman-30"/>
       <use x="211.03515625" xlink:href="#BitstreamVeraSans-Roman-30"/>
       <use x="274.658203125" xlink:href="#BitstreamVeraSans-Roman-30"/>
       <use x="338.28125" xlink:href="#BitstreamVeraSans-Roman-30"/>
      </g>
     </g>
    </g>
    <g id="ytick_2">
     <g id="line2d_28">
      <path clip-path="url(#pa42bec5209)" d="M 54 224.1 
L 388.8 224.1 
" style="fill:none;stroke:#ffffff;stroke-linecap:square;stroke-width:0.5;"/>
     </g>
     <g id="line2d_29">
      <g>
       <use style="fill:#555555;stroke:#555555;stroke-width:0.5;" x="54.0" xlink:href="#m6fed71c4b0" y="224.1"/>
      </g>
     </g>
     <g id="line2d_30">
      <g>
       <use style="fill:#555555;stroke:#555555;stroke-width:0.5;" x="388.8" xlink:href="#m578f4f7de1" y="224.1"/>
      </g>
     </g>
     <g id="text_11">
      <!-- −40000 -->
      <defs>
       <path d="M 37.796875 64.3125 
L 12.890625 25.390625 
L 37.796875 25.390625 
z
M 35.203125 72.90625 
L 47.609375 72.90625 
L 47.609375 25.390625 
L 58.015625 25.390625 
L 58.015625 17.1875 
L 47.609375 17.1875 
L 47.609375 0 
L 37.796875 0 
L 37.796875 17.1875 
L 4.890625 17.1875 
L 4.890625 26.703125 
z
" id="BitstreamVeraSans-Roman-34"/>
      </defs>
      <g style="fill:#555555;" transform="translate(5.8078125 226.859375)scale(0.1 -0.1)">
       <use xlink:href="#BitstreamVeraSans-Roman-2212"/>
       <use x="83.7890625" xlink:href="#BitstreamVeraSans-Roman-34"/>
       <use x="147.412109375" xlink:href="#BitstreamVeraSans-Roman-30"/>
       <use x="211.03515625" xlink:href="#BitstreamVeraSans-Roman-30"/>
       <use x="274.658203125" xlink:href="#BitstreamVeraSans-Roman-30"/>
       <use x="338.28125" xlink:href="#BitstreamVeraSans-Roman-30"/>
      </g>
     </g>
    </g>
    <g id="ytick_3">
     <g id="line2d_31">
      <path clip-path="url(#pa42bec5209)" d="M 54 196.2 
L 388.8 196.2 
" style="fill:none;stroke:#ffffff;stroke-linecap:square;stroke-width:0.5;"/>
     </g>
     <g id="line2d_32">
      <g>
       <use style="fill:#555555;stroke:#555555;stroke-width:0.5;" x="54.0" xlink:href="#m6fed71c4b0" y="196.2"/>
      </g>
     </g>
     <g id="line2d_33">
      <g>
       <use style="fill:#555555;stroke:#555555;stroke-width:0.5;" x="388.8" xlink:href="#m578f4f7de1" y="196.2"/>
      </g>
     </g>
     <g id="text_12">
      <!-- −20000 -->
      <g style="fill:#555555;" transform="translate(5.8078125 198.959375)scale(0.1 -0.1)">
       <use xlink:href="#BitstreamVeraSans-Roman-2212"/>
       <use x="83.7890625" xlink:href="#BitstreamVeraSans-Roman-32"/>
       <use x="147.412109375" xlink:href="#BitstreamVeraSans-Roman-30"/>
       <use x="211.03515625" xlink:href="#BitstreamVeraSans-Roman-30"/>
       <use x="274.658203125" xlink:href="#BitstreamVeraSans-Roman-30"/>
       <use x="338.28125" xlink:href="#BitstreamVeraSans-Roman-30"/>
      </g>
     </g>
    </g>
    <g id="ytick_4">
     <g id="line2d_34">
      <path clip-path="url(#pa42bec5209)" d="M 54 168.3 
L 388.8 168.3 
" style="fill:none;stroke:#ffffff;stroke-linecap:square;stroke-width:0.5;"/>
     </g>
     <g id="line2d_35">
      <g>
       <use style="fill:#555555;stroke:#555555;stroke-width:0.5;" x="54.0" xlink:href="#m6fed71c4b0" y="168.3"/>
      </g>
     </g>
     <g id="line2d_36">
      <g>
       <use style="fill:#555555;stroke:#555555;stroke-width:0.5;" x="388.8" xlink:href="#m578f4f7de1" y="168.3"/>
      </g>
     </g>
     <g id="text_13">
      <!-- 0 -->
      <g style="fill:#555555;" transform="translate(39.6375 171.059375)scale(0.1 -0.1)">
       <use xlink:href="#BitstreamVeraSans-Roman-30"/>
      </g>
     </g>
    </g>
    <g id="ytick_5">
     <g id="line2d_37">
      <path clip-path="url(#pa42bec5209)" d="M 54 140.4 
L 388.8 140.4 
" style="fill:none;stroke:#ffffff;stroke-linecap:square;stroke-width:0.5;"/>
     </g>
     <g id="line2d_38">
      <g>
       <use style="fill:#555555;stroke:#555555;stroke-width:0.5;" x="54.0" xlink:href="#m6fed71c4b0" y="140.4"/>
      </g>
     </g>
     <g id="line2d_39">
      <g>
       <use style="fill:#555555;stroke:#555555;stroke-width:0.5;" x="388.8" xlink:href="#m578f4f7de1" y="140.4"/>
      </g>
     </g>
     <g id="text_14">
      <!-- 20000 -->
      <g style="fill:#555555;" transform="translate(14.1875 143.159375)scale(0.1 -0.1)">
       <use xlink:href="#BitstreamVeraSans-Roman-32"/>
       <use x="63.623046875" xlink:href="#BitstreamVeraSans-Roman-30"/>
       <use x="127.24609375" xlink:href="#BitstreamVeraSans-Roman-30"/>
       <use x="190.869140625" xlink:href="#BitstreamVeraSans-Roman-30"/>
       <use x="254.4921875" xlink:href="#BitstreamVeraSans-Roman-30"/>
      </g>
     </g>
    </g>
    <g id="ytick_6">
     <g id="line2d_40">
      <path clip-path="url(#pa42bec5209)" d="M 54 112.5 
L 388.8 112.5 
" style="fill:none;stroke:#ffffff;stroke-linecap:square;stroke-width:0.5;"/>
     </g>
     <g id="line2d_41">
      <g>
       <use style="fill:#555555;stroke:#555555;stroke-width:0.5;" x="54.0" xlink:href="#m6fed71c4b0" y="112.5"/>
      </g>
     </g>
     <g id="line2d_42">
      <g>
       <use style="fill:#555555;stroke:#555555;stroke-width:0.5;" x="388.8" xlink:href="#m578f4f7de1" y="112.5"/>
      </g>
     </g>
     <g id="text_15">
      <!-- 40000 -->
      <g style="fill:#555555;" transform="translate(14.1875 115.259375)scale(0.1 -0.1)">
       <use xlink:href="#BitstreamVeraSans-Roman-34"/>
       <use x="63.623046875" xlink:href="#BitstreamVeraSans-Roman-30"/>
       <use x="127.24609375" xlink:href="#BitstreamVeraSans-Roman-30"/>
       <use x="190.869140625" xlink:href="#BitstreamVeraSans-Roman-30"/>
       <use x="254.4921875" xlink:href="#BitstreamVeraSans-Roman-30"/>
      </g>
     </g>
    </g>
    <g id="ytick_7">
     <g id="line2d_43">
      <path clip-path="url(#pa42bec5209)" d="M 54 84.6 
L 388.8 84.6 
" style="fill:none;stroke:#ffffff;stroke-linecap:square;stroke-width:0.5;"/>
     </g>
     <g id="line2d_44">
      <g>
       <use style="fill:#555555;stroke:#555555;stroke-width:0.5;" x="54.0" xlink:href="#m6fed71c4b0" y="84.6"/>
      </g>
     </g>
     <g id="line2d_45">
      <g>
       <use style="fill:#555555;stroke:#555555;stroke-width:0.5;" x="388.8" xlink:href="#m578f4f7de1" y="84.6"/>
      </g>
     </g>
     <g id="text_16">
      <!-- 60000 -->
      <g style="fill:#555555;" transform="translate(14.1875 87.359375)scale(0.1 -0.1)">
       <use xlink:href="#BitstreamVeraSans-Roman-36"/>
       <use x="63.623046875" xlink:href="#BitstreamVeraSans-Roman-30"/>
       <use x="127.24609375" xlink:href="#BitstreamVeraSans-Roman-30"/>
       <use x="190.869140625" xlink:href="#BitstreamVeraSans-Roman-30"/>
       <use x="254.4921875" xlink:href="#BitstreamVeraSans-Roman-30"/>
      </g>
     </g>
    </g>
    <g id="ytick_8">
     <g id="line2d_46">
      <path clip-path="url(#pa42bec5209)" d="M 54 56.7 
L 388.8 56.7 
" style="fill:none;stroke:#ffffff;stroke-linecap:square;stroke-width:0.5;"/>
     </g>
     <g id="line2d_47">
      <g>
       <use style="fill:#555555;stroke:#555555;stroke-width:0.5;" x="54.0" xlink:href="#m6fed71c4b0" y="56.7"/>
      </g>
     </g>
     <g id="line2d_48">
      <g>
       <use style="fill:#555555;stroke:#555555;stroke-width:0.5;" x="388.8" xlink:href="#m578f4f7de1" y="56.7"/>
      </g>
     </g>
     <g id="text_17">
      <!-- 80000 -->
      <defs>
       <path d="M 31.78125 34.625 
Q 24.75 34.625 20.71875 30.859375 
Q 16.703125 27.09375 16.703125 20.515625 
Q 16.703125 13.921875 20.71875 10.15625 
Q 24.75 6.390625 31.78125 6.390625 
Q 38.8125 6.390625 42.859375 10.171875 
Q 46.921875 13.96875 46.921875 20.515625 
Q 46.921875 27.09375 42.890625 30.859375 
Q 38.875 34.625 31.78125 34.625 
M 21.921875 38.8125 
Q 15.578125 40.375 12.03125 44.71875 
Q 8.5 49.078125 8.5 55.328125 
Q 8.5 64.0625 14.71875 69.140625 
Q 20.953125 74.21875 31.78125 74.21875 
Q 42.671875 74.21875 48.875 69.140625 
Q 55.078125 64.0625 55.078125 55.328125 
Q 55.078125 49.078125 51.53125 44.71875 
Q 48 40.375 41.703125 38.8125 
Q 48.828125 37.15625 52.796875 32.3125 
Q 56.78125 27.484375 56.78125 20.515625 
Q 56.78125 9.90625 50.3125 4.234375 
Q 43.84375 -1.421875 31.78125 -1.421875 
Q 19.734375 -1.421875 13.25 4.234375 
Q 6.78125 9.90625 6.78125 20.515625 
Q 6.78125 27.484375 10.78125 32.3125 
Q 14.796875 37.15625 21.921875 38.8125 
M 18.3125 54.390625 
Q 18.3125 48.734375 21.84375 45.5625 
Q 25.390625 42.390625 31.78125 42.390625 
Q 38.140625 42.390625 41.71875 45.5625 
Q 45.3125 48.734375 45.3125 54.390625 
Q 45.3125 60.0625 41.71875 63.234375 
Q 38.140625 66.40625 31.78125 66.40625 
Q 25.390625 66.40625 21.84375 63.234375 
Q 18.3125 60.0625 18.3125 54.390625 
" id="BitstreamVeraSans-Roman-38"/>
      </defs>
      <g style="fill:#555555;" transform="translate(14.1875 59.459375)scale(0.1 -0.1)">
       <use xlink:href="#BitstreamVeraSans-Roman-38"/>
       <use x="63.623046875" xlink:href="#BitstreamVeraSans-Roman-30"/>
       <use x="127.24609375" xlink:href="#BitstreamVeraSans-Roman-30"/>
       <use x="190.869140625" xlink:href="#BitstreamVeraSans-Roman-30"/>
       <use x="254.4921875" xlink:href="#BitstreamVeraSans-Roman-30"/>
      </g>
     </g>
    </g>
    <g id="ytick_9">
     <g id="line2d_49">
      <path clip-path="url(#pa42bec5209)" d="M 54 28.8 
L 388.8 28.8 
" style="fill:none;stroke:#ffffff;stroke-linecap:square;stroke-width:0.5;"/>
     </g>
     <g id="line2d_50">
      <g>
       <use style="fill:#555555;stroke:#555555;stroke-width:0.5;" x="54.0" xlink:href="#m6fed71c4b0" y="28.8"/>
      </g>
     </g>
     <g id="line2d_51">
      <g>
       <use style="fill:#555555;stroke:#555555;stroke-width:0.5;" x="388.8" xlink:href="#m578f4f7de1" y="28.8"/>
      </g>
     </g>
     <g id="text_18">
      <!-- 100000 -->
      <g style="fill:#555555;" transform="translate(7.825 31.559375)scale(0.1 -0.1)">
       <use xlink:href="#BitstreamVeraSans-Roman-31"/>
       <use x="63.623046875" xlink:href="#BitstreamVeraSans-Roman-30"/>
       <use x="127.24609375" xlink:href="#BitstreamVeraSans-Roman-30"/>
       <use x="190.869140625" xlink:href="#BitstreamVeraSans-Roman-30"/>
       <use x="254.4921875" xlink:href="#BitstreamVeraSans-Roman-30"/>
       <use x="318.115234375" xlink:href="#BitstreamVeraSans-Roman-30"/>
      </g>
     </g>
    </g>
    <g id="text_19">
     <!-- Flux -->
     <defs>
      <path d="M 9.8125 72.90625 
L 51.703125 72.90625 
L 51.703125 64.59375 
L 19.671875 64.59375 
L 19.671875 43.109375 
L 48.578125 43.109375 
L 48.578125 34.8125 
L 19.671875 34.8125 
L 19.671875 0 
L 9.8125 0 
z
" id="BitstreamVeraSans-Roman-46"/>
      <path d="M 8.5 21.578125 
L 8.5 54.6875 
L 17.484375 54.6875 
L 17.484375 21.921875 
Q 17.484375 14.15625 20.5 10.265625 
Q 23.53125 6.390625 29.59375 6.390625 
Q 36.859375 6.390625 41.078125 11.03125 
Q 45.3125 15.671875 45.3125 23.6875 
L 45.3125 54.6875 
L 54.296875 54.6875 
L 54.296875 0 
L 45.3125 0 
L 45.3125 8.40625 
Q 42.046875 3.421875 37.71875 1 
Q 33.40625 -1.421875 27.6875 -1.421875 
Q 18.265625 -1.421875 13.375 4.4375 
Q 8.5 10.296875 8.5 21.578125 
" id="BitstreamVeraSans-Roman-75"/>
      <path d="M 54.890625 54.6875 
L 35.109375 28.078125 
L 55.90625 0 
L 45.3125 0 
L 29.390625 21.484375 
L 13.484375 0 
L 2.875 0 
L 24.125 28.609375 
L 4.6875 54.6875 
L 15.28125 54.6875 
L 29.78125 35.203125 
L 44.28125 54.6875 
z
" id="BitstreamVeraSans-Roman-78"/>
      <path d="M 9.421875 75.984375 
L 18.40625 75.984375 
L 18.40625 0 
L 9.421875 0 
z
" id="BitstreamVeraSans-Roman-6c"/>
     </defs>
     <g style="fill:#555555;" transform="translate(-1.6878125 152.8715625)rotate(-90.0)scale(0.12 -0.12)">
      <use xlink:href="#BitstreamVeraSans-Roman-46"/>
      <use x="57.51953125" xlink:href="#BitstreamVeraSans-Roman-6c"/>
      <use x="85.302734375" xlink:href="#BitstreamVeraSans-Roman-75"/>
      <use x="148.681640625" xlink:href="#BitstreamVeraSans-Roman-78"/>
     </g>
    </g>
   </g>
   <g id="line2d_52">
    <path clip-path="url(#pa42bec5209)" d="M 79.753846 54.844459 
L 79.925538 65.49785 
L 80.268923 118.478977 
L 80.784 202.851668 
L 81.041538 217.844955 
L 81.127385 217.817121 
L 81.299077 211.792703 
L 81.985846 177.540758 
L 82.071692 177.872013 
L 82.243385 181.883668 
L 82.672615 194.893718 
L 82.758462 194.756975 
L 82.930154 189.63307 
L 83.273538 163.872081 
L 83.616923 141.073255 
L 83.702769 139.458231 
L 83.788615 139.958936 
L 83.960308 146.909013 
L 84.647077 188.955321 
L 84.732923 188.429849 
L 84.904615 182.105766 
L 85.248 155.485537 
L 85.677231 124.412705 
L 85.848923 121.681726 
L 86.020615 126.871725 
L 86.364 154.720448 
L 86.707385 179.586575 
L 86.879077 181.80861 
L 87.050769 176.068077 
L 87.394154 148.662697 
L 87.909231 110.426015 
L 88.080923 107.293147 
L 88.166769 108.15008 
L 88.338462 114.731629 
L 88.681846 143.587841 
L 89.196923 186.256319 
L 89.368615 189.667444 
L 89.454462 189.153055 
L 89.712 182.419402 
L 89.969538 175.950504 
L 90.055385 175.281492 
L 90.141231 175.586634 
L 90.312923 178.933488 
L 90.828 193.122117 
L 90.913846 193.057028 
L 91.085538 189.921343 
L 91.600615 176.992344 
L 91.686462 177.811982 
L 91.858154 183.200213 
L 92.459077 210.434107 
L 92.544923 210.708522 
L 92.716615 207.322707 
L 93.403385 182.49242 
L 93.489231 182.521505 
L 93.660923 185.347677 
L 94.261846 199.606234 
L 94.347692 198.902176 
L 94.519385 194.713222 
L 95.292 170.068949 
L 95.892923 163.136848 
L 95.978769 163.483693 
L 96.150462 167.142338 
L 96.408 180.256338 
L 96.837231 204.107487 
L 97.008923 206.212388 
L 97.180615 202.348501 
L 97.524 181.740554 
L 97.953231 157.033466 
L 98.039077 155.473179 
L 98.124923 155.548273 
L 98.296615 160.577647 
L 99.069231 200.412771 
L 99.155077 200.332326 
L 99.412615 196.467904 
L 99.584308 194.490274 
L 99.670154 194.490379 
L 99.841846 196.68553 
L 100.271077 204.797522 
L 100.356923 204.63184 
L 100.528615 201.469945 
L 101.215385 180.238268 
L 101.301231 180.415622 
L 101.472923 183.709153 
L 101.902154 202.116757 
L 102.159692 209.189835 
L 102.245538 209.251688 
L 102.417231 205.445925 
L 103.104 175.230125 
L 103.189846 175.26947 
L 103.361538 179.118236 
L 103.962462 198.354659 
L 104.391692 202.200322 
L 104.992615 214.342155 
L 105.164308 211.280529 
L 105.421846 198.932717 
L 106.537846 131.643093 
L 106.623692 132.263406 
L 106.795385 137.67584 
L 107.138769 161.556458 
L 107.653846 200.221638 
L 107.825538 205.325328 
L 107.911385 205.726825 
L 108.083077 202.426149 
L 108.340615 189.704742 
L 109.284923 134.593968 
L 109.542462 129.959286 
L 109.628308 130.595765 
L 109.8 135.309401 
L 110.143385 154.443399 
L 111.001846 203.227555 
L 111.516923 224.433406 
L 111.602769 225.414207 
L 111.688615 225.255284 
L 111.860308 221.368513 
L 112.117846 207.934426 
L 112.976308 156.396389 
L 113.663077 130.074593 
L 114.006462 124.596318 
L 114.178154 123.827863 
L 114.264 123.783143 
L 114.435692 124.222389 
L 114.693231 126.139176 
L 114.950769 130.143676 
L 115.208308 137.490246 
L 115.551692 153.916724 
L 116.839385 226.529975 
L 116.925231 226.707955 
L 117.096923 223.794538 
L 117.354462 212.520215 
L 118.298769 163.61687 
L 118.556308 159.439044 
L 118.642154 159.244889 
L 118.728 159.717928 
L 118.899692 162.898651 
L 119.157231 173.888782 
L 119.929846 214.277255 
L 120.015692 213.269886 
L 120.187385 206.476968 
L 120.616615 173.565221 
L 121.045846 147.178984 
L 121.389231 138.723374 
L 121.990154 131.770883 
L 122.333538 129.245702 
L 122.591077 128.669716 
L 122.762769 128.701922 
L 123.535385 129.315067 
L 123.792923 129.157881 
L 124.136308 128.494223 
L 124.737231 127.182096 
L 124.908923 127.161587 
L 125.166462 127.475046 
L 126.110769 129.29708 
L 126.454154 130.896375 
L 126.969231 133.517902 
L 127.140923 133.799613 
L 127.312615 133.743382 
L 127.656 133.360244 
L 127.741846 133.405855 
L 127.913538 133.978864 
L 128.085231 135.615269 
L 128.342769 141.446337 
L 128.686154 157.414272 
L 129.287077 187.16224 
L 129.544615 190.242624 
L 129.630462 189.968411 
L 129.802154 188.084065 
L 130.746462 174.296537 
L 131.089846 173.500555 
L 131.347385 172.475198 
L 131.690769 169.563136 
L 132.034154 164.853827 
L 133.150154 146.743546 
L 133.321846 146.521012 
L 133.579385 146.863768 
L 133.751077 147.045206 
L 133.922769 146.862185 
L 134.094462 146.13467 
L 134.352 143.90285 
L 135.296308 133.823459 
L 135.468 133.440819 
L 135.553846 133.453373 
L 135.725538 133.887664 
L 135.983077 135.689264 
L 136.240615 139.359026 
L 136.584 148.897659 
L 137.356615 177.873264 
L 137.442462 178.260504 
L 137.528308 177.712815 
L 137.7 174.126455 
L 138.129231 157.320339 
L 138.558462 142.652001 
L 138.901846 137.437005 
L 139.159385 136.266608 
L 139.331077 136.201085 
L 139.502769 136.740604 
L 139.674462 138.194984 
L 139.932 142.553753 
L 140.447077 152.173565 
L 140.532923 152.579094 
L 140.618769 152.526975 
L 140.790462 151.30515 
L 141.477231 144.074537 
L 141.563077 144.139608 
L 141.734769 145.505276 
L 142.335692 154.605123 
L 142.421538 154.456127 
L 142.593231 152.196095 
L 143.537538 132.0559 
L 143.795077 131.237112 
L 143.880923 131.214452 
L 144.052615 131.565159 
L 144.224308 132.687481 
L 144.481846 136.48962 
L 145.082769 147.606474 
L 145.168615 147.312041 
L 145.340308 144.462336 
L 146.027077 127.309429 
L 146.198769 126.852735 
L 146.370462 127.569679 
L 147.057231 131.489052 
L 147.314769 132.050934 
L 147.572308 132.135821 
L 147.915692 132.200905 
L 148.344923 132.598303 
L 148.516615 133.044506 
L 148.688308 134.379462 
L 148.86 137.507664 
L 149.117538 146.904167 
L 149.718462 171.546782 
L 149.804308 171.678716 
L 149.976 168.376663 
L 150.405231 148.792181 
L 150.748615 136.248004 
L 151.006154 132.314892 
L 151.177846 131.661642 
L 151.263692 131.76286 
L 151.435385 132.785279 
L 151.692923 137.012706 
L 152.122154 151.331287 
L 152.379692 157.049501 
L 152.465538 157.157006 
L 152.637231 154.508098 
L 153.409846 135.371015 
L 153.581538 134.924611 
L 154.096615 134.87745 
L 154.354154 134.47763 
L 154.525846 133.916866 
L 154.783385 131.980668 
L 155.384308 125.590681 
L 155.470154 125.500132 
L 155.641846 126.211209 
L 156.414462 131.527017 
L 156.586154 132.464769 
L 156.757846 134.779384 
L 157.015385 142.781376 
L 157.530462 163.453811 
L 157.616308 164.270262 
L 157.702154 163.970507 
L 157.959692 158.918564 
L 158.131385 156.166073 
L 158.217231 156.179337 
L 158.388923 160.049234 
L 158.732308 179.962543 
L 159.075692 195.909336 
L 159.161538 196.536477 
L 159.247385 195.605271 
L 159.419077 189.707907 
L 160.277538 150.41875 
L 161.136 137.234139 
L 161.307692 135.972423 
L 161.393538 136.137446 
L 161.565231 138.110263 
L 162.166154 147.368203 
L 162.252 147.29329 
L 162.423692 146.127469 
L 163.110462 139.932106 
L 163.196308 140.509097 
L 163.368 144.121123 
L 163.625538 156.773102 
L 164.140615 187.154559 
L 164.312308 188.87 
L 164.484 185.084665 
L 164.913231 164.036027 
L 165.428308 143.733012 
L 165.943385 133.127155 
L 166.115077 131.591833 
L 166.200923 131.53217 
L 166.372615 133.209547 
L 166.716 142.322806 
L 167.059385 149.776763 
L 167.574462 154.747332 
L 167.832 165.614382 
L 168.518769 206.207302 
L 168.604615 206.581143 
L 168.776308 202.453064 
L 169.463077 169.66523 
L 169.548923 169.765018 
L 169.720615 174.5289 
L 170.149846 202.02813 
L 170.407385 213.594629 
L 170.493231 214.559254 
L 170.579077 213.860659 
L 170.750769 207.763479 
L 171.18 177.128679 
L 171.609231 152.35582 
L 172.038462 140.478648 
L 172.553538 130.506115 
L 172.725231 129.707652 
L 172.896923 130.696247 
L 173.240308 133.780041 
L 173.326154 133.846211 
L 173.497846 132.747283 
L 173.927077 128.597169 
L 174.012923 128.626279 
L 174.184615 129.715639 
L 174.613846 132.986781 
L 174.785538 133.034457 
L 174.957231 132.860804 
L 175.043077 132.926987 
L 175.214769 133.778449 
L 175.386462 136.09973 
L 175.644 143.911614 
L 175.987385 164.041679 
L 176.330769 183.500658 
L 176.502462 185.790608 
L 176.674154 181.54799 
L 177.103385 156.013162 
L 177.446769 141.158597 
L 177.618462 138.884568 
L 177.704308 139.030442 
L 177.876 141.352197 
L 178.305231 149.057062 
L 178.391077 149.355987 
L 178.476923 149.145807 
L 178.820308 147.131742 
L 178.906154 147.46892 
L 179.077846 149.976807 
L 179.678769 162.53279 
L 180.022154 165.422683 
L 180.193846 169.971099 
L 180.623077 191.953906 
L 180.880615 200.368118 
L 180.966462 200.436285 
L 181.138154 196.139942 
L 181.824923 164.510521 
L 181.910769 164.609321 
L 182.082462 169.361471 
L 182.425846 191.419944 
L 182.769231 207.743516 
L 182.855077 208.052396 
L 183.026769 203.738584 
L 183.370154 182.644848 
L 183.885231 151.697255 
L 184.142769 145.036235 
L 184.228615 144.95067 
L 184.400308 148.652124 
L 184.657846 163.382064 
L 185.172923 196.948404 
L 185.344615 198.832558 
L 185.516308 195.04259 
L 186.031385 178.487587 
L 186.117231 178.803915 
L 186.288923 183.012686 
L 186.804 200.057666 
L 186.889846 199.539604 
L 187.061538 194.329342 
L 187.490769 167.554787 
L 188.005846 141.329062 
L 188.263385 136.891607 
L 188.349231 136.977451 
L 188.520923 139.313291 
L 188.864308 149.774835 
L 189.293538 170.520717 
L 189.894462 205.049557 
L 189.980308 205.949567 
L 190.066154 205.131797 
L 190.237846 198.694577 
L 190.752923 161.177163 
L 191.096308 143.030566 
L 191.268 140.374636 
L 191.353846 140.82393 
L 191.525538 144.510223 
L 191.954769 154.280641 
L 192.040615 153.829374 
L 192.212308 149.775102 
L 192.813231 127.960361 
L 192.899077 128.538842 
L 193.070769 135.364093 
L 193.414154 168.072612 
L 193.843385 205.876477 
L 194.015077 209.937083 
L 194.100923 209.700365 
L 194.530154 202.334057 
L 194.616 202.405719 
L 194.787692 205.342086 
L 195.302769 217.362923 
L 195.388615 216.518846 
L 195.560308 211.331465 
L 197.105538 142.691943 
L 197.363077 137.048496 
L 197.448923 137.286055 
L 197.620615 142.273848 
L 197.878154 160.928968 
L 198.393231 204.596407 
L 198.564923 208.767047 
L 198.650769 208.105657 
L 198.822462 202.058178 
L 199.251692 172.6566 
L 199.938462 128.011238 
L 200.196 121.157642 
L 200.281846 122.112607 
L 200.453538 130.404282 
L 200.796923 168.371932 
L 201.140308 203.397164 
L 201.312 207.933268 
L 201.397846 206.454339 
L 201.569538 197.377458 
L 202.428 135.720026 
L 202.513846 135.193356 
L 202.599692 135.885738 
L 203.286462 147.147966 
L 203.372308 147.353851 
L 203.544 149.204983 
L 203.715692 154.761372 
L 204.488308 189.663479 
L 204.66 185.82767 
L 205.089231 164.641224 
L 205.518462 145.781434 
L 205.776 142.034839 
L 205.861846 142.827577 
L 206.033538 147.877677 
L 206.376923 169.504653 
L 206.892 204.078907 
L 207.063692 208.126137 
L 207.149538 208.028935 
L 207.321231 203.686143 
L 207.664615 182.760236 
L 208.351385 136.472677 
L 208.437231 134.753518 
L 208.523077 134.925249 
L 208.694769 141.498392 
L 209.038154 173.513066 
L 209.381538 201.103766 
L 209.553231 204.347325 
L 209.639077 203.31183 
L 209.896615 193.378441 
L 210.497538 167.695622 
L 210.669231 165.372365 
L 210.755077 165.576467 
L 210.926769 169.082077 
L 211.270154 186.112078 
L 211.613538 201.614001 
L 211.785231 203.454117 
L 211.956923 201.12524 
L 212.300308 189.593125 
L 213.931385 129.640705 
L 214.017231 129.809256 
L 214.188923 134.341268 
L 214.446462 150.248386 
L 215.304923 209.768779 
L 215.562462 214.754828 
L 215.648308 214.393939 
L 215.82 210.917516 
L 216.249231 193.165866 
L 217.107692 149.431034 
L 217.880308 97.775705 
L 218.052 96.019907 
L 218.223692 99.147656 
L 218.567077 114.513842 
L 219.082154 138.085932 
L 219.339692 143.09005 
L 219.511385 143.772213 
L 219.854769 143.385782 
L 220.026462 144.340787 
L 220.284 148.180504 
L 220.713231 159.138002 
L 221.314154 181.077568 
L 222.258462 218.449435 
L 222.516 222.975043 
L 222.601846 223.485061 
L 222.687692 223.430869 
L 222.859385 221.5667 
L 223.116923 214.745791 
L 224.147077 173.85261 
L 225.263077 131.910935 
L 225.434769 130.828951 
L 225.606462 132.789468 
L 225.864 140.760474 
L 226.293231 162.399685 
L 227.065846 206.336814 
L 227.151692 207.694756 
L 227.237538 207.572697 
L 227.409231 202.768199 
L 227.752615 179.975007 
L 228.181846 153.721595 
L 228.439385 147.866654 
L 228.611077 146.996174 
L 228.696923 147.073959 
L 228.954462 148.314634 
L 229.297846 151.243449 
L 229.641231 156.111966 
L 230.156308 167.470748 
L 230.928923 183.732764 
L 231.014769 183.941328 
L 231.100615 183.430461 
L 231.272308 180.238989 
L 231.959077 163.374338 
L 232.044923 163.693309 
L 232.216615 166.402563 
L 232.56 178.121979 
L 233.590154 220.06339 
L 233.761846 220.987962 
L 233.933538 219.239187 
L 234.191077 212.737692 
L 234.963692 190.094743 
L 235.564615 180.260075 
L 235.822154 178.302565 
L 235.908 178.264658 
L 236.079692 179.098356 
L 236.852308 185.455894 
L 236.938154 185.52367 
L 237.109846 185.202949 
L 237.281538 184.2306 
L 237.539077 180.946811 
L 237.796615 174.099752 
L 238.225846 153.921955 
L 238.655077 135.037458 
L 238.826769 132.50464 
L 238.912615 132.710492 
L 239.084308 136.031158 
L 239.341846 147.245034 
L 240.457846 206.833117 
L 240.543692 206.849704 
L 240.715385 204.484918 
L 241.573846 186.374668 
L 241.917231 183.901821 
L 242.088923 180.621586 
L 242.346462 170.30292 
L 242.689846 145.65633 
L 243.462462 85.399788 
L 243.548308 83.767923 
L 243.634154 84.191303 
L 243.805846 91.667926 
L 244.149231 127.722926 
L 244.578462 171.927675 
L 244.836 182.663471 
L 245.007692 184.746369 
L 245.093538 184.901237 
L 245.265231 184.093236 
L 245.522769 180.405667 
L 245.780308 172.506766 
L 246.123692 153.421892 
L 246.724615 117.837234 
L 246.810462 116.879691 
L 246.896308 117.746219 
L 247.068 124.980744 
L 248.012308 183.607407 
L 248.184 184.300985 
L 248.527385 184.099418 
L 248.956615 184.861265 
L 249.042462 184.654015 
L 249.214154 183.246115 
L 249.471692 177.950456 
L 249.900923 161.70176 
L 250.587692 136.893408 
L 251.016923 121.970116 
L 251.789538 90.151893 
L 251.875385 89.660305 
L 251.961231 90.504376 
L 252.132923 96.673979 
L 252.390462 116.708983 
L 253.248923 193.240051 
L 253.592308 204.523677 
L 253.935692 208.889127 
L 254.107385 209.417502 
L 254.193231 209.393901 
L 254.708308 208.558152 
L 254.88 208.995515 
L 255.309231 210.453175 
L 255.395077 210.396364 
L 255.566769 209.556648 
L 255.824308 205.809396 
L 256.167692 195.236752 
L 256.682769 178.165178 
L 256.854462 176.833189 
L 256.940308 177.365839 
L 257.112 180.64374 
L 257.884615 202.217443 
L 257.970462 202.38788 
L 258.142154 201.080421 
L 258.571385 193.223122 
L 259.000615 183.248607 
L 259.258154 171.792297 
L 259.601538 143.645697 
L 260.116615 95.635863 
L 260.288308 92.646548 
L 260.46 101.556656 
L 260.717538 135.854032 
L 261.404308 239.892644 
L 261.576 245.691182 
L 261.661846 245.310938 
L 261.833538 240.255801 
L 262.434462 219.122062 
L 262.777846 215.144892 
L 263.378769 209.285432 
L 264.237231 201.074068 
L 264.838154 196.902589 
L 265.095692 196.293952 
L 265.267385 196.271097 
L 266.04 196.72169 
L 266.297538 196.745338 
L 266.469231 197.056675 
L 266.726769 198.386383 
L 267.070154 202.196326 
L 267.585231 209.092817 
L 267.671077 209.387077 
L 267.756923 209.161349 
L 267.928615 206.877757 
L 268.186154 198.81832 
L 269.216308 158.936945 
L 269.817231 143.572502 
L 269.988923 142.115381 
L 270.074769 142.277521 
L 270.246462 144.540701 
L 270.504 152.705161 
L 271.019077 180.699624 
L 271.448308 199.970332 
L 271.62 202.349352 
L 271.705846 202.050646 
L 271.877538 198.420074 
L 272.220923 181.283759 
L 272.736 153.325605 
L 272.993538 147.510281 
L 273.165231 146.545039 
L 273.251077 146.69773 
L 273.422769 148.139496 
L 273.680308 153.653771 
L 274.367077 175.455356 
L 274.452923 175.413126 
L 274.624615 172.627574 
L 275.568923 147.398253 
L 275.654769 147.588527 
L 275.826462 150.323518 
L 276.513231 167.413944 
L 276.684923 165.685882 
L 277.2 157.673484 
L 277.285846 157.519994 
L 277.371692 157.821144 
L 277.543385 159.699678 
L 277.886769 167.376058 
L 278.230154 174.886316 
L 278.401846 175.91328 
L 278.573538 174.997894 
L 278.831077 173.076956 
L 278.916923 173.10352 
L 279.088615 174.657354 
L 279.517846 180.512723 
L 279.603692 180.352394 
L 279.775385 177.855379 
L 280.118769 166.736325 
L 280.719692 146.904828 
L 280.977231 143.719008 
L 281.063077 143.654419 
L 281.234769 144.490245 
L 281.492308 145.808199 
L 281.578154 145.783549 
L 281.749846 145.023339 
L 282.007385 143.848603 
L 282.093231 143.938442 
L 282.264923 145.051595 
L 282.694154 148.781757 
L 282.865846 148.95006 
L 283.123385 148.65633 
L 283.295077 148.813681 
L 283.638462 149.271288 
L 283.810154 149.369882 
L 283.981846 150.273281 
L 284.153538 152.968383 
L 284.496923 163.901238 
L 284.926154 175.982244 
L 285.097846 177.442584 
L 285.183692 177.529042 
L 285.355385 176.85216 
L 285.784615 174.620209 
L 285.870462 174.872316 
L 286.042154 176.706365 
L 286.385538 184.797975 
L 286.728923 190.974577 
L 286.814769 190.975403 
L 286.986462 188.744327 
L 287.329846 177.799103 
L 288.102462 150.404154 
L 288.274154 149.129114 
L 288.36 149.591992 
L 288.617538 154.020758 
L 288.960923 159.898693 
L 289.132615 160.792428 
L 289.390154 161.088955 
L 289.561846 162.120291 
L 289.819385 165.91973 
L 290.334462 178.431284 
L 291.192923 205.806092 
L 291.622154 222.356414 
L 291.708 222.915086 
L 291.793846 221.940841 
L 291.965538 215.57364 
L 292.909846 167.377989 
L 293.339077 159.075477 
L 293.424923 158.557434 
L 293.510769 158.63888 
L 293.682462 160.710731 
L 294.025846 170.231652 
L 294.540923 183.859619 
L 294.884308 189.101778 
L 295.056 189.814017 
L 295.141846 189.589953 
L 295.313538 188.156456 
L 295.656923 182.618143 
L 296.000308 172.865697 
L 296.429538 159.519113 
L 296.601231 158.252288 
L 296.772923 159.988903 
L 297.373846 169.733758 
L 297.631385 170.792527 
L 297.803077 171.012305 
L 297.888923 170.875036 
L 298.060615 169.805485 
L 298.661538 164.34687 
L 299.004923 165.813392 
L 299.090769 165.743192 
L 299.262462 164.576247 
L 299.605846 161.967107 
L 299.691692 162.231504 
L 299.949231 165.395221 
L 300.292615 169.024035 
L 300.378462 169.088943 
L 300.550154 168.564491 
L 300.807692 167.83069 
L 300.893538 167.866515 
L 301.065231 168.487672 
L 301.236923 170.1566 
L 301.494462 176.006054 
L 302.095385 193.848047 
L 302.181231 194.207973 
L 302.267077 193.968758 
L 302.782154 190.548211 
L 302.953846 191.129657 
L 303.297231 193.957788 
L 303.640615 198.88544 
L 304.327385 212.668992 
L 304.499077 210.463718 
L 305.357538 189.23642 
L 305.529231 188.792246 
L 305.615077 188.808142 
L 305.786769 189.175764 
L 306.044308 190.626397 
L 306.387692 194.614423 
L 307.074462 204.926329 
L 307.160308 204.925888 
L 307.332 203.589894 
L 309.220615 176.6441 
L 309.564 164.913696 
L 309.993231 149.743362 
L 310.079077 149.161435 
L 310.164923 149.904382 
L 310.336615 155.485413 
L 311.280923 200.327452 
L 311.366769 200.454121 
L 311.796 199.680758 
L 311.967692 200.053896 
L 312.482769 201.965888 
L 312.654462 200.951839 
L 312.997846 195.687498 
L 313.341231 191.625734 
L 313.512923 191.036488 
L 313.598769 190.994049 
L 313.770462 191.342306 
L 313.942154 192.474354 
L 314.199692 196.103628 
L 314.628923 202.387155 
L 314.714769 202.720391 
L 314.800615 202.667917 
L 314.972308 201.58229 
L 315.315692 196.664541 
L 316.002462 183.957185 
L 316.088308 183.925123 
L 316.26 185.481315 
L 316.689231 191.151258 
L 316.775077 191.36692 
L 316.860923 191.228384 
L 317.204308 190.031796 
L 317.376 190.992004 
L 317.891077 196.805199 
L 317.976923 196.761434 
L 318.148615 195.531814 
L 318.492 192.42094 
L 318.577846 192.320336 
L 318.749538 193.331539 
L 319.092923 198.714917 
L 319.436308 203.416789 
L 319.522154 203.681961 
L 319.608 203.419526 
L 319.779692 201.289387 
L 320.380615 190.302637 
L 320.466462 190.381315 
L 320.638154 192.120338 
L 321.153231 199.393552 
L 321.239077 199.683308 
L 321.324923 199.571596 
L 321.496615 197.927526 
L 321.754154 191.039437 
L 322.355077 170.773409 
L 322.440923 170.720133 
L 322.612615 172.817029 
L 322.956 178.149066 
L 323.127692 178.560744 
L 323.385231 177.964678 
L 323.471077 178.216378 
L 323.642769 180.055572 
L 324.329538 190.593531 
L 325.016308 194.609231 
L 325.102154 194.347506 
L 325.273846 192.358831 
L 325.531385 185.484497 
L 325.960615 172.356745 
L 326.046462 171.583326 
L 326.132308 171.789729 
L 326.304 174.782837 
L 326.990769 190.725167 
L 327.42 199.741371 
L 327.763385 205.581864 
L 327.935077 206.051753 
L 328.106769 205.366307 
L 328.450154 204.05043 
L 328.621846 203.687623 
L 328.793538 202.625014 
L 329.051077 198.883443 
L 329.480308 192.499728 
L 329.652 192.027304 
L 329.823692 192.483351 
L 330.081231 193.0797 
L 330.167077 192.913777 
L 330.338769 191.799949 
L 330.596308 187.768994 
L 330.853846 179.404541 
L 331.626462 147.644375 
L 331.798154 150.805671 
L 332.484923 172.841381 
L 332.570769 173.119318 
L 332.656615 172.77141 
L 332.914154 169.178132 
L 333.171692 165.71084 
L 333.257538 165.687197 
L 333.429231 168.330414 
L 333.944308 183.87672 
L 334.030154 183.675086 
L 334.201846 179.039657 
L 334.802769 153.096974 
L 334.888615 153.360914 
L 335.060308 157.69624 
L 335.575385 175.863489 
L 335.832923 178.1135 
L 336.176308 178.659627 
L 336.348 178.70237 
L 336.691385 178.50107 
L 336.863077 179.261441 
L 337.206462 181.379327 
L 337.292308 181.07294 
L 337.464 178.642504 
L 337.979077 168.763445 
L 338.064923 169.134909 
L 338.322462 173.872569 
L 338.665846 179.766561 
L 338.751692 179.93481 
L 338.837538 179.463147 
L 339.009231 176.667948 
L 339.352615 165.493442 
L 339.696 155.915696 
L 339.781846 155.445278 
L 339.867692 155.965924 
L 340.039385 159.634157 
L 340.640308 177.232447 
L 340.726154 177.854891 
L 340.812 177.719834 
L 340.983692 175.142934 
L 341.584615 157.50053 
L 341.670462 157.707587 
L 341.842154 162.040941 
L 342.528923 188.00444 
L 342.700615 188.429931 
L 342.958154 187.337538 
L 343.215692 185.534355 
L 343.473231 181.309611 
L 344.16 166.762172 
L 344.245846 167.079341 
L 344.503385 170.895938 
L 344.932615 177.20189 
L 345.104308 177.787213 
L 345.447692 178.125749 
L 345.791077 178.723188 
L 345.962769 178.41814 
L 346.392 177.229656 
L 346.563692 176.988013 
L 346.735385 176.34228 
L 347.250462 173.044389 
L 347.336308 173.257616 
L 347.508 174.892795 
L 347.851385 181.600747 
L 348.366462 191.685981 
L 348.624 193.578442 
L 349.053231 195.036418 
L 349.482462 197.470442 
L 349.74 197.701639 
L 349.911692 197.995772 
L 350.255077 199.012225 
L 350.340923 198.837872 
L 350.512615 197.421616 
L 351.199385 187.919309 
L 351.285231 188.029369 
L 351.456923 189.445628 
L 351.886154 194.266505 
L 351.972 194.476811 
L 352.057846 194.380933 
L 352.572923 192.825797 
L 352.744615 192.69865 
L 352.916308 192.008521 
L 353.173846 189.321303 
L 353.517231 182.171326 
L 354.118154 166.144282 
L 354.118154 166.144282 
" style="fill:none;stroke:#e24a33;stroke-linecap:square;"/>
   </g>
   <g id="patch_3">
    <path d="M 54 28.8 
L 388.8 28.8 
" style="fill:none;stroke:#ffffff;stroke-linecap:square;stroke-linejoin:miter;"/>
   </g>
   <g id="patch_4">
    <path d="M 388.8 252 
L 388.8 28.8 
" style="fill:none;stroke:#ffffff;stroke-linecap:square;stroke-linejoin:miter;"/>
   </g>
   <g id="patch_5">
    <path d="M 54 252 
L 388.8 252 
" style="fill:none;stroke:#ffffff;stroke-linecap:square;stroke-linejoin:miter;"/>
   </g>
   <g id="patch_6">
    <path d="M 54 252 
L 54 28.8 
" style="fill:none;stroke:#ffffff;stroke-linecap:square;stroke-linejoin:miter;"/>
   </g>
   <g id="text_20">
    <!-- Star with an exoplanet -->
    <defs>
     <path id="BitstreamVeraSans-Roman-20"/>
     <path d="M 54.890625 33.015625 
L 54.890625 0 
L 45.90625 0 
L 45.90625 32.71875 
Q 45.90625 40.484375 42.875 44.328125 
Q 39.84375 48.1875 33.796875 48.1875 
Q 26.515625 48.1875 22.3125 43.546875 
Q 18.109375 38.921875 18.109375 30.90625 
L 18.109375 0 
L 9.078125 0 
L 9.078125 54.6875 
L 18.109375 54.6875 
L 18.109375 46.1875 
Q 21.34375 51.125 25.703125 53.5625 
Q 30.078125 56 35.796875 56 
Q 45.21875 56 50.046875 50.171875 
Q 54.890625 44.34375 54.890625 33.015625 
" id="BitstreamVeraSans-Roman-6e"/>
     <path d="M 34.28125 27.484375 
Q 23.390625 27.484375 19.1875 25 
Q 14.984375 22.515625 14.984375 16.5 
Q 14.984375 11.71875 18.140625 8.90625 
Q 21.296875 6.109375 26.703125 6.109375 
Q 34.1875 6.109375 38.703125 11.40625 
Q 43.21875 16.703125 43.21875 25.484375 
L 43.21875 27.484375 
z
M 52.203125 31.203125 
L 52.203125 0 
L 43.21875 0 
L 43.21875 8.296875 
Q 40.140625 3.328125 35.546875 0.953125 
Q 30.953125 -1.421875 24.3125 -1.421875 
Q 15.921875 -1.421875 10.953125 3.296875 
Q 6 8.015625 6 15.921875 
Q 6 25.140625 12.171875 29.828125 
Q 18.359375 34.515625 30.609375 34.515625 
L 43.21875 34.515625 
L 43.21875 35.40625 
Q 43.21875 41.609375 39.140625 45 
Q 35.0625 48.390625 27.6875 48.390625 
Q 23 48.390625 18.546875 47.265625 
Q 14.109375 46.140625 10.015625 43.890625 
L 10.015625 52.203125 
Q 14.9375 54.109375 19.578125 55.046875 
Q 24.21875 56 28.609375 56 
Q 40.484375 56 46.34375 49.84375 
Q 52.203125 43.703125 52.203125 31.203125 
" id="BitstreamVeraSans-Roman-61"/>
     <path d="M 30.609375 48.390625 
Q 23.390625 48.390625 19.1875 42.75 
Q 14.984375 37.109375 14.984375 27.296875 
Q 14.984375 17.484375 19.15625 11.84375 
Q 23.34375 6.203125 30.609375 6.203125 
Q 37.796875 6.203125 41.984375 11.859375 
Q 46.1875 17.53125 46.1875 27.296875 
Q 46.1875 37.015625 41.984375 42.703125 
Q 37.796875 48.390625 30.609375 48.390625 
M 30.609375 56 
Q 42.328125 56 49.015625 48.375 
Q 55.71875 40.765625 55.71875 27.296875 
Q 55.71875 13.875 49.015625 6.21875 
Q 42.328125 -1.421875 30.609375 -1.421875 
Q 18.84375 -1.421875 12.171875 6.21875 
Q 5.515625 13.875 5.515625 27.296875 
Q 5.515625 40.765625 12.171875 48.375 
Q 18.84375 56 30.609375 56 
" id="BitstreamVeraSans-Roman-6f"/>
     <path d="M 53.515625 70.515625 
L 53.515625 60.890625 
Q 47.90625 63.578125 42.921875 64.890625 
Q 37.9375 66.21875 33.296875 66.21875 
Q 25.25 66.21875 20.875 63.09375 
Q 16.5 59.96875 16.5 54.203125 
Q 16.5 49.359375 19.40625 46.890625 
Q 22.3125 44.4375 30.421875 42.921875 
L 36.375 41.703125 
Q 47.40625 39.59375 52.65625 34.296875 
Q 57.90625 29 57.90625 20.125 
Q 57.90625 9.515625 50.796875 4.046875 
Q 43.703125 -1.421875 29.984375 -1.421875 
Q 24.8125 -1.421875 18.96875 -0.25 
Q 13.140625 0.921875 6.890625 3.21875 
L 6.890625 13.375 
Q 12.890625 10.015625 18.65625 8.296875 
Q 24.421875 6.59375 29.984375 6.59375 
Q 38.421875 6.59375 43.015625 9.90625 
Q 47.609375 13.234375 47.609375 19.390625 
Q 47.609375 24.75 44.3125 27.78125 
Q 41.015625 30.8125 33.5 32.328125 
L 27.484375 33.5 
Q 16.453125 35.6875 11.515625 40.375 
Q 6.59375 45.0625 6.59375 53.421875 
Q 6.59375 63.09375 13.40625 68.65625 
Q 20.21875 74.21875 32.171875 74.21875 
Q 37.3125 74.21875 42.625 73.28125 
Q 47.953125 72.359375 53.515625 70.515625 
" id="BitstreamVeraSans-Roman-53"/>
     <path d="M 54.890625 33.015625 
L 54.890625 0 
L 45.90625 0 
L 45.90625 32.71875 
Q 45.90625 40.484375 42.875 44.328125 
Q 39.84375 48.1875 33.796875 48.1875 
Q 26.515625 48.1875 22.3125 43.546875 
Q 18.109375 38.921875 18.109375 30.90625 
L 18.109375 0 
L 9.078125 0 
L 9.078125 75.984375 
L 18.109375 75.984375 
L 18.109375 46.1875 
Q 21.34375 51.125 25.703125 53.5625 
Q 30.078125 56 35.796875 56 
Q 45.21875 56 50.046875 50.171875 
Q 54.890625 44.34375 54.890625 33.015625 
" id="BitstreamVeraSans-Roman-68"/>
     <path d="M 4.203125 54.6875 
L 13.1875 54.6875 
L 24.421875 12.015625 
L 35.59375 54.6875 
L 46.1875 54.6875 
L 57.421875 12.015625 
L 68.609375 54.6875 
L 77.59375 54.6875 
L 63.28125 0 
L 52.6875 0 
L 40.921875 44.828125 
L 29.109375 0 
L 18.5 0 
z
" id="BitstreamVeraSans-Roman-77"/>
     <path d="M 18.3125 70.21875 
L 18.3125 54.6875 
L 36.8125 54.6875 
L 36.8125 47.703125 
L 18.3125 47.703125 
L 18.3125 18.015625 
Q 18.3125 11.328125 20.140625 9.421875 
Q 21.96875 7.515625 27.59375 7.515625 
L 36.8125 7.515625 
L 36.8125 0 
L 27.59375 0 
Q 17.1875 0 13.234375 3.875 
Q 9.28125 7.765625 9.28125 18.015625 
L 9.28125 47.703125 
L 2.6875 47.703125 
L 2.6875 54.6875 
L 9.28125 54.6875 
L 9.28125 70.21875 
z
" id="BitstreamVeraSans-Roman-74"/>
     <path d="M 41.109375 46.296875 
Q 39.59375 47.171875 37.8125 47.578125 
Q 36.03125 48 33.890625 48 
Q 26.265625 48 22.1875 43.046875 
Q 18.109375 38.09375 18.109375 28.8125 
L 18.109375 0 
L 9.078125 0 
L 9.078125 54.6875 
L 18.109375 54.6875 
L 18.109375 46.1875 
Q 20.953125 51.171875 25.484375 53.578125 
Q 30.03125 56 36.53125 56 
Q 37.453125 56 38.578125 55.875 
Q 39.703125 55.765625 41.0625 55.515625 
z
" id="BitstreamVeraSans-Roman-72"/>
     <path d="M 18.109375 8.203125 
L 18.109375 -20.796875 
L 9.078125 -20.796875 
L 9.078125 54.6875 
L 18.109375 54.6875 
L 18.109375 46.390625 
Q 20.953125 51.265625 25.265625 53.625 
Q 29.59375 56 35.59375 56 
Q 45.5625 56 51.78125 48.09375 
Q 58.015625 40.1875 58.015625 27.296875 
Q 58.015625 14.40625 51.78125 6.484375 
Q 45.5625 -1.421875 35.59375 -1.421875 
Q 29.59375 -1.421875 25.265625 0.953125 
Q 20.953125 3.328125 18.109375 8.203125 
M 48.6875 27.296875 
Q 48.6875 37.203125 44.609375 42.84375 
Q 40.53125 48.484375 33.40625 48.484375 
Q 26.265625 48.484375 22.1875 42.84375 
Q 18.109375 37.203125 18.109375 27.296875 
Q 18.109375 17.390625 22.1875 11.75 
Q 26.265625 6.109375 33.40625 6.109375 
Q 40.53125 6.109375 44.609375 11.75 
Q 48.6875 17.390625 48.6875 27.296875 
" id="BitstreamVeraSans-Roman-70"/>
    </defs>
    <g transform="translate(139.62825 23.8)scale(0.144 -0.144)">
     <use xlink:href="#BitstreamVeraSans-Roman-53"/>
     <use x="63.4765625" xlink:href="#BitstreamVeraSans-Roman-74"/>
     <use x="102.685546875" xlink:href="#BitstreamVeraSans-Roman-61"/>
     <use x="163.96484375" xlink:href="#BitstreamVeraSans-Roman-72"/>
     <use x="205.078125" xlink:href="#BitstreamVeraSans-Roman-20"/>
     <use x="236.865234375" xlink:href="#BitstreamVeraSans-Roman-77"/>
     <use x="318.65234375" xlink:href="#BitstreamVeraSans-Roman-69"/>
     <use x="346.435546875" xlink:href="#BitstreamVeraSans-Roman-74"/>
     <use x="385.64453125" xlink:href="#BitstreamVeraSans-Roman-68"/>
     <use x="449.0234375" xlink:href="#BitstreamVeraSans-Roman-20"/>
     <use x="480.810546875" xlink:href="#BitstreamVeraSans-Roman-61"/>
     <use x="542.08984375" xlink:href="#BitstreamVeraSans-Roman-6e"/>
     <use x="605.46875" xlink:href="#BitstreamVeraSans-Roman-20"/>
     <use x="637.255859375" xlink:href="#BitstreamVeraSans-Roman-65"/>
     <use x="698.763671875" xlink:href="#BitstreamVeraSans-Roman-78"/>
     <use x="757.896484375" xlink:href="#BitstreamVeraSans-Roman-6f"/>
     <use x="819.078125" xlink:href="#BitstreamVeraSans-Roman-70"/>
     <use x="882.5546875" xlink:href="#BitstreamVeraSans-Roman-6c"/>
     <use x="910.337890625" xlink:href="#BitstreamVeraSans-Roman-61"/>
     <use x="971.6171875" xlink:href="#BitstreamVeraSans-Roman-6e"/>
     <use x="1034.99609375" xlink:href="#BitstreamVeraSans-Roman-65"/>
     <use x="1096.51953125" xlink:href="#BitstreamVeraSans-Roman-74"/>
    </g>
   </g>
   <g id="legend_1">
    <g id="patch_7">
     <path d="M 136.62125 259.16 
L 310.17875 259.16 
Q 312.57875 259.16 312.57875 256.76 
L 312.57875 240.34625 
Q 312.57875 237.94625 310.17875 237.94625 
L 136.62125 237.94625 
Q 134.22125 237.94625 134.22125 240.34625 
L 134.22125 256.76 
Q 134.22125 259.16 136.62125 259.16 
z
" style="fill:#454545;opacity:0.5;stroke:#454545;stroke-linejoin:miter;stroke-width:0.5;"/>
    </g>
    <g id="patch_8">
     <path d="M 134.62125 257.16 
L 308.17875 257.16 
Q 310.57875 257.16 310.57875 254.76 
L 310.57875 238.34625 
Q 310.57875 235.94625 308.17875 235.94625 
L 134.62125 235.94625 
Q 132.22125 235.94625 132.22125 238.34625 
L 132.22125 254.76 
Q 132.22125 257.16 134.62125 257.16 
z
" style="fill:#e5e5e5;stroke:#ffffff;stroke-linejoin:miter;stroke-width:0.5;"/>
    </g>
    <g id="line2d_53">
     <path d="M 140.62125 245.664375 
L 157.42125 245.664375 
" style="fill:none;stroke:#e24a33;stroke-linecap:square;"/>
    </g>
    <g id="line2d_54"/>
    <g id="text_21">
     <!-- Gaussian Smoothened -->
     <defs>
      <path d="M 59.515625 10.40625 
L 59.515625 29.984375 
L 43.40625 29.984375 
L 43.40625 38.09375 
L 69.28125 38.09375 
L 69.28125 6.78125 
Q 63.578125 2.734375 56.6875 0.65625 
Q 49.8125 -1.421875 42 -1.421875 
Q 24.90625 -1.421875 15.25 8.5625 
Q 5.609375 18.5625 5.609375 36.375 
Q 5.609375 54.25 15.25 64.234375 
Q 24.90625 74.21875 42 74.21875 
Q 49.125 74.21875 55.546875 72.453125 
Q 61.96875 70.703125 67.390625 67.28125 
L 67.390625 56.78125 
Q 61.921875 61.421875 55.765625 63.765625 
Q 49.609375 66.109375 42.828125 66.109375 
Q 29.4375 66.109375 22.71875 58.640625 
Q 16.015625 51.171875 16.015625 36.375 
Q 16.015625 21.625 22.71875 14.15625 
Q 29.4375 6.6875 42.828125 6.6875 
Q 48.046875 6.6875 52.140625 7.59375 
Q 56.25 8.5 59.515625 10.40625 
" id="BitstreamVeraSans-Roman-47"/>
      <path d="M 45.40625 46.390625 
L 45.40625 75.984375 
L 54.390625 75.984375 
L 54.390625 0 
L 45.40625 0 
L 45.40625 8.203125 
Q 42.578125 3.328125 38.25 0.953125 
Q 33.9375 -1.421875 27.875 -1.421875 
Q 17.96875 -1.421875 11.734375 6.484375 
Q 5.515625 14.40625 5.515625 27.296875 
Q 5.515625 40.1875 11.734375 48.09375 
Q 17.96875 56 27.875 56 
Q 33.9375 56 38.25 53.625 
Q 42.578125 51.265625 45.40625 46.390625 
M 14.796875 27.296875 
Q 14.796875 17.390625 18.875 11.75 
Q 22.953125 6.109375 30.078125 6.109375 
Q 37.203125 6.109375 41.296875 11.75 
Q 45.40625 17.390625 45.40625 27.296875 
Q 45.40625 37.203125 41.296875 42.84375 
Q 37.203125 48.484375 30.078125 48.484375 
Q 22.953125 48.484375 18.875 42.84375 
Q 14.796875 37.203125 14.796875 27.296875 
" id="BitstreamVeraSans-Roman-64"/>
      <path d="M 44.28125 53.078125 
L 44.28125 44.578125 
Q 40.484375 46.53125 36.375 47.5 
Q 32.28125 48.484375 27.875 48.484375 
Q 21.1875 48.484375 17.84375 46.4375 
Q 14.5 44.390625 14.5 40.28125 
Q 14.5 37.15625 16.890625 35.375 
Q 19.28125 33.59375 26.515625 31.984375 
L 29.59375 31.296875 
Q 39.15625 29.25 43.1875 25.515625 
Q 47.21875 21.78125 47.21875 15.09375 
Q 47.21875 7.46875 41.1875 3.015625 
Q 35.15625 -1.421875 24.609375 -1.421875 
Q 20.21875 -1.421875 15.453125 -0.5625 
Q 10.6875 0.296875 5.421875 2 
L 5.421875 11.28125 
Q 10.40625 8.6875 15.234375 7.390625 
Q 20.0625 6.109375 24.8125 6.109375 
Q 31.15625 6.109375 34.5625 8.28125 
Q 37.984375 10.453125 37.984375 14.40625 
Q 37.984375 18.0625 35.515625 20.015625 
Q 33.0625 21.96875 24.703125 23.78125 
L 21.578125 24.515625 
Q 13.234375 26.265625 9.515625 29.90625 
Q 5.8125 33.546875 5.8125 39.890625 
Q 5.8125 47.609375 11.28125 51.796875 
Q 16.75 56 26.8125 56 
Q 31.78125 56 36.171875 55.265625 
Q 40.578125 54.546875 44.28125 53.078125 
" id="BitstreamVeraSans-Roman-73"/>
     </defs>
     <g transform="translate(170.62125 249.864375)scale(0.12 -0.12)">
      <use xlink:href="#BitstreamVeraSans-Roman-47"/>
      <use x="77.490234375" xlink:href="#BitstreamVeraSans-Roman-61"/>
      <use x="138.76953125" xlink:href="#BitstreamVeraSans-Roman-75"/>
      <use x="202.1484375" xlink:href="#BitstreamVeraSans-Roman-73"/>
      <use x="254.248046875" xlink:href="#BitstreamVeraSans-Roman-73"/>
      <use x="306.34765625" xlink:href="#BitstreamVeraSans-Roman-69"/>
      <use x="334.130859375" xlink:href="#BitstreamVeraSans-Roman-61"/>
      <use x="395.41015625" xlink:href="#BitstreamVeraSans-Roman-6e"/>
      <use x="458.7890625" xlink:href="#BitstreamVeraSans-Roman-20"/>
      <use x="490.576171875" xlink:href="#BitstreamVeraSans-Roman-53"/>
      <use x="554.052734375" xlink:href="#BitstreamVeraSans-Roman-6d"/>
      <use x="651.46484375" xlink:href="#BitstreamVeraSans-Roman-6f"/>
      <use x="712.646484375" xlink:href="#BitstreamVeraSans-Roman-6f"/>
      <use x="773.828125" xlink:href="#BitstreamVeraSans-Roman-74"/>
      <use x="813.037109375" xlink:href="#BitstreamVeraSans-Roman-68"/>
      <use x="876.416015625" xlink:href="#BitstreamVeraSans-Roman-65"/>
      <use x="937.939453125" xlink:href="#BitstreamVeraSans-Roman-6e"/>
      <use x="1001.31835938" xlink:href="#BitstreamVeraSans-Roman-65"/>
      <use x="1062.84179688" xlink:href="#BitstreamVeraSans-Roman-64"/>
     </g>
    </g>
   </g>
  </g>
 </g>
 <defs>
  <clipPath id="pa42bec5209">
   <rect height="223.2" width="334.8" x="54.0" y="28.8"/>
  </clipPath>
 </defs>
</svg>
