<?xml version="1.0" encoding="utf-8" standalone="no"?>
<!DOCTYPE svg PUBLIC "-//W3C//DTD SVG 1.1//EN"
  "http://www.w3.org/Graphics/SVG/1.1/DTD/svg11.dtd">
<!-- Created with matplotlib (http://matplotlib.org/) -->
<svg height="288pt" version="1.1" viewBox="0 0 432 288" width="432pt" xmlns="http://www.w3.org/2000/svg" xmlns:xlink="http://www.w3.org/1999/xlink">
 <defs>
  <style type="text/css">
*{stroke-linecap:butt;stroke-linejoin:round;stroke-miterlimit:100000;}
  </style>
 </defs>
 <g id="figure_1">
  <g id="patch_1">
   <path d="M 0 288 
L 432 288 
L 432 0 
L 0 0 
z
" style="fill:#ffffff;"/>
  </g>
  <g id="axes_1">
   <g id="patch_2">
    <path d="M 54 252 
L 388.8 252 
L 388.8 28.8 
L 54 28.8 
z
" style="fill:#e5e5e5;"/>
   </g>
   <g id="matplotlib.axis_1">
    <g id="xtick_1">
     <g id="line2d_1">
      <path clip-path="url(#p6f1248add9)" d="M 79.753846 252 
L 79.753846 28.8 
" style="fill:none;stroke:#ffffff;stroke-linecap:square;stroke-width:0.5;"/>
     </g>
     <g id="line2d_2">
      <defs>
       <path d="M 0 0 
L 0 4 
" id="m2d19b5fed8" style="stroke:#555555;stroke-width:0.5;"/>
      </defs>
      <g>
       <use style="fill:#555555;stroke:#555555;stroke-width:0.5;" x="79.7538461538" xlink:href="#m2d19b5fed8" y="252.0"/>
      </g>
     </g>
     <g id="line2d_3">
      <defs>
       <path d="M 0 0 
L 0 -4 
" id="maf9824b308" style="stroke:#555555;stroke-width:0.5;"/>
      </defs>
      <g>
       <use style="fill:#555555;stroke:#555555;stroke-width:0.5;" x="79.7538461538" xlink:href="#maf9824b308" y="28.8"/>
      </g>
     </g>
     <g id="text_1">
      <!-- 0 -->
      <defs>
       <path d="M 31.78125 66.40625 
Q 24.171875 66.40625 20.328125 58.90625 
Q 16.5 51.421875 16.5 36.375 
Q 16.5 21.390625 20.328125 13.890625 
Q 24.171875 6.390625 31.78125 6.390625 
Q 39.453125 6.390625 43.28125 13.890625 
Q 47.125 21.390625 47.125 36.375 
Q 47.125 51.421875 43.28125 58.90625 
Q 39.453125 66.40625 31.78125 66.40625 
M 31.78125 74.21875 
Q 44.046875 74.21875 50.515625 64.515625 
Q 56.984375 54.828125 56.984375 36.375 
Q 56.984375 17.96875 50.515625 8.265625 
Q 44.046875 -1.421875 31.78125 -1.421875 
Q 19.53125 -1.421875 13.0625 8.265625 
Q 6.59375 17.96875 6.59375 36.375 
Q 6.59375 54.828125 13.0625 64.515625 
Q 19.53125 74.21875 31.78125 74.21875 
" id="BitstreamVeraSans-Roman-30"/>
      </defs>
      <g style="fill:#555555;" transform="translate(76.5725961538 267.5984375)scale(0.1 -0.1)">
       <use xlink:href="#BitstreamVeraSans-Roman-30"/>
      </g>
     </g>
    </g>
    <g id="xtick_2">
     <g id="line2d_4">
      <path clip-path="url(#p6f1248add9)" d="M 122.676923 252 
L 122.676923 28.8 
" style="fill:none;stroke:#ffffff;stroke-linecap:square;stroke-width:0.5;"/>
     </g>
     <g id="line2d_5">
      <g>
       <use style="fill:#555555;stroke:#555555;stroke-width:0.5;" x="122.676923077" xlink:href="#m2d19b5fed8" y="252.0"/>
      </g>
     </g>
     <g id="line2d_6">
      <g>
       <use style="fill:#555555;stroke:#555555;stroke-width:0.5;" x="122.676923077" xlink:href="#maf9824b308" y="28.8"/>
      </g>
     </g>
     <g id="text_2">
      <!-- 500 -->
      <defs>
       <path d="M 10.796875 72.90625 
L 49.515625 72.90625 
L 49.515625 64.59375 
L 19.828125 64.59375 
L 19.828125 46.734375 
Q 21.96875 47.46875 24.109375 47.828125 
Q 26.265625 48.1875 28.421875 48.1875 
Q 40.625 48.1875 47.75 41.5 
Q 54.890625 34.8125 54.890625 23.390625 
Q 54.890625 11.625 47.5625 5.09375 
Q 40.234375 -1.421875 26.90625 -1.421875 
Q 22.3125 -1.421875 17.546875 -0.640625 
Q 12.796875 0.140625 7.71875 1.703125 
L 7.71875 11.625 
Q 12.109375 9.234375 16.796875 8.0625 
Q 21.484375 6.890625 26.703125 6.890625 
Q 35.15625 6.890625 40.078125 11.328125 
Q 45.015625 15.765625 45.015625 23.390625 
Q 45.015625 31 40.078125 35.4375 
Q 35.15625 39.890625 26.703125 39.890625 
Q 22.75 39.890625 18.8125 39.015625 
Q 14.890625 38.140625 10.796875 36.28125 
z
" id="BitstreamVeraSans-Roman-35"/>
      </defs>
      <g style="fill:#555555;" transform="translate(113.133173077 267.5984375)scale(0.1 -0.1)">
       <use xlink:href="#BitstreamVeraSans-Roman-35"/>
       <use x="63.623046875" xlink:href="#BitstreamVeraSans-Roman-30"/>
       <use x="127.24609375" xlink:href="#BitstreamVeraSans-Roman-30"/>
      </g>
     </g>
    </g>
    <g id="xtick_3">
     <g id="line2d_7">
      <path clip-path="url(#p6f1248add9)" d="M 165.6 252 
L 165.6 28.8 
" style="fill:none;stroke:#ffffff;stroke-linecap:square;stroke-width:0.5;"/>
     </g>
     <g id="line2d_8">
      <g>
       <use style="fill:#555555;stroke:#555555;stroke-width:0.5;" x="165.6" xlink:href="#m2d19b5fed8" y="252.0"/>
      </g>
     </g>
     <g id="line2d_9">
      <g>
       <use style="fill:#555555;stroke:#555555;stroke-width:0.5;" x="165.6" xlink:href="#maf9824b308" y="28.8"/>
      </g>
     </g>
     <g id="text_3">
      <!-- 1000 -->
      <defs>
       <path d="M 12.40625 8.296875 
L 28.515625 8.296875 
L 28.515625 63.921875 
L 10.984375 60.40625 
L 10.984375 69.390625 
L 28.421875 72.90625 
L 38.28125 72.90625 
L 38.28125 8.296875 
L 54.390625 8.296875 
L 54.390625 0 
L 12.40625 0 
z
" id="BitstreamVeraSans-Roman-31"/>
      </defs>
      <g style="fill:#555555;" transform="translate(152.875 267.5984375)scale(0.1 -0.1)">
       <use xlink:href="#BitstreamVeraSans-Roman-31"/>
       <use x="63.623046875" xlink:href="#BitstreamVeraSans-Roman-30"/>
       <use x="127.24609375" xlink:href="#BitstreamVeraSans-Roman-30"/>
       <use x="190.869140625" xlink:href="#BitstreamVeraSans-Roman-30"/>
      </g>
     </g>
    </g>
    <g id="xtick_4">
     <g id="line2d_10">
      <path clip-path="url(#p6f1248add9)" d="M 208.523077 252 
L 208.523077 28.8 
" style="fill:none;stroke:#ffffff;stroke-linecap:square;stroke-width:0.5;"/>
     </g>
     <g id="line2d_11">
      <g>
       <use style="fill:#555555;stroke:#555555;stroke-width:0.5;" x="208.523076923" xlink:href="#m2d19b5fed8" y="252.0"/>
      </g>
     </g>
     <g id="line2d_12">
      <g>
       <use style="fill:#555555;stroke:#555555;stroke-width:0.5;" x="208.523076923" xlink:href="#maf9824b308" y="28.8"/>
      </g>
     </g>
     <g id="text_4">
      <!-- 1500 -->
      <g style="fill:#555555;" transform="translate(195.798076923 267.5984375)scale(0.1 -0.1)">
       <use xlink:href="#BitstreamVeraSans-Roman-31"/>
       <use x="63.623046875" xlink:href="#BitstreamVeraSans-Roman-35"/>
       <use x="127.24609375" xlink:href="#BitstreamVeraSans-Roman-30"/>
       <use x="190.869140625" xlink:href="#BitstreamVeraSans-Roman-30"/>
      </g>
     </g>
    </g>
    <g id="xtick_5">
     <g id="line2d_13">
      <path clip-path="url(#p6f1248add9)" d="M 251.446154 252 
L 251.446154 28.8 
" style="fill:none;stroke:#ffffff;stroke-linecap:square;stroke-width:0.5;"/>
     </g>
     <g id="line2d_14">
      <g>
       <use style="fill:#555555;stroke:#555555;stroke-width:0.5;" x="251.446153846" xlink:href="#m2d19b5fed8" y="252.0"/>
      </g>
     </g>
     <g id="line2d_15">
      <g>
       <use style="fill:#555555;stroke:#555555;stroke-width:0.5;" x="251.446153846" xlink:href="#maf9824b308" y="28.8"/>
      </g>
     </g>
     <g id="text_5">
      <!-- 2000 -->
      <defs>
       <path d="M 19.1875 8.296875 
L 53.609375 8.296875 
L 53.609375 0 
L 7.328125 0 
L 7.328125 8.296875 
Q 12.9375 14.109375 22.625 23.890625 
Q 32.328125 33.6875 34.8125 36.53125 
Q 39.546875 41.84375 41.421875 45.53125 
Q 43.3125 49.21875 43.3125 52.78125 
Q 43.3125 58.59375 39.234375 62.25 
Q 35.15625 65.921875 28.609375 65.921875 
Q 23.96875 65.921875 18.8125 64.3125 
Q 13.671875 62.703125 7.8125 59.421875 
L 7.8125 69.390625 
Q 13.765625 71.78125 18.9375 73 
Q 24.125 74.21875 28.421875 74.21875 
Q 39.75 74.21875 46.484375 68.546875 
Q 53.21875 62.890625 53.21875 53.421875 
Q 53.21875 48.921875 51.53125 44.890625 
Q 49.859375 40.875 45.40625 35.40625 
Q 44.1875 33.984375 37.640625 27.21875 
Q 31.109375 20.453125 19.1875 8.296875 
" id="BitstreamVeraSans-Roman-32"/>
      </defs>
      <g style="fill:#555555;" transform="translate(238.721153846 267.5984375)scale(0.1 -0.1)">
       <use xlink:href="#BitstreamVeraSans-Roman-32"/>
       <use x="63.623046875" xlink:href="#BitstreamVeraSans-Roman-30"/>
       <use x="127.24609375" xlink:href="#BitstreamVeraSans-Roman-30"/>
       <use x="190.869140625" xlink:href="#BitstreamVeraSans-Roman-30"/>
      </g>
     </g>
    </g>
    <g id="xtick_6">
     <g id="line2d_16">
      <path clip-path="url(#p6f1248add9)" d="M 294.369231 252 
L 294.369231 28.8 
" style="fill:none;stroke:#ffffff;stroke-linecap:square;stroke-width:0.5;"/>
     </g>
     <g id="line2d_17">
      <g>
       <use style="fill:#555555;stroke:#555555;stroke-width:0.5;" x="294.369230769" xlink:href="#m2d19b5fed8" y="252.0"/>
      </g>
     </g>
     <g id="line2d_18">
      <g>
       <use style="fill:#555555;stroke:#555555;stroke-width:0.5;" x="294.369230769" xlink:href="#maf9824b308" y="28.8"/>
      </g>
     </g>
     <g id="text_6">
      <!-- 2500 -->
      <g style="fill:#555555;" transform="translate(281.644230769 267.5984375)scale(0.1 -0.1)">
       <use xlink:href="#BitstreamVeraSans-Roman-32"/>
       <use x="63.623046875" xlink:href="#BitstreamVeraSans-Roman-35"/>
       <use x="127.24609375" xlink:href="#BitstreamVeraSans-Roman-30"/>
       <use x="190.869140625" xlink:href="#BitstreamVeraSans-Roman-30"/>
      </g>
     </g>
    </g>
    <g id="xtick_7">
     <g id="line2d_19">
      <path clip-path="url(#p6f1248add9)" d="M 337.292308 252 
L 337.292308 28.8 
" style="fill:none;stroke:#ffffff;stroke-linecap:square;stroke-width:0.5;"/>
     </g>
     <g id="line2d_20">
      <g>
       <use style="fill:#555555;stroke:#555555;stroke-width:0.5;" x="337.292307692" xlink:href="#m2d19b5fed8" y="252.0"/>
      </g>
     </g>
     <g id="line2d_21">
      <g>
       <use style="fill:#555555;stroke:#555555;stroke-width:0.5;" x="337.292307692" xlink:href="#maf9824b308" y="28.8"/>
      </g>
     </g>
     <g id="text_7">
      <!-- 3000 -->
      <defs>
       <path d="M 40.578125 39.3125 
Q 47.65625 37.796875 51.625 33 
Q 55.609375 28.21875 55.609375 21.1875 
Q 55.609375 10.40625 48.1875 4.484375 
Q 40.765625 -1.421875 27.09375 -1.421875 
Q 22.515625 -1.421875 17.65625 -0.515625 
Q 12.796875 0.390625 7.625 2.203125 
L 7.625 11.71875 
Q 11.71875 9.328125 16.59375 8.109375 
Q 21.484375 6.890625 26.8125 6.890625 
Q 36.078125 6.890625 40.9375 10.546875 
Q 45.796875 14.203125 45.796875 21.1875 
Q 45.796875 27.640625 41.28125 31.265625 
Q 36.765625 34.90625 28.71875 34.90625 
L 20.21875 34.90625 
L 20.21875 43.015625 
L 29.109375 43.015625 
Q 36.375 43.015625 40.234375 45.921875 
Q 44.09375 48.828125 44.09375 54.296875 
Q 44.09375 59.90625 40.109375 62.90625 
Q 36.140625 65.921875 28.71875 65.921875 
Q 24.65625 65.921875 20.015625 65.03125 
Q 15.375 64.15625 9.8125 62.3125 
L 9.8125 71.09375 
Q 15.4375 72.65625 20.34375 73.4375 
Q 25.25 74.21875 29.59375 74.21875 
Q 40.828125 74.21875 47.359375 69.109375 
Q 53.90625 64.015625 53.90625 55.328125 
Q 53.90625 49.265625 50.4375 45.09375 
Q 46.96875 40.921875 40.578125 39.3125 
" id="BitstreamVeraSans-Roman-33"/>
      </defs>
      <g style="fill:#555555;" transform="translate(324.567307692 267.5984375)scale(0.1 -0.1)">
       <use xlink:href="#BitstreamVeraSans-Roman-33"/>
       <use x="63.623046875" xlink:href="#BitstreamVeraSans-Roman-30"/>
       <use x="127.24609375" xlink:href="#BitstreamVeraSans-Roman-30"/>
       <use x="190.869140625" xlink:href="#BitstreamVeraSans-Roman-30"/>
      </g>
     </g>
    </g>
    <g id="xtick_8">
     <g id="line2d_22">
      <path clip-path="url(#p6f1248add9)" d="M 380.215385 252 
L 380.215385 28.8 
" style="fill:none;stroke:#ffffff;stroke-linecap:square;stroke-width:0.5;"/>
     </g>
     <g id="line2d_23">
      <g>
       <use style="fill:#555555;stroke:#555555;stroke-width:0.5;" x="380.215384615" xlink:href="#m2d19b5fed8" y="252.0"/>
      </g>
     </g>
     <g id="line2d_24">
      <g>
       <use style="fill:#555555;stroke:#555555;stroke-width:0.5;" x="380.215384615" xlink:href="#maf9824b308" y="28.8"/>
      </g>
     </g>
     <g id="text_8">
      <!-- 3500 -->
      <g style="fill:#555555;" transform="translate(367.490384615 267.5984375)scale(0.1 -0.1)">
       <use xlink:href="#BitstreamVeraSans-Roman-33"/>
       <use x="63.623046875" xlink:href="#BitstreamVeraSans-Roman-35"/>
       <use x="127.24609375" xlink:href="#BitstreamVeraSans-Roman-30"/>
       <use x="190.869140625" xlink:href="#BitstreamVeraSans-Roman-30"/>
      </g>
     </g>
    </g>
    <g id="text_9">
     <!-- Time -->
     <defs>
      <path d="M 56.203125 29.59375 
L 56.203125 25.203125 
L 14.890625 25.203125 
Q 15.484375 15.921875 20.484375 11.0625 
Q 25.484375 6.203125 34.421875 6.203125 
Q 39.59375 6.203125 44.453125 7.46875 
Q 49.3125 8.734375 54.109375 11.28125 
L 54.109375 2.78125 
Q 49.265625 0.734375 44.1875 -0.34375 
Q 39.109375 -1.421875 33.890625 -1.421875 
Q 20.796875 -1.421875 13.15625 6.1875 
Q 5.515625 13.8125 5.515625 26.8125 
Q 5.515625 40.234375 12.765625 48.109375 
Q 20.015625 56 32.328125 56 
Q 43.359375 56 49.78125 48.890625 
Q 56.203125 41.796875 56.203125 29.59375 
M 47.21875 32.234375 
Q 47.125 39.59375 43.09375 43.984375 
Q 39.0625 48.390625 32.421875 48.390625 
Q 24.90625 48.390625 20.390625 44.140625 
Q 15.875 39.890625 15.1875 32.171875 
z
" id="BitstreamVeraSans-Roman-65"/>
      <path d="M 9.421875 54.6875 
L 18.40625 54.6875 
L 18.40625 0 
L 9.421875 0 
z
M 9.421875 75.984375 
L 18.40625 75.984375 
L 18.40625 64.59375 
L 9.421875 64.59375 
z
" id="BitstreamVeraSans-Roman-69"/>
      <path d="M -0.296875 72.90625 
L 61.375 72.90625 
L 61.375 64.59375 
L 35.5 64.59375 
L 35.5 0 
L 25.59375 0 
L 25.59375 64.59375 
L -0.296875 64.59375 
z
" id="BitstreamVeraSans-Roman-54"/>
      <path d="M 52 44.1875 
Q 55.375 50.25 60.0625 53.125 
Q 64.75 56 71.09375 56 
Q 79.640625 56 84.28125 50.015625 
Q 88.921875 44.046875 88.921875 33.015625 
L 88.921875 0 
L 79.890625 0 
L 79.890625 32.71875 
Q 79.890625 40.578125 77.09375 44.375 
Q 74.3125 48.1875 68.609375 48.1875 
Q 61.625 48.1875 57.5625 43.546875 
Q 53.515625 38.921875 53.515625 30.90625 
L 53.515625 0 
L 44.484375 0 
L 44.484375 32.71875 
Q 44.484375 40.625 41.703125 44.40625 
Q 38.921875 48.1875 33.109375 48.1875 
Q 26.21875 48.1875 22.15625 43.53125 
Q 18.109375 38.875 18.109375 30.90625 
L 18.109375 0 
L 9.078125 0 
L 9.078125 54.6875 
L 18.109375 54.6875 
L 18.109375 46.1875 
Q 21.1875 51.21875 25.484375 53.609375 
Q 29.78125 56 35.6875 56 
Q 41.65625 56 45.828125 52.96875 
Q 50 49.953125 52 44.1875 
" id="BitstreamVeraSans-Roman-6d"/>
     </defs>
     <g style="fill:#555555;" transform="translate(206.535 283.79625)scale(0.12 -0.12)">
      <use xlink:href="#BitstreamVeraSans-Roman-54"/>
      <use x="61.037109375" xlink:href="#BitstreamVeraSans-Roman-69"/>
      <use x="88.8203125" xlink:href="#BitstreamVeraSans-Roman-6d"/>
      <use x="186.232421875" xlink:href="#BitstreamVeraSans-Roman-65"/>
     </g>
    </g>
   </g>
   <g id="matplotlib.axis_2">
    <g id="ytick_1">
     <g id="line2d_25">
      <path clip-path="url(#p6f1248add9)" d="M 54 252 
L 388.8 252 
" style="fill:none;stroke:#ffffff;stroke-linecap:square;stroke-width:0.5;"/>
     </g>
     <g id="line2d_26">
      <defs>
       <path d="M 0 0 
L -4 0 
" id="m39d352c516" style="stroke:#555555;stroke-width:0.5;"/>
      </defs>
      <g>
       <use style="fill:#555555;stroke:#555555;stroke-width:0.5;" x="54.0" xlink:href="#m39d352c516" y="252.0"/>
      </g>
     </g>
     <g id="line2d_27">
      <defs>
       <path d="M 0 0 
L 4 0 
" id="mec99608f36" style="stroke:#555555;stroke-width:0.5;"/>
      </defs>
      <g>
       <use style="fill:#555555;stroke:#555555;stroke-width:0.5;" x="388.8" xlink:href="#mec99608f36" y="252.0"/>
      </g>
     </g>
     <g id="text_10">
      <!-- −150000 -->
      <defs>
       <path d="M 10.59375 35.5 
L 73.1875 35.5 
L 73.1875 27.203125 
L 10.59375 27.203125 
z
" id="BitstreamVeraSans-Roman-2212"/>
      </defs>
      <g style="fill:#555555;" transform="translate(-0.5546875 254.759375)scale(0.1 -0.1)">
       <use xlink:href="#BitstreamVeraSans-Roman-2212"/>
       <use x="83.7890625" xlink:href="#BitstreamVeraSans-Roman-31"/>
       <use x="147.412109375" xlink:href="#BitstreamVeraSans-Roman-35"/>
       <use x="211.03515625" xlink:href="#BitstreamVeraSans-Roman-30"/>
       <use x="274.658203125" xlink:href="#BitstreamVeraSans-Roman-30"/>
       <use x="338.28125" xlink:href="#BitstreamVeraSans-Roman-30"/>
       <use x="401.904296875" xlink:href="#BitstreamVeraSans-Roman-30"/>
      </g>
     </g>
    </g>
    <g id="ytick_2">
     <g id="line2d_28">
      <path clip-path="url(#p6f1248add9)" d="M 54 220.114286 
L 388.8 220.114286 
" style="fill:none;stroke:#ffffff;stroke-linecap:square;stroke-width:0.5;"/>
     </g>
     <g id="line2d_29">
      <g>
       <use style="fill:#555555;stroke:#555555;stroke-width:0.5;" x="54.0" xlink:href="#m39d352c516" y="220.114285714"/>
      </g>
     </g>
     <g id="line2d_30">
      <g>
       <use style="fill:#555555;stroke:#555555;stroke-width:0.5;" x="388.8" xlink:href="#mec99608f36" y="220.114285714"/>
      </g>
     </g>
     <g id="text_11">
      <!-- −100000 -->
      <g style="fill:#555555;" transform="translate(-0.5546875 222.873660714)scale(0.1 -0.1)">
       <use xlink:href="#BitstreamVeraSans-Roman-2212"/>
       <use x="83.7890625" xlink:href="#BitstreamVeraSans-Roman-31"/>
       <use x="147.412109375" xlink:href="#BitstreamVeraSans-Roman-30"/>
       <use x="211.03515625" xlink:href="#BitstreamVeraSans-Roman-30"/>
       <use x="274.658203125" xlink:href="#BitstreamVeraSans-Roman-30"/>
       <use x="338.28125" xlink:href="#BitstreamVeraSans-Roman-30"/>
       <use x="401.904296875" xlink:href="#BitstreamVeraSans-Roman-30"/>
      </g>
     </g>
    </g>
    <g id="ytick_3">
     <g id="line2d_31">
      <path clip-path="url(#p6f1248add9)" d="M 54 188.228571 
L 388.8 188.228571 
" style="fill:none;stroke:#ffffff;stroke-linecap:square;stroke-width:0.5;"/>
     </g>
     <g id="line2d_32">
      <g>
       <use style="fill:#555555;stroke:#555555;stroke-width:0.5;" x="54.0" xlink:href="#m39d352c516" y="188.228571429"/>
      </g>
     </g>
     <g id="line2d_33">
      <g>
       <use style="fill:#555555;stroke:#555555;stroke-width:0.5;" x="388.8" xlink:href="#mec99608f36" y="188.228571429"/>
      </g>
     </g>
     <g id="text_12">
      <!-- −50000 -->
      <g style="fill:#555555;" transform="translate(5.8078125 190.987946429)scale(0.1 -0.1)">
       <use xlink:href="#BitstreamVeraSans-Roman-2212"/>
       <use x="83.7890625" xlink:href="#BitstreamVeraSans-Roman-35"/>
       <use x="147.412109375" xlink:href="#BitstreamVeraSans-Roman-30"/>
       <use x="211.03515625" xlink:href="#BitstreamVeraSans-Roman-30"/>
       <use x="274.658203125" xlink:href="#BitstreamVeraSans-Roman-30"/>
       <use x="338.28125" xlink:href="#BitstreamVeraSans-Roman-30"/>
      </g>
     </g>
    </g>
    <g id="ytick_4">
     <g id="line2d_34">
      <path clip-path="url(#p6f1248add9)" d="M 54 156.342857 
L 388.8 156.342857 
" style="fill:none;stroke:#ffffff;stroke-linecap:square;stroke-width:0.5;"/>
     </g>
     <g id="line2d_35">
      <g>
       <use style="fill:#555555;stroke:#555555;stroke-width:0.5;" x="54.0" xlink:href="#m39d352c516" y="156.342857143"/>
      </g>
     </g>
     <g id="line2d_36">
      <g>
       <use style="fill:#555555;stroke:#555555;stroke-width:0.5;" x="388.8" xlink:href="#mec99608f36" y="156.342857143"/>
      </g>
     </g>
     <g id="text_13">
      <!-- 0 -->
      <g style="fill:#555555;" transform="translate(39.6375 159.102232143)scale(0.1 -0.1)">
       <use xlink:href="#BitstreamVeraSans-Roman-30"/>
      </g>
     </g>
    </g>
    <g id="ytick_5">
     <g id="line2d_37">
      <path clip-path="url(#p6f1248add9)" d="M 54 124.457143 
L 388.8 124.457143 
" style="fill:none;stroke:#ffffff;stroke-linecap:square;stroke-width:0.5;"/>
     </g>
     <g id="line2d_38">
      <g>
       <use style="fill:#555555;stroke:#555555;stroke-width:0.5;" x="54.0" xlink:href="#m39d352c516" y="124.457142857"/>
      </g>
     </g>
     <g id="line2d_39">
      <g>
       <use style="fill:#555555;stroke:#555555;stroke-width:0.5;" x="388.8" xlink:href="#mec99608f36" y="124.457142857"/>
      </g>
     </g>
     <g id="text_14">
      <!-- 50000 -->
      <g style="fill:#555555;" transform="translate(14.1875 127.216517857)scale(0.1 -0.1)">
       <use xlink:href="#BitstreamVeraSans-Roman-35"/>
       <use x="63.623046875" xlink:href="#BitstreamVeraSans-Roman-30"/>
       <use x="127.24609375" xlink:href="#BitstreamVeraSans-Roman-30"/>
       <use x="190.869140625" xlink:href="#BitstreamVeraSans-Roman-30"/>
       <use x="254.4921875" xlink:href="#BitstreamVeraSans-Roman-30"/>
      </g>
     </g>
    </g>
    <g id="ytick_6">
     <g id="line2d_40">
      <path clip-path="url(#p6f1248add9)" d="M 54 92.571429 
L 388.8 92.571429 
" style="fill:none;stroke:#ffffff;stroke-linecap:square;stroke-width:0.5;"/>
     </g>
     <g id="line2d_41">
      <g>
       <use style="fill:#555555;stroke:#555555;stroke-width:0.5;" x="54.0" xlink:href="#m39d352c516" y="92.5714285714"/>
      </g>
     </g>
     <g id="line2d_42">
      <g>
       <use style="fill:#555555;stroke:#555555;stroke-width:0.5;" x="388.8" xlink:href="#mec99608f36" y="92.5714285714"/>
      </g>
     </g>
     <g id="text_15">
      <!-- 100000 -->
      <g style="fill:#555555;" transform="translate(7.825 95.3308035714)scale(0.1 -0.1)">
       <use xlink:href="#BitstreamVeraSans-Roman-31"/>
       <use x="63.623046875" xlink:href="#BitstreamVeraSans-Roman-30"/>
       <use x="127.24609375" xlink:href="#BitstreamVeraSans-Roman-30"/>
       <use x="190.869140625" xlink:href="#BitstreamVeraSans-Roman-30"/>
       <use x="254.4921875" xlink:href="#BitstreamVeraSans-Roman-30"/>
       <use x="318.115234375" xlink:href="#BitstreamVeraSans-Roman-30"/>
      </g>
     </g>
    </g>
    <g id="ytick_7">
     <g id="line2d_43">
      <path clip-path="url(#p6f1248add9)" d="M 54 60.685714 
L 388.8 60.685714 
" style="fill:none;stroke:#ffffff;stroke-linecap:square;stroke-width:0.5;"/>
     </g>
     <g id="line2d_44">
      <g>
       <use style="fill:#555555;stroke:#555555;stroke-width:0.5;" x="54.0" xlink:href="#m39d352c516" y="60.6857142857"/>
      </g>
     </g>
     <g id="line2d_45">
      <g>
       <use style="fill:#555555;stroke:#555555;stroke-width:0.5;" x="388.8" xlink:href="#mec99608f36" y="60.6857142857"/>
      </g>
     </g>
     <g id="text_16">
      <!-- 150000 -->
      <g style="fill:#555555;" transform="translate(7.825 63.4450892857)scale(0.1 -0.1)">
       <use xlink:href="#BitstreamVeraSans-Roman-31"/>
       <use x="63.623046875" xlink:href="#BitstreamVeraSans-Roman-35"/>
       <use x="127.24609375" xlink:href="#BitstreamVeraSans-Roman-30"/>
       <use x="190.869140625" xlink:href="#BitstreamVeraSans-Roman-30"/>
       <use x="254.4921875" xlink:href="#BitstreamVeraSans-Roman-30"/>
       <use x="318.115234375" xlink:href="#BitstreamVeraSans-Roman-30"/>
      </g>
     </g>
    </g>
    <g id="ytick_8">
     <g id="line2d_46">
      <path clip-path="url(#p6f1248add9)" d="M 54 28.8 
L 388.8 28.8 
" style="fill:none;stroke:#ffffff;stroke-linecap:square;stroke-width:0.5;"/>
     </g>
     <g id="line2d_47">
      <g>
       <use style="fill:#555555;stroke:#555555;stroke-width:0.5;" x="54.0" xlink:href="#m39d352c516" y="28.8"/>
      </g>
     </g>
     <g id="line2d_48">
      <g>
       <use style="fill:#555555;stroke:#555555;stroke-width:0.5;" x="388.8" xlink:href="#mec99608f36" y="28.8"/>
      </g>
     </g>
     <g id="text_17">
      <!-- 200000 -->
      <g style="fill:#555555;" transform="translate(7.825 31.559375)scale(0.1 -0.1)">
       <use xlink:href="#BitstreamVeraSans-Roman-32"/>
       <use x="63.623046875" xlink:href="#BitstreamVeraSans-Roman-30"/>
       <use x="127.24609375" xlink:href="#BitstreamVeraSans-Roman-30"/>
       <use x="190.869140625" xlink:href="#BitstreamVeraSans-Roman-30"/>
       <use x="254.4921875" xlink:href="#BitstreamVeraSans-Roman-30"/>
       <use x="318.115234375" xlink:href="#BitstreamVeraSans-Roman-30"/>
      </g>
     </g>
    </g>
    <g id="text_18">
     <!-- Flux -->
     <defs>
      <path d="M 9.8125 72.90625 
L 51.703125 72.90625 
L 51.703125 64.59375 
L 19.671875 64.59375 
L 19.671875 43.109375 
L 48.578125 43.109375 
L 48.578125 34.8125 
L 19.671875 34.8125 
L 19.671875 0 
L 9.8125 0 
z
" id="BitstreamVeraSans-Roman-46"/>
      <path d="M 8.5 21.578125 
L 8.5 54.6875 
L 17.484375 54.6875 
L 17.484375 21.921875 
Q 17.484375 14.15625 20.5 10.265625 
Q 23.53125 6.390625 29.59375 6.390625 
Q 36.859375 6.390625 41.078125 11.03125 
Q 45.3125 15.671875 45.3125 23.6875 
L 45.3125 54.6875 
L 54.296875 54.6875 
L 54.296875 0 
L 45.3125 0 
L 45.3125 8.40625 
Q 42.046875 3.421875 37.71875 1 
Q 33.40625 -1.421875 27.6875 -1.421875 
Q 18.265625 -1.421875 13.375 4.4375 
Q 8.5 10.296875 8.5 21.578125 
" id="BitstreamVeraSans-Roman-75"/>
      <path d="M 54.890625 54.6875 
L 35.109375 28.078125 
L 55.90625 0 
L 45.3125 0 
L 29.390625 21.484375 
L 13.484375 0 
L 2.875 0 
L 24.125 28.609375 
L 4.6875 54.6875 
L 15.28125 54.6875 
L 29.78125 35.203125 
L 44.28125 54.6875 
z
" id="BitstreamVeraSans-Roman-78"/>
      <path d="M 9.421875 75.984375 
L 18.40625 75.984375 
L 18.40625 0 
L 9.421875 0 
z
" id="BitstreamVeraSans-Roman-6c"/>
     </defs>
     <g style="fill:#555555;" transform="translate(-8.0503125 152.8715625)rotate(-90.0)scale(0.12 -0.12)">
      <use xlink:href="#BitstreamVeraSans-Roman-46"/>
      <use x="57.51953125" xlink:href="#BitstreamVeraSans-Roman-6c"/>
      <use x="85.302734375" xlink:href="#BitstreamVeraSans-Roman-75"/>
      <use x="148.681640625" xlink:href="#BitstreamVeraSans-Roman-78"/>
     </g>
    </g>
   </g>
   <g id="line2d_49">
    <path clip-path="url(#p6f1248add9)" d="M 79.753846 60.222861 
L 80.526462 164.220331 
L 80.612308 169.241018 
L 80.955692 208.87542 
L 81.041538 207.287709 
L 81.299077 181.205016 
L 81.728308 148.940499 
L 81.814154 149.886013 
L 81.9 145.944754 
L 81.985846 148.008958 
L 82.071692 155.721532 
L 82.157538 154.715997 
L 82.243385 154.908969 
L 82.329231 155.395284 
L 82.672615 182.607088 
L 82.758462 193.967171 
L 82.930154 184.282166 
L 83.616923 119.578361 
L 83.702769 120.356748 
L 83.788615 120.035162 
L 84.561231 190.837952 
L 84.732923 180.507873 
L 84.990462 161.637053 
L 85.333846 147.518817 
L 85.505538 154.628056 
L 85.677231 116.365492 
L 85.763077 111.891908 
L 86.192308 130.368946 
L 86.449846 159.337276 
L 86.707385 191.124483 
L 86.879077 180.797657 
L 87.222462 155.892344 
L 87.394154 147.393245 
L 87.48 150.003805 
L 87.565846 149.674725 
L 87.737538 116.896134 
L 88.080923 123.124811 
L 88.252615 119.152942 
L 88.338462 121.514264 
L 88.424308 120.759548 
L 88.510154 123.769119 
L 89.196923 192.961355 
L 89.712 157.705844 
L 89.797846 156.890265 
L 89.969538 149.713645 
L 90.398769 155.705213 
L 90.484615 160.364794 
L 90.656308 157.482899 
L 90.828 195.616523 
L 91.343077 154.761613 
L 91.428923 150.975446 
L 91.514769 152.898811 
L 91.600615 150.56183 
L 91.686462 152.638706 
L 91.858154 142.422581 
L 92.287385 187.741964 
L 92.459077 194.291468 
L 92.716615 182.292 
L 93.06 159.156121 
L 93.317538 153.516973 
L 93.403385 154.655771 
L 93.489231 153.604544 
L 93.746769 162.297482 
L 93.918462 162.305575 
L 94.176 185.549406 
L 94.261846 188.610173 
L 94.347692 187.711755 
L 94.776923 157.174188 
L 94.862769 158.807272 
L 94.948615 151.166084 
L 95.034462 153.482957 
L 95.120308 153.127094 
L 95.292 150.931545 
L 95.549538 162.234393 
L 95.807077 180.335512 
L 95.978769 129.755739 
L 96.064615 130.956918 
L 96.322154 153.234606 
L 96.665538 179.941124 
L 96.751385 179.123816 
L 96.923077 192.334826 
L 97.008923 190.709746 
L 97.609846 158.798765 
L 97.695692 157.71541 
L 97.781538 154.762155 
L 97.867385 155.374954 
L 98.039077 130.800978 
L 98.124923 130.696967 
L 98.382462 143.146808 
L 98.64 166.879664 
L 98.897538 194.252912 
L 98.983385 192.43586 
L 99.240923 172.799042 
L 99.498462 159.819306 
L 99.584308 156.91615 
L 99.670154 157.004677 
L 99.756 157.330026 
L 99.841846 159.006022 
L 99.927692 156.64815 
L 100.099385 177.03821 
L 100.271077 192.248034 
L 100.442769 185.024663 
L 100.700308 164.046573 
L 100.786154 164.545011 
L 101.043692 154.8829 
L 101.129538 157.521423 
L 101.215385 154.093467 
L 101.301231 154.207981 
L 101.387077 154.629988 
L 101.644615 160.699849 
L 101.730462 162.679792 
L 101.988 174.904099 
L 102.159692 191.772139 
L 102.245538 195.061151 
L 102.417231 183.08406 
L 102.674769 166.236089 
L 102.932308 156.106514 
L 103.018154 153.339829 
L 103.189846 136.436 
L 103.275692 148.950779 
L 103.361538 139.1815 
L 103.619077 174.361264 
L 103.790769 193.347836 
L 103.876615 194.839366 
L 104.048308 183.269176 
L 104.22 146.771671 
L 104.391692 156.53671 
L 104.820923 193.556866 
L 104.906769 190.409726 
L 104.992615 193.590562 
L 105.250154 176.795241 
L 105.336 177.51177 
L 105.421846 175.204086 
L 105.679385 159.244668 
L 105.765231 159.653143 
L 105.936923 155.056237 
L 106.022769 155.970764 
L 106.108615 152.630652 
L 106.280308 129.557052 
L 106.366154 128.706125 
L 106.452 128.874481 
L 106.537846 131.65577 
L 106.623692 130.905499 
L 106.709538 131.419299 
L 106.795385 130.42303 
L 107.052923 145.790012 
L 107.825538 190.273734 
L 108.512308 157.46901 
L 108.598154 156.324332 
L 108.769846 151.063291 
L 108.941538 147.291587 
L 109.027385 148.833402 
L 109.113231 148.015992 
L 109.199077 149.792804 
L 109.370769 131.560017 
L 109.542462 129.404479 
L 109.628308 129.142124 
L 109.714154 126.565694 
L 109.971692 137.086105 
L 110.229231 161.894587 
L 110.315077 168.548696 
L 110.486769 155.766172 
L 110.572615 157.360477 
L 110.916 169.486678 
L 111.001846 168.615382 
L 111.259385 178.003971 
L 111.516923 190.187343 
L 111.602769 195.404145 
L 111.688615 193.400626 
L 111.774462 196.582182 
L 112.117846 177.143375 
L 112.289538 172.503245 
L 112.461231 153.663807 
L 112.547077 154.569642 
L 112.632923 156.942538 
L 112.718769 152.390253 
L 112.804615 155.568404 
L 113.062154 148.924021 
L 113.148 149.260173 
L 113.233846 151.987836 
L 113.319692 150.658164 
L 113.491385 134.263607 
L 113.577231 131.992184 
L 113.834769 136.70567 
L 113.920615 136.280098 
L 114.006462 132.639464 
L 114.092308 137.672942 
L 114.178154 137.081424 
L 114.349846 133.698752 
L 114.435692 135.229444 
L 114.521538 134.228507 
L 114.779077 138.5837 
L 114.864923 137.044201 
L 114.950769 138.444755 
L 115.036615 136.412302 
L 115.122462 136.454608 
L 115.208308 137.077757 
L 115.38 139.928079 
L 115.551692 148.083214 
L 115.723385 152.720372 
L 115.980923 162.449718 
L 116.925231 195.998132 
L 117.268615 184.164527 
L 117.440308 174.359255 
L 118.127077 151.984667 
L 118.212923 151.797242 
L 118.384615 150.478628 
L 118.470462 151.816214 
L 118.556308 150.272283 
L 118.642154 146.455308 
L 118.728 149.904188 
L 118.813846 147.501497 
L 118.899692 151.732132 
L 118.985538 151.552634 
L 119.071385 152.041124 
L 119.157231 149.374362 
L 119.328923 155.484066 
L 119.414769 150.04502 
L 119.500615 154.951454 
L 119.672308 191.301685 
L 119.758154 200.283412 
L 119.929846 192.407182 
L 120.187385 179.767665 
L 120.273231 178.286076 
L 120.444923 171.626943 
L 120.530769 171.27648 
L 120.702462 143.285708 
L 120.788308 139.799362 
L 120.874154 141.996728 
L 120.96 140.403973 
L 121.217538 143.782169 
L 121.303385 141.32936 
L 121.389231 144.236457 
L 121.475077 141.494388 
L 121.646769 144.346125 
L 121.990154 137.648435 
L 122.076 139.2094 
L 122.419385 134.656356 
L 122.591077 141.275135 
L 122.676923 140.521357 
L 122.762769 137.211735 
L 122.848615 137.247887 
L 122.934462 138.575391 
L 123.020308 137.931121 
L 123.106154 138.540636 
L 123.192 137.100434 
L 123.277846 140.794675 
L 123.363692 136.922672 
L 123.449538 140.504279 
L 123.621231 137.041586 
L 123.792923 140.827855 
L 123.878769 137.532148 
L 123.964615 138.569269 
L 124.050462 138.374588 
L 124.136308 135.863014 
L 124.222154 139.519686 
L 124.308 139.362611 
L 124.393846 138.673299 
L 124.479692 136.967732 
L 124.565538 137.495199 
L 124.651385 135.022047 
L 124.737231 138.250533 
L 124.908923 136.477228 
L 124.994769 136.648716 
L 125.080615 139.044506 
L 125.166462 136.592176 
L 125.338154 137.780735 
L 125.424 141.138684 
L 125.509846 135.93952 
L 125.595692 138.771986 
L 125.853231 136.68092 
L 126.024923 140.788062 
L 126.110769 134.940241 
L 126.282462 138.954767 
L 126.368308 136.150738 
L 126.54 140.22209 
L 126.625846 138.34304 
L 126.883385 142.01452 
L 126.969231 141.966156 
L 127.055077 140.032906 
L 127.140923 143.49954 
L 127.226769 139.164696 
L 127.398462 142.103265 
L 127.484308 138.884982 
L 127.570154 140.858089 
L 127.656 140.228786 
L 127.741846 138.513832 
L 127.827692 140.926286 
L 127.913538 137.014566 
L 128.085231 141.380856 
L 128.256923 141.575594 
L 128.600308 138.780894 
L 128.686154 139.158319 
L 128.772 137.252969 
L 128.943692 171.295535 
L 129.029538 171.295535 
L 129.115385 169.226152 
L 129.201231 170.373298 
L 129.287077 169.628327 
L 129.372923 171.686492 
L 129.716308 165.519177 
L 129.802154 166.435853 
L 129.888 166.322218 
L 129.973846 163.994982 
L 130.059692 164.671871 
L 130.145538 164.747504 
L 130.488923 154.60177 
L 130.574769 159.000602 
L 130.746462 155.704435 
L 130.918154 160.514854 
L 131.004 158.634273 
L 131.175692 160.516888 
L 131.347385 160.516888 
L 131.433231 158.954488 
L 131.519077 159.495525 
L 131.604923 153.208581 
L 131.776615 156.70455 
L 131.948308 155.212617 
L 132.12 159.481814 
L 132.205846 154.04243 
L 132.291692 155.828828 
L 132.377538 154.402784 
L 132.463385 146.827152 
L 132.549231 147.614251 
L 132.806769 144.04652 
L 132.892615 145.924691 
L 132.978462 145.229742 
L 133.064308 145.739633 
L 133.150154 143.861583 
L 133.236 148.153617 
L 133.321846 146.418441 
L 133.407692 142.212193 
L 133.579385 150.82682 
L 133.665231 148.116311 
L 133.751077 144.388533 
L 133.836923 148.838325 
L 133.922769 146.625099 
L 134.008615 149.135678 
L 134.180308 146.163611 
L 134.266154 145.939754 
L 134.352 146.231827 
L 134.437846 147.311579 
L 134.867077 138.99634 
L 134.952923 141.965716 
L 135.038769 138.359423 
L 135.124615 140.77078 
L 135.210462 138.730177 
L 135.382154 141.196837 
L 135.468 141.150322 
L 135.553846 138.273669 
L 135.639692 141.16814 
L 135.811385 138.50361 
L 135.983077 141.104049 
L 136.068923 140.868733 
L 136.240615 142.234455 
L 136.326462 141.857069 
L 136.412308 142.89118 
L 136.498154 145.649294 
L 136.669846 142.678183 
L 136.927385 148.825991 
L 137.013231 144.805082 
L 137.184923 174.618543 
L 137.270769 173.797448 
L 137.7 160.688472 
L 138.043385 150.781938 
L 138.129231 152.78482 
L 138.472615 140.616472 
L 138.644308 138.480926 
L 138.816 142.611982 
L 138.901846 141.253249 
L 138.987692 141.602398 
L 139.073538 143.078387 
L 139.331077 140.906014 
L 139.588615 143.550417 
L 139.674462 138.110835 
L 139.760308 140.864683 
L 139.846154 138.258766 
L 139.932 141.097073 
L 140.017846 140.483509 
L 140.103692 138.489236 
L 140.189538 142.684261 
L 140.447077 166.178694 
L 140.532923 163.644239 
L 140.790462 135.567331 
L 140.876308 135.642205 
L 140.962154 140.236713 
L 141.133846 171.418455 
L 141.305538 139.343097 
L 141.391385 138.475232 
L 141.648923 146.034556 
L 141.734769 140.397876 
L 141.820615 143.563847 
L 141.906462 142.066698 
L 141.992308 143.865748 
L 142.078154 143.55548 
L 142.164 144.548759 
L 142.335692 167.990996 
L 142.507385 156.823247 
L 142.936615 141.217722 
L 143.194154 137.332486 
L 143.365846 138.508233 
L 143.451692 137.859538 
L 143.537538 141.673286 
L 143.709231 137.725337 
L 143.795077 141.201594 
L 143.880923 139.887227 
L 143.966769 139.946496 
L 144.052615 139.902774 
L 144.224308 136.482808 
L 144.481846 141.094579 
L 144.567692 139.423908 
L 144.739385 143.975058 
L 144.911077 135.411531 
L 144.996923 138.426504 
L 145.168615 208.54935 
L 145.340308 140.857968 
L 145.426154 140.857968 
L 145.597846 137.903202 
L 145.683692 139.047695 
L 145.769538 134.498382 
L 145.855385 136.157115 
L 145.941231 124.353285 
L 146.112923 136.051917 
L 146.198769 142.927593 
L 146.456308 137.481073 
L 146.628 141.818423 
L 146.799692 135.596749 
L 146.885538 135.888184 
L 146.971385 139.853071 
L 147.057231 138.989044 
L 147.228923 144.737803 
L 147.486462 138.694286 
L 147.572308 139.989401 
L 147.658154 138.720012 
L 147.744 139.016288 
L 147.829846 139.419801 
L 147.915692 138.11 
L 148.001538 139.178847 
L 148.087385 143.481346 
L 148.259077 136.583388 
L 148.344923 137.809196 
L 148.516615 145.485784 
L 148.602462 137.840821 
L 148.688308 139.374568 
L 148.774154 135.820663 
L 148.86 139.118641 
L 148.945846 137.273695 
L 149.031692 137.549366 
L 149.117538 137.540476 
L 149.203385 137.31405 
L 149.289231 137.663696 
L 149.375077 141.519539 
L 149.546769 176.597192 
L 149.804308 167.468727 
L 149.890154 169.102736 
L 150.491077 140.259754 
L 150.576923 139.516415 
L 150.662769 140.79009 
L 150.834462 134.709465 
L 150.920308 135.594714 
L 151.177846 141.871832 
L 151.263692 140.981806 
L 151.349538 137.794051 
L 151.435385 141.027262 
L 151.521231 140.513124 
L 151.778769 139.153441 
L 151.864615 133.347505 
L 151.950462 134.158741 
L 152.036308 133.678938 
L 152.379692 181.677001 
L 152.465538 208.482983 
L 152.637231 137.532645 
L 152.723077 150.134677 
L 152.808923 140.82459 
L 152.894769 141.416108 
L 152.980615 144.374886 
L 153.152308 138.065098 
L 153.238154 136.627729 
L 153.324 130.765642 
L 153.409846 132.743972 
L 153.495692 147.616547 
L 153.581538 147.095273 
L 153.667385 147.095273 
L 153.924923 139.168803 
L 154.010769 139.445514 
L 154.096615 142.290912 
L 154.268308 139.338333 
L 154.354154 139.78342 
L 154.44 138.928646 
L 154.525846 140.032728 
L 154.611692 144.310694 
L 154.697538 144.195943 
L 154.783385 144.350092 
L 154.869231 140.300886 
L 154.955077 142.541253 
L 155.040923 140.7091 
L 155.212615 135.305792 
L 155.470154 127.883352 
L 155.556 129.264342 
L 155.727692 141.055558 
L 155.813538 142.873904 
L 155.899385 138.570289 
L 155.985231 139.494274 
L 156.071077 139.291142 
L 156.242769 139.639876 
L 156.328615 141.377826 
L 156.414462 140.716874 
L 156.500308 137.758798 
L 156.586154 141.321669 
L 156.672 140.690147 
L 156.757846 141.568682 
L 157.101231 131.185679 
L 157.187077 129.612393 
L 157.272923 135.963454 
L 157.616308 223.505599 
L 157.788 144.743242 
L 157.959692 142.05145 
L 158.045538 142.764179 
L 158.131385 142.527925 
L 158.217231 140.649136 
L 158.303077 143.096109 
L 158.560615 139.15874 
L 158.646462 131.74609 
L 158.818154 176.614168 
L 158.904 181.657614 
L 158.989846 193.659774 
L 159.075692 190.540936 
L 159.934154 145.035736 
L 160.02 146.564535 
L 160.105846 144.616599 
L 160.191692 145.621694 
L 160.277538 145.513321 
L 160.363385 146.104322 
L 160.449231 148.874598 
L 160.620923 144.4474 
L 160.878462 151.51515 
L 161.136 140.294407 
L 161.393538 133.302967 
L 161.479385 125.864247 
L 161.651077 132.534304 
L 161.822769 162.532761 
L 161.908615 162.532761 
L 162.080308 150.910737 
L 162.166154 145.237554 
L 162.252 148.178131 
L 162.423692 144.810642 
L 162.509538 144.954683 
L 162.681231 143.538205 
L 162.767077 144.256386 
L 162.852923 145.979273 
L 163.024615 143.866506 
L 163.196308 141.187246 
L 163.282154 141.695727 
L 163.368 140.561833 
L 163.711385 130.047595 
L 163.797231 129.252946 
L 163.968923 191.808527 
L 164.999077 148.196166 
L 165.084923 146.848458 
L 165.170769 147.516662 
L 165.428308 143.116472 
L 165.514154 143.387978 
L 165.685846 140.817116 
L 165.771692 143.331783 
L 165.857538 140.831503 
L 165.943385 141.082125 
L 166.029231 141.962929 
L 166.115077 138.145291 
L 166.200923 140.547459 
L 166.458462 127.081248 
L 166.544308 126.166925 
L 166.630154 126.419243 
L 166.716 137.388586 
L 166.887692 200.791237 
L 167.059385 147.257967 
L 167.145231 145.273961 
L 167.231077 146.239518 
L 167.316923 143.489216 
L 167.488615 145.257438 
L 167.574462 144.318404 
L 167.746154 146.618301 
L 167.917846 136.381271 
L 168.089538 159.369755 
L 168.604615 200.025954 
L 169.119692 157.241008 
L 169.205538 154.72937 
L 169.291385 146.570594 
L 169.377231 149.737444 
L 169.548923 145.00343 
L 169.720615 147.327701 
L 169.806462 148.69121 
L 169.892308 145.046692 
L 169.978154 147.464726 
L 170.149846 192.351822 
L 170.321538 181.214441 
L 170.407385 183.151556 
L 170.579077 196.028346 
L 170.664923 194.241433 
L 170.922462 170.463892 
L 171.094154 156.99557 
L 171.18 151.502778 
L 171.265846 152.192262 
L 171.437538 144.508487 
L 171.523385 145.519379 
L 171.609231 146.112134 
L 171.695077 145.133345 
L 171.780923 142.063306 
L 171.952615 145.68734 
L 172.038462 151.094896 
L 172.124308 142.681633 
L 172.210154 146.917051 
L 172.381846 142.597136 
L 172.811077 123.122694 
L 172.896923 125.141978 
L 173.068615 163.321473 
L 173.154462 148.878603 
L 173.240308 148.878603 
L 173.326154 143.39294 
L 173.412 144.106663 
L 173.497846 143.389356 
L 173.583692 143.732963 
L 173.669538 142.800325 
L 174.012923 121.581581 
L 174.098769 124.070178 
L 174.270462 148.408964 
L 174.356308 147.574974 
L 174.442154 143.853912 
L 174.528 146.659338 
L 174.613846 141.287131 
L 174.699692 144.627995 
L 174.871385 139.34605 
L 175.043077 124.333675 
L 175.300615 146.878552 
L 175.472308 142.717345 
L 175.558154 143.380689 
L 175.815692 132.318158 
L 175.901538 137.132798 
L 176.416615 194.661846 
L 176.502462 195.497169 
L 176.931692 145.099266 
L 177.017538 143.200854 
L 177.103385 143.767916 
L 177.189231 143.60086 
L 177.275077 141.008411 
L 177.360923 142.42533 
L 177.446769 139.841413 
L 177.532615 147.333536 
L 177.704308 137.907404 
L 177.961846 118.736795 
L 178.047692 133.621843 
L 178.219385 202.924008 
L 178.391077 150.948662 
L 178.648615 138.688145 
L 178.820308 144.6386 
L 179.077846 134.935056 
L 179.249538 122.185196 
L 179.421231 179.193404 
L 179.936308 146.945927 
L 180.022154 148.489533 
L 180.279692 142.27511 
L 180.451385 156.589264 
L 180.966462 195.676086 
L 181.052308 191.875787 
L 181.481538 149.312025 
L 181.653231 151.642495 
L 181.910769 145.849938 
L 182.082462 147.513894 
L 182.34 130.046836 
L 182.511692 188.472625 
L 182.769231 197.004145 
L 182.855077 194.130764 
L 183.370154 158.001322 
L 183.627692 152.506298 
L 183.971077 144.060888 
L 184.056923 148.431999 
L 184.400308 122.464394 
L 184.572 143.578814 
L 184.657846 144.784318 
L 185.001231 171.58037 
L 185.258769 196.7668 
L 185.773846 155.90402 
L 185.859692 153.332897 
L 185.945538 154.162365 
L 186.117231 150.550486 
L 186.460615 141.879446 
L 186.632308 194.977215 
L 186.804 192.8818 
L 187.147385 166.837472 
L 187.233231 164.328048 
L 187.490769 149.388672 
L 187.576615 149.50334 
L 187.834154 144.262623 
L 187.92 144.639952 
L 188.005846 145.348554 
L 188.177538 141.037446 
L 188.520923 121.173042 
L 188.692615 155.447876 
L 188.778462 155.67482 
L 188.864308 151.477065 
L 188.950154 153.190285 
L 189.293538 144.337057 
L 189.379385 148.706337 
L 189.551077 141.227026 
L 189.722769 185.348762 
L 189.808615 188.614561 
L 189.894462 199.472877 
L 189.980308 197.68949 
L 190.152 184.208631 
L 190.581231 153.518969 
L 190.667077 153.90638 
L 190.838769 146.345997 
L 190.924615 149.681243 
L 191.096308 144.331815 
L 191.439692 114.273292 
L 191.525538 117.889374 
L 191.783077 178.744236 
L 192.040615 151.654095 
L 192.126462 151.161339 
L 192.298154 149.094609 
L 192.469846 142.485039 
L 192.555692 144.986371 
L 192.641538 144.053733 
L 192.984923 118.250302 
L 193.156615 112.887922 
L 193.242462 116.154613 
L 193.5 203.029773 
L 193.585846 179.609416 
L 193.843385 179.609416 
L 194.015077 199.309386 
L 194.530154 154.085616 
L 194.701846 149.696529 
L 194.873538 175.183042 
L 194.959385 175.183042 
L 195.216923 192.850297 
L 195.302769 192.626619 
L 195.388615 195.284013 
L 195.560308 182.805098 
L 195.903692 163.197182 
L 196.075385 156.011494 
L 196.161231 156.14125 
L 196.247077 154.094863 
L 196.332923 156.189181 
L 196.590462 152.188576 
L 196.762154 154.430365 
L 196.848 150.787498 
L 196.933846 152.213625 
L 197.019692 150.595489 
L 197.191385 140.81357 
L 197.277231 143.202901 
L 197.448923 130.950598 
L 197.534769 129.850044 
L 197.706462 117.140436 
L 197.792308 118.92809 
L 197.964 160.531256 
L 198.479077 195.550934 
L 198.564923 197.373203 
L 198.650769 192.795275 
L 198.908308 170.438384 
L 199.251692 153.490412 
L 199.337538 152.894806 
L 199.423385 151.103486 
L 199.509231 146.537713 
L 199.595077 147.16018 
L 199.680923 144.563464 
L 199.766769 144.616937 
L 199.852615 144.610419 
L 200.539385 107.848046 
L 200.625231 108.828213 
L 200.968615 206.372391 
L 201.054462 206.372391 
L 201.226154 200.204119 
L 201.741231 160.253748 
L 201.827077 159.685902 
L 202.084615 147.727726 
L 202.256308 138.309043 
L 202.599692 106.439572 
L 202.685538 118.416962 
L 202.857231 211.453341 
L 203.028923 152.292109 
L 203.114769 152.292109 
L 203.372308 144.856156 
L 203.458154 145.078482 
L 203.544 135.360731 
L 203.629846 139.011447 
L 203.973231 123.013785 
L 204.144923 195.104777 
L 204.316615 186.679257 
L 204.66 163.463683 
L 205.518462 143.685995 
L 205.604308 145.080791 
L 205.861846 126.797184 
L 205.947692 128.572084 
L 206.033538 131.337232 
L 206.205231 147.371422 
L 206.462769 161.318157 
L 206.720308 169.419335 
L 206.892 179.31999 
L 207.063692 194.47886 
L 207.492923 171.222715 
L 207.750462 154.014135 
L 207.836308 156.632048 
L 208.008 151.449286 
L 208.093846 153.510162 
L 208.780615 109.293981 
L 208.952308 141.085275 
L 209.124 219.132933 
L 209.295692 181.059438 
L 209.467385 196.029462 
L 209.810769 164.564078 
L 209.896615 164.741522 
L 209.982462 162.925969 
L 210.068308 157.477402 
L 210.154154 159.051899 
L 210.24 155.738432 
L 210.325846 159.331256 
L 210.497538 154.307822 
L 210.583385 154.746352 
L 211.184308 132.159405 
L 211.356 186.391725 
L 211.441846 186.88073 
L 211.527692 182.327234 
L 211.613538 185.901444 
L 211.699385 177.919729 
L 211.785231 179.497931 
L 211.871077 180.208345 
L 212.128615 167.417391 
L 212.472 160.517507 
L 212.557846 160.750311 
L 212.729538 158.567134 
L 212.815385 159.333686 
L 213.072923 153.61321 
L 213.158769 153.821641 
L 213.330462 149.66544 
L 213.416308 150.519301 
L 213.502154 147.112931 
L 213.588 147.3938 
L 213.673846 146.947304 
L 213.845538 132.995212 
L 213.931385 129.983269 
L 214.274769 105.715249 
L 214.446462 159.515377 
L 214.532308 161.901602 
L 214.618154 161.503949 
L 214.704 161.959118 
L 214.789846 161.548589 
L 214.875692 161.877528 
L 215.562462 190.01472 
L 215.648308 189.746956 
L 216.077538 165.824425 
L 216.249231 167.043913 
L 216.335077 162.381482 
L 216.420923 163.813712 
L 216.678462 157.170438 
L 216.764308 161.002706 
L 217.021846 154.065528 
L 217.107692 155.319613 
L 217.279385 149.695674 
L 217.365231 144.929098 
L 217.622769 123.00478 
L 217.794462 114.79345 
L 217.880308 114.139672 
L 218.052 107.611614 
L 218.395385 132.873785 
L 218.481231 132.75892 
L 218.567077 132.75892 
L 218.652923 135.880627 
L 218.738769 133.120083 
L 218.824615 135.582196 
L 219.168 151.938075 
L 219.339692 157.330785 
L 219.425538 164.558996 
L 219.597231 134.848149 
L 219.768923 141.686538 
L 219.854769 142.127536 
L 220.026462 145.509514 
L 220.112308 143.260078 
L 220.198154 143.378853 
L 220.455692 149.494494 
L 220.541538 148.860485 
L 220.799077 154.344592 
L 220.884923 151.649452 
L 221.142462 157.279251 
L 221.228308 156.29976 
L 221.314154 163.489549 
L 221.4 163.396149 
L 221.485846 164.325337 
L 221.743385 173.15182 
L 221.829231 172.510158 
L 222.000923 176.802772 
L 222.258462 181.465841 
L 222.344308 184.039477 
L 222.430154 183.75424 
L 222.516 182.146722 
L 222.687692 185.66987 
L 222.773538 185.467874 
L 222.859385 184.573684 
L 222.945231 187.312444 
L 223.460308 167.677699 
L 223.546154 161.365527 
L 223.717846 169.157834 
L 223.803692 165.292571 
L 223.889538 165.88754 
L 224.318769 153.222432 
L 224.404615 153.327514 
L 224.490462 154.271191 
L 224.748 146.95717 
L 224.833846 146.465269 
L 224.919692 138.648371 
L 225.005538 142.919462 
L 225.520615 129.541511 
L 225.606462 118.614417 
L 225.778154 143.694081 
L 225.864 144.223486 
L 226.035692 150.894239 
L 226.121538 149.354095 
L 226.379077 151.928388 
L 226.464923 151.314493 
L 226.550769 154.316488 
L 226.894154 177.280662 
L 226.98 175.453668 
L 227.151692 187.94908 
L 227.237538 187.712233 
L 227.409231 185.527226 
L 227.495077 185.435632 
L 227.580923 184.644808 
L 227.666769 181.746933 
L 227.838462 141.174134 
L 227.924308 141.349786 
L 228.010154 140.592341 
L 228.096 144.226617 
L 228.181846 143.817619 
L 228.525231 147.139511 
L 228.696923 146.007071 
L 228.782769 145.105005 
L 228.954462 148.458885 
L 229.040308 146.619659 
L 229.212 148.374904 
L 229.297846 148.022688 
L 229.383692 149.932802 
L 229.469538 148.098857 
L 229.555385 148.715029 
L 229.727077 147.823084 
L 229.812923 152.388423 
L 229.898769 149.969789 
L 230.070462 157.603153 
L 230.156308 155.656766 
L 230.242154 159.729426 
L 230.328 158.572957 
L 230.499692 162.006308 
L 230.671385 156.630198 
L 230.757231 153.318784 
L 230.843077 156.851166 
L 231.014769 177.837189 
L 231.100615 179.026004 
L 231.272308 176.648126 
L 231.358154 169.426312 
L 231.529846 145.413461 
L 231.615692 146.626974 
L 231.787385 149.516177 
L 231.873231 149.808766 
L 231.959077 148.528096 
L 232.044923 151.820098 
L 232.130769 150.349408 
L 232.216615 151.818204 
L 232.302462 156.490775 
L 232.388308 155.283308 
L 232.731692 161.96133 
L 232.903385 167.971086 
L 232.989231 169.045877 
L 233.246769 180.508951 
L 233.332615 176.99128 
L 233.504308 187.982446 
L 233.676 187.769385 
L 233.761846 183.329478 
L 233.847692 184.899671 
L 233.933538 178.811017 
L 234.019385 183.276573 
L 234.105231 182.433311 
L 234.362769 172.090842 
L 234.448615 173.523709 
L 234.534462 166.903316 
L 234.620308 167.83876 
L 234.792 163.048072 
L 234.963692 167.260513 
L 235.135385 164.622793 
L 235.221231 166.609311 
L 235.307077 164.603897 
L 235.392923 165.785703 
L 235.736308 157.964214 
L 235.908 146.923964 
L 236.079692 162.824796 
L 236.251385 162.922602 
L 236.508923 165.308674 
L 236.594769 164.08476 
L 236.680615 166.097482 
L 236.852308 165.199765 
L 236.938154 165.648212 
L 237.024 164.015663 
L 237.109846 164.392259 
L 237.195692 164.541325 
L 237.281538 162.189868 
L 237.453231 164.52484 
L 237.539077 162.154335 
L 237.624923 165.310383 
L 237.710769 165.077757 
L 237.796615 164.655074 
L 237.882462 165.867809 
L 238.14 152.132042 
L 238.397538 144.119577 
L 238.569231 137.563594 
L 238.655077 136.052593 
L 238.912615 126.748304 
L 238.998462 126.823509 
L 239.170154 144.661813 
L 239.341846 144.165276 
L 239.427692 144.715043 
L 239.599385 149.337897 
L 240.114462 178.989832 
L 240.200308 175.96067 
L 240.543692 186.47714 
L 240.972923 163.500594 
L 241.144615 164.713884 
L 241.316308 162.321779 
L 241.402154 162.374486 
L 241.488 162.450872 
L 241.573846 160.495187 
L 241.745538 165.345081 
L 241.831385 165.103106 
L 241.917231 166.96131 
L 242.003077 166.258268 
L 242.174769 166.781692 
L 242.260615 165.660749 
L 242.346462 166.819814 
L 242.604 153.317847 
L 242.861538 137.524616 
L 243.634154 101.679914 
L 243.72 104.045994 
L 243.805846 93.550569 
L 243.891692 95.830078 
L 243.977538 94.242132 
L 244.320923 179.294067 
L 244.406769 175.684999 
L 244.664308 164.025592 
L 244.750154 163.823934 
L 244.836 164.025312 
L 244.921846 163.311971 
L 245.007692 165.962707 
L 245.093538 163.49495 
L 245.179385 164.290225 
L 245.522769 162.577822 
L 245.608615 165.880882 
L 245.694462 162.874595 
L 245.866154 167.041618 
L 246.123692 148.302543 
L 246.209538 151.05502 
L 247.153846 106.190468 
L 247.239692 109.391111 
L 247.411385 177.093213 
L 247.497231 177.04694 
L 247.668923 168.736464 
L 247.754769 169.587316 
L 248.012308 162.387719 
L 248.098154 164.352976 
L 248.355692 158.147735 
L 248.527385 162.827965 
L 248.613231 163.598005 
L 248.699077 163.017583 
L 248.784923 163.183969 
L 248.870769 163.146382 
L 249.128308 168.390045 
L 249.471692 163.575685 
L 249.643385 161.28872 
L 249.815077 154.879214 
L 249.900923 159.839017 
L 249.986769 148.236922 
L 250.072615 149.713307 
L 250.330154 137.769537 
L 250.416 138.311256 
L 250.587692 144.382118 
L 250.759385 141.020228 
L 250.845231 146.127982 
L 251.703692 114.016357 
L 251.789538 115.053976 
L 251.875385 115.449601 
L 251.961231 113.291512 
L 252.047077 114.066692 
L 252.132923 107.18733 
L 252.218769 109.323239 
L 252.390462 103.154986 
L 252.562154 150.621272 
L 252.733846 159.822692 
L 252.991385 166.256636 
L 253.420615 175.53946 
L 253.506462 171.411497 
L 253.764 176.759229 
L 253.849846 172.916879 
L 254.021538 177.0073 
L 254.193231 179.404691 
L 254.279077 173.839837 
L 254.364923 175.804673 
L 254.450769 175.64937 
L 254.708308 170.152471 
L 254.88 173.619921 
L 255.223385 180.549784 
L 255.395077 175.820852 
L 255.480923 175.218116 
L 255.566769 175.929123 
L 255.652615 173.826859 
L 255.738462 176.370523 
L 255.910154 173.828058 
L 255.996 180.844726 
L 256.081846 179.794672 
L 256.253538 169.277488 
L 256.425231 154.480802 
L 256.511077 155.383467 
L 256.596923 159.624886 
L 256.940308 151.787632 
L 257.026154 151.491376 
L 257.283692 164.88298 
L 257.369538 164.612526 
L 257.798769 181.424651 
L 257.884615 180.449905 
L 258.228 170.988234 
L 258.313846 171.375549 
L 258.485538 164.902386 
L 258.657231 168.266871 
L 258.743077 162.81706 
L 258.828923 163.987808 
L 258.914769 165.13621 
L 259.000615 167.85096 
L 259.172308 165.411562 
L 259.515692 159.709797 
L 259.859077 131.031709 
L 260.374154 89.963987 
L 260.46 90.835583 
L 260.631692 106.282216 
L 260.803385 155.547219 
L 261.146769 176.145588 
L 261.404308 231.836303 
L 261.490154 228.646335 
L 261.747692 177.90341 
L 261.833538 179.280994 
L 261.919385 181.149452 
L 262.091077 178.332272 
L 262.176923 181.056945 
L 262.262769 177.550537 
L 262.348615 177.81309 
L 262.434462 175.14388 
L 262.520308 180.094857 
L 262.606154 175.880758 
L 262.692 177.115137 
L 262.777846 180.234574 
L 262.863692 178.585483 
L 262.949538 181.74243 
L 263.035385 176.579138 
L 263.121231 179.020245 
L 263.292923 173.59308 
L 263.378769 172.308283 
L 263.464615 176.516438 
L 263.550462 175.312976 
L 263.636308 173.41063 
L 263.722154 174.207677 
L 263.808 169.869428 
L 264.065538 175.151092 
L 264.151385 169.162458 
L 264.237231 172.144728 
L 264.323077 171.482226 
L 264.408923 170.266781 
L 264.494769 172.755856 
L 264.666462 166.996544 
L 264.752308 167.589038 
L 264.838154 169.621095 
L 265.009846 166.240489 
L 265.095692 171.102327 
L 265.181538 168.056903 
L 265.267385 170.002391 
L 265.353231 168.189707 
L 265.439077 171.701479 
L 265.610769 167.662375 
L 265.696615 167.887571 
L 265.868308 172.15226 
L 265.954154 169.417805 
L 266.04 171.435074 
L 266.125846 168.204375 
L 266.211692 169.927874 
L 266.297538 167.611396 
L 266.383385 169.007531 
L 266.555077 167.176118 
L 266.726769 169.882399 
L 266.812615 173.656449 
L 267.070154 167.512952 
L 267.156 172.299974 
L 267.241846 171.489974 
L 267.499385 175.550422 
L 267.585231 179.879629 
L 267.671077 178.338114 
L 267.842769 182.075413 
L 268.100308 175.989291 
L 268.186154 176.33814 
L 268.443692 165.326128 
L 268.872923 144.817358 
L 269.044615 160.524815 
L 269.731385 140.370117 
L 269.817231 141.924864 
L 269.903077 140.981704 
L 269.988923 136.035056 
L 270.160615 142.81364 
L 270.246462 140.470876 
L 270.418154 143.976729 
L 270.675692 151.566046 
L 270.761538 148.803372 
L 270.933231 154.211629 
L 271.104923 168.49898 
L 271.448308 177.757909 
L 271.534154 175.7465 
L 271.62 177.541386 
L 271.705846 176.768935 
L 271.963385 178.243209 
L 272.049231 176.43541 
L 272.392615 155.606048 
L 272.736 139.68208 
L 273.079385 145.281473 
L 273.336923 154.024536 
L 273.508615 144.669924 
L 273.680308 141.752503 
L 273.766154 143.650302 
L 273.937846 140.154308 
L 274.023692 139.271737 
L 274.195385 176.983609 
L 274.281231 175.214844 
L 274.367077 180.35771 
L 274.452923 175.627624 
L 274.796308 145.235877 
L 274.882154 149.998091 
L 274.968 147.183718 
L 275.139692 156.162671 
L 275.397231 146.667686 
L 275.483077 145.284062 
L 275.568923 139.154952 
L 275.654769 143.419947 
L 275.826462 134.725829 
L 275.998154 137.39773 
L 276.084 136.644054 
L 276.255692 169.651565 
L 276.427385 181.599863 
L 276.770769 140.501645 
L 276.856615 143.126101 
L 277.028308 153.31851 
L 277.114154 149.043669 
L 277.2 150.244644 
L 277.285846 150.244644 
L 277.371692 148.771664 
L 277.457538 149.402861 
L 277.543385 149.223243 
L 277.715077 155.189379 
L 277.800923 152.445498 
L 277.886769 153.576759 
L 278.058462 148.738082 
L 278.144308 146.927497 
L 278.316 180.589583 
L 278.401846 179.50126 
L 278.487692 174.866436 
L 278.745231 142.830342 
L 279.260308 160.743213 
L 279.346154 160.743213 
L 279.689538 180.346869 
L 279.947077 152.767021 
L 280.032923 139.692469 
L 280.290462 160.503018 
L 280.891385 134.955208 
L 280.977231 140.236414 
L 281.148923 135.926842 
L 281.234769 135.795952 
L 281.406462 158.253717 
L 281.492308 159.255445 
L 281.749846 148.362035 
L 281.835692 144.884375 
L 281.921538 135.900479 
L 282.007385 136.669977 
L 282.093231 135.708642 
L 282.264923 138.19912 
L 282.436615 148.715648 
L 282.608308 160.14153 
L 282.694154 159.078282 
L 282.951692 144.280204 
L 283.037538 142.617798 
L 283.209231 136.744992 
L 283.295077 136.170328 
L 283.466769 154.023758 
L 283.552615 161.391373 
L 283.724308 153.402943 
L 283.981846 137.511505 
L 284.067692 135.865322 
L 284.153538 138.803112 
L 284.239385 138.122454 
L 284.325231 163.754226 
L 284.496923 149.062998 
L 284.668615 161.38402 
L 284.840308 181.702592 
L 284.926154 174.416305 
L 285.183692 146.730558 
L 285.441231 169.772234 
L 285.527077 169.772234 
L 285.870462 148.067067 
L 285.956308 149.170835 
L 286.128 157.027176 
L 286.299692 167.030458 
L 286.385538 160.870539 
L 286.643077 170.374134 
L 286.900615 185.371363 
L 286.986462 179.120066 
L 287.158154 156.75563 
L 287.329846 149.679668 
L 287.587385 166.335132 
L 287.930769 145.937662 
L 288.102462 137.51206 
L 288.188308 140.16543 
L 288.274154 136.960794 
L 288.36 141.611128 
L 288.445846 137.018169 
L 288.617538 148.627662 
L 288.875077 161.962204 
L 288.960923 165.42695 
L 289.218462 152.279788 
L 289.476 139.517493 
L 289.647692 154.54479 
L 289.733538 150.928912 
L 289.905231 156.834841 
L 290.076923 167.944863 
L 290.162769 163.685091 
L 290.420308 145.867832 
L 290.506154 138.943072 
L 290.677846 182.56996 
L 290.763692 186.837028 
L 290.849538 182.15579 
L 291.021231 159.257498 
L 291.192923 154.190559 
L 291.536308 174.715578 
L 291.708 219.837747 
L 291.793846 215.846714 
L 291.965538 184.132201 
L 292.137231 154.73252 
L 292.223077 152.90772 
L 292.394769 167.52371 
L 292.652308 153.799704 
L 292.738154 153.799704 
L 292.824 150.369438 
L 292.909846 153.221156 
L 292.995692 165.680939 
L 293.081538 164.965838 
L 293.424923 136.874926 
L 293.510769 139.793228 
L 293.596615 135.43445 
L 293.768308 153.738126 
L 293.854154 154.235677 
L 293.94 152.063966 
L 294.197538 171.905407 
L 294.283385 169.212123 
L 294.626769 151.733407 
L 295.056 186.943845 
L 295.141846 181.684756 
L 295.399385 149.057622 
L 295.828615 174.226547 
L 295.914462 171.510604 
L 296.343692 145.158018 
L 296.429538 146.527146 
L 296.687077 129.619906 
L 296.858769 155.359074 
L 297.030462 162.321218 
L 297.116308 173.949422 
L 297.459692 152.151308 
L 297.631385 144.825884 
L 297.717231 143.39667 
L 297.888923 162.51361 
L 297.974769 172.905464 
L 298.060615 169.927874 
L 298.318154 156.622029 
L 298.575692 139.252223 
L 298.661538 137.508973 
L 298.747385 132.231926 
L 298.919077 166.482125 
L 299.004923 175.357935 
L 299.605846 139.196104 
L 299.691692 140.409834 
L 299.777538 138.529016 
L 299.949231 154.738738 
L 300.035077 158.791393 
L 300.206769 176.479655 
L 300.292615 172.583157 
L 300.550154 147.469732 
L 300.807692 134.039865 
L 300.979385 172.347381 
L 301.065231 173.71311 
L 301.580308 135.358582 
L 301.666154 130.810741 
L 301.837846 215.646051 
L 302.009538 185.089053 
L 302.181231 172.912536 
L 302.352923 156.273538 
L 302.438769 157.744502 
L 302.524615 156.919421 
L 302.782154 174.127522 
L 302.868 173.174918 
L 303.039692 158.301807 
L 303.297231 174.654536 
L 303.383077 173.11774 
L 303.468923 173.61281 
L 303.640615 166.74325 
L 303.898154 146.156896 
L 304.069846 186.398759 
L 304.413231 186.398759 
L 304.499077 191.417653 
L 304.584923 187.657007 
L 304.842462 162.090825 
L 305.014154 153.830492 
L 305.185846 159.95209 
L 305.357538 176.284272 
L 305.700923 161.220447 
L 305.958462 146.246335 
L 306.130154 187.411991 
L 306.387692 153.149056 
L 306.731077 177.339849 
L 306.988615 157.767001 
L 307.160308 193.080767 
L 307.246154 193.511945 
L 307.503692 158.092598 
L 307.589538 158.151428 
L 307.675385 160.480456 
L 307.847077 180.676408 
L 308.104615 168.523608 
L 308.190462 168.523608 
L 308.276308 159.507565 
L 308.362154 160.194046 
L 308.448 164.685582 
L 308.619692 177.429212 
L 308.791385 161.71539 
L 309.048923 142.628505 
L 309.220615 165.491136 
L 309.306462 176.941679 
L 309.392308 174.365568 
L 309.478154 171.175422 
L 309.993231 127.78927 
L 310.079077 177.345269 
L 310.250769 131.10166 
L 310.336615 131.10166 
L 310.508308 143.187558 
L 310.68 161.600123 
L 310.937538 196.449276 
L 311.023385 192.632378 
L 311.280923 163.614126 
L 311.452615 159.273524 
L 311.796 180.519913 
L 311.881846 179.15801 
L 312.225231 157.928362 
L 312.311077 157.928362 
L 312.568615 195.850781 
L 312.654462 190.573855 
L 312.912 160.171388 
L 312.997846 160.016264 
L 313.083692 163.335426 
L 313.169538 173.806892 
L 313.341231 158.872638 
L 313.512923 166.387029 
L 313.684615 180.795642 
L 313.770462 178.512325 
L 314.028 154.939918 
L 314.199692 139.86455 
L 314.371385 183.194123 
L 314.543077 193.369932 
L 314.800615 161.336568 
L 314.886462 161.424611 
L 314.972308 167.074485 
L 315.144 182.435205 
L 315.229846 178.470835 
L 315.401538 158.870368 
L 315.487385 163.380525 
L 315.659077 182.244988 
L 316.088308 141.75587 
L 316.174154 140.035036 
L 316.26 130.372912 
L 316.431692 191.934578 
L 316.517538 187.265074 
L 316.775077 158.742085 
L 316.946769 171.156654 
L 317.032615 179.06132 
L 317.461846 145.06826 
L 317.719385 198.703418 
L 317.805231 191.36191 
L 317.976923 162.691532 
L 318.062769 162.314624 
L 318.234462 180.6622 
L 318.492 157.509364 
L 318.749538 163.793343 
L 318.921231 174.424621 
L 319.007077 181.928082 
L 319.178769 167.589019 
L 319.350462 153.680572 
L 319.522154 178.335321 
L 319.693846 195.392902 
L 320.037231 158.729771 
L 320.208923 164.004344 
L 320.380615 182.093588 
L 320.552308 140.749914 
L 320.981538 197.09287 
L 321.239077 158.406851 
L 321.496615 165.891921 
L 321.668308 184.887918 
L 321.754154 188.245879 
L 322.011692 166.495198 
L 322.269231 128.933247 
L 322.440923 120.180363 
L 322.612615 188.439368 
L 322.784308 155.169973 
L 322.870154 156.315148 
L 323.041846 171.752496 
L 323.127692 180.052488 
L 323.642769 136.391755 
L 323.986154 191.661477 
L 324.243692 156.959195 
L 324.329538 161.542429 
L 324.501231 177.950741 
L 324.672923 143.983329 
L 324.930462 196.390587 
L 325.188 158.299294 
L 325.273846 160.944036 
L 325.445538 178.500865 
L 325.531385 173.625163 
L 325.788923 168.688196 
L 326.046462 136.99298 
L 326.218154 120.062163 
L 326.304 136.15899 
L 326.475692 223.612499 
L 326.647385 170.322243 
L 326.733231 170.322243 
L 326.990769 153.525742 
L 327.076615 154.951352 
L 327.334154 179.533108 
L 327.42 173.659364 
L 327.591692 162.607271 
L 327.763385 183.006202 
L 327.849231 190.102304 
L 327.935077 188.057734 
L 328.192615 160.164628 
L 328.278462 160.473364 
L 328.536 175.732452 
L 328.707692 174.777213 
L 328.793538 174.777213 
L 328.879385 191.058658 
L 328.965231 188.46633 
L 329.222769 152.435512 
L 329.480308 171.117549 
L 329.566154 178.634032 
L 329.652 171.637191 
L 329.823692 150.540703 
L 330.081231 190.43308 
L 330.167077 185.763257 
L 330.338769 155.315289 
L 330.424615 153.663749 
L 330.682154 173.275198 
L 330.853846 166.298183 
L 330.939692 178.585745 
L 331.626462 114.393425 
L 331.884 153.286184 
L 331.969846 155.287848 
L 332.055692 154.215213 
L 332.313231 174.860435 
L 332.484923 164.247574 
L 332.742462 130.353698 
L 332.914154 181.175662 
L 333.515077 114.174784 
L 333.600923 133.182598 
L 333.772615 192.327308 
L 333.944308 192.327308 
L 334.201846 158.628074 
L 334.373538 173.115432 
L 334.802769 118.927854 
L 335.403692 191.750157 
L 335.661231 153.85815 
L 335.747077 152.190591 
L 335.832923 161.932474 
L 336.004615 154.23046 
L 336.090462 151.535518 
L 336.433846 176.025762 
L 336.519692 171.285268 
L 336.863077 138.398884 
L 337.292308 191.01926 
L 337.378154 185.936097 
L 337.549846 153.984602 
L 337.635692 153.600596 
L 337.807385 155.41555 
L 337.893231 162.874499 
L 338.064923 126.579743 
L 338.322462 171.197206 
L 338.494154 188.862549 
L 338.751692 154.893722 
L 338.837538 152.625908 
L 339.009231 157.25512 
L 339.180923 177.452265 
L 339.953538 117.964064 
L 340.125231 179.632534 
L 340.296923 155.017655 
L 340.382769 151.034753 
L 340.468615 154.468583 
L 340.640308 177.533637 
L 340.983692 147.691536 
L 341.155385 175.360243 
L 341.842154 107.903126 
L 342.185538 189.638545 
L 342.271385 189.638545 
L 342.528923 152.83488 
L 342.614769 151.930863 
L 342.786462 175.199303 
L 342.872308 173.255231 
L 343.044 150.494073 
L 343.215692 164.597641 
L 343.301538 163.990894 
L 343.473231 175.695802 
L 343.730769 161.498088 
L 344.074154 128.935919 
L 344.245846 164.39194 
L 344.417538 149.36655 
L 344.503385 149.700196 
L 344.846769 174.71964 
L 345.104308 155.453156 
L 345.276 156.797777 
L 345.361846 150.173482 
L 345.619385 160.472166 
L 345.791077 175.315068 
L 345.876923 173.479088 
L 346.134462 147.666901 
L 346.306154 157.552212 
L 346.392 153.079526 
L 346.563692 159.111302 
L 346.735385 175.566448 
L 346.907077 166.366023 
L 347.164615 139.744079 
L 347.336308 159.275558 
L 347.508 148.224646 
L 347.851385 172.296728 
L 348.194769 147.354421 
L 348.366462 170.673923 
L 348.538154 194.148103 
L 348.795692 152.296432 
L 349.053231 161.834323 
L 349.224923 179.486574 
L 349.396615 165.159544 
L 349.568308 189.754335 
L 349.654154 180.553272 
L 349.825846 152.236124 
L 349.911692 154.035377 
L 350.169231 177.706936 
L 350.255077 172.9063 
L 350.426769 190.631013 
L 350.684308 156.101929 
L 350.770154 157.653787 
L 350.856 160.941683 
L 351.027692 176.945984 
L 351.285231 149.123625 
L 351.456923 157.747391 
L 351.800308 180.314588 
L 351.972 178.740308 
L 352.057846 178.870924 
L 352.143692 177.280918 
L 352.401231 144.984101 
L 352.487077 144.984101 
L 352.744615 194.488662 
L 353.173846 153.769253 
L 353.259692 155.706488 
L 353.517231 177.763852 
L 353.603077 176.661678 
L 353.946462 150.319952 
L 354.118154 134.937671 
L 354.118154 134.937671 
" style="fill:none;stroke:#e24a33;stroke-linecap:square;"/>
   </g>
   <g id="patch_3">
    <path d="M 54 28.8 
L 388.8 28.8 
" style="fill:none;stroke:#ffffff;stroke-linecap:square;stroke-linejoin:miter;"/>
   </g>
   <g id="patch_4">
    <path d="M 388.8 252 
L 388.8 28.8 
" style="fill:none;stroke:#ffffff;stroke-linecap:square;stroke-linejoin:miter;"/>
   </g>
   <g id="patch_5">
    <path d="M 54 252 
L 388.8 252 
" style="fill:none;stroke:#ffffff;stroke-linecap:square;stroke-linejoin:miter;"/>
   </g>
   <g id="patch_6">
    <path d="M 54 252 
L 54 28.8 
" style="fill:none;stroke:#ffffff;stroke-linecap:square;stroke-linejoin:miter;"/>
   </g>
   <g id="text_19">
    <!-- Star with an exoplanet -->
    <defs>
     <path id="BitstreamVeraSans-Roman-20"/>
     <path d="M 54.890625 33.015625 
L 54.890625 0 
L 45.90625 0 
L 45.90625 32.71875 
Q 45.90625 40.484375 42.875 44.328125 
Q 39.84375 48.1875 33.796875 48.1875 
Q 26.515625 48.1875 22.3125 43.546875 
Q 18.109375 38.921875 18.109375 30.90625 
L 18.109375 0 
L 9.078125 0 
L 9.078125 54.6875 
L 18.109375 54.6875 
L 18.109375 46.1875 
Q 21.34375 51.125 25.703125 53.5625 
Q 30.078125 56 35.796875 56 
Q 45.21875 56 50.046875 50.171875 
Q 54.890625 44.34375 54.890625 33.015625 
" id="BitstreamVeraSans-Roman-6e"/>
     <path d="M 34.28125 27.484375 
Q 23.390625 27.484375 19.1875 25 
Q 14.984375 22.515625 14.984375 16.5 
Q 14.984375 11.71875 18.140625 8.90625 
Q 21.296875 6.109375 26.703125 6.109375 
Q 34.1875 6.109375 38.703125 11.40625 
Q 43.21875 16.703125 43.21875 25.484375 
L 43.21875 27.484375 
z
M 52.203125 31.203125 
L 52.203125 0 
L 43.21875 0 
L 43.21875 8.296875 
Q 40.140625 3.328125 35.546875 0.953125 
Q 30.953125 -1.421875 24.3125 -1.421875 
Q 15.921875 -1.421875 10.953125 3.296875 
Q 6 8.015625 6 15.921875 
Q 6 25.140625 12.171875 29.828125 
Q 18.359375 34.515625 30.609375 34.515625 
L 43.21875 34.515625 
L 43.21875 35.40625 
Q 43.21875 41.609375 39.140625 45 
Q 35.0625 48.390625 27.6875 48.390625 
Q 23 48.390625 18.546875 47.265625 
Q 14.109375 46.140625 10.015625 43.890625 
L 10.015625 52.203125 
Q 14.9375 54.109375 19.578125 55.046875 
Q 24.21875 56 28.609375 56 
Q 40.484375 56 46.34375 49.84375 
Q 52.203125 43.703125 52.203125 31.203125 
" id="BitstreamVeraSans-Roman-61"/>
     <path d="M 30.609375 48.390625 
Q 23.390625 48.390625 19.1875 42.75 
Q 14.984375 37.109375 14.984375 27.296875 
Q 14.984375 17.484375 19.15625 11.84375 
Q 23.34375 6.203125 30.609375 6.203125 
Q 37.796875 6.203125 41.984375 11.859375 
Q 46.1875 17.53125 46.1875 27.296875 
Q 46.1875 37.015625 41.984375 42.703125 
Q 37.796875 48.390625 30.609375 48.390625 
M 30.609375 56 
Q 42.328125 56 49.015625 48.375 
Q 55.71875 40.765625 55.71875 27.296875 
Q 55.71875 13.875 49.015625 6.21875 
Q 42.328125 -1.421875 30.609375 -1.421875 
Q 18.84375 -1.421875 12.171875 6.21875 
Q 5.515625 13.875 5.515625 27.296875 
Q 5.515625 40.765625 12.171875 48.375 
Q 18.84375 56 30.609375 56 
" id="BitstreamVeraSans-Roman-6f"/>
     <path d="M 53.515625 70.515625 
L 53.515625 60.890625 
Q 47.90625 63.578125 42.921875 64.890625 
Q 37.9375 66.21875 33.296875 66.21875 
Q 25.25 66.21875 20.875 63.09375 
Q 16.5 59.96875 16.5 54.203125 
Q 16.5 49.359375 19.40625 46.890625 
Q 22.3125 44.4375 30.421875 42.921875 
L 36.375 41.703125 
Q 47.40625 39.59375 52.65625 34.296875 
Q 57.90625 29 57.90625 20.125 
Q 57.90625 9.515625 50.796875 4.046875 
Q 43.703125 -1.421875 29.984375 -1.421875 
Q 24.8125 -1.421875 18.96875 -0.25 
Q 13.140625 0.921875 6.890625 3.21875 
L 6.890625 13.375 
Q 12.890625 10.015625 18.65625 8.296875 
Q 24.421875 6.59375 29.984375 6.59375 
Q 38.421875 6.59375 43.015625 9.90625 
Q 47.609375 13.234375 47.609375 19.390625 
Q 47.609375 24.75 44.3125 27.78125 
Q 41.015625 30.8125 33.5 32.328125 
L 27.484375 33.5 
Q 16.453125 35.6875 11.515625 40.375 
Q 6.59375 45.0625 6.59375 53.421875 
Q 6.59375 63.09375 13.40625 68.65625 
Q 20.21875 74.21875 32.171875 74.21875 
Q 37.3125 74.21875 42.625 73.28125 
Q 47.953125 72.359375 53.515625 70.515625 
" id="BitstreamVeraSans-Roman-53"/>
     <path d="M 54.890625 33.015625 
L 54.890625 0 
L 45.90625 0 
L 45.90625 32.71875 
Q 45.90625 40.484375 42.875 44.328125 
Q 39.84375 48.1875 33.796875 48.1875 
Q 26.515625 48.1875 22.3125 43.546875 
Q 18.109375 38.921875 18.109375 30.90625 
L 18.109375 0 
L 9.078125 0 
L 9.078125 75.984375 
L 18.109375 75.984375 
L 18.109375 46.1875 
Q 21.34375 51.125 25.703125 53.5625 
Q 30.078125 56 35.796875 56 
Q 45.21875 56 50.046875 50.171875 
Q 54.890625 44.34375 54.890625 33.015625 
" id="BitstreamVeraSans-Roman-68"/>
     <path d="M 4.203125 54.6875 
L 13.1875 54.6875 
L 24.421875 12.015625 
L 35.59375 54.6875 
L 46.1875 54.6875 
L 57.421875 12.015625 
L 68.609375 54.6875 
L 77.59375 54.6875 
L 63.28125 0 
L 52.6875 0 
L 40.921875 44.828125 
L 29.109375 0 
L 18.5 0 
z
" id="BitstreamVeraSans-Roman-77"/>
     <path d="M 18.3125 70.21875 
L 18.3125 54.6875 
L 36.8125 54.6875 
L 36.8125 47.703125 
L 18.3125 47.703125 
L 18.3125 18.015625 
Q 18.3125 11.328125 20.140625 9.421875 
Q 21.96875 7.515625 27.59375 7.515625 
L 36.8125 7.515625 
L 36.8125 0 
L 27.59375 0 
Q 17.1875 0 13.234375 3.875 
Q 9.28125 7.765625 9.28125 18.015625 
L 9.28125 47.703125 
L 2.6875 47.703125 
L 2.6875 54.6875 
L 9.28125 54.6875 
L 9.28125 70.21875 
z
" id="BitstreamVeraSans-Roman-74"/>
     <path d="M 41.109375 46.296875 
Q 39.59375 47.171875 37.8125 47.578125 
Q 36.03125 48 33.890625 48 
Q 26.265625 48 22.1875 43.046875 
Q 18.109375 38.09375 18.109375 28.8125 
L 18.109375 0 
L 9.078125 0 
L 9.078125 54.6875 
L 18.109375 54.6875 
L 18.109375 46.1875 
Q 20.953125 51.171875 25.484375 53.578125 
Q 30.03125 56 36.53125 56 
Q 37.453125 56 38.578125 55.875 
Q 39.703125 55.765625 41.0625 55.515625 
z
" id="BitstreamVeraSans-Roman-72"/>
     <path d="M 18.109375 8.203125 
L 18.109375 -20.796875 
L 9.078125 -20.796875 
L 9.078125 54.6875 
L 18.109375 54.6875 
L 18.109375 46.390625 
Q 20.953125 51.265625 25.265625 53.625 
Q 29.59375 56 35.59375 56 
Q 45.5625 56 51.78125 48.09375 
Q 58.015625 40.1875 58.015625 27.296875 
Q 58.015625 14.40625 51.78125 6.484375 
Q 45.5625 -1.421875 35.59375 -1.421875 
Q 29.59375 -1.421875 25.265625 0.953125 
Q 20.953125 3.328125 18.109375 8.203125 
M 48.6875 27.296875 
Q 48.6875 37.203125 44.609375 42.84375 
Q 40.53125 48.484375 33.40625 48.484375 
Q 26.265625 48.484375 22.1875 42.84375 
Q 18.109375 37.203125 18.109375 27.296875 
Q 18.109375 17.390625 22.1875 11.75 
Q 26.265625 6.109375 33.40625 6.109375 
Q 40.53125 6.109375 44.609375 11.75 
Q 48.6875 17.390625 48.6875 27.296875 
" id="BitstreamVeraSans-Roman-70"/>
    </defs>
    <g transform="translate(139.62825 23.8)scale(0.144 -0.144)">
     <use xlink:href="#BitstreamVeraSans-Roman-53"/>
     <use x="63.4765625" xlink:href="#BitstreamVeraSans-Roman-74"/>
     <use x="102.685546875" xlink:href="#BitstreamVeraSans-Roman-61"/>
     <use x="163.96484375" xlink:href="#BitstreamVeraSans-Roman-72"/>
     <use x="205.078125" xlink:href="#BitstreamVeraSans-Roman-20"/>
     <use x="236.865234375" xlink:href="#BitstreamVeraSans-Roman-77"/>
     <use x="318.65234375" xlink:href="#BitstreamVeraSans-Roman-69"/>
     <use x="346.435546875" xlink:href="#BitstreamVeraSans-Roman-74"/>
     <use x="385.64453125" xlink:href="#BitstreamVeraSans-Roman-68"/>
     <use x="449.0234375" xlink:href="#BitstreamVeraSans-Roman-20"/>
     <use x="480.810546875" xlink:href="#BitstreamVeraSans-Roman-61"/>
     <use x="542.08984375" xlink:href="#BitstreamVeraSans-Roman-6e"/>
     <use x="605.46875" xlink:href="#BitstreamVeraSans-Roman-20"/>
     <use x="637.255859375" xlink:href="#BitstreamVeraSans-Roman-65"/>
     <use x="698.763671875" xlink:href="#BitstreamVeraSans-Roman-78"/>
     <use x="757.896484375" xlink:href="#BitstreamVeraSans-Roman-6f"/>
     <use x="819.078125" xlink:href="#BitstreamVeraSans-Roman-70"/>
     <use x="882.5546875" xlink:href="#BitstreamVeraSans-Roman-6c"/>
     <use x="910.337890625" xlink:href="#BitstreamVeraSans-Roman-61"/>
     <use x="971.6171875" xlink:href="#BitstreamVeraSans-Roman-6e"/>
     <use x="1034.99609375" xlink:href="#BitstreamVeraSans-Roman-65"/>
     <use x="1096.51953125" xlink:href="#BitstreamVeraSans-Roman-74"/>
    </g>
   </g>
   <g id="legend_1">
    <g id="patch_7">
     <path d="M 140.957188 259.16 
L 305.842813 259.16 
Q 308.242813 259.16 308.242813 256.76 
L 308.242813 240.34625 
Q 308.242813 237.94625 305.842813 237.94625 
L 140.957188 237.94625 
Q 138.557187 237.94625 138.557187 240.34625 
L 138.557187 256.76 
Q 138.557187 259.16 140.957188 259.16 
z
" style="fill:#454545;opacity:0.5;stroke:#454545;stroke-linejoin:miter;stroke-width:0.5;"/>
    </g>
    <g id="patch_8">
     <path d="M 138.957188 257.16 
L 303.842813 257.16 
Q 306.242813 257.16 306.242813 254.76 
L 306.242813 238.34625 
Q 306.242813 235.94625 303.842813 235.94625 
L 138.957188 235.94625 
Q 136.557187 235.94625 136.557187 238.34625 
L 136.557187 254.76 
Q 136.557187 257.16 138.957188 257.16 
z
" style="fill:#e5e5e5;stroke:#ffffff;stroke-linejoin:miter;stroke-width:0.5;"/>
    </g>
    <g id="line2d_50">
     <path d="M 144.957188 245.664375 
L 161.757188 245.664375 
" style="fill:none;stroke:#e24a33;stroke-linecap:square;"/>
    </g>
    <g id="line2d_51"/>
    <g id="text_20">
     <!-- Sav-Gol Smoothened -->
     <defs>
      <path d="M 2.984375 54.6875 
L 12.5 54.6875 
L 29.59375 8.796875 
L 46.6875 54.6875 
L 56.203125 54.6875 
L 35.6875 0 
L 23.484375 0 
z
" id="BitstreamVeraSans-Roman-76"/>
      <path d="M 59.515625 10.40625 
L 59.515625 29.984375 
L 43.40625 29.984375 
L 43.40625 38.09375 
L 69.28125 38.09375 
L 69.28125 6.78125 
Q 63.578125 2.734375 56.6875 0.65625 
Q 49.8125 -1.421875 42 -1.421875 
Q 24.90625 -1.421875 15.25 8.5625 
Q 5.609375 18.5625 5.609375 36.375 
Q 5.609375 54.25 15.25 64.234375 
Q 24.90625 74.21875 42 74.21875 
Q 49.125 74.21875 55.546875 72.453125 
Q 61.96875 70.703125 67.390625 67.28125 
L 67.390625 56.78125 
Q 61.921875 61.421875 55.765625 63.765625 
Q 49.609375 66.109375 42.828125 66.109375 
Q 29.4375 66.109375 22.71875 58.640625 
Q 16.015625 51.171875 16.015625 36.375 
Q 16.015625 21.625 22.71875 14.15625 
Q 29.4375 6.6875 42.828125 6.6875 
Q 48.046875 6.6875 52.140625 7.59375 
Q 56.25 8.5 59.515625 10.40625 
" id="BitstreamVeraSans-Roman-47"/>
      <path d="M 4.890625 31.390625 
L 31.203125 31.390625 
L 31.203125 23.390625 
L 4.890625 23.390625 
z
" id="BitstreamVeraSans-Roman-2d"/>
      <path d="M 45.40625 46.390625 
L 45.40625 75.984375 
L 54.390625 75.984375 
L 54.390625 0 
L 45.40625 0 
L 45.40625 8.203125 
Q 42.578125 3.328125 38.25 0.953125 
Q 33.9375 -1.421875 27.875 -1.421875 
Q 17.96875 -1.421875 11.734375 6.484375 
Q 5.515625 14.40625 5.515625 27.296875 
Q 5.515625 40.1875 11.734375 48.09375 
Q 17.96875 56 27.875 56 
Q 33.9375 56 38.25 53.625 
Q 42.578125 51.265625 45.40625 46.390625 
M 14.796875 27.296875 
Q 14.796875 17.390625 18.875 11.75 
Q 22.953125 6.109375 30.078125 6.109375 
Q 37.203125 6.109375 41.296875 11.75 
Q 45.40625 17.390625 45.40625 27.296875 
Q 45.40625 37.203125 41.296875 42.84375 
Q 37.203125 48.484375 30.078125 48.484375 
Q 22.953125 48.484375 18.875 42.84375 
Q 14.796875 37.203125 14.796875 27.296875 
" id="BitstreamVeraSans-Roman-64"/>
     </defs>
     <g transform="translate(174.9571875 249.864375)scale(0.12 -0.12)">
      <use xlink:href="#BitstreamVeraSans-Roman-53"/>
      <use x="63.4765625" xlink:href="#BitstreamVeraSans-Roman-61"/>
      <use x="124.755859375" xlink:href="#BitstreamVeraSans-Roman-76"/>
      <use x="183.904296875" xlink:href="#BitstreamVeraSans-Roman-2d"/>
      <use x="220.03515625" xlink:href="#BitstreamVeraSans-Roman-47"/>
      <use x="297.525390625" xlink:href="#BitstreamVeraSans-Roman-6f"/>
      <use x="358.70703125" xlink:href="#BitstreamVeraSans-Roman-6c"/>
      <use x="386.490234375" xlink:href="#BitstreamVeraSans-Roman-20"/>
      <use x="418.27734375" xlink:href="#BitstreamVeraSans-Roman-53"/>
      <use x="481.75390625" xlink:href="#BitstreamVeraSans-Roman-6d"/>
      <use x="579.166015625" xlink:href="#BitstreamVeraSans-Roman-6f"/>
      <use x="640.34765625" xlink:href="#BitstreamVeraSans-Roman-6f"/>
      <use x="701.529296875" xlink:href="#BitstreamVeraSans-Roman-74"/>
      <use x="740.73828125" xlink:href="#BitstreamVeraSans-Roman-68"/>
      <use x="804.1171875" xlink:href="#BitstreamVeraSans-Roman-65"/>
      <use x="865.640625" xlink:href="#BitstreamVeraSans-Roman-6e"/>
      <use x="929.01953125" xlink:href="#BitstreamVeraSans-Roman-65"/>
      <use x="990.54296875" xlink:href="#BitstreamVeraSans-Roman-64"/>
     </g>
    </g>
   </g>
  </g>
 </g>
 <defs>
  <clipPath id="p6f1248add9">
   <rect height="223.2" width="334.8" x="54.0" y="28.8"/>
  </clipPath>
 </defs>
</svg>
